<svg width="41" height="50" viewBox="0 0 41 50" fill="none" xmlns="http://www.w3.org/2000/svg">
<path d="M27.4521 17.785C26.8834 17.2162 25.9646 17.2162 25.3959 17.785L18.7021 24.4787C18.1334 25.0475 18.1334 25.9662 18.7021 26.535L25.3959 33.2287C25.9646 33.7975 26.8834 33.7975 27.4521 33.2287C28.0209 32.66 28.0209 31.7412 27.4521 31.1725L21.7938 25.4995L27.4521 19.8412C28.0209 19.2725 28.0063 18.3391 27.4521 17.785Z" fill="#2F2C33"/>
<path d="M27.7699 1.87334L27.964 5.06589C28.0077 5.65869 28.4165 6.16445 28.9869 6.29212L29.2912 6.35639C31.4388 6.88306 33.4634 7.76963 35.3077 9.01476L35.5712 9.19263C36.0603 9.52842 36.7107 9.50521 37.1783 9.11507L37.8015 8.61397C37.5325 11.1659 37.2991 13.8332 37.1026 16.5586C34.5162 12.681 30.1234 10.06 25.0996 9.94437C16.924 9.75624 10.1238 16.2432 9.93586 24.4095C9.74794 32.5759 16.2426 39.3687 24.4182 39.5569C29.4229 39.672 33.8925 37.2931 36.6732 33.5581C36.7259 36.2511 36.8186 38.8686 36.9512 41.4106L36.4078 40.94C35.9581 40.5478 35.3096 40.4947 34.8059 40.7886L34.5345 40.9541C32.6353 42.094 30.5716 42.9056 28.4022 43.333L28.0952 43.3832C27.5191 43.5035 27.0688 43.9704 27.0169 44.561L26.6762 47.7413C26.6027 48.4459 25.9978 48.9856 25.291 48.9694L23.0943 48.9188C22.3684 48.9021 21.8076 48.3547 21.767 47.6283L21.5729 44.4358C21.5292 43.843 21.1204 43.3372 20.55 43.2095L20.2457 43.1453C18.0981 42.6186 16.0735 41.732 14.2292 40.4869L13.9849 40.3095C13.4957 39.9737 12.8453 39.9969 12.3777 40.387L9.86611 42.391C9.32072 42.8366 8.50021 42.7795 8.01498 42.272L6.46597 40.6519C5.96207 40.1249 5.96097 39.3421 6.43215 38.7994L8.55135 36.4046C8.94392 35.9554 8.99705 35.3076 8.70284 34.8045L8.53663 34.5525C7.39534 32.6553 6.60184 30.5944 6.1739 28.4274L6.12362 28.1208C6.00308 27.5453 5.53563 27.0955 4.94435 27.0437L1.76049 26.7031C1.05504 26.6296 0.514693 26.0254 0.530938 25.3194L0.582307 23.0871C0.598551 22.3811 1.16612 21.8023 1.8742 21.7614L5.07036 21.5676C5.66383 21.524 6.17014 21.1157 6.29792 20.5459L6.36269 20.2229C6.88985 18.0778 7.77731 16.0556 9.02376 14.2134L9.20138 13.9693C9.53753 13.4807 9.51425 12.8311 9.12365 12.3639L7.11685 9.8742C6.67114 9.31032 6.72734 8.52891 7.23584 8.02518L8.85774 6.478C9.3658 5.99334 10.1881 5.97408 10.7124 6.44432L13.11 8.56124C13.5597 8.95339 14.2082 9.0065 14.7119 8.71264L14.9833 8.54708C16.8825 7.40718 18.9462 6.5956 21.1156 6.16826L21.4226 6.11806C21.9987 5.99768 22.449 5.53079 22.5009 4.94018L22.8416 1.75994C22.9152 1.05529 23.52 0.515589 24.2268 0.531852L26.4617 0.583279C27.1303 0.598664 27.7288 1.16606 27.7699 1.87334Z" fill="#606161"/>
</svg>
