<svg width="30" height="30" viewBox="0 0 30 30" fill="none" xmlns="http://www.w3.org/2000/svg">
<path d="M15 30C23.271 30 30 23.271 30 15C30 6.72903 23.271 0 15 0C6.72903 0 0 6.72903 0 15C0 23.271 6.72893 30 15 30ZM22.3453 7.62685C22.5141 7.51257 22.9379 7.41202 23.1858 7.68728L23.6432 8.26256C23.8644 8.63663 23.5965 8.98354 23.4231 9.12741C22.5984 9.81146 21.9988 10.3406 21.6246 10.7149C20.8909 11.4865 20.3485 12.259 19.9903 13.0291C19.9084 13.2051 20.1175 13.3169 20.2261 13.3525C22.9301 14.2387 24.2825 15.801 24.2825 18.0392C24.2825 19.3579 23.8445 20.4295 22.969 21.2532C22.0931 22.0775 20.996 22.4894 19.6777 22.4894C18.5034 22.4894 17.4628 21.9538 16.5564 20.8824C15.6703 19.8731 15.2276 18.7809 15.2276 17.6065C15.2275 14.1648 17.6 10.8384 22.3453 7.62685ZM12.0542 7.62685C12.223 7.51257 12.6468 7.41202 12.8947 7.68728L13.3521 8.26256C13.5733 8.63663 13.3054 8.98354 13.1319 9.12741C12.3074 9.81146 11.7077 10.3406 11.3335 10.7149C10.5997 11.4865 10.0573 12.259 9.69911 13.0291C9.61722 13.2051 9.82626 13.3169 9.93483 13.3525C12.6388 14.2387 13.9913 15.801 13.9913 18.0392C13.9913 19.3579 13.5533 20.4295 12.6778 21.2532C11.8018 22.0775 10.7047 22.4894 9.38653 22.4894C8.21218 22.4894 7.17156 21.9538 6.26523 20.8824C5.3792 19.8731 4.93638 18.7809 4.93638 17.6065C4.93638 14.1648 7.30885 10.8384 12.0542 7.62685Z" fill="#F16B24"/>
</svg>
