<svg width="41" height="50" viewBox="0 0 41 50" fill="none" xmlns="http://www.w3.org/2000/svg">
<path d="M13.5479 17.7848C12.9792 18.3536 12.9792 19.2723 13.5479 19.8411L19.2062 25.4994L13.5479 31.1578C12.9792 31.7265 12.9792 32.6453 13.5479 33.214C14.1167 33.7828 15.0354 33.7828 15.6042 33.214L22.2979 26.5203C22.8666 25.9515 22.8666 25.0328 22.2979 24.464L15.6042 17.7703C15.05 17.2161 14.1167 17.2161 13.5479 17.7848Z" fill="#323232"/>
<path d="M13.2104 1.87334L13.0163 5.06589C12.9726 5.65869 12.5637 6.16445 11.9933 6.29212L11.689 6.35639C9.54148 6.88306 7.5169 7.76963 5.67258 9.01476L5.4091 9.19263C4.91992 9.52842 4.26958 9.50521 3.80191 9.11507L3.1788 8.61397C3.44775 11.1659 3.68114 13.8332 3.87763 16.5586C6.46408 12.681 10.8569 10.06 15.8807 9.94437C24.0562 9.75624 30.8565 16.2432 31.0444 24.4095C31.2323 32.5759 24.7377 39.3687 16.5621 39.5569C11.5574 39.672 7.08776 37.2931 4.30703 33.5581C4.25432 36.2511 4.16165 38.8686 4.02903 41.4106L4.57245 40.94C5.02211 40.5478 5.6707 40.4947 6.17437 40.7886L6.44575 40.9541C8.34495 42.094 10.4086 42.9056 12.5781 43.333L12.885 43.3832C13.4612 43.5035 13.9115 43.9704 13.9633 44.561L14.3041 47.7413C14.3776 48.4459 14.9825 48.9856 15.6893 48.9694L17.886 48.9188C18.6118 48.9021 19.1726 48.3547 19.2132 47.6283L19.4073 44.4358C19.451 43.843 19.8599 43.3372 20.4303 43.2095L20.7346 43.1453C22.8821 42.6186 24.9067 41.732 26.751 40.4869L26.9954 40.3095C27.4846 39.9737 28.1349 39.9969 28.6026 40.387L31.1141 42.391C31.6595 42.8366 32.48 42.7795 32.9653 42.272L34.5143 40.6519C35.0182 40.1249 35.0193 39.3421 34.5481 38.7994L32.4289 36.4046C32.0363 35.9554 31.9832 35.3076 32.2774 34.8045L32.4436 34.5525C33.5849 32.6553 34.3784 30.5944 34.8064 28.4274L34.8566 28.1208C34.9772 27.5453 35.4446 27.0955 36.0359 27.0437L39.2198 26.7031C39.9252 26.6296 40.4656 26.0254 40.4493 25.3194L40.3979 23.0871C40.3817 22.3811 39.8141 21.8023 39.1061 21.7614L35.9099 21.5676C35.3164 21.524 34.8101 21.1157 34.6823 20.5459L34.6176 20.2229C34.0904 18.0778 33.2029 16.0556 31.9565 14.2134L31.7789 13.9693C31.4427 13.4807 31.466 12.8311 31.8566 12.3639L33.8634 9.8742C34.3091 9.31032 34.2529 8.52891 33.7444 8.02518L32.1225 6.478C31.6145 5.99334 30.7922 5.97408 30.2679 6.44432L27.8703 8.56124C27.4206 8.95339 26.772 9.0065 26.2683 8.71264L25.997 8.54708C24.0978 7.40718 22.0341 6.5956 19.8646 6.16826L19.5577 6.11806C18.9815 5.99768 18.5312 5.53079 18.4794 4.94018L18.1387 1.75994C18.0651 1.05529 17.4602 0.515589 16.7534 0.531852L14.5185 0.583279C13.85 0.598664 13.2514 1.16606 13.2104 1.87334Z" fill="#F16B24"/>
</svg>
