<svg width="41" height="50" viewBox="0 0 41 50" fill="none" xmlns="http://www.w3.org/2000/svg">
<path d="M13.5479 17.7848C12.9792 18.3536 12.9792 19.2723 13.5479 19.8411L19.2062 25.4994L13.5479 31.1578C12.9792 31.7265 12.9792 32.6453 13.5479 33.214C14.1167 33.7828 15.0354 33.7828 15.6042 33.214L22.2979 26.5203C22.8666 25.9515 22.8666 25.0328 22.2979 24.464L15.6042 17.7703C15.05 17.2161 14.1167 17.2161 13.5479 17.7848Z" fill="#2F2C33"/>
<path d="M13.2103 1.87334L13.0161 5.06589C12.9725 5.65869 12.5636 6.16445 11.9932 6.29212L11.6889 6.35639C9.54136 6.88306 7.51678 7.76963 5.67246 9.01476L5.40898 9.19263C4.9198 9.52842 4.26945 9.50521 3.80179 9.11507L3.17868 8.61397C3.44763 11.1659 3.68101 13.8332 3.87751 16.5586C6.46396 12.681 10.8567 10.06 15.8805 9.94437C24.0561 9.75624 30.8564 16.2432 31.0443 24.4095C31.2322 32.5759 24.7375 39.3687 16.5619 39.5569C11.5572 39.672 7.08764 37.2931 4.3069 33.5581C4.2542 36.2511 4.16153 38.8686 4.02891 41.4106L4.57233 40.94C5.02199 40.5478 5.67058 40.4947 6.17425 40.7886L6.44563 40.9541C8.34483 42.094 10.4085 42.9056 12.578 43.333L12.8849 43.3832C13.4611 43.5035 13.9114 43.9704 13.9632 44.561L14.3039 47.7413C14.3775 48.4459 14.9824 48.9856 15.6891 48.9694L17.8859 48.9188C18.6117 48.9021 19.1725 48.3547 19.2131 47.6283L19.4072 44.4358C19.4509 43.843 19.8597 43.3372 20.4302 43.2095L20.7345 43.1453C22.882 42.6186 24.9066 41.732 26.7509 40.4869L26.9953 40.3095C27.4845 39.9737 28.1348 39.9969 28.6025 40.387L31.114 42.391C31.6594 42.8366 32.4799 42.7795 32.9652 42.272L34.5142 40.6519C35.0181 40.1249 35.0192 39.3421 34.548 38.7994L32.4288 36.4046C32.0362 35.9554 31.9831 35.3076 32.2773 34.8045L32.4435 34.5525C33.5848 32.6553 34.3783 30.5944 34.8062 28.4274L34.8565 28.1208C34.9771 27.5453 35.4445 27.0955 36.0358 27.0437L39.2196 26.7031C39.9251 26.6296 40.4654 26.0254 40.4492 25.3194L40.3978 23.0871C40.3816 22.3811 39.814 21.8023 39.1059 21.7614L35.9098 21.5676C35.3163 21.524 34.81 21.1157 34.6822 20.5459L34.6174 20.2229C34.0903 18.0778 33.2028 16.0556 31.9564 14.2134L31.7788 13.9693C31.4426 13.4807 31.4659 12.8311 31.8565 12.3639L33.8633 9.8742C34.309 9.31032 34.2528 8.52891 33.7443 8.02518L32.1224 6.478C31.6143 5.99334 30.7921 5.97408 30.2678 6.44432L27.8701 8.56124C27.4205 8.95339 26.7719 9.0065 26.2682 8.71264L25.9968 8.54708C24.0976 7.40718 22.034 6.5956 19.8645 6.16826L19.5575 6.11806C18.9814 5.99768 18.5311 5.53079 18.4793 4.94018L18.1385 1.75994C18.065 1.05529 17.4601 0.515589 16.7533 0.531852L14.5184 0.583279C13.8498 0.598664 13.2513 1.16606 13.2103 1.87334Z" fill="#438D90"/>
</svg>
