<svg width="87" height="84" viewBox="0 0 87 84" fill="none" xmlns="http://www.w3.org/2000/svg">
<path d="M42 82C19.9086 82 2 64.0914 2 42C2 19.9086 19.9086 2 42 2" stroke="#438D90" stroke-width="4"/>
<g clip-path="url(#clip0)">
<path d="M62.625 16H33.875C30.075 16 27 19.075 27 22.875V61.625C27 65.425 30.075 68.5 33.875 68.5H54.25C52.15 65.175 50.75 61.25 50.75 56.75V50.65C50.375 50.875 49.95 51 49.5 51H37C35.625 51 34.5 49.875 34.5 48.5C34.5 47.125 35.625 46 37 46H49.5C49.975 46 50.4 46.125 50.775 46.35C50.875 44.225 51.875 42.275 53.45 41H37C35.625 41 34.5 39.875 34.5 38.5C34.5 37.125 35.625 36 37 36H59.5C60.55 36 61.45 36.65 61.825 37.575L68.95 35.15C69.125 35.075 69.3 35.025 69.5 35V22.875C69.5 19.075 66.425 16 62.625 16V16ZM47 31H37C35.625 31 34.5 29.875 34.5 28.5C34.5 27.125 35.625 26 37 26H47C48.375 26 49.5 27.125 49.5 28.5C49.5 29.875 48.375 31 47 31Z" fill="#606161"/>
<path d="M85.305 44.3481L72.1799 39.8831C71.6574 39.7056 71.0899 39.7056 70.5674 39.8831L57.4424 44.3481C56.4299 44.6931 55.7474 45.6456 55.7474 46.7156V56.7606C55.7474 69.4281 69.7949 75.5481 70.3924 75.8031C70.7074 75.9356 71.0424 76.0006 71.3749 76.0006C71.7074 76.0006 72.0424 75.9356 72.3549 75.8006C72.9524 75.5456 87 69.4281 87 56.7606V46.7156C87 45.6431 86.32 44.6931 85.305 44.3481ZM80.2499 53.7506L72.7499 63.7506C72.3149 64.3306 71.6524 64.6931 70.9274 64.7431C70.8674 64.7481 70.8074 64.7506 70.7499 64.7506C70.0874 64.7506 69.4524 64.4906 68.9824 64.0181L63.9824 59.0181C63.0049 58.0406 63.0049 56.4606 63.9824 55.4831C64.9599 54.5056 66.5399 54.5056 67.5174 55.4831L70.4799 58.4456L76.2499 50.7506C77.0774 49.6481 78.645 49.4206 79.7475 50.2506C80.855 51.0781 81.0799 52.6456 80.2499 53.7506Z" fill="#606161"/>
</g>
<defs>
<clipPath id="clip0">
<rect width="60" height="60" fill="white" transform="translate(27 16)"/>
</clipPath>
</defs>
</svg>
