<svg width="82" height="84" viewBox="0 0 82 84" fill="none" xmlns="http://www.w3.org/2000/svg">
<path d="M42 82C19.9086 82 2 64.0914 2 42C2 19.9086 19.9086 2 42 2" stroke="#F16B24" stroke-width="4"/>
<g clip-path="url(#clip0)">
<path d="M57.625 15H28.875C25.075 15 22 18.075 22 21.875V60.625C22 64.425 25.075 67.5 28.875 67.5H49.25C47.15 64.175 45.75 60.25 45.75 55.75V49.65C45.375 49.875 44.95 50 44.5 50H32C30.625 50 29.5 48.875 29.5 47.5C29.5 46.125 30.625 45 32 45H44.5C44.975 45 45.4 45.125 45.775 45.35C45.875 43.225 46.875 41.275 48.45 40H32C30.625 40 29.5 38.875 29.5 37.5C29.5 36.125 30.625 35 32 35H54.5C55.55 35 56.45 35.65 56.825 36.575L63.95 34.15C64.125 34.075 64.3 34.025 64.5 34V21.875C64.5 18.075 61.425 15 57.625 15V15ZM42 30H32C30.625 30 29.5 28.875 29.5 27.5C29.5 26.125 30.625 25 32 25H42C43.375 25 44.5 26.125 44.5 27.5C44.5 28.875 43.375 30 42 30Z" fill="#606161"/>
<path d="M80.305 43.3476L67.1799 38.8826C66.6574 38.7051 66.0899 38.7051 65.5674 38.8826L52.4424 43.3476C51.4299 43.6926 50.7474 44.6451 50.7474 45.7151V55.7601C50.7474 68.4276 64.7949 74.5476 65.3924 74.8026C65.7074 74.9351 66.0424 75.0001 66.3749 75.0001C66.7074 75.0001 67.0424 74.9351 67.3549 74.8001C67.9524 74.5451 82 68.4276 82 55.7601V45.7151C82 44.6426 81.32 43.6926 80.305 43.3476ZM75.2499 52.7501L67.7499 62.7501C67.3149 63.3301 66.6524 63.6926 65.9274 63.7426C65.8674 63.7476 65.8074 63.7501 65.7499 63.7501C65.0874 63.7501 64.4524 63.4901 63.9824 63.0176L58.9824 58.0176C58.0049 57.0401 58.0049 55.4601 58.9824 54.4826C59.9599 53.5051 61.5399 53.5051 62.5174 54.4826L65.4799 57.4451L71.2499 49.7501C72.0774 48.6476 73.6449 48.4201 74.7474 49.2501C75.8549 50.0776 76.0799 51.6451 75.2499 52.7501Z" fill="#606161"/>
</g>
<defs>
<clipPath id="clip0">
<rect width="60" height="60" fill="white" transform="translate(22 15)"/>
</clipPath>
</defs>
</svg>
