<svg width="72" height="84" viewBox="0 0 72 84" fill="none" xmlns="http://www.w3.org/2000/svg">
<path d="M42.4998 82C20.4084 82 2.49976 64.0914 2.49976 42C2.49976 19.9086 20.4084 2 42.4998 2" stroke="#438D90" stroke-width="4"/>
<g clip-path="url(#clip0)">
<path d="M31.4531 16.7578V31.279C33.167 30.6697 34.7824 30.916 36.1379 31.8233L43.3271 37.2103C44.6386 38.0773 45.5156 39.7183 45.5156 41.4844C45.5156 43.2509 44.6386 44.892 43.1673 45.8721L36.2958 51.0324C34.6501 52.1421 33.0699 52.2638 31.4531 51.6893C31.4531 52.24 31.4531 63.0652 31.4531 62.6954C31.4531 63.6672 32.2391 64.4532 33.2109 64.4532H49.0313V27.3047C49.0313 25.5418 49.9308 23.877 51.3952 22.907L61.9375 15H33.2109C32.2391 15 31.4531 15.7864 31.4531 16.7578Z" fill="#606161"/>
<path d="M70.125 16.7578C70.125 16.1247 69.7849 15.541 69.2337 15.2284C68.6826 14.9162 68.0065 14.9244 67.4622 15.2508L53.3997 25.7977C52.871 26.1149 52.5469 26.6867 52.5469 27.3047V73.2422C52.5469 73.8758 52.8865 74.4594 53.4377 74.7716C53.9875 75.0833 54.664 75.076 55.2092 74.7496L69.2717 64.2027C69.8005 63.8851 70.125 63.3133 70.125 62.6953V16.7578ZM57.8235 50.2734C56.8526 50.2734 56.0657 49.4865 56.0657 48.5156C56.0657 47.5447 56.8526 46.7578 57.8235 46.7578C58.7944 46.7578 59.5813 47.5447 59.5813 48.5156C59.5813 49.4865 58.7944 50.2734 57.8235 50.2734Z" fill="#606161"/>
<path d="M15.6328 44.9998H31.4531V46.7576C31.4531 47.4067 31.8102 48.0023 32.3819 48.3081C32.9454 48.6102 33.6408 48.5836 34.186 48.2202L41.2172 42.9467C41.7066 42.6208 42 42.0715 42 41.4847C42 40.8973 41.7066 40.348 41.2172 40.0221L34.186 34.7473C33.6486 34.3889 32.9519 34.3559 32.3819 34.6599C31.8102 34.9656 31.4531 35.5612 31.4531 36.2103V37.969H15.6328C14.661 37.969 13.875 38.755 13.875 39.7268V43.2425C13.875 44.2138 14.661 44.9998 15.6328 44.9998Z" fill="#606161"/>
</g>
<defs>
<clipPath id="clip0">
<rect width="60" height="60" fill="white" transform="translate(12 15)"/>
</clipPath>
</defs>
</svg>
