<svg width="87" height="84" viewBox="0 0 87 84" fill="none" xmlns="http://www.w3.org/2000/svg">
<path d="M42 82C19.9086 82 2 64.0914 2 42C2 19.9086 19.9086 2 42 2" stroke="#F16B24" stroke-width="4"/>
<g clip-path="url(#clip0)">
<path d="M62.625 15H33.875C30.075 15 27 18.075 27 21.875V60.625C27 64.425 30.075 67.5 33.875 67.5H52.325L52.875 64.425C53.125 63.025 53.775 61.775 54.775 60.75L69.5 46.05V21.875C69.5 18.075 66.425 15 62.625 15V15ZM37 25H47C48.375 25 49.5 26.125 49.5 27.5C49.5 28.875 48.375 30 47 30H37C35.625 30 34.5 28.875 34.5 27.5C34.5 26.125 35.625 25 37 25ZM49.5 50H37C35.625 50 34.5 48.875 34.5 47.5C34.5 46.125 35.625 45 37 45H49.5C50.875 45 52 46.125 52 47.5C52 48.875 50.875 50 49.5 50ZM59.5 40H37C35.625 40 34.5 38.875 34.5 37.5C34.5 36.125 35.625 35 37 35H59.5C60.875 35 62 36.125 62 37.5C62 38.875 60.875 40 59.5 40Z" fill="#606161"/>
<path d="M58.32 74.9998C57.8275 74.9998 57.3475 74.8048 56.995 74.4498C56.5625 74.0173 56.3675 73.4023 56.475 72.7973L57.8 65.2848C57.865 64.9073 58.05 64.5573 58.32 64.2848L76.8825 45.7248C79.1625 43.4398 81.4025 44.0573 82.6275 45.2823L85.72 48.3748C87.4275 50.0798 87.4275 52.8548 85.72 54.5623L67.1575 73.1248C66.8875 73.3973 66.5375 73.5798 66.1575 73.6448L58.645 74.9698C58.5375 74.9898 58.4275 74.9998 58.32 74.9998ZM65.8325 71.7998H65.8575H65.8325Z" fill="#606161"/>
</g>
<defs>
<clipPath id="clip0">
<rect width="60" height="60" fill="white" transform="translate(27 15)"/>
</clipPath>
</defs>
</svg>
