<svg width="82" height="84" viewBox="0 0 82 84" fill="none" xmlns="http://www.w3.org/2000/svg">
<path d="M42.4998 82C20.4084 82 2.49976 64.0914 2.49976 42C2.49976 19.9086 20.4084 2 42.4998 2" stroke="#438D90" stroke-width="4"/>
<g clip-path="url(#clip0)">
<path d="M37.4339 35.392C38.1883 38.2692 40.6189 40.9186 43.6977 40.9186C46.8257 40.9186 49.2949 38.2807 50.0674 35.4105C50.3611 35.3784 50.6044 35.1541 50.6309 34.8478L50.7281 33.7149C50.7533 33.4197 50.5669 33.1648 50.3 33.0733C50.2939 33.0066 50.2926 32.9368 50.2843 32.8701C50.2259 30.2716 49.7746 28.1721 47.7299 27.305C45.5712 26.3895 43.6682 26.3764 42.2722 26.9209C42.1804 26.9568 41.9432 27.2716 41.85 27.3299C41.7582 27.3869 41.2683 27.2258 41.082 27.2686C38.018 27.7058 37.0075 30.5942 37.2304 32.8433C37.2238 32.9078 37.2195 32.9705 37.2147 33.0342C36.9183 33.1075 36.7055 33.3782 36.7333 33.6908L36.8305 34.8259C36.8578 35.146 37.122 35.3784 37.4339 35.392ZM38.0865 33.1472C39.429 32.6557 42.0096 31.628 42.2904 31.0883C43.4642 32.3063 47.6081 32.9922 49.4271 33.2219C49.4346 33.3388 49.4453 33.4542 49.4453 33.5725C49.4453 36.5645 46.9359 40.0416 43.6979 40.0416C40.4744 40.0416 38.0662 36.6256 38.0662 33.5725C38.0662 33.4298 38.0769 33.2877 38.0865 33.1472ZM48.6363 39.8882C48.4752 39.8631 48.3162 39.8997 48.215 39.9412L45.6341 43.4322L43.6768 41.871L43.6658 41.8817V41.8914L43.6631 41.8884L41.7057 43.4504L39.1252 39.9597C39.0224 39.919 38.8634 39.8815 38.7038 39.9067C33.8291 40.5944 33.5186 51.6057 33.5186 51.6057L43.6754 51.614V51.595L53.8242 51.5894C53.8216 51.5894 53.5116 40.5759 48.6363 39.8882ZM66.322 40.1706C66.322 27.9448 56.3756 18 44.1533 18C31.9288 18 21.9802 27.9448 21.9802 40.1706C21.9802 52.3967 31.9272 62.3415 44.1519 62.3415C56.3756 62.3418 66.322 52.3967 66.322 40.1706ZM44.1533 56.7765C34.9968 56.7765 27.5482 49.3274 27.5482 40.1706C27.5482 31.0142 34.9968 23.5656 44.1533 23.5656C53.3092 23.5656 60.757 31.0142 60.757 40.1706C60.757 49.3274 53.3076 56.7765 44.1533 56.7765ZM59.0863 60.9688L63.9867 56.0657L81.0192 73.0996L76.1175 78.0003L59.0863 60.9688Z" fill="#606161"/>
</g>
<defs>
<clipPath id="clip0">
<rect width="60" height="60" fill="white" transform="translate(21.4998 18)"/>
</clipPath>
</defs>
</svg>
