<svg width="82" height="84" viewBox="0 0 82 84" fill="none" xmlns="http://www.w3.org/2000/svg">
<path d="M42 82C19.9086 82 2 64.0914 2 42C2 19.9086 19.9086 2 42 2" stroke="#F16B24" stroke-width="4"/>
<g clip-path="url(#clip0)">
<path d="M57.625 15H28.875C25.075 15 22 18.075 22 21.875V60.625C22 64.425 25.075 67.5 28.875 67.5H49.225C47.025 64.5 45.75 60.85 45.75 56.875C45.75 46.875 53.875 38.75 63.875 38.75C64.075 38.75 64.3 38.75 64.5 38.775V21.875C64.5 18.075 61.425 15 57.625 15ZM32 25H42C43.375 25 44.5 26.125 44.5 27.5C44.5 28.875 43.375 30 42 30H32C30.625 30 29.5 28.875 29.5 27.5C29.5 26.125 30.625 25 32 25ZM44.5 50H32C30.625 50 29.5 48.875 29.5 47.5C29.5 46.125 30.625 45 32 45H44.5C45.875 45 47 46.125 47 47.5C47 48.875 45.875 50 44.5 50ZM54.5 40H32C30.625 40 29.5 38.875 29.5 37.5C29.5 36.125 30.625 35 32 35H54.5C55.875 35 57 36.125 57 37.5C57 38.875 55.875 40 54.5 40Z" fill="#606161"/>
<path d="M63.875 70C56.6375 70 50.75 64.1125 50.75 56.875C50.75 49.6375 56.6375 43.75 63.875 43.75C71.1125 43.75 77 49.6375 77 56.875C77 64.1125 71.1125 70 63.875 70ZM63.875 48.75C59.395 48.75 55.75 52.395 55.75 56.875C55.75 61.355 59.395 65 63.875 65C68.355 65 72 61.355 72 56.875C72 52.395 68.355 48.75 63.875 48.75Z" fill="#606161"/>
<path d="M79.5 75.0001C78.86 75.0001 78.22 74.7551 77.7325 74.2676L69.6075 66.1426C68.63 65.1651 68.63 63.5851 69.6075 62.6076C70.585 61.6301 72.165 61.6301 73.1425 62.6076L81.2675 70.7326C82.245 71.7101 82.245 73.2901 81.2675 74.2676C80.78 74.7551 80.14 75.0001 79.5 75.0001Z" fill="#606161"/>
<ellipse cx="60.6428" cy="55.3569" rx="7.5" ry="7.5" fill="#606161"/>
</g>
<defs>
<clipPath id="clip0">
<rect width="60" height="60" fill="white" transform="translate(22 15)"/>
</clipPath>
</defs>
</svg>
