<svg width="80" height="84" viewBox="0 0 80 84" fill="none" xmlns="http://www.w3.org/2000/svg">
<path d="M42.4998 82C20.4084 82 2.49976 64.0914 2.49976 42C2.49976 19.9086 20.4084 2 42.4998 2" stroke="#438D90" stroke-width="4"/>
<g clip-path="url(#clip0)">
<path d="M69.3 22.3793C68.6137 23.0657 68.6138 24.1788 69.3004 24.8652C73.6105 29.1741 75.9842 34.9041 75.9842 40.9998C75.9842 47.0953 73.6105 52.8254 69.3004 57.1344C68.2012 58.2332 68.9757 60.1359 70.5432 60.1359C71.0383 60.1359 71.4856 59.9311 71.805 59.6015C76.7673 54.6306 79.4998 48.0255 79.4998 40.9998C79.4998 33.9649 76.7603 27.352 71.7859 22.3789C71.0995 21.6925 69.9864 21.6928 69.3 22.3793Z" fill="#606161"/>
<path d="M64.329 52.1633C63.6426 52.8499 63.6428 53.9629 64.3294 54.6492C65.0158 55.3355 66.129 55.3355 66.8153 54.6488C70.4609 51.0019 72.4686 46.1546 72.4686 40.9995C72.4686 35.8444 70.4609 30.9971 66.8152 27.3501C66.1288 26.6635 65.0159 26.6632 64.3293 27.3496C63.6427 28.036 63.6425 29.1489 64.3288 29.8355C67.3108 32.8185 68.9529 36.7832 68.9529 40.9995C68.9529 45.2158 67.3108 49.1805 64.329 52.1633Z" fill="#606161"/>
<path d="M59.3564 49.6767C60.0426 50.3633 61.1556 50.3638 61.8423 49.6774C64.1605 47.3608 65.4372 44.2788 65.4372 40.9998C65.4372 37.7208 64.1605 34.6389 61.8424 32.3221C61.1557 31.6358 60.0427 31.6362 59.3565 32.3228C58.6702 33.0095 58.6706 34.1224 59.3572 34.8087C61.0109 36.4615 61.9216 38.6602 61.9216 40.9998C61.9216 43.3395 61.0109 45.5381 59.3572 47.1908C58.6705 47.8771 58.6701 48.99 59.3564 49.6767Z" fill="#606161"/>
<path d="M21.2576 28.1592H28.2888V53.8396H21.2576C20.2873 53.8396 19.4998 53.0533 19.4998 52.0818V29.917C19.4998 28.9455 20.2873 28.1592 21.2576 28.1592Z" fill="#606161"/>
<path d="M55.1025 20.2096V61.79C55.1025 64.3178 52.3931 65.9197 50.1794 64.6998L31.8044 54.5842V27.4154L50.1794 17.2998C52.3943 16.0799 55.1025 17.683 55.1025 20.2096Z" fill="#606161"/>
</g>
<defs>
<clipPath id="clip0">
<rect width="60" height="60" fill="white" transform="translate(19.4998 11)"/>
</clipPath>
</defs>
</svg>
