<svg xmlns="http://www.w3.org/2000/svg" width="80" height="80"><path fill="#F4F4F7" d="M60 0H20C8.954 0 0 8.954 0 20v40c0 11.046 8.954 20 20 20h40c11.046 0 20-8.954 20-20V20C80 8.954 71.046 0 60 0z"/><g fill="#164A8B"><path d="M66.399 60.63a.965.965 0 00.97-.96V15.11a4.877 4.877 0 00-4.868-4.87h-1.939a4.869 4.869 0 00-4.386-2.75H17.5a4.872 4.872 0 00-4.869 4.87v18.19a.968.968 0 101.936 0V12.36A2.94 2.94 0 0117.5 9.42h38.676a2.942 2.942 0 012.934 2.94v43.23h-7.536a2.727 2.727 0 00-2.725 2.729V66.14H17.5a2.932 2.932 0 01-2.933-2.93V34.94a.968.968 0 10-1.936 0v28.27a4.878 4.878 0 004.869 4.87h1.475a4.872 4.872 0 004.847 4.43H62.5a4.87 4.87 0 004.867-4.87v-3.46a.968.968 0 10-1.936 0v3.46a2.94 2.94 0 01-2.931 2.94H23.823a2.941 2.941 0 01-2.9-2.5h28.895a.98.98 0 00.693-.29l10.261-10.56a.952.952 0 00.274-.67V12.18H62.5a2.938 2.938 0 012.932 2.93v44.56a.964.964 0 00.967.96zm-15.613 4.1v-6.41a.788.788 0 01.786-.79H57.786l-7 7.2z"/><path d="M28.862 18.55a2.439 2.439 0 00-1.923-.55 11.855 11.855 0 00-9.977 11.63c.024 6.487 5.274 11.741 11.761 11.77a11.854 11.854 0 0011.624-9.98 2.385 2.385 0 00-2.35-2.76h-7.863a.444.444 0 01-.443-.44v-7.87c0-.693-.303-1.35-.829-1.8zm1.274 12.05h-.002H38a.444.444 0 01.437.52c-.822 5.364-5.836 9.045-11.2 8.223-5.364-.822-9.045-5.836-8.223-11.2a9.824 9.824 0 018.223-8.223.207.207 0 01.074-.01.47.47 0 01.293.11.44.44 0 01.153.33v7.87a2.384 2.384 0 002.379 2.38zM19.923 56.51a.969.969 0 000 1.94h21.231a.969.969 0 000-1.94H19.923z"/><path d="M34.378 14.18a2.415 2.415 0 00-1.915.55 2.372 2.372 0 00-.826 1.8v8.02a2.383 2.383 0 002.378 2.38h9.527a.972.972 0 00.968-.97 11.918 11.918 0 00-10.132-11.78zm7.935 10.808l-.028.001h-8.27a.444.444 0 01-.443-.44v-8.02a.424.424 0 01.517-.43 9.943 9.943 0 018.41 8.65.214.214 0 01-.186.239zM19.25 47.734v.006a.972.972 0 00.968.97h29.895a.969.969 0 000-1.94H20.218a.966.966 0 00-.968.964zM50.575 13.45h-.7a2.658 2.658 0 00-2.655 2.66v9.98a.017.017 0 000 .01.017.017 0 010 .01v10.18a.017.017 0 000 .01.017.017 0 010 .01v2.82a2.66 2.66 0 002.038 2.58v1.82a.968.968 0 101.936 0v-1.82a2.66 2.66 0 002.04-2.58V19.55a2.04 2.04 0 011.584.6c.388.383.604.906.6 1.45V27a.968.968 0 101.936 0v-5.4a3.994 3.994 0 00-3.991-3.99h-.132v-1.5a2.659 2.659 0 00-2.656-2.66zm-1.419 2.66a.72.72 0 01.718-.72h.705a.72.72 0 01.719.719V25.13h-2.142v-9.02zM51.3 39.13a.72.72 0 01-.718.72h-.703a.72.72 0 01-.719-.719V37.26h2.14v1.87zm0-3.8h-2.143v-8.26H51.3v8.26zM51.081 52.61a.972.972 0 00-.968-.97H20.218a.969.969 0 000 1.94h29.895a.972.972 0 00.968-.97z"/></g></svg>