<?xml version="1.0" encoding="utf-8"?>
<!-- Generator: Adobe Illustrator 23.0.0, SVG Export Plug-In . SVG Version: 6.00 Build 0)  -->
<svg version="1.0" id="Слой_1" xmlns="http://www.w3.org/2000/svg" xmlns:xlink="http://www.w3.org/1999/xlink" x="0px" y="0px"
	 width="100px" height="100px" viewBox="0 0 100 100" enable-background="new 0 0 100 100" xml:space="preserve">
<circle id="_1.svg" fill="#ECF3F7" cx="50" cy="50" r="50"/>
<path id="_1.1.svg" fill-rule="evenodd" clip-rule="evenodd" fill="#164A8B" d="M38.863,28.55c-0.528-0.459-1.232-0.66-1.923-0.55
	c-5.721,0.918-9.94,5.836-9.977,11.63c0.03,6.483,5.278,11.731,11.761,11.76c5.789-0.039,10.704-4.254,11.624-9.97
	c0.108-0.692-0.092-1.397-0.547-1.93c-0.449-0.527-1.107-0.831-1.8-0.83h-7.863c-0.243,0-0.441-0.196-0.443-0.44v-7.87
	c0-0.692-0.303-1.35-0.829-1.8l0,0L38.863,28.55z M40.134,40.6h7.866c0.128-0.003,0.25,0.052,0.333,0.15
	c0.086,0.103,0.122,0.238,0.1,0.37c-0.822,5.364-5.837,9.045-11.2,8.223c-5.364-0.822-9.045-5.837-8.223-11.2
	c0.65-4.243,3.98-7.573,8.223-8.223c0.024-0.008,0.049-0.011,0.074-0.01c0.107,0.002,0.211,0.041,0.293,0.11
	c0.096,0.083,0.152,0.203,0.153,0.33v7.87c0.002,1.313,1.066,2.377,2.379,2.38l0,0H40.134z M76.4,70.63
	c0.534,0.001,0.967-0.431,0.968-0.964c0-0.002,0-0.004,0-0.006V25.11c-0.004-2.687-2.18-4.865-4.867-4.87h-1.939
	c-0.813-1.682-2.518-2.75-4.386-2.75H27.501c-2.689,0.001-4.868,2.181-4.869,4.87v18.19c-0.003,0.535,0.428,0.97,0.963,0.973
	c0.535,0.002,0.97-0.429,0.973-0.963c0-0.003,0-0.006,0-0.01V22.36c0.001-1.621,1.312-2.936,2.933-2.94h38.676
	c1.621,0.004,2.933,1.319,2.934,2.94v43.23h-7.536c-1.503,0-2.722,1.217-2.725,2.72v7.83H27.501c-1.619,0-2.932-1.311-2.933-2.93
	V44.94c0.003-0.535-0.428-0.97-0.963-0.973c-0.535-0.002-0.97,0.429-0.973,0.963c0,0.003,0,0.006,0,0.01v28.27
	c0.004,2.688,2.182,4.865,4.869,4.87h1.475c0.228,2.507,2.329,4.428,4.847,4.43h38.678c2.688-0.002,4.867-2.182,4.867-4.87v-3.46
	c0.003-0.535-0.428-0.97-0.963-0.973c-0.535-0.002-0.97,0.429-0.973,0.963c0,0.003,0,0.006,0,0.01v3.46
	c0,1.619-1.313,2.93-2.931,2.93H33.823c-1.449,0.001-2.682-1.058-2.9-2.49h28.895c0.263,0,0.513-0.108,0.693-0.3l10.26-10.55
	c0.175-0.179,0.274-0.419,0.275-0.67v-44.38h1.455c1.618,0,2.93,1.311,2.931,2.929c0,0,0,0,0,0.001v44.55
	c-0.002,0.534,0.43,0.968,0.964,0.97C76.397,70.631,76.398,70.631,76.4,70.63L76.4,70.63L76.4,70.63z M61.575,67.53h6.212l-7,7.2
	v-6.42C60.79,67.877,61.142,67.529,61.575,67.53L61.575,67.53z M61.082,62.61c0.002-0.534-0.43-0.968-0.964-0.97
	c-0.001,0-0.003,0-0.004,0h-29.9c-0.536,0.004-0.967,0.442-0.962,0.978c0.004,0.53,0.433,0.958,0.962,0.962h29.9
	C60.647,63.577,61.079,63.145,61.082,62.61L61.082,62.61z M29.923,66.51c-0.536,0.004-0.967,0.442-0.962,0.978
	c0.004,0.53,0.433,0.958,0.962,0.962h21.231c0.536-0.004,0.967-0.442,0.962-0.978c-0.004-0.53-0.433-0.958-0.962-0.962H29.923z
	 M29.251,57.74c0.001,0.535,0.433,0.968,0.968,0.97h29.9c0.536-0.004,0.967-0.442,0.962-0.978c-0.004-0.53-0.433-0.958-0.962-0.962
	h-29.9c-0.534-0.001-0.967,0.431-0.968,0.964C29.251,57.736,29.251,57.738,29.251,57.74L29.251,57.74z M44.379,24.18
	c-1.3-0.199-2.516,0.694-2.715,1.995c-0.018,0.118-0.027,0.236-0.027,0.355v8.02c0.003,1.312,1.068,2.373,2.379,2.37h9.527
	c0.532,0.002,0.966-0.428,0.968-0.96C54.516,30.066,50.207,25.056,44.379,24.18L44.379,24.18z M44.016,34.99
	c-0.243,0-0.441-0.197-0.443-0.44v-8.02c-0.007-0.24,0.182-0.44,0.422-0.448c0.032-0.001,0.064,0.002,0.095,0.008
	c4.432,0.667,7.873,4.211,8.41,8.66c0.014,0.117-0.069,0.224-0.186,0.239c-0.009,0.001-0.019,0.001-0.028,0.001L44.016,34.99
	L44.016,34.99z M57.221,46.29c-0.001,0.003-0.001,0.006,0,0.01v2.83c0.003,1.227,0.845,2.293,2.038,2.58v1.82
	c-0.003,0.535,0.428,0.97,0.963,0.973c0.535,0.002,0.97-0.429,0.973-0.963c0-0.003,0-0.006,0-0.01v-1.82
	c1.194-0.286,2.037-1.353,2.04-2.58v-19.58c1.127-0.079,2.104,0.771,2.182,1.898c0.004,0.051,0.005,0.101,0.005,0.152v5.4
	c-0.003,0.535,0.428,0.97,0.963,0.973c0.535,0.002,0.97-0.429,0.973-0.963c0-0.003,0-0.006,0-0.01v-5.4
	c-0.002-2.204-1.788-3.989-3.991-3.99h-0.132v-1.5c0.001-1.468-1.188-2.659-2.656-2.66h-0.7c-1.468,0.001-2.656,1.192-2.655,2.66
	v9.98c-0.001,0.003-0.001,0.006,0,0.01l0,0v10.19l0,0L57.221,46.29z M61.3,45.33h-2.142v-8.27h2.143L61.3,45.33L61.3,45.33z
	 M60.58,49.85h-0.7c-0.397,0-0.718-0.32-0.719-0.717c0-0.001,0-0.002,0-0.003v-1.87h2.14v1.87c0.001,0.397-0.321,0.72-0.718,0.72
	C60.582,49.85,60.581,49.85,60.58,49.85L60.58,49.85L60.58,49.85z M59.88,25.39h0.7c0.397,0,0.719,0.321,0.72,0.718
	c0,0,0,0.001,0,0.002v9.02h-2.142v-9.02c-0.001-0.396,0.319-0.719,0.716-0.72c0.001,0,0.002,0,0.003,0l0,0H59.88z"/>
</svg>
