<svg xmlns="http://www.w3.org/2000/svg" width="80" height="80"><path fill="#F4F4F7" d="M60 0H20C8.954 0 0 8.954 0 20v40c0 11.046 8.954 20 20 20h40c11.046 0 20-8.954 20-20V20C80 8.954 71.046 0 60 0z"/><path fill-rule="evenodd" clip-rule="evenodd" fill="#164A8B" d="M35.886 27.011c0-.21-.006-.4 0-.59a24.22 24.22 0 01.141-2.85 3.233 3.233 0 012.747-2.48c.217-.028.437-.042.656-.04h14.581a3.36 3.36 0 013.4 2.41c.088.254.136.521.142.79-.009 1.6-.011 3.2-.082 4.8a4.932 4.932 0 01-.418 1.22.608.608 0 00-.059.41c.4.595.597 1.304.561 2.02.014 1.46.017 2.91-.055 4.37a3.98 3.98 0 01-.466 1.33.586.586 0 00.007.53 4.95 4.95 0 01.494 1.56c.046 1.6.011 3.2-.056 4.79-.082.426-.22.84-.41 1.23a.651.651 0 00-.058.44c.385.59.574 1.286.54 1.99.05 1.507.025 3.016-.076 4.52a3.234 3.234 0 01-3.242 2.81c-4.733.01-9.465.01-14.194 0a6.72 6.72 0 01-1.612-.16 4.31 4.31 0 01-1.2-.57.573.573 0 00-.563-.09 14.25 14.25 0 01-8.373.4 14.499 14.499 0 01-10.411-9.18c-2.936-7.68.909-16.286 8.589-19.222a14.795 14.795 0 012.924-.788 15.112 15.112 0 016.207.3c.095.022.19.039.286.05zm-4.031 2.19c-6.727-.015-12.192 5.427-12.206 12.154s5.427 12.192 12.154 12.206c6.64.014 12.068-5.292 12.204-11.93.142-6.721-5.19-12.285-11.911-12.427a9.743 9.743 0 00-.241-.003zm15.774 0v-.01h1.624c1.573-.01 3.146-.01 4.719-.02a.682.682 0 00.847-.68c.01-1.34.007-2.68-.019-4.02a.608.608 0 00-.748-.71h-14.62a.728.728 0 00-.834.83c-.01 1.067-.01 2.137 0 3.21.006.149.071.29.182.39a4.888 4.888 0 003.159 1.02c1.899-.04 3.795-.01 5.69-.01zm-7.172 24.33c.2.01.278.03.353.03h13.183a.727.727 0 00.833-.86v-3.68a.73.73 0 00-.887-.87c-2.823 0-5.646-.003-8.467-.01a.552.552 0 00-.569.33 14.345 14.345 0 01-3.5 4.28c-.289.24-.574.47-.946.78zm2.91-21.64c.092.15.131.23.184.3a14.298 14.298 0 012.5 4.83.375.375 0 00.433.29c2.499-.01 4.999-.013 7.5-.01a.723.723 0 00.84-.851c0-1.21.006-2.42 0-3.64a.75.75 0 00-.916-.92H43.369l-.002.001zm2.821 13.51c.184.01.321.02.459.02 1.289.01 2.578.01 3.867.01 1.16 0 2.32.01 3.48 0a.714.714 0 00.832-.82c0-1.27.006-2.53 0-3.79a.7.7 0 00-.807-.8c-2.307 0-4.614-.003-6.922-.01-.261 0-.371.06-.348.35a13.486 13.486 0 01-.3 3.92c-.08.36-.168.72-.261 1.12zm16.122 14.26c.2-.23.4-.45.6-.68a29.26 29.26 0 005.8-10.99 28.643 28.643 0 00.979-9.68 30.145 30.145 0 00-5.6-15.66 28.876 28.876 0 00-14.835-10.98 30.582 30.582 0 00-12.056-1.34 28.105 28.105 0 00-9.421 2.55 8.952 8.952 0 01-1.125.4 1.216 1.216 0 01-1.612-.73 1.31 1.31 0 01.612-1.72 43.015 43.015 0 012.973-1.29 31.485 31.485 0 018.678-1.93c2.507-.2 5.029-.12 7.518.24 4.443.609 8.7 2.179 12.474 4.6a33.376 33.376 0 0114.744 22.29c.293 1.495.432 3.017.414 4.54-.053 1.46-.016 2.92-.134 4.36a28.231 28.231 0 01-1.825 7.76 32.24 32.24 0 01-6.662 10.65c-.085.09-.163.18-.321.37h.576c1.469-.03 2.939-.07 4.408-.09a1.32 1.32 0 011.441 1.44 1.3 1.3 0 01-1.239 1.25c-2.733.08-5.467.153-8.2.22a6.57 6.57 0 01-.886-.08 1.125 1.125 0 01-1.044-1.36c.172-1.07.372-2.13.58-3.19.355-1.81.725-3.61 1.091-5.42a1.4 1.4 0 011.582-1.19h.001a1.369 1.369 0 011.151 1.557c-.005.031-.01.062-.017.093-.218 1.26-.466 2.51-.7 3.76-.012.06-.018.13-.027.19l.082.06zm-45.9-42.03c-.171-.01-.244-.03-.316-.03-1.483.03-2.965.07-4.447.09a2.462 2.462 0 01-.9-.14 1.309 1.309 0 01-.733-1.51 1.356 1.356 0 011.246-1.04c2.887-.08 5.774-.16 8.661-.22a1.344 1.344 0 011.4 1.69c-.447 2.31-.914 4.62-1.373 6.93-.1.5-.188.99-.291 1.48a1.389 1.389 0 01-1.586 1.14 1.366 1.366 0 01-1.134-1.564l.01-.056c.22-1.26.465-2.51.7-3.77.011-.06.014-.12.036-.31-.165.17-.259.25-.341.34-10.684 12.507-9.207 31.307 3.3 41.991a29.786 29.786 0 0032.187 4.229 1.394 1.394 0 011.8.23 1.353 1.353 0 01-.54 2.17c-1.164.52-2.335 1.03-3.535 1.45a31.491 31.491 0 01-10.969 1.76c-15.426-.243-28.563-11.279-31.465-26.43a31.454 31.454 0 01-.5-8.16 32.281 32.281 0 016.629-17.69c.577-.75 1.22-1.46 1.834-2.19.086-.11.176-.21.324-.39h.003zm16.732 19.7c-.889 0-1.778-.02-2.668 0a1.277 1.277 0 00-1.309 1.13c-.107.68.321 1.329.988 1.5.164.037.332.054.5.05.864 0 1.727-.01 2.591 0a4.064 4.064 0 01.34 8.11.333.333 0 00-.381.42c.018.31.018.62 0 .93a1.354 1.354 0 01-1.338 1.37h-.039a1.371 1.371 0 01-1.36-1.382v-.008a7.341 7.341 0 010-.89c.026-.32-.07-.43-.4-.42-.786.02-1.572.02-2.358 0a1.337 1.337 0 01-1.274-1.19 1.314 1.314 0 01.846-1.41c.245-.079.502-.112.759-.1 1.663-.01 3.326 0 4.989-.01a1.37 1.37 0 001.5-1.33 1.331 1.331 0 00-1.443-1.37c-.851-.02-1.7 0-2.552-.01a4.023 4.023 0 01-3.962-2.97 4.084 4.084 0 013.235-5.1c.753-.11.651.07.668-.75a5.318 5.318 0 01.064-.96 1.3 1.3 0 011.3-1.05 1.273 1.273 0 011.3 1.04c.063.434.086.872.067 1.31 0 .29.131.34.378.34.761-.01 1.521-.01 2.282.01a1.323 1.323 0 011.265.8 1.3 1.3 0 01-.216 1.45 1.453 1.453 0 01-1.176.48h-2.599v.01h.003z"/></svg>