<?xml version="1.0" encoding="utf-8"?>
<!-- Generator: Adobe Illustrator 23.0.0, SVG Export Plug-In . SVG Version: 6.00 Build 0)  -->
<svg version="1.0" id="Слой_1" xmlns="http://www.w3.org/2000/svg" xmlns:xlink="http://www.w3.org/1999/xlink" x="0px" y="0px"
	 width="100px" height="100px" viewBox="0 0 100 100" enable-background="new 0 0 100 100" xml:space="preserve">
<circle id="_9.svg" fill="#ECF3F7" cx="50" cy="50" r="50"/>
<path id="_2.1.svg" fill-rule="evenodd" clip-rule="evenodd" fill="#164A8B" d="M45.886,37.013c0-0.21-0.006-0.4,0-0.59
	c-0.009-0.952,0.038-1.904,0.141-2.85c0.301-1.323,1.4-2.315,2.747-2.48c0.217-0.028,0.437-0.042,0.656-0.04h14.581
	c1.555-0.081,2.962,0.916,3.4,2.41c0.088,0.254,0.136,0.521,0.142,0.79c-0.009,1.6-0.011,3.2-0.082,4.8
	c-0.085,0.423-0.226,0.833-0.418,1.22c-0.067,0.125-0.088,0.271-0.059,0.41c0.4,0.595,0.597,1.304,0.561,2.02
	c0.014,1.45,0.017,2.91-0.055,4.37c-0.075,0.467-0.233,0.918-0.466,1.33c-0.082,0.167-0.08,0.364,0.007,0.53
	c0.252,0.488,0.418,1.016,0.493,1.56c0.047,1.6,0.012,3.2-0.055,4.79c-0.082,0.426-0.22,0.84-0.41,1.23
	c-0.07,0.135-0.091,0.291-0.058,0.44c0.386,0.589,0.575,1.287,0.54,1.99c0.006,1.51,0.068,3.02-0.076,4.52
	c-0.212,1.622-1.607,2.826-3.242,2.8c-4.733,0.02-9.465,0.023-14.194,0.01c-0.542,0.007-1.082-0.046-1.612-0.16
	c-0.427-0.127-0.832-0.319-1.2-0.57c-0.158-0.127-0.373-0.162-0.563-0.09c-2.688,0.97-5.605,1.109-8.373,0.4
	c-4.805-1.092-8.726-4.55-10.411-9.18c-2.936-7.68,0.909-16.286,8.589-19.222c0.945-0.361,1.924-0.625,2.923-0.788
	c2.068-0.331,4.182-0.229,6.208,0.3C45.694,36.985,45.79,37.002,45.886,37.013z M41.855,39.203
	c-6.724-0.012-12.185,5.43-12.196,12.154s5.43,12.185,12.154,12.196c6.633,0.012,12.055-5.289,12.194-11.92
	c0.144-6.719-5.186-12.283-11.906-12.427C42.019,39.204,41.937,39.203,41.855,39.203L41.855,39.203z M57.629,39.203v-0.02h1.624
	c1.573,0,3.146,0,4.719-0.01c0.366,0.091,0.737-0.133,0.827-0.499c0.015-0.06,0.021-0.121,0.02-0.182
	c0.01-1.34,0.007-2.68-0.019-4.02c0.067-0.329-0.145-0.65-0.474-0.717c-0.091-0.019-0.185-0.016-0.275,0.007H49.432
	c-0.398-0.063-0.771,0.209-0.833,0.607c-0.012,0.074-0.012,0.149-0.001,0.223c-0.01,1.067-0.01,2.137,0,3.21
	c0.007,0.149,0.073,0.289,0.182,0.39c0.902,0.698,2.019,1.059,3.159,1.02C53.838,39.173,55.734,39.203,57.629,39.203L57.629,39.203z
	 M50.457,63.523c0.2,0.02,0.278,0.04,0.353,0.04c4.394,0,8.788-0.003,13.183-0.01c0.389,0.072,0.764-0.185,0.836-0.574
	c0.017-0.091,0.016-0.185-0.003-0.276c0-1.23,0-2.45,0-3.68c0.089-0.394-0.159-0.785-0.553-0.874
	c-0.11-0.025-0.225-0.023-0.335,0.003c-2.822-0.01-5.644,0-8.466-0.01c-0.242-0.028-0.473,0.106-0.569,0.33
	c-0.881,1.638-2.069,3.091-3.5,4.28C51.114,62.993,50.828,63.223,50.457,63.523L50.457,63.523z M53.367,41.893
	c0.054,0.101,0.116,0.198,0.184,0.29c1.133,1.44,1.982,3.083,2.5,4.84c0.041,0.196,0.232,0.322,0.428,0.281
	c0.002,0,0.004-0.001,0.006-0.001c2.498,0,4.998-0.003,7.5-0.01c0.385,0.078,0.761-0.171,0.839-0.557
	c0.019-0.093,0.019-0.19,0-0.283c0.006-1.21,0.007-2.43,0.006-3.64c0.108-0.4-0.129-0.812-0.529-0.919
	c-0.127-0.034-0.26-0.035-0.387-0.001H53.369H53.367z M56.187,55.402c0.185,0.01,0.322,0.02,0.459,0.02
	c1.289,0.01,2.579,0.01,3.867,0.01h3.481c0.389,0.07,0.76-0.188,0.83-0.577c0.014-0.08,0.015-0.162,0.002-0.243
	c0-1.27,0.006-2.53,0-3.8c0.06-0.377-0.197-0.732-0.574-0.792c-0.077-0.012-0.156-0.012-0.233,0.002c-2.308-0.01-4.615,0-6.922-0.01
	c-0.261,0-0.371,0.06-0.348,0.35c0.092,1.314-0.009,2.635-0.3,3.92C56.369,54.643,56.281,55.003,56.187,55.402L56.187,55.402z
	 M72.31,69.662c0.2-0.23,0.4-0.45,0.6-0.69c2.698-3.202,4.676-6.947,5.8-10.98c0.876-3.15,1.207-6.428,0.979-9.69
	c-0.364-5.638-2.304-11.061-5.6-15.65c-3.611-5.184-8.822-9.041-14.835-10.98c-3.888-1.252-7.989-1.708-12.057-1.34
	c-3.265,0.294-6.453,1.157-9.42,2.55c-0.366,0.159-0.742,0.292-1.126,0.4c-0.621,0.254-1.332-0.043-1.586-0.664
	c-0.009-0.022-0.017-0.044-0.025-0.066c-0.296-0.645-0.024-1.407,0.612-1.72c0.974-0.47,1.965-0.9,2.973-1.29
	c2.788-1.049,5.709-1.702,8.678-1.94c2.508-0.192,5.029-0.108,7.518,0.25c4.443,0.609,8.7,2.179,12.474,4.6
	c7.805,5.052,13.148,13.131,14.744,22.29c0.293,1.495,0.431,3.017,0.414,4.54c-0.053,1.45-0.016,2.91-0.134,4.36
	c-0.239,2.66-0.854,5.272-1.825,7.76c-1.503,3.951-3.766,7.569-6.662,10.65c-0.085,0.09-0.163,0.18-0.321,0.37h0.576
	c1.469-0.03,2.939-0.07,4.408-0.09c0.725-0.071,1.37,0.459,1.441,1.185c0.008,0.085,0.008,0.17,0,0.255
	c-0.025,0.676-0.564,1.219-1.24,1.25c-2.733,0.08-5.467,0.15-8.2,0.21c-0.296,0.001-0.592-0.022-0.885-0.07
	c-0.621-0.031-1.099-0.559-1.068-1.18c0.003-0.061,0.011-0.121,0.024-0.18c0.171-1.07,0.372-2.13,0.58-3.19
	c0.355-1.81,0.724-3.61,1.091-5.42c0.108-0.766,0.817-1.298,1.582-1.19c0,0,0,0,0.001,0c0.748,0.113,1.263,0.811,1.151,1.559
	c-0.005,0.031-0.01,0.061-0.017,0.091c-0.218,1.26-0.466,2.51-0.7,3.76c-0.012,0.06-0.019,0.13-0.027,0.19L72.31,69.662z
	 M26.41,27.632c-0.104-0.016-0.21-0.025-0.315-0.03c-1.483,0.03-2.965,0.07-4.447,0.09c-0.306,0.009-0.611-0.038-0.9-0.14
	c-0.578-0.259-0.886-0.896-0.733-1.51c0.138-0.585,0.646-1.008,1.246-1.04c2.887-0.08,5.774-0.16,8.661-0.22
	c0.74-0.057,1.385,0.496,1.443,1.235c0.012,0.153-0.003,0.307-0.043,0.455c-0.447,2.31-0.914,4.62-1.373,6.93
	c-0.1,0.5-0.188,0.99-0.291,1.48c-0.127,0.75-0.834,1.259-1.586,1.14c-0.747-0.12-1.255-0.823-1.135-1.57
	c0.003-0.02,0.007-0.04,0.011-0.06c0.22-1.25,0.465-2.5,0.7-3.76c0.011-0.06,0.014-0.12,0.036-0.31
	c-0.165,0.16-0.259,0.25-0.341,0.34c-10.684,12.507-9.207,31.307,3.3,41.992c8.95,7.646,21.563,9.303,32.185,4.229
	c0.575-0.375,1.338-0.278,1.8,0.23c0.497,0.559,0.448,1.414-0.111,1.912c-0.126,0.112-0.271,0.2-0.429,0.258
	c-1.164,0.52-2.336,1.03-3.535,1.45c-3.523,1.232-7.237,1.828-10.969,1.76C34.159,82.25,21.022,71.214,18.12,56.063
	c-0.52-2.687-0.688-5.43-0.5-8.16c0.397-6.426,2.706-12.586,6.63-17.69c0.577-0.75,1.22-1.46,1.833-2.19
	c0.086-0.109,0.175-0.209,0.323-0.39L26.41,27.632z M43.143,47.333c-0.889,0-1.779-0.02-2.668,0c-0.66-0.021-1.228,0.464-1.309,1.12
	c-0.11,0.683,0.318,1.337,0.988,1.51c0.165,0.032,0.332,0.049,0.5,0.05c0.863,0,1.727-0.01,2.591,0
	c2.244,0.023,4.045,1.861,4.023,4.105c-0.021,2.081-1.611,3.81-3.682,4.005c-0.182-0.033-0.355,0.087-0.388,0.269
	c-0.009,0.05-0.007,0.102,0.007,0.151c0.018,0.306,0.018,0.614,0,0.92c0.018,0.756-0.581,1.383-1.337,1.4
	c-0.756,0.018-1.383-0.581-1.4-1.337c-0.001-0.024,0-0.049,0-0.073c-0.018-0.296-0.018-0.594,0-0.89c0.026-0.32-0.07-0.43-0.4-0.42
	c-0.786,0.02-1.573,0.02-2.359-0.01c-0.743-0.035-1.317-0.666-1.282-1.409c0.025-0.531,0.36-0.998,0.855-1.191
	c0.247-0.069,0.503-0.103,0.759-0.1c1.663,0,3.326,0.01,4.989,0c0.753,0.072,1.422-0.48,1.494-1.233
	c0.003-0.032,0.005-0.064,0.006-0.097c0.021-0.743-0.563-1.362-1.306-1.383c-0.046-0.001-0.091,0-0.137,0.003
	c-0.851-0.01-1.7,0.01-2.552,0c-1.848,0.032-3.48-1.196-3.962-2.98c-0.592-2.173,0.689-4.415,2.862-5.007
	c0.123-0.033,0.247-0.061,0.373-0.083c0.753-0.11,0.651,0.07,0.668-0.75c-0.008-0.325,0.013-0.649,0.064-0.97
	c0.126-0.616,0.671-1.057,1.3-1.05c0.632-0.016,1.182,0.429,1.3,1.05c0.063,0.434,0.086,0.872,0.067,1.31
	c0,0.29,0.131,0.34,0.378,0.34c0.76-0.01,1.521-0.01,2.281,0.01c0.547-0.021,1.05,0.297,1.265,0.8
	c0.232,0.482,0.147,1.057-0.215,1.45c-0.3,0.328-0.732,0.504-1.176,0.48h-2.6v0.01L43.143,47.333z"/>
</svg>
