<svg xmlns="http://www.w3.org/2000/svg" width="80" height="80"><path fill="#F4F4F7" d="M60 0H20C8.954 0 0 8.954 0 20v40c0 11.046 8.954 20 20 20h40c11.046 0 20-8.954 20-20V20C80 8.954 71.046 0 60 0z"/><path fill-rule="evenodd" clip-rule="evenodd" fill="#164A8B" d="M7.52 50.808a5.412 5.412 0 008.4 4.51l8.74 8.75a5.414 5.414 0 109.83 4.07h11.04a5.42 5.42 0 1010.643-2.049l-.022-.111a5.526 5.526 0 00-.79-1.91l4.71-4.71-1.53-1.53-4.72 4.71a5.413 5.413 0 00-7.5 1.52 5.526 5.526 0 00-.79 1.91h-11.04a5.432 5.432 0 00-2.33-3.44l.62-1.57-2.01-.81-.63 1.58a5.33 5.33 0 00-3.94.81l-8.75-8.75a5.4 5.4 0 00.81-3.95l8.07-3.22-.8-2.02-8.07 3.23a5.459 5.459 0 00-3.44-2.33v-11.05a5.459 5.459 0 003.44-2.33l8.07 3.23.8-2.01-8.07-3.23a5.4 5.4 0 00-.81-3.95l6.74-6.74-1.53-1.53-6.74 6.74a5.417 5.417 0 10-4.07 9.82v11.05a5.425 5.425 0 00-4.331 5.31zm43.319 12.99a3.25 3.25 0 11-3.25 3.25 3.256 3.256 0 013.25-3.25zm-21.66 0a3.25 3.25 0 11-3.25 3.25 3.256 3.256 0 013.25-3.25zm-19.49-34.65a3.245 3.245 0 113.24 3.25 3.242 3.242 0 01-3.24-3.25zm3.24 18.41a3.25 3.25 0 11.02 6.5 3.25 3.25 0 01-3.26-3.24v-.01a3.244 3.244 0 013.238-3.25h.002zm59.57-18.41a5.412 5.412 0 00-8.4-4.52l-8.74-8.74a5.418 5.418 0 10-9.83-4.071h-11.04a5.422 5.422 0 10-10.631 2.147 5.423 5.423 0 006.281 4.263l.63 1.57 2.01-.8-.63-1.58a5.41 5.41 0 002.34-3.44h11.04a5.41 5.41 0 002.34 3.44l-1.07 2.66 2.01.81 1.07-2.66a5.374 5.374 0 003.94-.81l8.75 8.74a5.4 5.4 0 00-.81 3.95l-8.07 3.23.8 2.01 8.07-3.23a5.432 5.432 0 003.44 2.33v11.05a5.432 5.432 0 00-3.44 2.33l-3.2-1.28-.8 2.01 3.2 1.28a5.4 5.4 0 00.81 3.95l-2.14 2.14 1.53 1.53 2.14-2.14a5.413 5.413 0 005.97-9.03 5.477 5.477 0 00-1.9-.79v-11.05a5.406 5.406 0 004.33-5.299zm-43.32-13a3.25 3.25 0 113.25-3.25 3.244 3.244 0 01-3.25 3.25zm21.66 0a3.25 3.25 0 113.25-3.25 3.25 3.25 0 01-3.25 3.25zm19.49 34.66a3.245 3.245 0 11-6.49-.01 3.245 3.245 0 016.49.01zm-3.25-18.41a3.25 3.25 0 113.25-3.25 3.248 3.248 0 01-3.25 3.25zm-36.819-2.17v24.91a2.18 2.18 0 002.17 2.17h11.91v2.16H32.43a4.332 4.332 0 01-4.33-4.33v-24.91h2.16zm24.91 25.99v-11.83a4.307 4.307 0 00-1.27-3.07l-1.98-1.98v7.77l1.85 1.85-1.53 1.53-2.17-2.17-3.66-3.66a1.213 1.213 0 10-1.71 1.72l3.66 3.66c.363.368.417.94.13 1.37a5.657 5.657 0 00-.35 5.65l.42.84c.072.154.109.321.11.49v1.08h-2.16v-.83l-.31-.61a7.85 7.85 0 01.03-7.05l-3.06-3.07a3.38 3.38 0 014.78-4.78l1.81 1.81v-19.04a2.168 2.168 0 00-2.166-2.17H45.01l-.78 1.57a1.088 1.088 0 01-.97.6h-6.5a1.088 1.088 0 01-.97-.6l-.78-1.57h-2.58a2.168 2.168 0 00-2.17 2.166v2.164H28.1v-2.16a4.332 4.332 0 014.33-4.33h15.16a4.332 4.332 0 014.33 4.33v10.38l3.51 3.51a6.458 6.458 0 011.91 4.6v11.83h-2.17zm-17.33-3.25h4.34v2.17h-4.34v-2.17zm4.65-13.31a3.507 3.507 0 00-4.96 0l-1.54-1.53a5.672 5.672 0 018.023-.007l.007.007-1.53 1.53zm3.25-2.72a8.093 8.093 0 00-11.447-.013l-.013.013-1.53-1.54c4.014-4 10.506-4 14.52 0l-1.53 1.54zm-4.65 6.29v2.16h-2.16v-2.16h2.16zm-6.5 0h2.17v2.16h-2.17v-2.16z"/></svg>