<?xml version="1.0" encoding="utf-8"?>
<!-- Generator: Adobe Illustrator 23.0.0, SVG Export Plug-In . SVG Version: 6.00 Build 0)  -->
<svg version="1.0" id="Слой_1" xmlns="http://www.w3.org/2000/svg" xmlns:xlink="http://www.w3.org/1999/xlink" x="0px" y="0px"
	 width="99.97px" height="100px" viewBox="0 0 99.97 100" enable-background="new 0 0 99.97 100" xml:space="preserve">
<circle id="_3.svg" fill="#ECF3F7" cx="49.985" cy="50" r="49.985"/>
<path id="_3.1.svg" fill-rule="evenodd" clip-rule="evenodd" fill="#164A8B" d="M17.473,60.848c0.001,2.989,2.426,5.411,5.415,5.409
	c1.062,0,2.1-0.313,2.985-0.899l8.74,8.75c-1.64,2.5-0.943,5.856,1.557,7.497c2.5,1.64,5.856,0.943,7.496-1.558
	c0.375-0.571,0.638-1.209,0.776-1.879h11.04c0.624,2.926,3.502,4.793,6.429,4.169c2.884-0.615,4.746-3.423,4.191-6.319
	c-0.141-0.681-0.409-1.329-0.79-1.91l4.71-4.71l-1.53-1.54l-4.72,4.72c-2.491-1.65-5.848-0.97-7.5,1.52
	c-0.381,0.582-0.649,1.229-0.79,1.91h-11.04c-0.29-1.413-1.133-2.651-2.34-3.44l0.63-1.57l-2.01-0.81l-0.63,1.57
	c-1.37-0.247-2.782,0.047-3.94,0.82l-8.75-8.75c0.77-1.163,1.06-2.578,0.81-3.95l8.07-3.23l-0.8-2.01l-8.07,3.23
	c-0.795-1.2-2.031-2.037-3.44-2.33v-11.05c1.409-0.293,2.645-1.13,3.44-2.33l8.07,3.23l0.8-2.01l-8.07-3.23
	c0.25-1.372-0.04-2.788-0.81-3.95l6.74-6.74l-1.53-1.53l-6.74,6.74c-2.49-1.658-5.853-0.983-7.511,1.507
	c-1.658,2.49-0.983,5.853,1.507,7.511c0.586,0.39,1.243,0.663,1.934,0.801v11.05C19.281,56.055,17.472,58.274,17.473,60.848z
	 M60.793,73.838c1.795,0,3.25,1.455,3.25,3.25s-1.455,3.25-3.25,3.25s-3.25-1.455-3.25-3.25l0,0
	C57.546,75.295,58.999,73.842,60.793,73.838z M39.133,73.838c1.795,0,3.25,1.455,3.25,3.25s-1.455,3.25-3.25,3.25
	s-3.25-1.455-3.25-3.25l0,0C35.886,75.295,37.339,73.842,39.133,73.838L39.133,73.838z M19.643,39.188
	c-0.003-1.792,1.448-3.247,3.24-3.25c1.792-0.002,3.247,1.448,3.25,3.24c0.003,1.792-1.448,3.248-3.24,3.25c-0.003,0-0.006,0-0.01,0
	C21.094,42.428,19.643,40.977,19.643,39.188L19.643,39.188z M22.883,57.598c1.792-0.003,3.247,1.448,3.25,3.24
	c0.003,1.792-1.448,3.248-3.24,3.25c-1.792,0.002-3.247-1.448-3.25-3.24l0,0c-0.004-1.792,1.446-3.247,3.238-3.25
	C22.881,57.598,22.882,57.598,22.883,57.598L22.883,57.598z M82.453,39.188c0.004-2.989-2.415-5.416-5.404-5.419
	c-1.065-0.002-2.107,0.311-2.996,0.899l-8.74-8.75c1.64-2.5,0.943-5.856-1.557-7.497c-2.5-1.64-5.856-0.943-7.496,1.558
	c-0.375,0.571-0.638,1.209-0.776,1.879h-11.04c-0.593-2.936-3.454-4.835-6.389-4.242c-2.936,0.593-4.835,3.454-4.242,6.389
	c0.585,2.894,3.376,4.789,6.281,4.263l0.63,1.57l2.01-0.8l-0.63-1.58c1.207-0.789,2.05-2.027,2.34-3.44h11.04
	c0.29,1.413,1.133,2.651,2.34,3.44l-1.07,2.66l2.01,0.8l1.07-2.65c1.369,0.25,2.781-0.04,3.94-0.81l8.75,8.74
	c-0.77,1.163-1.06,2.578-0.81,3.95l-8.07,3.23l0.8,2.01l8.07-3.23c0.793,1.202,2.03,2.04,3.44,2.33v11.05
	c-1.41,0.29-2.647,1.128-3.44,2.33l-3.2-1.28l-0.8,2.01l3.2,1.28c-0.25,1.372,0.04,2.788,0.81,3.95l-2.14,2.14l1.53,1.53l2.14-2.14
	c2.47,1.685,5.837,1.048,7.522-1.421c1.685-2.47,1.049-5.837-1.421-7.522c-0.043-0.03-0.087-0.059-0.131-0.087
	c-0.578-0.381-1.222-0.649-1.9-0.79v-11.05C80.641,43.973,82.45,41.759,82.453,39.188L82.453,39.188z M39.133,26.188
	c-1.795,0-3.25-1.455-3.25-3.25s1.455-3.25,3.25-3.25s3.25,1.455,3.25,3.25l0,0C42.383,24.733,40.928,26.188,39.133,26.188
	L39.133,26.188z M60.793,26.188c-1.795,0-3.25-1.455-3.25-3.25s1.455-3.25,3.25-3.25s3.25,1.455,3.25,3.25l0,0
	C64.039,24.732,62.586,26.185,60.793,26.188z M80.283,60.848c-0.003,1.792-1.458,3.243-3.25,3.24
	c-1.792-0.003-3.243-1.458-3.24-3.25c0.003-1.789,1.452-3.237,3.24-3.24c1.79-0.005,3.245,1.442,3.25,3.232
	C80.283,60.836,80.283,60.842,80.283,60.848L80.283,60.848z M77.033,42.428c-1.792-0.003-3.243-1.458-3.24-3.25
	s1.458-3.243,3.25-3.24c1.792,0.003,3.243,1.458,3.24,3.25c0,1.789-1.449,3.239-3.238,3.24
	C77.041,42.428,77.037,42.428,77.033,42.428L77.033,42.428z M40.213,40.268v24.91c0.003,1.195,0.974,2.163,2.17,2.16h11.91v2.17
	h-11.91c-2.391-0.001-4.329-1.939-4.33-4.33v-24.91H40.213L40.213,40.268z M65.123,66.259v-11.84c0.004-1.149-0.454-2.251-1.27-3.06
	l-1.98-1.98v7.77l1.85,1.85l-1.53,1.53l-2.17-2.17l-3.66-3.66c-0.484-0.463-1.252-0.445-1.715,0.04
	c-0.45,0.471-0.447,1.212,0.005,1.681l3.66,3.66c0.363,0.368,0.417,0.94,0.13,1.37c-1.118,1.686-1.252,3.839-0.35,5.65l0.42,0.84
	c0.072,0.153,0.109,0.321,0.11,0.49v1.08h-2.16v-0.83l-0.31-0.61c-1.105-2.223-1.094-4.837,0.03-7.05l-3.06-3.07
	c-1.31-1.33-1.294-3.47,0.036-4.78c1.316-1.296,3.428-1.296,4.744,0l1.81,1.81V35.94c0.001-1.197-0.969-2.169-2.166-2.17
	c-0.001,0-0.003,0-0.004,0h-2.58l-0.78,1.57c-0.188,0.364-0.561,0.595-0.97,0.6h-6.5c-0.409-0.005-0.782-0.236-0.97-0.6l-0.78-1.57
	h-2.58c-1.197-0.001-2.169,0.969-2.17,2.166c0,0.001,0,0.002,0,0.004v2.16h-2.16v-2.16c0-2.393,1.937-4.334,4.33-4.34h15.16
	c2.393,0.005,4.33,1.947,4.33,4.34v10.38l3.51,3.51c1.224,1.213,1.912,2.866,1.91,4.59v11.84L65.123,66.259L65.123,66.259z
	 M47.793,63.009h4.34v2.17h-4.34V63.009z M52.443,49.699c-1.37-1.37-3.59-1.37-4.96,0c0,0,0,0,0,0l-1.54-1.53
	c2.214-2.217,5.805-2.221,8.023-0.007c0.002,0.002,0.005,0.005,0.007,0.007L52.443,49.699z M55.693,46.978
	c-3.157-3.165-8.282-3.17-11.447-0.013c-0.004,0.004-0.009,0.009-0.013,0.013l0,0l-1.53-1.54c4.014-4,10.506-4,14.52,0
	L55.693,46.978z M51.043,53.258v2.17h-2.16v-2.17H51.043z M44.543,53.258h2.17v2.17h-2.17V53.258z"/>
</svg>
