<svg xmlns="http://www.w3.org/2000/svg" width="80" height="80"><path fill="#F4F4F7" d="M60 0H20C8.954 0 0 8.954 0 20v40c0 11.046 8.954 20 20 20h40c11.046 0 20-8.954 20-20V20C80 8.954 71.046 0 60 0z"/><path fill-rule="evenodd" clip-rule="evenodd" fill="#164A8B" d="M11.838 25.92h2.163v2.16h-2.166v-2.16h.003zm4.332 0h2.167v2.16H16.17v-2.16zm4.333 0h2.167v2.16h-2.169v-2.16h.002zm-8.665 13h2.163v2.16h-2.166v-2.16h.003zm4.332 0h2.167v2.16H16.17v-2.16zm4.333 0h2.167v2.16h-2.169v-2.16h.002zm-8.665 13h2.163v2.16h-2.166v-2.16h.003zm4.332 0h2.167v2.16H16.17v-2.16zm4.333 0h2.167v2.16h-2.169v-2.16h.002zm43.328-36.83v-3.25h-2.166V14h-2.164v2.17h3.249a1.087 1.087 0 001.081-1.08zm7.583 18.41h-19.5a1.086 1.086 0 00-1.083 1.08v4.34h-6.5V15.09h2.17v4.33a1.078 1.078 0 001.078 1.08h5.422v2.17h-2.166v2.17h13v-2.17h-2.166V20.5h5.416a1.079 1.079 0 001.083-1.075V8.59a1.088 1.088 0 00-1.083-1.09h-19.5c-.6.003-1.084.49-1.083 1.09v4.33h-3.251a1.08 1.08 0 00-1.084 1.076V38.92h-4.333v-4.34h-2.166v-2.16h2.166V21.59H7.501v10.83h2.166v2.16H7.501v10.84h2.166v2.16H7.501v10.83H37.83V47.58h-2.166v-2.16h2.166v-4.34h4.333v20.58c-.001.6.484 1.088 1.084 1.09h3.254v4.33a1.078 1.078 0 001.078 1.08h5.422v2.17h-2.166v2.17h13v-2.17h-2.166v-2.17h5.416a1.079 1.079 0 001.083-1.075V56.25a1.088 1.088 0 00-1.083-1.09h-19.5c-.6.003-1.084.49-1.083 1.09v4.33h-2.166v-19.5h6.5v4.34a1.086 1.086 0 001.083 1.08h5.416v2.17h-2.166v2.16h13v-2.16h-2.168V46.5h5.416a1.086 1.086 0 001.083-1.08V34.58a1.087 1.087 0 00-1.086-1.08zM59.501 22.67h-4.333V20.5h4.333v2.17zm-10.832-13h17.332v8.67H48.666V9.67h.003zm-39 14.08h26v6.5h-26v-6.5zm23.83 8.67v2.16H11.838v-2.16h21.663-.002zm2.166 23.83h-26v-6.5h26v6.5zm-23.83-8.67v-2.16H33.5v2.16H11.835zm23.83-4.33h-26v-6.5h26v6.5zm23.831 27.08h-4.333v-2.17H59.5v2.17h-.004zm-10.832-13H66V66H48.666v-8.67h-.002zm15.164-8.66H59.5V46.5h4.332v2.17h-.004zm6.5-4.34H53.001v-8.66h17.33v8.66h-.003zm-2.167-3.25v-3.25H66V40h-2.17v2.17h3.25c.6-.003 1.084-.49 1.083-1.09h-.002zm-4.333 21.67V59.5h-2.166v2.16H59.5v2.17h3.249a1.079 1.079 0 001.081-1.077v-.003h-.002z"/></svg>