<?xml version="1.0" encoding="utf-8"?>
<!-- Generator: Adobe Illustrator 23.0.0, SVG Export Plug-In . SVG Version: 6.00 Build 0)  -->
<svg version="1.0" id="Слой_1" xmlns="http://www.w3.org/2000/svg" xmlns:xlink="http://www.w3.org/1999/xlink" x="0px" y="0px"
	 width="100px" height="100px" viewBox="0 0 100 100" enable-background="new 0 0 100 100" xml:space="preserve">
<circle id="_4.svg" fill="#ECF3F7" cx="50" cy="50" r="50"/>
<path id="_4.1.svg.svg" fill-rule="evenodd" clip-rule="evenodd" fill="#164A8B" d="M21.837,36.42H24v2.16h-2.166v-2.16H21.837z
	 M26.169,36.42h2.167v2.16h-2.167V36.42z M30.502,36.42h2.167v2.16H30.5v-2.16H30.502z M21.837,49.42H24v2.16h-2.166v-2.16H21.837z
	 M26.169,49.42h2.167v2.16h-2.167V49.42z M30.502,49.42h2.167v2.16H30.5v-2.16H30.502z M21.837,62.41H24v2.17h-2.166v-2.17H21.837z
	 M26.169,62.41h2.167v2.17h-2.167V62.41z M30.502,62.41h2.167v2.17H30.5v-2.17H30.502z M73.83,25.58v-3.24h-2.166v2.16H69.5v2.17
	h3.25C73.349,26.666,73.832,26.179,73.83,25.58L73.83,25.58z M81.413,44h-19.5c-0.596-0.002-1.081,0.479-1.083,1.075
	c0,0.001,0,0.003,0,0.005v4.34h-6.5V25.58h2.17v4.34C56.5,30.516,56.982,31,57.578,31c0.002,0,0.003,0,0.005,0H63v2.17h-2.166v2.16
	h13v-2.16h-2.166V31h5.416c0.596,0.002,1.081-0.479,1.083-1.075c0-0.001,0-0.003,0-0.005V19.09c0.001-0.6-0.483-1.087-1.083-1.09
	h-19.5c-0.6,0.003-1.084,0.49-1.083,1.09v4.33h-3.25c-0.596-0.002-1.081,0.479-1.083,1.075c0,0.001,0,0.003,0,0.005v24.92h-4.333
	v-4.34h-2.166v-2.16h2.166V32.08H17.5v10.84h2.166v2.16H17.5v10.83h2.166v2.17H17.5v10.83h30.329V58.08h-2.166v-2.17h2.166v-4.33
	h4.333v20.58c-0.001,0.6,0.483,1.087,1.083,1.09h3.25v4.33c-0.001,0.596,0.482,1.08,1.078,1.08c0.002,0,0.003,0,0.005,0H63v2.17
	h-2.166v2.16h13v-2.16h-2.166v-2.17h5.416c0.596,0.002,1.081-0.479,1.083-1.075c0-0.001,0-0.003,0-0.005V66.75
	c0.001-0.6-0.483-1.087-1.083-1.09h-19.5c-0.6,0.003-1.084,0.49-1.083,1.09v4.33h-2.166v-19.5h6.5v4.33
	c-0.001,0.6,0.483,1.087,1.083,1.09h5.416v2.16h-2.166v2.17h13v-2.17H76V57h5.416c0.6-0.003,1.084-0.49,1.083-1.09V45.08
	C82.5,44.484,82.018,44,81.422,44C81.419,44,81.416,44,81.413,44L81.413,44z M69.5,33.17h-4.332V31H69.5V33.17z M58.669,20.17H76
	v8.66H58.665v-8.66H58.669z M19.669,34.25h26v6.5h-26V34.25z M43.5,42.92v2.16H21.837v-2.16H43.5L43.5,42.92z M45.666,66.75h-26
	v-6.5h26V66.75z M21.836,58.08v-2.17H43.5v2.17H21.837H21.836z M45.666,53.75h-26v-6.5h26V53.75z M69.496,80.83h-4.332v-2.17H69.5
	v2.17H69.496z M58.664,67.83H76v8.67H58.665v-8.67H58.664z M73.829,59.16H69.5V57h4.333v2.16H73.829z M80.329,54.83H63v-8.66h17.331
	v8.66H80.329z M78.163,51.58v-3.25H76v2.17h-2.17v2.17h3.25C77.68,52.667,78.165,52.18,78.163,51.58L78.163,51.58z M73.83,73.25V70
	h-2.166v2.16H69.5v2.17h3.25C73.346,74.327,73.827,73.845,73.83,73.25L73.83,73.25z"/>
</svg>
