<svg xmlns="http://www.w3.org/2000/svg" width="80" height="80"><path fill="#F4F4F7" d="M60 0H20C8.954 0 0 8.954 0 20v40c0 11.046 8.954 20 20 20h40c11.046 0 20-8.954 20-20V20C80 8.954 71.046 0 60 0z"/><path fill-rule="evenodd" clip-rule="evenodd" fill="#164A8B" d="M69.258 66.012h-54.6l9.262-18.51a4.284 4.284 0 003.861-1.09l7.023 5.29a4.23 4.23 0 00-.225 1.31 4.334 4.334 0 106.517-3.72l.693-7.13c.127 0 .25.02.376.02a17.2 17.2 0 009.744-3.01l9.638 9.64a3.246 3.246 0 104.587-4.59l-9.636-9.63a17.245 17.245 0 002.918-7.98l3.606-.32a4.324 4.324 0 10-.193-2.15l-3.345.29c-.218-9.569-8.152-17.148-17.721-16.93s-17.148 8.152-16.93 17.721a17.33 17.33 0 0014.798 16.749l-.651 6.72c-.021 0-.041-.01-.063-.01a4.33 4.33 0 00-2.955 1.18l-7.022-5.28a4.33 4.33 0 00-7.964-3.33 4.323 4.323 0 001.012 5.26l-8 15.99v-51.73a3.25 3.25 0 00-6.5 0v56.32a5.416 5.416 0 005.419 5.41h56.354a3.246 3.246 0 00.012-6.49h-.015zm-2.168-43.32a2.165 2.165 0 11-2.167 2.163v-.003a2.167 2.167 0 012.167-2.16zm-2.485 23.06c.205.2.321.474.322.76.001.287-.116.561-.322.76a1.08 1.08 0 01-1.525 0l-9.455-9.45c.54-.473 1.049-.981 1.524-1.52l9.456 9.45zm-37.608-20.9c-.007-8.38 6.78-15.179 15.16-15.186 8.38-.007 15.179 6.78 15.186 15.16.007 8.38-6.78 15.179-15.16 15.186h-.014c-8.376.003-15.168-6.784-15.172-15.16zm11.921 25.99a2.17 2.17 0 11-2.167 2.173v-.003a2.168 2.168 0 012.162-2.17h.005zm-14.088-9.74a2.165 2.165 0 11-2.168 2.162v-.002a2.165 2.165 0 012.163-2.16h.005zm44.433 29.24H12.904a3.254 3.254 0 01-3.252-3.25v-56.32a1.084 1.084 0 112.168 0v56.32c0 .596.483 1.08 1.08 1.08h56.358a1.085 1.085 0 010 2.17h.005zm-14.089-45.49c0-7.18-5.82-13-13-13s-13 5.82-13 13 5.82 13 13 13c7.176.001 12.994-5.815 12.995-12.991v-.009h.005zm-13 4.33a2.165 2.165 0 112.168-2.162v.002a2.165 2.165 0 01-2.17 2.16h-.008.01zm.249 6.49l.425-4.39a4.326 4.326 0 003.589-3.55l6.314-.54a10.846 10.846 0 01-10.328 8.48zm-11.086-10.82c.058-5.985 4.957-10.791 10.942-10.733 5.904.057 10.676 4.829 10.733 10.733 0 .05-.007.1-.008.14l-6.76.59a4.322 4.322 0 10-5.554 5.49l-.434 4.43a10.838 10.838 0 01-8.919-10.65z"/></svg>