<?xml version="1.0" encoding="utf-8"?>
<!-- Generator: Adobe Illustrator 23.0.0, SVG Export Plug-In . SVG Version: 6.00 Build 0)  -->
<svg version="1.0" id="Слой_1" xmlns="http://www.w3.org/2000/svg" xmlns:xlink="http://www.w3.org/1999/xlink" x="0px" y="0px"
	 width="99.999px" height="100px" viewBox="0 0 99.999 100" enable-background="new 0 0 99.999 100" xml:space="preserve">
<circle id="_5.svg" fill="#ECF3F7" cx="50" cy="50" r="50"/>
<path id="_5.1.svg" fill-rule="evenodd" clip-rule="evenodd" fill="#164A8B" d="M79.26,76.012h-54.6l9.262-18.51
	c1.388,0.299,2.834-0.109,3.861-1.09l7.023,5.29c-0.144,0.422-0.219,0.864-0.225,1.31c-0.013,2.394,1.917,4.345,4.31,4.358
	s4.345-1.917,4.358-4.311c0.009-1.55-0.812-2.987-2.151-3.768l0.693-7.13c0.127,0,0.249,0.02,0.376,0.02
	c3.477,0,6.873-1.049,9.744-3.01l9.638,9.64c1.245,1.289,3.299,1.325,4.588,0.08s1.325-3.299,0.079-4.588
	c-0.026-0.028-0.053-0.055-0.081-0.081l-9.636-9.63c1.623-2.375,2.626-5.118,2.918-7.98l3.606-0.32
	c0.8,2.25,3.273,3.425,5.523,2.625s3.425-3.273,2.625-5.523c-0.8-2.25-3.273-3.425-5.523-2.625
	c-1.483,0.527-2.563,1.819-2.818,3.373l-3.345,0.29c-0.218-9.568-8.152-17.148-17.721-16.93c-9.569,0.219-17.148,8.152-16.93,17.721
	c0.193,8.442,6.443,15.517,14.797,16.749l-0.65,6.72c-0.021,0-0.041-0.01-0.063-0.01c-1.099,0.004-2.156,0.426-2.955,1.18
	l-7.023-5.29c0.143-0.422,0.217-0.864,0.221-1.31c0.015-2.394-1.913-4.347-4.307-4.363c-2.394-0.015-4.347,1.914-4.363,4.308
	c-0.008,1.268,0.539,2.476,1.498,3.305l-8,15.99V20.772c-0.045-1.795-1.536-3.214-3.331-3.169c-1.732,0.043-3.126,1.437-3.169,3.169
	v56.32c0.003,2.99,2.428,5.412,5.418,5.41h56.355c1.792,0,3.245-1.453,3.245-3.245s-1.453-3.245-3.245-3.245l0,0L79.26,76.012z
	 M77.092,32.692c1.196,0.001,2.164,0.971,2.163,2.167s-0.971,2.164-2.167,2.163c-1.196-0.001-2.164-0.971-2.163-2.167
	c0-0.001,0-0.002,0-0.003c0-1.193,0.966-2.16,2.159-2.161C77.087,32.692,77.09,32.692,77.092,32.692L77.092,32.692z M74.607,55.752
	c0.205,0.2,0.321,0.474,0.322,0.76c0.001,0.287-0.116,0.561-0.322,0.76c-0.422,0.42-1.104,0.42-1.525,0l-9.455-9.45
	c0.538-0.476,1.047-0.983,1.524-1.52L74.607,55.752z M36.999,34.852c-0.007-8.38,6.78-15.179,15.16-15.186
	c8.38-0.007,15.179,6.781,15.186,15.16c0.007,8.38-6.78,15.179-15.16,15.186c-0.005,0-0.009,0-0.014,0
	C43.796,50.014,37.004,43.227,36.999,34.852z M48.92,60.842c1.198-0.001,2.171,0.969,2.173,2.167
	c0.002,1.198-0.969,2.171-2.167,2.173c-1.198,0.002-2.171-0.968-2.173-2.167c0-0.001,0-0.002,0-0.003
	c-0.001-1.196,0.966-2.167,2.162-2.17H48.92z M34.832,51.102c1.196,0.001,2.164,0.972,2.162,2.168
	c-0.002,1.196-0.972,2.164-2.168,2.162c-1.196-0.002-2.164-0.973-2.162-2.168c0-0.001,0-0.001,0-0.002
	c0.003-1.193,0.97-2.159,2.163-2.16H34.832z M79.265,80.342h-56.36c-1.794-0.001-3.249-1.456-3.251-3.25v-56.32
	c0-0.599,0.485-1.084,1.084-1.084c0.599,0,1.084,0.485,1.084,1.084v56.32c-0.001,0.596,0.482,1.08,1.078,1.08
	c0.002,0,0.003,0,0.005,0H79.26c0.599,0,1.085,0.486,1.085,1.085c0,0.599-0.486,1.085-1.085,1.085H79.265z M65.176,34.852
	c0.003-7.183-5.818-13.007-13-13.01c-7.182-0.003-13.007,5.817-13.01,13c-0.003,7.182,5.818,13.007,13,13.01c0.003,0,0.007,0,0.01,0
	c7.176,0.001,12.994-5.815,12.995-12.991c0-0.003,0-0.006,0-0.009H65.176z M52.176,39.182c-1.196-0.001-2.164-0.972-2.162-2.168
	c0.002-1.196,0.972-2.164,2.168-2.162c1.196,0.002,2.164,0.973,2.162,2.168c0,0.001,0,0.001,0,0.002
	c-0.003,1.196-0.974,2.163-2.17,2.16c-0.003,0-0.005,0-0.008,0H52.176z M52.424,45.672l0.426-4.39
	c1.834-0.29,3.279-1.719,3.589-3.55l6.313-0.54C61.667,42.056,57.406,45.554,52.424,45.672L52.424,45.672z M41.339,34.852
	c0.058-5.985,4.957-10.791,10.942-10.733c5.904,0.057,10.676,4.829,10.733,10.733c0,0.05-0.007,0.09-0.008,0.14l-6.76,0.59
	c-0.787-2.254-3.253-3.443-5.507-2.656c-2.254,0.787-3.443,3.253-2.656,5.507c0.429,1.227,1.387,2.197,2.609,2.639l-0.434,4.43
	C45.103,44.575,41.348,40.092,41.339,34.852L41.339,34.852L41.339,34.852z"/>
</svg>
