<svg xmlns="http://www.w3.org/2000/svg" width="80" height="80"><path fill="#F4F4F7" d="M60 0H20C8.954 0 0 8.954 0 20v40c0 11.046 8.954 20 20 20h40c11.046 0 20-8.954 20-20V20C80 8.954 71.046 0 60 0z"/><path fill="#164A8B" d="M69.354 24.275a3.149 3.149 0 003.145-3.145V10.646a3.149 3.149 0 00-3.145-3.145H54.677a3.149 3.149 0 00-3.145 3.145V21.13a3.149 3.149 0 003.145 3.145h3.145v2.097h-2.097v2.097h5.242v10.484H56.64a7.331 7.331 0 00-3.019-1.786c.005-.106.007-.208.007-.311 0-4.624-3.762-8.387-8.387-8.387a8.422 8.422 0 00-7.064 3.88 8.348 8.348 0 00-3.42-.735c-3.479 0-6.612 2.193-7.838 5.41a7.291 7.291 0 00-2.213.88h-7.772v-3.145h4.193a3.149 3.149 0 003.145-3.145V10.646a3.149 3.149 0 00-3.145-3.145H10.646a3.149 3.149 0 00-3.145 3.145v20.967a3.149 3.149 0 003.145 3.145h4.193V40h7.639a7.286 7.286 0 00-1.019 2.097h-4.523v11.532h-4.193a3.149 3.149 0 00-3.145 3.145v9.435H7.501v3.145a3.149 3.149 0 003.145 3.145H27.42a3.149 3.149 0 003.145-3.145v-3.145h-2.097v-9.435a3.149 3.149 0 00-3.145-3.145h-6.29v-9.435h2.097c0 4.046 3.293 7.339 7.339 7.339h23.064c3.689 0 6.743-2.74 7.255-6.29h4.277v8.387h-7.339V72.5H72.5V53.63h-7.339V43.145h-6.378a7.26 7.26 0 00-.652-2.097h4.934v-12.58h5.242v-2.097H66.21v-2.097h3.144zM9.598 10.646c0-.578.47-1.048 1.048-1.048H21.13c.578 0 1.048.47 1.048 1.048v1.048H9.598v-1.048zm0 3.145h12.58v10.484H9.598V13.791zm1.048 18.87c-.578 0-1.048-.47-1.048-1.048v-5.242h12.58v5.242c0 .578-.47 1.048-1.048 1.048H10.646zm17.822 35.645v1.048c0 .578-.47 1.048-1.048 1.048H10.646c-.578 0-1.048-.47-1.048-1.048v-1.048h18.87zm-3.145-12.581c.578 0 1.048.47 1.048 1.048v9.435H11.694v-9.435c0-.578.47-1.048 1.048-1.048h12.581zm26.209-6.29H28.468a5.249 5.249 0 01-5.242-5.242 5.24 5.24 0 014.613-5.2l.688-.083.194-.665a6.32 6.32 0 016.037-4.535c1.157 0 2.294.325 3.29.938l1.001.617.499-1.066a6.311 6.311 0 015.694-3.634 6.296 6.296 0 016.29 6.29c0 .289-.026.597-.083.97l-.158 1.037 1.037.157c2.535.387 4.446 2.612 4.446 5.175a5.248 5.248 0 01-5.242 5.241zm18.87 20.967h-12.58v-6.29h12.58v6.29zm0-14.677v6.29h-12.58v-6.29h12.58zM53.629 10.646c0-.578.47-1.048 1.048-1.048h14.677c.578 0 1.048.47 1.048 1.048v7.339H53.629v-7.339zm10.483 15.725h-4.193v-2.097h4.193v2.097zm-9.435-4.193c-.578 0-1.048-.47-1.048-1.048v-1.048h16.774v1.048c0 .578-.47 1.048-1.048 1.048H54.677z"/></svg>