<?xml version="1.0" encoding="utf-8"?>
<!-- Generator: Adobe Illustrator 23.0.0, SVG Export Plug-In . SVG Version: 6.00 Build 0)  -->
<svg version="1.0" id="Слой_1" xmlns="http://www.w3.org/2000/svg" xmlns:xlink="http://www.w3.org/1999/xlink" x="0px" y="0px"
	 width="100px" height="100px" viewBox="0 0 100 100" enable-background="new 0 0 100 100" xml:space="preserve">
<circle id="_6.svg" fill="#ECF3F7" cx="50" cy="50" r="50"/>
<path fill="#164A8B" d="M79.354,34.275c1.734,0,3.145-1.411,3.145-3.145V20.646c0-1.734-1.411-3.145-3.145-3.145H64.677
	c-1.734,0-3.145,1.411-3.145,3.145V31.13c0,1.734,1.411,3.145,3.145,3.145h3.145v2.097h-2.097v2.097h5.242v10.484H66.64
	c-0.836-0.816-1.866-1.442-3.019-1.786c0.005-0.106,0.007-0.208,0.007-0.311c0-4.624-3.762-8.387-8.387-8.387
	c-2.869,0-5.536,1.493-7.064,3.88c-1.076-0.483-2.24-0.735-3.42-0.735c-3.479,0-6.612,2.193-7.838,5.41
	c-0.797,0.171-1.539,0.477-2.213,0.88h-7.772v-3.145h4.193c1.734,0,3.145-1.411,3.145-3.145V20.646c0-1.734-1.411-3.145-3.145-3.145
	H20.646c-1.734,0-3.145,1.411-3.145,3.145v20.967c0,1.734,1.411,3.145,3.145,3.145h4.193V50h7.639
	c-0.446,0.636-0.792,1.339-1.019,2.097h-4.523v11.532h-4.193c-1.734,0-3.145,1.411-3.145,3.145v9.435h-2.097v3.145
	c0,1.734,1.411,3.145,3.145,3.145H37.42c1.734,0,3.145-1.411,3.145-3.145v-3.145h-2.097v-9.435c0-1.734-1.411-3.145-3.145-3.145
	h-6.29v-9.435h2.097c0,4.046,3.293,7.339,7.339,7.339h23.064c3.689,0,6.743-2.74,7.255-6.29h4.277v8.387h-7.339V82.5H82.5V63.63
	h-7.339V53.145h-6.378c-0.109-0.738-0.335-1.44-0.652-2.097h4.934v-12.58h5.242v-2.097H76.21v-2.097L79.354,34.275L79.354,34.275z
	 M19.598,20.646c0-0.578,0.47-1.048,1.048-1.048H31.13c0.578,0,1.048,0.47,1.048,1.048v1.048h-12.58V20.646z M19.598,23.791h12.58
	v10.484h-12.58V23.791z M20.646,42.661c-0.578,0-1.048-0.47-1.048-1.048v-5.242h12.58v5.242c0,0.578-0.47,1.048-1.048,1.048H20.646z
	 M38.468,78.306v1.048c0,0.578-0.47,1.048-1.048,1.048H20.646c-0.578,0-1.048-0.47-1.048-1.048v-1.048H38.468z M35.323,65.725
	c0.578,0,1.048,0.47,1.048,1.048v9.435H21.694v-9.435c0-0.578,0.47-1.048,1.048-1.048H35.323z M61.532,59.435H38.468
	c-2.89,0-5.242-2.352-5.242-5.242c0-2.65,1.984-4.885,4.613-5.2l0.688-0.083l0.194-0.665c0.776-2.671,3.259-4.535,6.037-4.535
	c1.157,0,2.294,0.325,3.29,0.938l1.001,0.617l0.499-1.066c1.032-2.209,3.267-3.634,5.694-3.634c3.469,0,6.29,2.821,6.29,6.29
	c0,0.289-0.026,0.597-0.083,0.97l-0.158,1.037l1.037,0.157c2.535,0.387,4.446,2.612,4.446,5.175
	C66.774,57.084,64.422,59.435,61.532,59.435z M80.402,80.402h-12.58v-6.29h12.58V80.402z M80.402,65.725v6.29h-12.58v-6.29H80.402z
	 M63.629,20.646c0-0.578,0.47-1.048,1.048-1.048h14.677c0.578,0,1.048,0.47,1.048,1.048v7.339H63.629V20.646z M74.112,36.371h-4.193
	v-2.097h4.193V36.371z M64.677,32.178c-0.578,0-1.048-0.47-1.048-1.048v-1.048h16.774v1.048c0,0.578-0.47,1.048-1.048,1.048H64.677z
	"/>
</svg>
