<svg xmlns="http://www.w3.org/2000/svg" width="80" height="80"><path fill="#F4F4F7" d="M60 0H20C8.954 0 0 8.954 0 20v40c0 11.046 8.954 20 20 20h40c11.046 0 20-8.954 20-20V20C80 8.954 71.046 0 60 0z"/><g fill="#164A8B"><path d="M72.934 38.257l-15.535-5.245a1.413 1.413 0 00-.904 0L40.96 38.257c-.573.195-.96.732-.96 1.339V51.4c0 13.891 15.727 20.687 16.399 20.972a1.426 1.426 0 001.096 0c.672-.285 16.399-7.081 16.399-20.972V39.596c0-.607-.387-1.147-.96-1.339zM71.07 51.4c0 10.66-11.456 16.825-14.123 18.113-2.669-1.285-14.123-7.426-14.123-18.113V40.613l14.123-4.771 14.123 4.771V51.4z"/><path d="M50.99 49.002a1.424 1.424 0 00-1.986-.22 1.414 1.414 0 00-.22 1.986l5.649 7.061a1.4 1.4 0 001.025.528c.023.003.051.003.076.003.373 0 .734-.15.997-.415l9.886-9.886a1.413 1.413 0 00-1.997-1.997l-8.77 8.767-4.66-5.827zM55.535 58.359zM18.816 13.167a4.242 4.242 0 00-4.237 4.237 4.242 4.242 0 004.237 4.237 4.242 4.242 0 004.237-4.237 4.242 4.242 0 00-4.237-4.237zm0 5.649a1.416 1.416 0 01-1.412-1.412c0-.777.636-1.412 1.412-1.412.777 0 1.412.636 1.412 1.412 0 .777-.635 1.412-1.412 1.412zM32.939 13.167a4.242 4.242 0 00-4.237 4.237 4.242 4.242 0 004.237 4.237 4.242 4.242 0 004.237-4.237 4.243 4.243 0 00-4.237-4.237zm0 5.649a1.416 1.416 0 01-1.412-1.412c0-.777.636-1.412 1.412-1.412.777 0 1.412.636 1.412 1.412 0 .777-.636 1.412-1.412 1.412zM14.579 34.351a4.242 4.242 0 004.237 4.237 4.242 4.242 0 004.237-4.237 4.242 4.242 0 00-4.237-4.237 4.242 4.242 0 00-4.237 4.237zm5.649 0c0 .777-.636 1.412-1.412 1.412a1.416 1.416 0 01-1.412-1.412c0-.777.636-1.412 1.412-1.412.777 0 1.412.635 1.412 1.412zM32.939 30.114a4.242 4.242 0 00-4.237 4.237 4.242 4.242 0 004.237 4.237 4.242 4.242 0 004.237-4.237 4.243 4.243 0 00-4.237-4.237zm0 5.649a1.416 1.416 0 01-1.412-1.412c0-.777.636-1.412 1.412-1.412.777 0 1.412.636 1.412 1.412 0 .777-.636 1.412-1.412 1.412z"/><path d="M32.939 58.359H15.991a7.067 7.067 0 01-7.061-7.061A7.01 7.01 0 0111 46.307a7.028 7.028 0 014.991-2.07h16.947a1.412 1.412 0 000-2.824H15.991a7.067 7.067 0 01-7.061-7.061A7.01 7.01 0 0111 29.361a7.028 7.028 0 014.991-2.07h42.368c1.576 0 3.053.503 4.273 1.455a1.412 1.412 0 101.737-2.229 9.88 9.88 0 00-.925-.638 9.888 9.888 0 004.8-8.474c0-5.451-4.435-9.886-9.886-9.886H15.991c-5.451 0-9.886 4.434-9.886 9.886a9.886 9.886 0 004.796 8.471 9.98 9.98 0 00-1.898 1.488 9.816 9.816 0 00-2.898 6.988 9.886 9.886 0 004.796 8.471 9.98 9.98 0 00-1.898 1.488 9.816 9.816 0 00-2.898 6.988c0 5.451 4.435 9.886 9.886 9.886h16.947a1.412 1.412 0 00.001-2.826zM8.93 17.404a7.067 7.067 0 017.061-7.061h42.368c3.895 0 7.061 3.166 7.061 7.061s-3.166 7.061-7.061 7.061H15.991a7.067 7.067 0 01-7.061-7.061z"/><path d="M14.579 51.298a4.242 4.242 0 004.237 4.237c2.336 0 4.237-1.901 4.237-4.237s-1.901-4.237-4.237-4.237a4.242 4.242 0 00-4.237 4.237zm5.649 0c0 .777-.636 1.412-1.412 1.412a1.416 1.416 0 01-1.412-1.412c0-.777.636-1.412 1.412-1.412.777 0 1.412.635 1.412 1.412zM32.939 47.061c-2.336 0-4.237 1.901-4.237 4.237s1.901 4.237 4.237 4.237c2.336 0 4.237-1.901 4.237-4.237s-1.901-4.237-4.237-4.237zm0 5.649a1.416 1.416 0 01-1.412-1.412c0-.777.636-1.412 1.412-1.412.777 0 1.412.636 1.412 1.412 0 .777-.636 1.412-1.412 1.412z"/></g></svg>