<?xml version="1.0" encoding="utf-8"?>
<!-- Generator: Adobe Illustrator 23.0.0, SVG Export Plug-In . SVG Version: 6.00 Build 0)  -->
<svg version="1.0" id="Слой_1" xmlns="http://www.w3.org/2000/svg" xmlns:xlink="http://www.w3.org/1999/xlink" x="0px" y="0px"
	 width="100px" height="100px" viewBox="0 0 100 100" enable-background="new 0 0 100 100" xml:space="preserve">
<circle id="_7.svg" fill="#ECF3F7" cx="50" cy="50" r="50"/>
<path id="_7.1.svg" fill-rule="evenodd" clip-rule="evenodd" fill="#164A8B" d="M66.8,82.505c-0.188,0.003-0.375-0.034-0.548-0.11
	c-0.672-0.28-16.4-7.08-16.4-20.98v-11.82c0.004-0.605,0.388-1.142,0.96-1.34l15.535-5.24c0.292-0.099,0.608-0.099,0.9,0
	l15.535,5.24c0.572,0.198,0.956,0.735,0.96,1.34v11.82c0,13.9-15.727,20.7-16.4,20.98c-0.173,0.076-0.359,0.113-0.548,0.11l0,0H66.8
	z M52.677,50.615v10.8c0,10.69,11.454,16.84,14.123,18.12c2.666-1.29,14.123-7.46,14.123-18.12v-10.8L66.8,45.845L52.677,50.615z
	 M65.388,68.375h-0.076c-0.402-0.023-0.775-0.216-1.026-0.53l-5.649-7.07c-0.481-0.613-0.374-1.5,0.239-1.981
	c0.606-0.476,1.482-0.377,1.967,0.221l4.661,5.83l8.77-8.78c0.552-0.552,1.448-0.552,2,0s0.552,1.448,0,2l-9.886,9.89
	C66.125,68.225,65.765,68.377,65.388,68.375L65.388,68.375L65.388,68.375z M68.212,37.285H25.844
	c-5.465-0.173-9.754-4.744-9.581-10.209c0.166-5.221,4.36-9.416,9.581-9.581h42.368c5.465,0.173,9.754,4.744,9.581,10.209
	C77.627,32.925,73.433,37.119,68.212,37.285z M25.844,20.325c-3.902,0.016-7.052,3.192-7.036,7.094
	c0.016,3.879,3.157,7.021,7.036,7.036h42.368c3.902-0.016,7.052-3.192,7.036-7.094c-0.016-3.879-3.157-7.021-7.036-7.036H25.844z
	 M28.669,31.635c-2.342,0.001-4.241-1.896-4.243-4.237c-0.002-2.342,1.895-4.242,4.237-4.243c2.342-0.001,4.241,1.896,4.243,4.237
	c0,0.001,0,0.002,0,0.003C32.901,29.733,31.008,31.629,28.669,31.635L28.669,31.635z M28.669,25.975
	c-0.781-0.001-1.416,0.63-1.418,1.412c-0.002,0.781,0.631,1.416,1.412,1.418c0.781,0.001,1.415-0.629,1.418-1.41
	C30.08,26.614,29.45,25.98,28.669,25.975L28.669,25.975z M42.792,31.635c-2.342,0.002-4.242-1.895-4.244-4.236
	c-0.002-2.342,1.894-4.242,4.236-4.244c2.342-0.002,4.242,1.895,4.244,4.236c0,0.001,0,0.002,0,0.004
	C47.023,29.733,45.13,31.628,42.792,31.635z M42.792,25.975c-0.781-0.001-1.416,0.63-1.418,1.412
	c-0.002,0.781,0.631,1.416,1.412,1.418c0.781,0.001,1.415-0.629,1.418-1.41C44.203,26.614,43.573,25.98,42.792,25.975L42.792,25.975
	z M42.792,54.245H25.844c-5.465-0.173-9.754-4.744-9.581-10.209c0.166-5.221,4.36-9.416,9.581-9.581h42.368
	c2.177-0.011,4.294,0.711,6.011,2.05c0.616,0.479,0.726,1.368,0.247,1.983c-0.48,0.616-1.368,0.726-1.984,0.247
	c-1.221-0.95-2.727-1.46-4.274-1.45H25.844c-3.902,0.016-7.052,3.192-7.036,7.094c0.016,3.879,3.157,7.021,7.036,7.036h16.948
	c0.782,0,1.416,0.634,1.416,1.416S43.574,54.245,42.792,54.245L42.792,54.245z M28.669,48.595c-2.342,0.001-4.241-1.896-4.243-4.237
	c-0.002-2.342,1.895-4.242,4.237-4.243c2.342-0.001,4.241,1.896,4.243,4.237c0,0.001,0,0.002,0,0.003
	C32.901,46.693,31.008,48.589,28.669,48.595L28.669,48.595z M28.669,42.935c-0.781-0.001-1.416,0.63-1.418,1.412
	c-0.002,0.781,0.631,1.416,1.412,1.418c0.781,0.001,1.415-0.629,1.418-1.41C30.08,43.574,29.45,42.94,28.669,42.935L28.669,42.935z
	 M42.792,48.595c-2.342,0.002-4.242-1.895-4.244-4.236c-0.002-2.342,1.894-4.242,4.236-4.244c2.342-0.002,4.242,1.895,4.244,4.236
	c0,0.001,0,0.002,0,0.004C47.023,46.693,45.13,48.588,42.792,48.595z M42.792,42.935c-0.781-0.001-1.416,0.63-1.418,1.412
	c-0.002,0.781,0.631,1.416,1.412,1.418c0.781,0.001,1.415-0.629,1.418-1.41C44.203,43.574,43.573,42.94,42.792,42.935L42.792,42.935
	z M42.792,71.205H25.844c-5.465-0.173-9.754-4.744-9.581-10.209c0.166-5.221,4.36-9.416,9.581-9.581h16.948
	c0.781,0,1.415,0.633,1.415,1.415s-0.634,1.415-1.415,1.415H25.844c-3.902,0.016-7.052,3.192-7.036,7.094
	c0.016,3.879,3.157,7.021,7.036,7.036h16.948c0.782,0,1.415,0.634,1.415,1.416C44.207,70.571,43.574,71.205,42.792,71.205
	L42.792,71.205z M28.669,65.545c-2.342,0.001-4.241-1.896-4.243-4.237c-0.002-2.342,1.895-4.242,4.237-4.243
	c2.342-0.001,4.241,1.896,4.243,4.237c0,0.001,0,0.002,0,0.003C32.905,63.645,31.009,65.542,28.669,65.545L28.669,65.545z
	 M28.669,59.895c-0.781-0.001-1.416,0.63-1.418,1.412c-0.002,0.781,0.631,1.416,1.412,1.418c0.781,0.001,1.416-0.63,1.418-1.412
	c0-0.002,0-0.005,0-0.008C30.076,60.527,29.447,59.899,28.669,59.895L28.669,59.895z M42.792,65.545
	c-2.342,0.002-4.242-1.895-4.244-4.236c-0.002-2.342,1.894-4.242,4.236-4.244c2.342-0.002,4.242,1.895,4.244,4.236
	c0,0.001,0,0.002,0,0.004C47.027,63.644,45.132,65.542,42.792,65.545L42.792,65.545z M42.792,59.895
	c-0.781-0.001-1.416,0.63-1.418,1.412c-0.002,0.781,0.631,1.416,1.412,1.418c0.781,0.001,1.416-0.63,1.418-1.412
	c0-0.002,0-0.005,0-0.008C44.199,60.527,43.569,59.899,42.792,59.895L42.792,59.895z"/>
</svg>
