<svg xmlns="http://www.w3.org/2000/svg" width="80" height="80"><path fill="#F4F4F7" d="M60 0H20C8.954 0 0 8.954 0 20v40c0 11.046 8.954 20 20 20h40c11.046 0 20-8.954 20-20V20C80 8.954 71.046 0 60 0z"/><path fill-rule="evenodd" clip-rule="evenodd" fill="#164A8B" d="M69.78 36.75H66v-6.79A2.965 2.965 0 0063.041 27h-1.374V7.5H18.334v2.17h-3.25v2.16h-3.25v7.59h-1.373a2.965 2.965 0 00-2.96 2.96V69.7h.006a2.767 2.767 0 002.734 2.8h48.526a2.752 2.752 0 002.653-1.97l11.079-30.37v-.19c.001-1.87-1.144-3.22-2.719-3.22zm-6.74-7.58a.79.79 0 01.793.787v6.793h-2.167v-7.58h1.374zm-3.541-19.5v27.08H21.292a2.547 2.547 0 00-.73.11H20.5V9.67h38.999zm-41.165 2.16v27.72l-.068.19-1.015 2.78V11.83h1.083zM14 14h1.083v34.46L14 51.43V14zm-4.333 8.38a.8.8 0 01.793-.8h1.373v35.69l-2.166 5.91v-40.8zm49.688 47.5a.6.6 0 01-.589.45H10.28a.598.598 0 01-.486-.24.59.59 0 01-.133-.44l2.173-5.96 3.25-8.91 3.25-8.91v.01l2.093-5.75.074-.2.173-.47.028-.09a.606.606 0 01.59-.45H69.78a.833.833 0 01.543.88L59.355 69.88zM27 25.92h26a1.085 1.085 0 000-2.17H27a1.085 1.085 0 000 2.17zm0-7.59h10.833a1.081 1.081 0 00.02-2.16H27a1.08 1.08 0 000 2.16zm0 15.17h26a1.085 1.085 0 000-2.17H27a1.085 1.085 0 000 2.17z"/></svg>