<?xml version="1.0" encoding="utf-8"?>
<!-- Generator: Adobe Illustrator 23.0.0, SVG Export Plug-In . SVG Version: 6.00 Build 0)  -->
<svg version="1.0" id="Слой_1" xmlns="http://www.w3.org/2000/svg" xmlns:xlink="http://www.w3.org/1999/xlink" x="0px" y="0px"
	 width="100.004px" height="100px" viewBox="0 0 100.004 100" enable-background="new 0 0 100.004 100" xml:space="preserve">
<circle id="_8.svg" fill="#ECF3F7" cx="50.002" cy="50" r="50.002"/>
<path id="_8.1.svg" fill-rule="evenodd" clip-rule="evenodd" fill="#164A8B" d="M79.782,46.75h-3.78v-6.79
	c-0.003-1.634-1.326-2.957-2.96-2.96h-1.373V17.5H28.336v2.17h-3.25v2.16h-3.25v7.59h-1.374c-1.634,0-2.958,1.323-2.959,2.957
	c0,0.001,0,0.002,0,0.003V79.7h0.006c-0.018,1.528,1.206,2.782,2.734,2.8c0.013,0,0.025,0,0.038,0h48.488
	c1.224,0.006,2.305-0.796,2.653-1.97l11.079-30.37v-0.19C82.502,48.1,81.357,46.75,79.782,46.75z M73.041,39.17
	c0.436-0.002,0.791,0.349,0.793,0.785c0,0.001,0,0.003,0,0.005v6.79h-2.166v-7.58H73.041z M69.501,19.67v27.08H31.294
	c-0.247,0.002-0.492,0.036-0.73,0.1c-0.02,0.008-0.041,0.012-0.062,0.01V19.67H69.501L69.501,19.67z M28.336,21.83v27.72
	l-0.068,0.19l-1.015,2.78V21.83H28.336z M24.002,24h1.083v34.46l-1.083,2.97V24z M19.668,32.38c0-0.439,0.354-0.796,0.793-0.8h1.374
	v35.69l-2.167,5.91L19.668,32.38L19.668,32.38z M69.357,79.88c-0.069,0.268-0.312,0.454-0.589,0.45H20.281
	c-0.191,0.001-0.371-0.088-0.485-0.24c-0.102-0.123-0.15-0.281-0.133-0.44l2.173-5.96l0,0l3.25-8.91l0,0l3.25-8.91l0,0l2.093-5.74
	l0.073-0.2l0,0l0.174-0.47l0.028-0.09c0.071-0.267,0.314-0.452,0.59-0.45h48.488c0.363,0.132,0.588,0.496,0.542,0.88L69.357,79.88z
	 M37.002,35.92h26c0.599-0.005,1.081-0.495,1.076-1.094c-0.005-0.592-0.484-1.071-1.076-1.076h-26
	c-0.599,0.005-1.081,0.495-1.076,1.094C35.931,35.436,36.41,35.915,37.002,35.92z M37.002,28.33h10.833
	c0.596,0,1.08-0.483,1.08-1.08s-0.484-1.08-1.08-1.08H37.002c-0.596,0-1.08,0.483-1.08,1.08S36.406,28.33,37.002,28.33z
	 M37.002,43.5h26c0.599-0.005,1.081-0.495,1.076-1.094c-0.005-0.592-0.484-1.071-1.076-1.076h-26
	c-0.599,0.005-1.081,0.495-1.076,1.094C35.931,43.016,36.41,43.495,37.002,43.5z"/>
</svg>
