<svg xmlns="http://www.w3.org/2000/svg" width="80" height="80"><path fill="#F4F4F7" d="M60 0H20C8.954 0 0 8.954 0 20v40c0 11.046 8.954 20 20 20h40c11.046 0 20-8.954 20-20V20C80 8.954 71.046 0 60 0z"/><path fill-rule="evenodd" clip-rule="evenodd" fill="#164A8B" d="M42.177 11.416a3.808 3.808 0 012.33.81c.34.23.66.49 1.01.71a.515.515 0 00.42.04c.4-.14.77-.34 1.18-.47a.708.708 0 00.51-.68c.069-.561.18-1.115.33-1.66a3.69 3.69 0 013.55-2.66c.77-.01 1.54-.01 2.32 0a3.766 3.766 0 013.71 3.11c.09.48.15.96.26 1.44a.598.598 0 00.28.36c.429.205.87.385 1.32.54.16.049.333.031.48-.05.51-.31.97-.68 1.48-.98a3.64 3.64 0 014.29.36c.665.59 1.299 1.214 1.9 1.87a3.72 3.72 0 01.32 4.89 2.86 2.86 0 01-.31.44 1.38 1.38 0 00-.22 1.87 1.215 1.215 0 001.33.99 4.764 4.764 0 012.25.76 3.68 3.68 0 011.6 3.02c.02.79.02 1.59.01 2.39a3.73 3.73 0 01-3.02 3.62c-.48.1-.97.15-1.44.27a.889.889 0 00-.48.37c-.2.38-.34.8-.52 1.2a.535.535 0 00.08.6c.477.65.892 1.343 1.24 2.07a3.39 3.39 0 01-.63 3.59 22.355 22.355 0 01-1.86 1.91 3.76 3.76 0 01-4.92.36c-.35-.24-.7-.48-1.04-.74a.513.513 0 00-.6-.08c-.38.18-.78.34-1.17.49a.57.57 0 00-.4.5 16.07 16.07 0 01-.33 1.71 3.592 3.592 0 01-3.35 2.73c-.94.04-1.88.04-2.82 0a3.678 3.678 0 01-3.39-2.9c-.1-.49-.2-.99-.26-1.49a.624.624 0 00-.44-.56c-.378-.129-.749-.28-1.11-.45a.606.606 0 00-.68.07c-.587.437-1.209.825-1.86 1.16a3.238 3.238 0 01-3.45-.34 14.33 14.33 0 01-2.69-2.7 3.543 3.543 0 01.11-4.3c.22-.33.45-.66.7-.97a.6.6 0 00.08-.71 7.293 7.293 0 01-.42-1 .725.725 0 00-.68-.55 9.904 9.904 0 01-2.1-.51 3.428 3.428 0 01-2.2-3.18c-.05-1-.03-2.01.01-3.01a3.66 3.66 0 012.59-3.07c.62-.15 1.26-.24 1.89-.39a.643.643 0 00.39-.29c.214-.423.398-.861.55-1.31a.69.69 0 00-.09-.52 21.449 21.449 0 01-1.15-1.87 3.226 3.226 0 01.31-3.48 21.92 21.92 0 012.72-2.73 2.914 2.914 0 012.08-.6zm23.15 26.47a2.49 2.49 0 00-.22-.43c-.44-.65-.89-1.3-1.35-1.94a1.83 1.83 0 01-.17-1.96c.44-.97.84-1.96 1.22-2.96a1.848 1.848 0 011.49-1.24c.77-.13 1.53-.27 2.29-.4a.6.6 0 00.63-.74c.01-.56 0-1.13 0-1.7a.674.674 0 00-.71-.85c-.77-.13-1.55-.25-2.32-.4a1.64 1.64 0 01-1.31-1.07c-.41-1.01-.8-2.04-1.26-3.02a1.907 1.907 0 01.21-2.14c.45-.61.87-1.24 1.31-1.86a.59.59 0 00-.08-.86c-.45-.43-.88-.87-1.32-1.31a.587.587 0 00-.94-.09c-.63.44-1.25.87-1.87 1.32a1.871 1.871 0 01-2.03.19 52.8 52.8 0 00-2.92-1.21 1.807 1.807 0 01-1.26-1.52c-.11-.75-.25-1.5-.39-2.24a.6.6 0 00-.548-.648c-.024-.002-.048-.003-.072-.002-.69-.01-1.37 0-2.05 0a.556.556 0 00-.59.5c-.14.76-.28 1.52-.39 2.29a1.899 1.899 0 01-1.29 1.62c-.99.38-1.97.77-2.93 1.21a1.843 1.843 0 01-1.99-.19c-.63-.45-1.27-.89-1.9-1.33a.58.58 0 00-.92.09c-.42.41-.84.83-1.26 1.25a.63.63 0 00-.09 1.01c.44.64.89 1.27 1.33 1.9.418.548.484 1.287.17 1.9-.45.99-.86 2-1.26 3.02a1.782 1.782 0 01-1.5 1.21c-.77.12-1.53.26-2.29.4a.579.579 0 00-.59.568v.022c.01.7 0 1.39 0 2.09a.547.547 0 00.51.58c.75.13 1.49.27 2.25.38a1.918 1.918 0 011.66 1.3c.37.99.77 1.96 1.21 2.92a1.845 1.845 0 01-.2 2c-.45.62-.89 1.26-1.33 1.89a.592.592 0 00.09.92l1.26 1.26a.626.626 0 001 .09c.63-.44 1.25-.88 1.87-1.31a1.705 1.705 0 011.68-.3c1.17.49 2.35.97 3.52 1.47a1.4 1.4 0 01.87 1.02c.19.87.34 1.74.5 2.62a.594.594 0 00.74.63c.59.01 1.19.01 1.78 0a.62.62 0 00.77-.66c.1-.58.21-1.16.29-1.75a2.174 2.174 0 011.43-2.04 25.893 25.893 0 002.78-1.15 1.913 1.913 0 012.1.19c.63.46 1.27.89 1.91 1.33a.558.558 0 00.79-.02l.01-.01c.49-.48.97-.96 1.45-1.45.092-.12.17-.251.23-.39zm-46.31-9.85a4.301 4.301 0 012.4.86c.53.37 1.07.73 1.58 1.12a.6.6 0 00.7.06c.67-.3 1.34-.59 2.03-.85a.612.612 0 00.42-.53c.11-.72.23-1.43.38-2.13a1.636 1.636 0 013.23.45c-.17 1.23-.41 2.46-.64 3.69a1.613 1.613 0 01-1.25 1.29c-1.302.37-2.558.89-3.74 1.55a1.733 1.733 0 01-1.99-.11c-.82-.59-1.65-1.16-2.47-1.73a1.14 1.14 0 00-1.8.129c-.58.57-1.15 1.15-1.72 1.72a1.06 1.06 0 00-.15 1.56c.61.87 1.21 1.73 1.83 2.59.454.572.505 1.364.13 1.99a16.036 16.036 0 00-1.52 3.63 1.927 1.927 0 01-1.77 1.48c-.99.15-1.98.34-2.97.52a1.016 1.016 0 00-.91 1.07c-.02.92-.02 1.83-.01 2.75a1.04 1.04 0 00.92 1.11c1.02.19 2.03.37 3.05.53.797.05 1.47.607 1.67 1.38.36 1.292.878 2.534 1.54 3.7a1.766 1.766 0 01-.14 2c-.59.84-1.18 1.69-1.77 2.53a1.087 1.087 0 00.15 1.67c.57.58 1.15 1.15 1.72 1.73a1.1 1.1 0 001.65.14c.85-.59 1.69-1.18 2.53-1.78a1.749 1.749 0 012-.14 17.252 17.252 0 003.77 1.56c.7.173 1.218.764 1.3 1.48.19 1.02.37 2.05.54 3.08a1.08 1.08 0 001.2 1.05c.87.01 1.75.01 2.63 0a1.056 1.056 0 001.139-.966l.001-.014.6-3.26a1.628 1.628 0 011.16-1.33 19.99 19.99 0 003.92-1.62 1.708 1.708 0 011.93.14c.84.6 1.68 1.19 2.53 1.78a1.092 1.092 0 001.7-.15c.6-.59 1.19-1.18 1.78-1.78a1.046 1.046 0 00.13-1.5c-.58-.85-1.16-1.69-1.78-2.52a1.878 1.878 0 01-.12-2.24 15.739 15.739 0 001.47-3.55 1.77 1.77 0 011.48-1.36c1.1-.19 2.21-.39 3.31-.56a1.682 1.682 0 011.93 1.32 1.665 1.665 0 01-1.35 1.9c-.67.15-1.35.26-2.02.36a.619.619 0 00-.56.44c-.26.69-.55 1.36-.85 2.03a.59.59 0 00.06.67c.44.6.89 1.2 1.28 1.84a4.201 4.201 0 01-.45 5.28 26.06 26.06 0 01-2.36 2.34 4.235 4.235 0 01-5.45.25c-.56-.39-1.11-.8-1.68-1.16a.673.673 0 00-.52-.05c-.73.28-1.46.59-2.17.91a.674.674 0 00-.34.4c-.17.81-.29 1.64-.48 2.46a4.274 4.274 0 01-3.96 3.24c-1.07.02-2.14.02-3.21 0a4.284 4.284 0 01-4.12-3.34c-.16-.72-.28-1.45-.39-2.17a.713.713 0 00-.5-.65c-.7-.25-1.37-.58-2.07-.84a.643.643 0 00-.51.04c-.58.37-1.12.79-1.69 1.17a4.251 4.251 0 01-5.53-.34 29.113 29.113 0 01-2.22-2.21 4.26 4.26 0 01-.34-5.57c.38-.55.76-1.1 1.16-1.64a.5.5 0 00.05-.56c-.31-.69-.61-1.39-.88-2.1a.631.631 0 00-.56-.44 22.88 22.88 0 01-2.46-.48 4.092 4.092 0 01-2.98-3.05 4.891 4.891 0 01-.14-1.15c-.02-.91 0-1.83-.01-2.74a4.364 4.364 0 013.87-4.39c.63-.09 1.25-.21 1.87-.34a.677.677 0 00.37-.32c.32-.72.6-1.45.92-2.17a.483.483 0 00-.06-.56c-.43-.6-.87-1.19-1.26-1.81a4.213 4.213 0 01.44-5.4c.77-.85 1.61-1.63 2.46-2.4a4.094 4.094 0 012.94-.989zm13.43 30.77c-6.087.149-11.142-4.664-11.291-10.751a11.024 11.024 0 016.741-10.429 11.354 11.354 0 014.18-.88c.918-.034 1.7.664 1.77 1.58.017.89-.662 1.64-1.55 1.71a7.812 7.812 0 00-4.15 1.18 7.515 7.515 0 00-3.66 6.59 7.677 7.677 0 005.48 7.38 7.774 7.774 0 009.51-4.76c.298-.88.46-1.801.48-2.73a1.65 1.65 0 113.294.194l-.004.056a10.936 10.936 0 01-5.7 9.49 10.01 10.01 0 01-5.1 1.37zm12.36-31.49a7.885 7.885 0 1115.77-.01 7.885 7.885 0 01-7.88 7.89h-.03a7.873 7.873 0 01-7.86-7.88zm7.9 4.57a4.57 4.57 0 10-4.59-4.55 4.59 4.59 0 004.59 4.55z"/></svg>