<?xml version="1.0" encoding="utf-8"?>
<!-- Generator: Adobe Illustrator 23.0.0, SVG Export Plug-In . SVG Version: 6.00 Build 0)  -->
<svg version="1.0" id="Слой_1" xmlns="http://www.w3.org/2000/svg" xmlns:xlink="http://www.w3.org/1999/xlink" x="0px" y="0px"
	 width="100px" height="100px" viewBox="0 0 100 100" enable-background="new 0 0 100 100" xml:space="preserve">
<circle id="_9.svg" fill="#ECF3F7" cx="50" cy="50" r="50"/>
<path id="_9.1.svg" fill-rule="evenodd" clip-rule="evenodd" fill="#164A8B" d="M52.177,21.417c0.846,0,1.667,0.285,2.33,0.81
	c0.34,0.23,0.66,0.49,1.01,0.71c0.13,0.064,0.28,0.078,0.42,0.04c0.4-0.14,0.77-0.35,1.18-0.47c0.301-0.091,0.507-0.366,0.51-0.68
	c0.069-0.561,0.18-1.116,0.33-1.66c0.455-1.581,1.905-2.667,3.55-2.66c0.77-0.01,1.54-0.01,2.32,0
	c1.827-0.001,3.392,1.311,3.71,3.11c0.09,0.48,0.15,0.96,0.26,1.44c0.045,0.151,0.145,0.279,0.28,0.36
	c0.429,0.205,0.87,0.385,1.32,0.54c0.16,0.049,0.333,0.031,0.48-0.05c0.51-0.31,0.97-0.68,1.48-0.98
	c1.355-0.829,3.092-0.683,4.29,0.36c0.665,0.59,1.299,1.214,1.9,1.87c1.317,1.319,1.454,3.41,0.32,4.89
	c-0.092,0.154-0.195,0.302-0.31,0.44c-0.553,0.469-0.649,1.286-0.22,1.87c0.114,0.628,0.695,1.062,1.33,0.99
	c0.802,0.059,1.576,0.32,2.25,0.76c0.995,0.68,1.593,1.805,1.6,3.01c0.02,0.8,0.02,1.6,0.01,2.4c-0.02,1.771-1.282,3.283-3.02,3.62
	c-0.48,0.1-0.97,0.15-1.44,0.27c-0.2,0.06-0.371,0.191-0.48,0.37c-0.2,0.38-0.34,0.8-0.52,1.2c-0.1,0.197-0.068,0.436,0.08,0.6
	c0.479,0.648,0.895,1.341,1.24,2.07c0.506,1.217,0.26,2.617-0.63,3.59c-0.584,0.671-1.205,1.309-1.86,1.91
	c-1.321,1.329-3.419,1.482-4.92,0.36c-0.35-0.24-0.7-0.49-1.04-0.75c-0.166-0.146-0.405-0.174-0.6-0.07
	c-0.38,0.18-0.78,0.33-1.17,0.49c-0.225,0.066-0.385,0.266-0.4,0.5c-0.079,0.576-0.189,1.146-0.33,1.71
	c-0.383,1.555-1.75,2.668-3.35,2.73c-0.94,0.04-1.88,0.04-2.82-0.01c-1.654-0.085-3.045-1.271-3.39-2.89
	c-0.1-0.49-0.2-0.99-0.26-1.49c-0.015-0.26-0.191-0.484-0.44-0.56c-0.38-0.128-0.751-0.282-1.11-0.46
	c-0.223-0.111-0.489-0.079-0.68,0.08c-0.587,0.437-1.209,0.825-1.86,1.16c-1.119,0.563-2.463,0.431-3.45-0.34
	c-1.013-0.776-1.918-1.685-2.69-2.7c-0.937-1.294-0.892-3.055,0.11-4.3c0.22-0.33,0.45-0.66,0.7-0.98
	c0.18-0.189,0.212-0.475,0.08-0.7c-0.165-0.322-0.305-0.657-0.42-1c-0.078-0.314-0.356-0.539-0.68-0.55
	c-0.716-0.093-1.421-0.264-2.1-0.51c-1.318-0.506-2.192-1.768-2.2-3.18c-0.05-1-0.03-2.01,0.01-3.01
	c0.175-1.448,1.192-2.654,2.59-3.07c0.62-0.15,1.26-0.24,1.89-0.39c0.163-0.042,0.303-0.146,0.39-0.29
	c0.214-0.423,0.398-0.861,0.55-1.31c0.04-0.178,0.008-0.365-0.09-0.52c-0.415-0.603-0.799-1.228-1.15-1.87
	c-0.588-1.121-0.467-2.481,0.31-3.48c0.822-0.99,1.733-1.904,2.72-2.73C50.687,21.557,51.432,21.342,52.177,21.417z M75.327,47.877
	c-0.063-0.148-0.137-0.292-0.22-0.43c-0.44-0.64-0.89-1.29-1.35-1.93c-0.433-0.565-0.499-1.329-0.17-1.96
	c0.44-0.97,0.84-1.96,1.22-2.96c0.223-0.662,0.799-1.142,1.49-1.24c0.76-0.14,1.53-0.27,2.29-0.4
	c0.33,0.026,0.619-0.221,0.645-0.551c0.005-0.063,0-0.127-0.015-0.189c0.01-0.57,0-1.13,0-1.7c0.099-0.359-0.112-0.73-0.471-0.829
	c-0.078-0.021-0.159-0.029-0.239-0.021c-0.77-0.13-1.55-0.25-2.32-0.4c-0.599-0.09-1.102-0.5-1.31-1.07
	c-0.41-1.02-0.8-2.04-1.26-3.03c-0.377-0.685-0.293-1.532,0.21-2.13c0.45-0.61,0.87-1.24,1.31-1.86
	c0.217-0.243,0.196-0.616-0.048-0.833c-0.01-0.009-0.021-0.018-0.032-0.027c-0.45-0.43-0.88-0.87-1.32-1.31
	c-0.168-0.278-0.529-0.367-0.807-0.199c-0.05,0.029-0.094,0.066-0.133,0.109c-0.63,0.44-1.25,0.87-1.87,1.31
	c-0.576,0.467-1.374,0.545-2.03,0.2c-0.96-0.44-1.94-0.83-2.92-1.21c-0.684-0.212-1.178-0.809-1.26-1.52
	c-0.11-0.75-0.25-1.5-0.39-2.24c0.028-0.33-0.217-0.621-0.548-0.648c-0.024-0.002-0.048-0.003-0.072-0.002c-0.69-0.01-1.37,0-2.05,0
	c-0.299-0.02-0.56,0.202-0.59,0.5c-0.14,0.76-0.28,1.52-0.39,2.29c-0.072,0.748-0.578,1.382-1.29,1.62
	c-0.99,0.38-1.97,0.77-2.93,1.21c-0.643,0.333-1.422,0.259-1.99-0.19c-0.63-0.45-1.27-0.89-1.9-1.33
	c-0.218-0.235-0.586-0.249-0.821-0.031c-0.038,0.036-0.072,0.076-0.099,0.121c-0.42,0.41-0.84,0.83-1.26,1.25
	c-0.297,0.182-0.391,0.57-0.209,0.868c0.032,0.053,0.073,0.101,0.119,0.142c0.44,0.64,0.89,1.27,1.33,1.9
	c0.418,0.548,0.484,1.287,0.17,1.9c-0.45,0.99-0.86,2-1.26,3.02c-0.22,0.662-0.806,1.135-1.5,1.21c-0.77,0.12-1.53,0.26-2.29,0.4
	c-0.32-0.006-0.584,0.248-0.59,0.568c0,0.007,0,0.015,0,0.022c0.01,0.7,0,1.39,0,2.09c-0.021,0.293,0.201,0.548,0.494,0.569
	c0.005,0,0.01,0.001,0.016,0.001c0.75,0.14,1.49,0.28,2.25,0.39c0.765,0.059,1.42,0.571,1.66,1.3c0.37,0.99,0.77,1.96,1.21,2.92
	c0.335,0.644,0.256,1.426-0.2,1.99c-0.45,0.63-0.89,1.27-1.33,1.9c-0.234,0.228-0.239,0.603-0.011,0.837
	c0.03,0.031,0.064,0.059,0.101,0.083l1.26,1.26c0.181,0.294,0.566,0.387,0.861,0.206c0.052-0.032,0.099-0.071,0.139-0.116
	c0.63-0.44,1.25-0.88,1.87-1.31c0.466-0.393,1.107-0.507,1.68-0.3c1.17,0.49,2.35,0.97,3.52,1.47c0.445,0.17,0.772,0.554,0.87,1.02
	c0.19,0.87,0.34,1.74,0.5,2.62c-0.03,0.327,0.21,0.616,0.537,0.646c0.068,0.006,0.137,0.001,0.203-0.016c0.59,0.01,1.19,0.01,1.78,0
	c0.332,0.084,0.669-0.116,0.754-0.448c0.018-0.069,0.023-0.141,0.016-0.212c0.1-0.58,0.21-1.16,0.29-1.75
	c0.001-0.913,0.573-1.728,1.43-2.04c0.95-0.33,1.87-0.73,2.78-1.15c0.675-0.363,1.501-0.288,2.1,0.19c0.63,0.46,1.27,0.88,1.91,1.33
	c0.224,0.213,0.577,0.204,0.79-0.02c0.003-0.003,0.007-0.007,0.01-0.01c0.49-0.48,0.97-0.96,1.45-1.45
	C75.192,48.154,75.269,48.02,75.327,47.877z M29.017,38.037c0.87,0.032,1.708,0.333,2.4,0.86c0.53,0.37,1.07,0.72,1.58,1.12
	c0.198,0.163,0.477,0.187,0.7,0.06c0.67-0.3,1.34-0.59,2.03-0.85c0.235-0.081,0.4-0.292,0.42-0.54c0.11-0.71,0.23-1.42,0.38-2.13
	c0.208-0.815,0.983-1.355,1.82-1.27c0.84,0.137,1.445,0.879,1.41,1.73c-0.17,1.23-0.41,2.46-0.64,3.69
	c-0.117,0.644-0.61,1.153-1.25,1.29c-1.302,0.37-2.558,0.89-3.74,1.55c-0.62,0.387-1.416,0.343-1.99-0.11
	c-0.82-0.59-1.65-1.16-2.47-1.73c-0.418-0.47-1.137-0.511-1.607-0.094c-0.074,0.066-0.139,0.141-0.193,0.224
	c-0.58,0.57-1.15,1.14-1.72,1.72c-0.469,0.351-0.564,1.015-0.213,1.484c0.02,0.026,0.041,0.052,0.063,0.076
	c0.61,0.86,1.21,1.73,1.83,2.59c0.454,0.571,0.506,1.365,0.13,1.99c-0.654,1.143-1.164,2.362-1.52,3.63
	c-0.197,0.831-0.917,1.433-1.77,1.48c-0.99,0.15-1.98,0.34-2.97,0.52c-0.541,0.056-0.942,0.527-0.91,1.07
	c-0.02,0.92-0.02,1.83-0.01,2.75c-0.041,0.557,0.365,1.046,0.92,1.11c1.02,0.19,2.03,0.37,3.05,0.53
	c0.797,0.05,1.47,0.607,1.67,1.38c0.36,1.292,0.878,2.534,1.54,3.7c0.372,0.631,0.316,1.427-0.14,2c-0.59,0.84-1.18,1.68-1.77,2.53
	c-0.427,0.422-0.431,1.11-0.009,1.537c0.049,0.049,0.102,0.094,0.159,0.133c0.57,0.58,1.15,1.15,1.72,1.73
	c0.36,0.489,1.048,0.595,1.538,0.235c0.039-0.029,0.077-0.061,0.112-0.095c0.85-0.59,1.69-1.18,2.53-1.78
	c0.571-0.462,1.37-0.518,2-0.14c1.193,0.663,2.458,1.187,3.77,1.56c0.702,0.17,1.221,0.762,1.3,1.48c0.19,1.02,0.37,2.05,0.54,3.08
	c0.014,0.597,0.508,1.07,1.105,1.056c0.032-0.001,0.063-0.003,0.095-0.006c0.87,0.01,1.75,0.01,2.63,0
	c0.581,0.048,1.091-0.385,1.139-0.966c0-0.005,0.001-0.009,0.001-0.014c0.2-1.09,0.4-2.18,0.6-3.26
	c0.089-0.634,0.544-1.156,1.16-1.33c1.36-0.399,2.675-0.942,3.92-1.62c0.609-0.362,1.38-0.307,1.93,0.14
	c0.84,0.6,1.68,1.19,2.53,1.78c0.415,0.435,1.104,0.45,1.538,0.035c0.061-0.059,0.116-0.124,0.162-0.195
	c0.6-0.59,1.19-1.18,1.78-1.77c0.449-0.363,0.518-1.021,0.156-1.47c-0.008-0.01-0.017-0.021-0.026-0.03
	c-0.58-0.85-1.16-1.7-1.78-2.53c-0.531-0.634-0.58-1.542-0.12-2.23c0.633-1.119,1.127-2.311,1.47-3.55
	c0.163-0.717,0.752-1.258,1.48-1.36c1.1-0.2,2.21-0.4,3.31-0.56c0.894-0.152,1.748,0.432,1.93,1.32c0.142,0.895-0.458,1.74-1.35,1.9
	c-0.67,0.14-1.35,0.26-2.02,0.36c-0.261,0.014-0.485,0.19-0.56,0.44c-0.26,0.68-0.55,1.36-0.85,2.03
	c-0.121,0.214-0.097,0.48,0.06,0.67c0.44,0.6,0.89,1.2,1.28,1.84c1.12,1.641,0.932,3.843-0.45,5.27
	c-0.733,0.835-1.522,1.62-2.36,2.35c-1.514,1.398-3.814,1.504-5.45,0.25c-0.56-0.39-1.11-0.8-1.68-1.16
	c-0.158-0.091-0.348-0.109-0.52-0.05c-0.73,0.28-1.46,0.59-2.17,0.91c-0.16,0.081-0.282,0.221-0.34,0.39
	c-0.17,0.82-0.29,1.65-0.48,2.47c-0.454,1.838-2.068,3.154-3.96,3.23c-1.07,0.03-2.14,0.03-3.21,0.01
	c-1.98-0.027-3.684-1.408-4.12-3.34c-0.16-0.72-0.28-1.45-0.39-2.17c-0.013-0.3-0.213-0.561-0.5-0.65c-0.7-0.25-1.37-0.58-2.07-0.84
	c-0.168-0.058-0.353-0.043-0.51,0.04c-0.58,0.37-1.12,0.78-1.69,1.17c-1.674,1.268-4.024,1.124-5.53-0.34
	c-0.779-0.696-1.52-1.434-2.22-2.21c-1.483-1.514-1.628-3.887-0.34-5.57c0.38-0.55,0.76-1.1,1.16-1.64
	c0.13-0.159,0.15-0.381,0.05-0.56c-0.31-0.69-0.61-1.39-0.88-2.1c-0.078-0.248-0.301-0.423-0.56-0.44
	c-0.828-0.115-1.649-0.275-2.46-0.48c-1.489-0.379-2.641-1.561-2.98-3.06c-0.092-0.373-0.139-0.756-0.14-1.14
	c-0.02-0.91,0-1.83-0.01-2.75c-0.021-2.237,1.648-4.131,3.87-4.39c0.63-0.08,1.25-0.2,1.87-0.34c0.158-0.053,0.29-0.164,0.37-0.31
	c0.32-0.72,0.6-1.45,0.92-2.17c0.103-0.18,0.079-0.406-0.06-0.56c-0.43-0.6-0.87-1.19-1.26-1.81c-1.184-1.668-0.998-3.945,0.44-5.4
	c0.77-0.85,1.61-1.63,2.46-2.4C26.889,38.323,27.945,37.968,29.017,38.037z M42.447,68.807c-6.089,0.148-11.146-4.667-11.295-10.757
	c-0.11-4.533,2.565-8.673,6.745-10.433c1.327-0.548,2.745-0.843,4.18-0.87c0.907-0.078,1.706,0.594,1.785,1.501
	c0.078,0.908-0.594,1.707-1.501,1.785c-0.021,0.002-0.042,0.003-0.064,0.004c-1.467-0.004-2.905,0.405-4.15,1.18
	c-2.315,1.379-3.713,3.895-3.66,6.59c-0.011,3.402,2.22,6.406,5.48,7.38c3.932,1.17,8.096-0.919,9.51-4.77
	c0.298-0.877,0.46-1.794,0.48-2.72c0.054-0.91,0.834-1.604,1.744-1.55s1.604,0.834,1.55,1.745c-0.001,0.019-0.003,0.037-0.004,0.056
	c-0.041,3.96-2.222,7.587-5.7,9.48C46.001,68.335,44.24,68.811,42.447,68.807z M54.807,37.317c-0.003-4.355,3.525-7.887,7.88-7.89
	c4.355-0.002,7.887,3.525,7.89,7.88s-3.525,7.887-7.88,7.89c-0.013,0-0.027,0-0.04,0C58.315,45.183,54.804,41.659,54.807,37.317z
	 M62.707,41.887c2.523-0.017,4.56-2.066,4.56-4.59c-0.011-2.527-2.068-4.566-4.595-4.555c-2.527,0.011-4.566,2.068-4.555,4.595
	c0.006,2.52,2.054,4.557,4.574,4.55C62.696,41.887,62.701,41.887,62.707,41.887L62.707,41.887z"/>
</svg>
