<svg xmlns="http://www.w3.org/2000/svg" width="39.997" height="39.997"><path fill="none" d="M39.983 19.998c0 11.037-8.947 19.984-19.984 19.984S.014 31.036.014 19.998 8.961.014 19.998.014s19.985 8.947 19.985 19.984z"/><path fill-rule="evenodd" clip-rule="evenodd" fill="#FFF" d="M27.418 5.695v4.526s-5.2-.755-5.2 2.6v3.352h4.7l-.59 5.113h-4.11v13.325h-5.2V21.284l-4.44-.084v-5.028h4.36v-3.856s-.29-5.735 5.37-6.789a15.097 15.097 0 015.11.168z"/><g><path fill="#FAFAFA" d="M8.271 361.673c-6.176 17.44-30.688 31.904-50.24 36.128-13.376 2.848-30.848 5.12-89.664-19.264-75.232-31.168-123.68-107.616-127.456-112.576-3.616-4.96-30.4-40.48-30.4-77.216s18.656-54.624 26.176-62.304c6.176-6.304 16.384-9.184 26.176-9.184 3.168 0 6.016.16 8.576.288 7.52.32 11.296.768 16.256 12.64 6.176 14.88 21.216 51.616 23.008 55.392 1.824 3.776 3.648 8.896 1.088 13.856-2.4 5.12-4.512 7.392-8.288 11.744s-7.36 7.68-11.136 12.352c-3.456 4.064-7.36 8.416-3.008 15.936 4.352 7.36 19.392 31.904 41.536 51.616 28.576 25.44 51.744 33.568 60.032 37.024 6.176 2.56 13.536 1.952 18.048-2.848 5.728-6.176 12.8-16.416 20-26.496 5.12-7.232 11.584-8.128 18.368-5.568 6.912 2.4 43.488 20.48 51.008 24.224 7.52 3.776 12.48 5.568 14.304 8.736 1.792 3.168 1.792 18.048-4.384 35.52z"/></g></svg>