<svg xmlns="http://www.w3.org/2000/svg" width="39.997" height="39.997"><path fill="#4A7AFF" d="M39.983 19.998c0 11.037-8.947 19.984-19.984 19.984S.014 31.036.014 19.998 8.961.014 19.998.014s19.985 8.947 19.985 19.984z"/><path fill="#0053BF" d="M20.875 39.962c10.63-.459 19.107-9.221 19.107-19.964 0-.078-.002-.155-.003-.233L26.108 5.893 11.276 21.396l8.241 8.241-3.8 5.167 5.158 5.158z"/><path fill="#FFF" d="M26.108 5.893v4.525s-5.195-.754-5.195 2.598v3.352h4.693l-.586 5.112h-4.106v13.324h-5.195V21.48l-4.441-.084v-5.028h4.358v-3.855s-.288-5.734 5.363-6.788c2.344-.437 5.109.168 5.109.168z"/><path fill="#DCE1EB" d="M26.108 10.419V5.893s-2.765-.605-5.112-.167a7.941 7.941 0 00-1.025.261v28.816h.942V21.48h4.106l.587-5.112h-4.693v-3.352c0-3.352 5.195-2.597 5.195-2.597z"/></svg>