<svg xmlns="http://www.w3.org/2000/svg" width="39.997" height="39.997"><circle fill="#2196F3" cx="19.998" cy="19.998" r="19.984"/><path fill="#FFF" d="M7.003 25.561l-.09-.104c.019.024.027.052.049.074.013.013.029.019.041.03z"/><path fill="none" d="M6.963 25.532c.012.012.028.018.04.029l-.09-.104c.019.024.028.053.05.075z"/><path fill="#1F7BBF" d="M33.204 14.476a.832.832 0 01-.098 1.036l-9.98 10.02a.83.83 0 01-1.13.043l-5.39-4.634-8.65 4.734a.833.833 0 01-.953-.114l12.4 14.322c.211.007.417.032.629.032 10.545 0 19.162-8.173 19.91-18.527l-6.738-6.912z"/><path fill="#1E87C1" d="M6.914 25.457l.09.104a.833.833 0 00.953.114l8.65-4.734 5.39 4.634a.83.83 0 001.13-.043l9.98-10.02a.832.832 0 00.098-1.036"/><path fill-rule="evenodd" clip-rule="evenodd" fill="#FFF" d="M33.142 14.488a.822.822 0 00-1.06-.234l-8.65 4.735-5.39-4.633a.832.832 0 00-1.13.044l-9.98 10.02a.834.834 0 00.99 1.322l8.65-4.734 5.39 4.634a.83.83 0 001.13-.043l9.98-10.02c.29-.296.32-.76.07-1.091z"/></svg>