<svg xmlns="http://www.w3.org/2000/svg" width="39.997" height="39.997"><circle fill="#75B73B" cx="19.999" cy="19.999" r="19.984"/><path fill="#52891D" d="M28.136 11.866c-1.159-.29-2.863-1.291-3.966-1.692-4.306-1.346-10.093-.269-11.708 4.71-.135.135-.404.135-.538.135-3.23 3.768-1.077 8.344-1.346 12.515-.092 1.471-.865 2.771-1.86 3.871l8.375 8.366c.949.138 1.919.211 2.906.211 9.87 0 18.068-7.156 19.691-16.562L28.136 11.866z"/><g fill="#FFF"><path d="M19.439 8.48c-6.091.29-10.898 5.363-10.879 11.461a11.4 11.4 0 001.245 5.16L8.59 30.995a.445.445 0 00.539.523l5.776-1.368a11.39 11.39 0 004.915 1.193c6.226.095 11.417-4.848 11.611-11.072.208-6.671-5.297-12.11-11.992-11.791zm6.893 17.759a8.897 8.897 0 01-6.333 2.623 8.857 8.857 0 01-3.986-.934l-.804-.401-3.542.839.745-3.619-.396-.776a8.856 8.856 0 01-.974-4.066 8.9 8.9 0 012.623-6.333 8.969 8.969 0 016.334-2.623 8.9 8.9 0 016.333 2.623 8.897 8.897 0 012.623 6.333 8.977 8.977 0 01-2.623 6.334z"/><path d="M25.55 22.386l-2.216-.636a.827.827 0 00-.817.215l-.542.552a.805.805 0 01-.877.185c-1.048-.424-3.253-2.385-3.816-3.365a.806.806 0 01.064-.895l.473-.612a.828.828 0 00.102-.839l-.932-2.108a.826.826 0 00-1.29-.295c-.618.523-1.352 1.318-1.441 2.198-.157 1.552.509 3.509 3.026 5.859 2.908 2.715 5.238 3.073 6.754 2.706.86-.208 1.548-1.043 1.981-1.727a.827.827 0 00-.469-1.238z"/></g><g fill="#D1D1D1"><path d="M27.805 11.545l-1.735 1.778c.088.082.176.164.262.249a8.897 8.897 0 012.623 6.333 8.977 8.977 0 01-2.623 6.334 8.897 8.897 0 01-6.333 2.623 8.857 8.857 0 01-3.986-.934l-.804-.401-3.542.839.073-.355-3.136 3.214a.445.445 0 00.526.293l5.776-1.368a11.39 11.39 0 004.915 1.193c6.226.095 11.417-4.848 11.611-11.072a11.411 11.411 0 00-3.627-8.726z"/><path d="M25.55 22.386l-2.216-.636a.827.827 0 00-.817.215l-.542.552a.805.805 0 01-.877.185c-.605-.245-1.596-1.003-2.434-1.788l-1.54 1.579.16.152c2.908 2.715 5.238 3.073 6.754 2.706.86-.208 1.548-1.043 1.981-1.727a.827.827 0 00-.469-1.238z"/></g></svg>