<svg version="1.0" xmlns="http://www.w3.org/2000/svg" width="59.77" height="78.856"><path fill="#4073BB" d="M56.929 13.228c-12.474 0-25.402-11.563-25.53-11.679a2.254 2.254 0 00-3.028 0c-.129.117-13.022 11.679-25.53 11.679a2.254 2.254 0 00-2.254 2.254v26.99c0 21.864 16.262 30.601 28.494 35.271a2.249 2.249 0 001.608 0c17.151-6.548 28.494-16.761 28.494-35.271v-26.99a2.254 2.254 0 00-2.254-2.254z"/><linearGradient id="a" gradientUnits="userSpaceOnUse" x1="29.885" y1="24.416" x2="29.885" y2="55.968" gradientTransform="matrix(1 0 0 -1 0 79.62)"><stop offset="0" stop-color="#c3ffe8"/><stop offset=".997" stop-color="#f0fff4"/></linearGradient><path fill="url(#a)" d="M29.885 23.652c-8.699 0-15.776 7.077-15.776 15.776s7.077 15.776 15.776 15.776 15.776-7.077 15.776-15.776-7.077-15.776-15.776-15.776zm6.101 15.116l-6.761 6.761c-.44.44-1.017.66-1.593.66-.577 0-1.154-.22-1.593-.66l-2.254-2.254a2.254 2.254 0 013.187-3.187l.66.66 5.168-5.167a2.254 2.254 0 113.186 3.187z"/></svg>