<svg xmlns="http://www.w3.org/2000/svg" width="58.75" height="80"><path fill-rule="evenodd" clip-rule="evenodd" fill="#164A8B" d="M29.375 27.37a4.916 4.916 0 10-4.9-4.93v.01a4.914 4.914 0 004.9 4.92zm0-7.02a2.105 2.105 0 11-2.1 2.11v-.01a2.1 2.1 0 012.1-2.1zM14.76 33.48a1.4 1.4 0 00-.774 1.26v17.54a1.4 1.4 0 001.39 1.41h3.51a1.4 1.4 0 001.164-.63l3.082-4.64h12.492l3.082 4.64a1.4 1.4 0 001.164.63h3.5a1.4 1.4 0 001.4-1.4V34.74a1.401 1.401 0 00-.773-1.26l-6.221-3.12v-.89c0-11.86-1.227-20.34-3.645-25.19C32.098.2 29.818-.01 29.382-.01s-2.716.21-4.749 4.29c-2.418 4.85-3.645 13.33-3.645 25.19v.89l-6.228 3.12zm3.374 17.4h-1.35V35.6l4.2-2.1v13.09l-2.85 4.29zm5.645-19.65v-1.76a98.623 98.623 0 011.1-16.14h8.996a98.403 98.403 0 011.1 16.14v16.15h-4.2V31.23a1.4 1.4 0 00-2.8-.008V45.62h-4.2V31.23h.004zm18.187 4.37v15.28h-1.35l-2.847-4.29V33.5l4.197 2.1zM26.735 6.39c1.2-2.85 2.358-3.45 2.67-3.57.073.05.254.16.287.18a6.423 6.423 0 011.929 2.53 23.146 23.146 0 011.689 4.99h-7.867c.316-1.41.748-2.791 1.292-4.13zm16.63 56.77h-.467a8.437 8.437 0 00-6.878-6.9v-5.73a1.4 1.4 0 00-2.8-.008V68.08a1.4 1.4 0 002.8.008V59.13a5.623 5.623 0 014.2 5.44 1.4 1.4 0 001.4 1.4h1.749a5.616 5.616 0 010 11.229H15.385a5.616 5.616 0 010-11.229h1.749a1.4 1.4 0 001.4-1.4 5.623 5.623 0 014.2-5.44v8.95a1.4 1.4 0 002.8.008V50.53a1.4 1.4 0 00-2.8-.008v5.738a8.437 8.437 0 00-6.878 6.9h-.471a8.425 8.425 0 100 16.85h27.98a8.425 8.425 0 100-16.85zm-32.339-.37C.376 52.59.011 35.689 10.211 25.04a26.703 26.703 0 019.795-6.49 86.04 86.04 0 01.321-3.09C4.839 20.528-3.608 37.192 1.46 52.681A29.519 29.519 0 008.691 64.42a9.904 9.904 0 012.335-1.63zm44.929-19.28a26.65 26.65 0 01-8.232 19.28 9.91 9.91 0 012.336 1.63c11.552-11.495 11.598-30.177.103-41.729a29.496 29.496 0 00-11.739-7.231c.122.99.229 2.02.321 3.09a26.711 26.711 0 0117.211 24.96z"/></svg>