<svg xmlns="http://www.w3.org/2000/svg" width="105.12" height="79.97"><path fill-rule="evenodd" clip-rule="evenodd" fill="#164A8B" d="M52.56 28.9a5.955 5.955 0 10-5.93-5.979v.03a5.939 5.939 0 005.928 5.95l.002-.001zm0-8.51a2.555 2.555 0 11-2.54 2.57v-.01a2.555 2.555 0 012.54-2.56zm33.73 12.53A35.775 35.775 0 0062.24 9.83a22.12 22.12 0 00-3.09-4.99A16.73 16.73 0 0053.19.09a1.714 1.714 0 00-1.26 0 16.65 16.65 0 00-5.96 4.75 22.102 22.102 0 00-3.1 4.99 35.758 35.758 0 00-24.04 23.09C10.08 34.83-.01 38.31-.01 44.22c0 4.39 5.44 7.98 16.18 10.68.86.21 1.74.42 2.65.62a36.052 36.052 0 0012.34 17.25c12.652 9.587 30.138 9.587 42.79 0A36.066 36.066 0 0086.3 55.52c.9-.2 1.79-.41 2.64-.62 10.74-2.7 16.19-6.29 16.19-10.68 0-5.91-10.1-9.39-18.84-11.3zm-1.59 9.96c-.99.23-2.03.45-3.1.66-3.19.62-6.7 1.13-10.42 1.52v-.84c0-5.15-2.13-7.66-3.93-8.86a7.936 7.936 0 00-2.42-1.1V22.95c.027-3.06-.353-6.11-1.13-9.07a32.39 32.39 0 0121 29zm-16.9 1.34v2.55h-2.97v-8.91c1.35.67 2.97 2.31 2.97 6.36zm-24.13-8.51V22.95c0-6.56 1.61-11.87 4.77-15.78a15.035 15.035 0 014.12-3.59 15.018 15.018 0 014.12 3.59c3.16 3.91 4.77 9.22 4.77 15.78v24.82l-3.24 3.26h-11.3l-3.24-3.26V35.71zm-2.25-21.82a34.41 34.41 0 00-1.14 9.06v11.31a8.177 8.177 0 00-2.42 1.1c-1.79 1.2-3.92 3.71-3.92 8.86v.84c-3.72-.39-7.24-.9-10.42-1.52-1.07-.21-2.11-.43-3.1-.66a32.367 32.367 0 0121-28.99zm-1.14 23.97v8.91h-2.96v-2.55c0-4.05 1.62-5.69 2.96-6.36zM16.99 51.601c-10.05-2.53-13.61-5.55-13.61-7.38 0-2.11 4.48-5.18 14.43-7.57a35.61 35.61 0 00-.81 7.57 1.7 1.7 0 001.42 1.68c1.4.35 2.89.68 4.46.98 3.37.66 7.1 1.2 11.06 1.61a1.694 1.694 0 001.69 1.69h5.65l3.24 3.26v1.68a140.29 140.29 0 01-27.53-3.52zm14.96 17.39a32.328 32.328 0 01-9.24-12.7 160.368 160.368 0 0021.81 2.24v3.92a7.961 7.961 0 01-12.57 6.54zm20.61 7.57a31.713 31.713 0 01-13.43-3 11.417 11.417 0 008.77-11.11v-8.02h9.31v8.02a11.426 11.426 0 008.78 11.11 31.776 31.776 0 01-13.43 3zm20.6-7.57a7.886 7.886 0 01-4.59 1.47 8.006 8.006 0 01-7.97-8.01v-3.92c7.313-.25 14.599-.998 21.81-2.24a32.257 32.257 0 01-9.25 12.7zm14.96-17.39a140.106 140.106 0 01-27.52 3.52v-1.68l3.24-3.26h5.65a1.694 1.694 0 001.69-1.69c3.95-.41 7.68-.95 11.06-1.61 1.56-.3 3.06-.63 4.45-.98a1.692 1.692 0 001.42-1.68c0-2.544-.269-5.082-.8-7.57 9.94 2.39 14.43 5.46 14.43 7.57 0 1.829-3.56 4.849-13.62 7.38zm-20.75-23.55h1.27v1.28a.851.851 0 001.7 0v-1.28h1.27a.85.85 0 100-1.7h-1.27v-1.28a.85.85 0 10-1.7-.012v1.293h-1.27c-.391.26-.404.928-.144 1.319.062.094.143.175.144.38zm-33.86 0h1.27v1.28a.848.848 0 00.848.85h.002a.84.84 0 00.84-.842v-1.288h1.27a.85.85 0 100-1.7h-1.27v-1.28a.841.841 0 00-.832-.85h-.008a.85.85 0 00-.85.848v1.282h-1.27c-.228.302.22 1.058 0 1.7zm-8.46-17.02h1.27v1.28a.845.845 0 101.69.014v-1.294h1.27a.85.85 0 100-1.7h-1.27v-1.28a.845.845 0 10-1.69-.014v1.294h-1.27c-.623 0-1.127.227-1.127.85s.505 1.127 1.127 1.127v-.277zm50.79 0h1.27v1.28a.845.845 0 101.69.014v-1.294h1.27a.85.85 0 100-1.7H78.8v-1.28a.845.845 0 10-1.69-.014v1.294h-1.27c-.623 0-1.127.227-1.127.85s.505 1.127 1.127 1.127v-.277zm-8.47 53.2h1.27v1.27a.851.851 0 001.7 0v-1.27h1.27a.856.856 0 00.84-.86.847.847 0 00-.84-.85h-1.27v-1.27a.851.851 0 00-1.7 0v1.27h-1.27a.847.847 0 00-.84.85.857.857 0 00.84.86zm-29.63-1.71h-1.27v-1.27a.841.841 0 00-.832-.85h-.008a.85.85 0 00-.85.848v1.272h-1.27a.84.84 0 00-.84.842v.008a.849.849 0 00.838.86h1.272v1.27a.848.848 0 00.848.85h.002a.84.84 0 00.84-.842v-1.278h1.27a.858.858 0 00.85-.86.849.849 0 00-.85-.85z"/></svg>