<svg xmlns="http://www.w3.org/2000/svg" width="39.997" height="39.997"><path fill="none" d="M39.983 19.998c0 11.037-8.947 19.984-19.984 19.984S.014 31.036.014 19.998 8.961.014 19.998.014s19.985 8.947 19.985 19.984z"/><path fill-rule="evenodd" clip-rule="evenodd" fill="#FFF" d="M19.445 8.482c-6.307.3-11.177 5.656-10.877 11.963A11.433 11.433 0 009.805 25.1l-1.22 5.894a.45.45 0 00.54.523l5.78-1.368c5.656 2.814 12.523.51 15.337-5.146s.51-12.523-5.146-15.337a11.444 11.444 0 00-5.651-1.184zm6.89 17.757a8.965 8.965 0 01-10.32 1.689l-.81-.4-3.54.839.75-3.618-.4-.776a8.801 8.801 0 01-.97-4.066c.002-4.946 4.013-8.953 8.959-8.951a8.955 8.955 0 016.331 15.283zm-.78-3.853l-2.22-.636a.838.838 0 00-.82.215l-.54.552a.81.81 0 01-.88.185 11.86 11.86 0 01-3.81-3.365.793.793 0 01.06-.895l.47-.612a.822.822 0 00.11-.839l-.94-2.108a.825.825 0 00-1.29-.3 3.761 3.761 0 00-1.44 2.2c-.16 1.553.51 3.509 3.03 5.859 2.91 2.714 5.24 3.073 6.75 2.706a3.775 3.775 0 001.99-1.727.831.831 0 00-.47-1.238v.003z"/><g><path fill="#FAFAFA" d="M8.271 361.673c-6.176 17.44-30.688 31.904-50.24 36.128-13.376 2.848-30.848 5.12-89.664-19.264-75.232-31.168-123.68-107.616-127.456-112.576-3.616-4.96-30.4-40.48-30.4-77.216s18.656-54.624 26.176-62.304c6.176-6.304 16.384-9.184 26.176-9.184 3.168 0 6.016.16 8.576.288 7.52.32 11.296.768 16.256 12.64 6.176 14.88 21.216 51.616 23.008 55.392 1.824 3.776 3.648 8.896 1.088 13.856-2.4 5.12-4.512 7.392-8.288 11.744s-7.36 7.68-11.136 12.352c-3.456 4.064-7.36 8.416-3.008 15.936 4.352 7.36 19.392 31.904 41.536 51.616 28.576 25.44 51.744 33.568 60.032 37.024 6.176 2.56 13.536 1.952 18.048-2.848 5.728-6.176 12.8-16.416 20-26.496 5.12-7.232 11.584-8.128 18.368-5.568 6.912 2.4 43.488 20.48 51.008 24.224 7.52 3.776 12.48 5.568 14.304 8.736 1.792 3.168 1.792 18.048-4.384 35.52z"/></g></svg>