<svg xmlns="http://www.w3.org/2000/svg" width="30.468" height="28.76"><path data-name="Фигура 3" d="M15.019.01c.3.03.611.05.917.09a13.4 13.4 0 013.245.74.172.172 0 01.108.12c.007.47 0 .94 0 1.43a12.931 12.931 0 00-8.3-.5A12.931 12.931 0 001.43 14.4a12.909 12.909 0 0013.652 12.9 12.479 12.479 0 009.645-5.17 12.764 12.764 0 002.269-10.7h1.46c.067.45.14.9.2 1.36.041.31.061.63.091.94v1.29c-.009.06-.022.12-.025.18a13.587 13.587 0 01-.614 3.42 14.238 14.238 0 01-7.152 8.53 13.538 13.538 0 01-5.046 1.51l-.887.09h-1.291l-.581-.06a13.7 13.7 0 01-4.088-.96 14.239 14.239 0 01-7.118-6.14 14.01 14.01 0 01-1.852-5.66c-.031-.3-.057-.61-.085-.91v-1.29c.009-.05.018-.11.025-.17.083-.66.117-1.33.255-1.98a14.176 14.176 0 017.061-9.73 13.834 13.834 0 015.5-1.76c.3-.03.591-.05.887-.08h1.291z" fill-rule="evenodd" fill="#95cc6f"/><path data-name="Фигура 4" d="M14.737 15.45a65.608 65.608 0 0115.13-13.27c.156.37.307.72.457 1.08a.781.781 0 01.14.37.768.768 0 01-.271.29A66.971 66.971 0 0017.552 20.9c-.383.76-.709 1.55-1.061 2.32-.021.04-.042.09-.072.16-3.389-3.5-6.766-6.98-10.156-10.49.868-.7 1.73-1.4 2.6-2.12q2.94 2.34 5.874 4.68z" fill="#1dbf73" fill-rule="evenodd"/></svg>