<svg width="95" height="77" viewBox="0 0 95 77" fill="none" xmlns="http://www.w3.org/2000/svg">
<path d="M24.4072 72.1758C23.1768 72.1758 22.2217 71.7334 21.542 70.8486H21.4189C21.501 71.6689 21.542 72.167 21.542 72.3428V76.3242H19.4766V62.2793H21.1465C21.1934 62.4609 21.29 62.8945 21.4365 63.5801H21.542C22.1865 62.5957 23.1533 62.1035 24.4424 62.1035C25.6553 62.1035 26.5986 62.543 27.2725 63.4219C27.9521 64.3008 28.292 65.5342 28.292 67.1221C28.292 68.71 27.9463 69.9492 27.2549 70.8398C26.5693 71.7305 25.6201 72.1758 24.4072 72.1758ZM23.9062 63.791C23.0859 63.791 22.4854 64.0312 22.1045 64.5117C21.7295 64.9922 21.542 65.7598 21.542 66.8145V67.1221C21.542 68.3057 21.7295 69.1641 22.1045 69.6973C22.4795 70.2246 23.0918 70.4883 23.9414 70.4883C24.6562 70.4883 25.207 70.1953 25.5938 69.6094C25.9805 69.0234 26.1738 68.1885 26.1738 67.1045C26.1738 66.0146 25.9805 65.1914 25.5938 64.6348C25.2129 64.0723 24.6504 63.791 23.9062 63.791ZM32.7568 72H30.6914V58.3242H32.7568V72ZM41.8008 72L41.3877 70.6465H41.3174C40.8486 71.2383 40.377 71.6426 39.9023 71.8594C39.4277 72.0703 38.8184 72.1758 38.0742 72.1758C37.1191 72.1758 36.3721 71.918 35.833 71.4023C35.2998 70.8867 35.0332 70.1572 35.0332 69.2139C35.0332 68.2119 35.4053 67.4561 36.1494 66.9463C36.8936 66.4365 38.0273 66.1582 39.5508 66.1113L41.2295 66.0586V65.54C41.2295 64.9189 41.083 64.4561 40.79 64.1514C40.5029 63.8408 40.0547 63.6855 39.4453 63.6855C38.9473 63.6855 38.4697 63.7588 38.0127 63.9053C37.5557 64.0518 37.1162 64.2246 36.6943 64.4238L36.0264 62.9473C36.5537 62.6719 37.1309 62.4639 37.7578 62.3232C38.3848 62.1768 38.9766 62.1035 39.5332 62.1035C40.7695 62.1035 41.7012 62.373 42.3281 62.9121C42.9609 63.4512 43.2773 64.2979 43.2773 65.4521V72H41.8008ZM38.7246 70.5938C39.4746 70.5938 40.0752 70.3857 40.5264 69.9697C40.9834 69.5479 41.2119 68.959 41.2119 68.2031V67.3594L39.9639 67.4121C38.9912 67.4473 38.2822 67.6113 37.8369 67.9043C37.3975 68.1914 37.1777 68.6338 37.1777 69.2314C37.1777 69.665 37.3066 70.002 37.5645 70.2422C37.8223 70.4766 38.209 70.5938 38.7246 70.5938ZM49.7812 70.5059C50.2852 70.5059 50.7891 70.4268 51.293 70.2686V71.8242C51.0645 71.9238 50.7686 72.0059 50.4053 72.0703C50.0479 72.1406 49.6758 72.1758 49.2891 72.1758C47.332 72.1758 46.3535 71.1445 46.3535 69.082V63.8438H45.0264V62.9297L46.4502 62.1738L47.1533 60.1172H48.4277V62.2793H51.1963V63.8438H48.4277V69.0469C48.4277 69.5449 48.5508 69.9141 48.7969 70.1543C49.0488 70.3887 49.377 70.5059 49.7812 70.5059ZM58.1221 63.8438H55.749V72H53.6748V63.8438H52.0752V62.877L53.6748 62.2441V61.6113C53.6748 60.4629 53.9443 59.6133 54.4834 59.0625C55.0225 58.5059 55.8457 58.2275 56.9531 58.2275C57.6797 58.2275 58.3945 58.3477 59.0977 58.5879L58.5527 60.1523C58.043 59.9883 57.5566 59.9062 57.0938 59.9062C56.625 59.9062 56.2822 60.0527 56.0654 60.3457C55.8545 60.6328 55.749 61.0664 55.749 61.6465V62.2793H58.1221V63.8438ZM68.4053 67.1221C68.4053 68.71 67.998 69.9492 67.1836 70.8398C66.3691 71.7305 65.2354 72.1758 63.7822 72.1758C62.874 72.1758 62.0713 71.9707 61.374 71.5605C60.6768 71.1504 60.1406 70.5615 59.7656 69.7939C59.3906 69.0264 59.2031 68.1357 59.2031 67.1221C59.2031 65.5459 59.6074 64.3154 60.416 63.4307C61.2246 62.5459 62.3643 62.1035 63.835 62.1035C65.2412 62.1035 66.3545 62.5576 67.1748 63.4658C67.9951 64.3682 68.4053 65.5869 68.4053 67.1221ZM61.3301 67.1221C61.3301 69.3662 62.1592 70.4883 63.8174 70.4883C65.458 70.4883 66.2783 69.3662 66.2783 67.1221C66.2783 64.9014 65.4521 63.791 63.7998 63.791C62.9326 63.791 62.3027 64.0781 61.9102 64.6523C61.5234 65.2266 61.3301 66.0498 61.3301 67.1221ZM75.7178 62.1035C76.1338 62.1035 76.4766 62.1328 76.7461 62.1914L76.5439 64.1162C76.251 64.0459 75.9463 64.0107 75.6299 64.0107C74.8037 64.0107 74.1328 64.2803 73.6172 64.8193C73.1074 65.3584 72.8525 66.0586 72.8525 66.9199V72H70.7871V62.2793H72.4043L72.6768 63.9932H72.7822C73.1045 63.4131 73.5234 62.9531 74.0391 62.6133C74.5605 62.2734 75.1201 62.1035 75.7178 62.1035ZM86.748 72H84.6738V66.0059C84.6738 65.2617 84.5332 64.708 84.252 64.3447C83.9707 63.9756 83.5312 63.791 82.9336 63.791C82.1367 63.791 81.5508 64.0518 81.1758 64.5732C80.8066 65.0889 80.6221 65.9502 80.6221 67.1572V72H78.5566V62.2793H80.1738L80.4639 63.5537H80.5693C80.8389 63.0908 81.2285 62.7334 81.7383 62.4814C82.2539 62.2295 82.8193 62.1035 83.4346 62.1035C84.9287 62.1035 85.9189 62.6133 86.4053 63.6328H86.5459C86.833 63.1523 87.2373 62.7773 87.7588 62.5078C88.2803 62.2383 88.8779 62.1035 89.5518 62.1035C90.7119 62.1035 91.5557 62.3965 92.083 62.9824C92.6162 63.5684 92.8828 64.4619 92.8828 65.6631V72H90.8174V66.0059C90.8174 65.2617 90.6738 64.708 90.3867 64.3447C90.1055 63.9756 89.666 63.791 89.0684 63.791C88.2656 63.791 87.6768 64.043 87.3018 64.5469C86.9326 65.0449 86.748 65.8125 86.748 66.8496V72Z" fill="#F16B24"/>
<g clip-path="url(#clip0)">
<path d="M23.5531 52.5154L21.3798 51.3833L14.885 48.0122L8.46599 44.6915V36.2262L21.304 28.9683V28.9935L21.3798 28.9432V19.0439L0 31.1067V48.9305L14.9229 57.3958L21.3166 53.7732L23.5531 52.5154Z" fill="#438D90"/>
<path d="M29.8456 0L21.3796 4.77984V19.0439V28.9432L21.3038 28.9935V44.6664L14.8848 48.0123L21.3796 51.3833L23.5529 52.5154L29.8456 48.9431V24.1759V0Z" fill="#606161"/>
<path d="M32.9668 49.006V21.7231H39.5121V49.006H32.9668Z" fill="#606161"/>
<path d="M65.719 34.3519V47.2072C63.9373 48.1003 62.1936 48.7669 60.5004 49.2198C58.8072 49.6726 57.1646 49.899 55.5851 49.899C51.5416 49.899 48.1805 48.5657 45.5143 45.9116C42.8482 43.2575 41.5088 39.8991 41.5088 35.8488C41.5088 31.7608 42.8608 28.3771 45.5649 25.7105C48.2689 23.0313 51.6932 21.6979 55.8378 21.6979C57.4046 21.6979 58.8957 21.9118 60.3109 22.3394C61.7261 22.7671 63.0907 23.4086 64.3922 24.2765L63.7099 30.8928C62.4716 29.6476 61.2459 28.7419 60.0329 28.1633C58.8072 27.5847 57.531 27.2954 56.179 27.2954C53.7908 27.2954 51.8196 28.0878 50.2654 29.6727C48.6986 31.2576 47.9151 33.245 47.9151 35.6224C47.9151 38.1255 48.6733 40.1758 50.177 41.7607C51.6806 43.3456 53.6265 44.138 56.0147 44.138C56.558 44.138 57.114 44.0877 57.6826 43.9871C58.2386 43.8865 58.8325 43.7481 59.439 43.572V39.723H54.3973V34.3394H65.719V34.3519Z" fill="#606161"/>
<path d="M66.8184 49.0311L80.3513 21.7608H80.7557L94.0106 49.0311H87.3768L85.6963 45.182H74.9179L73.1994 49.0311H66.8184ZM76.7501 40.616H83.7251L80.2755 32.3393L76.7501 40.616Z" fill="#606161"/>
</g>
<defs>
<clipPath id="clip0">
<rect width="94.0104" height="57.3958" fill="white"/>
</clipPath>
</defs>
</svg>
