<svg width="55" height="55" viewBox="0 0 55 55" fill="none" xmlns="http://www.w3.org/2000/svg">
<circle cx="27.5" cy="27.5" r="27" fill="#F7F7F7" stroke="#E5E5E5"/>
<path d="M22.7518 29.3092C22.7518 28.8707 22.3961 28.5155 21.9573 28.5155H19.1851C18.7468 28.5155 18.3911 28.8707 18.3911 29.3092V32.0811C18.3911 32.5201 18.7468 32.8754 19.1851 32.8754H21.9573C22.3961 32.8754 22.7518 32.5201 22.7518 32.0811V29.3092Z" fill="#438D90"/>
<path d="M29.68 29.3092C29.68 28.8707 29.3243 28.5155 28.8864 28.5155H26.1138C25.6755 28.5155 25.3198 28.8707 25.3198 29.3092V32.0811C25.3198 32.5201 25.6755 32.8754 26.1138 32.8754H28.8864C29.3243 32.8754 29.68 32.5201 29.68 32.0811V29.3092Z" fill="#438D90"/>
<path d="M36.6087 29.3092C36.6087 28.8707 36.253 28.5155 35.8147 28.5155H33.0425C32.6037 28.5155 32.248 28.8707 32.248 29.3092V32.0811C32.248 32.5201 32.6037 32.8754 33.0425 32.8754H35.8147C36.253 32.8754 36.6087 32.5201 36.6087 32.0811V29.3092Z" fill="#438D90"/>
<path d="M22.7518 36.2383C22.7518 35.7991 22.3961 35.4442 21.9573 35.4442H19.1851C18.7468 35.4442 18.3911 35.7991 18.3911 36.2383V39.0096C18.3911 39.4484 18.7468 39.8036 19.1851 39.8036H21.9573C22.3961 39.8036 22.7518 39.4483 22.7518 39.0096V36.2383Z" fill="#438D90"/>
<path d="M29.68 36.2383C29.68 35.7991 29.3243 35.4442 28.8864 35.4442H26.1138C25.6755 35.4442 25.3198 35.7991 25.3198 36.2383V39.0096C25.3198 39.4484 25.6755 39.8036 26.1138 39.8036H28.8864C29.3243 39.8036 29.68 39.4483 29.68 39.0096V36.2383Z" fill="#438D90"/>
<path d="M36.6087 36.2383C36.6087 35.7991 36.253 35.4442 35.8151 35.4442H33.0425C32.6037 35.4442 32.248 35.7991 32.248 36.2383V39.0096C32.248 39.4484 32.6037 39.8036 33.0425 39.8036H35.8151C36.253 39.8036 36.6087 39.4483 36.6087 39.0096V36.2383Z" fill="#438D90"/>
<path d="M41.5657 13.8971V18.1309C41.5657 20.0445 40.0133 21.5866 38.1 21.5866H35.9136C34.0001 21.5866 32.4271 20.0445 32.4271 18.1309V13.8819H22.5728V18.1309C22.5728 20.0445 20.9999 21.5866 19.0867 21.5866H16.8999C14.9866 21.5866 13.4343 20.0445 13.4343 18.1309V13.8971C11.7621 13.9475 10.3879 15.3312 10.3879 17.032V41.8442C10.3879 43.5769 11.7924 45 13.5251 45H41.4748C43.205 45 44.612 43.574 44.612 41.8442V17.032C44.612 15.3312 43.238 13.9475 41.5657 13.8971ZM40.5503 40.2991C40.5503 41.0479 39.9431 41.6554 39.194 41.6554H15.7462C14.9971 41.6554 14.39 41.0479 14.39 40.2991V27.4827C14.39 26.7336 14.997 26.126 15.7462 26.126H39.1939C39.9431 26.126 40.5502 26.7336 40.5502 27.4827L40.5503 40.2991Z" fill="#438D90"/>
<path d="M16.8922 19.3169H19.0548C19.7112 19.3169 20.2434 18.7855 20.2434 18.1291V11.1883C20.2434 10.5318 19.7112 10 19.0548 10H16.8922C16.2358 10 15.7036 10.5318 15.7036 11.1883V18.1291C15.7036 18.7855 16.2358 19.3169 16.8922 19.3169Z" fill="#438D90"/>
<path d="M35.8858 19.3169H38.0484C38.7044 19.3169 39.2366 18.7855 39.2366 18.1291V11.1883C39.2367 10.5318 38.7044 10 38.0484 10H35.8858C35.2295 10 34.6973 10.5318 34.6973 11.1883V18.1291C34.6973 18.7855 35.2295 19.3169 35.8858 19.3169Z" fill="#438D90"/>
</svg>
