<svg width="55" height="55" viewBox="0 0 55 55" fill="none" xmlns="http://www.w3.org/2000/svg">
<circle cx="27.5" cy="27.5" r="27" fill="#F7F7F7" stroke="#E5E5E5"/>
<path d="M31.0244 27.6861C30.8965 27.5667 30.7103 27.5069 30.4659 27.5069H29.6406V29.0575H30.4659C30.7103 29.0575 30.8965 28.9978 31.0244 28.8782C31.1522 28.7588 31.2162 28.5602 31.2162 28.2822C31.2162 28.0043 31.1522 27.8057 31.0244 27.6861Z" fill="#438D90"/>
<path d="M10 17.7065V37.2935C10 38.811 11.2345 40.0455 12.752 40.0455H16.8888V14.9545H12.752C11.2345 14.9545 10 16.189 10 17.7065Z" fill="#438D90"/>
<path d="M42.2481 14.9544H18.9409V19.0528H45.0001V17.7064C45.0001 16.1889 43.7656 14.9544 42.2481 14.9544Z" fill="#438D90"/>
<path d="M18.9409 21.1049V40.0457H42.2481C43.7656 40.0457 45.0001 38.8111 45.0001 37.2937V21.1049H18.9409ZM25.6479 31.3833C25.8033 31.3833 25.9326 31.3584 26.0355 31.3082C26.1382 31.2583 26.2118 31.1819 26.2563 31.079C26.3007 30.9762 26.33 30.8914 26.3439 30.8247C26.3577 30.758 26.3702 30.6664 26.3814 30.5497C26.4035 30.2886 26.6175 30.1579 27.0232 30.1579C27.2621 30.1579 27.4316 30.201 27.5317 30.2871C27.6317 30.3734 27.6817 30.5359 27.6817 30.7748C27.6817 31.3139 27.4858 31.739 27.094 32.0502C26.7022 32.3615 26.2006 32.517 25.5894 32.517C24.9947 32.517 24.5126 32.3587 24.1431 32.0418C23.7735 31.725 23.5887 31.2278 23.5887 30.5497V28.3408C23.5887 27.6628 23.7735 27.1653 24.1431 26.8487C24.5126 26.5319 24.9947 26.3736 25.5894 26.3736C26.2007 26.3736 26.7022 26.5208 27.094 26.8154C27.4858 27.11 27.6817 27.5156 27.6817 28.0324C27.6817 28.2715 27.6317 28.4339 27.5317 28.5201C27.4316 28.6063 27.265 28.6493 27.0315 28.6493C26.6147 28.6493 26.398 28.5188 26.3814 28.2575C26.3647 27.7573 26.1174 27.5073 25.6395 27.5073C25.1393 27.5073 24.8892 27.7851 24.8892 28.3409V30.5499C24.8892 31.1054 25.142 31.3833 25.6479 31.3833ZM32.304 32.3002C32.129 32.4448 31.9442 32.517 31.7497 32.517C31.5551 32.517 31.4162 32.4365 31.3329 32.2753L30.191 30.0579H29.6407V32.0669C29.6407 32.1948 29.5768 32.2934 29.449 32.3628C29.3211 32.4323 29.1683 32.4669 28.9905 32.4669C28.8126 32.4669 28.6598 32.4323 28.532 32.3628C28.4041 32.2933 28.3403 32.1948 28.3403 32.0669V26.7652C28.3403 26.6597 28.3777 26.568 28.4529 26.4902C28.5279 26.4124 28.6237 26.3735 28.7404 26.3735H30.466C31.833 26.3735 32.5166 26.9682 32.5166 28.1574C32.5166 29.0243 32.1803 29.5885 31.508 29.8495L32.525 31.6918C32.5526 31.7307 32.5666 31.7808 32.5666 31.8418C32.5666 32.0031 32.479 32.1558 32.304 32.3002ZM38.0515 32.3628C37.9236 32.4323 37.7709 32.4669 37.5931 32.4669C37.4152 32.4669 37.2623 32.4323 37.1346 32.3628C37.0067 32.2933 36.9428 32.1948 36.9428 32.0669V28.9409L36.1425 30.3079C36.048 30.4691 35.9035 30.5497 35.7091 30.5497C35.5201 30.5497 35.3839 30.4691 35.3006 30.3079L34.5087 28.8575V32.0669C34.5087 32.1948 34.4447 32.2934 34.3169 32.3628C34.189 32.4323 34.0362 32.4669 33.8584 32.4669C33.6805 32.4669 33.5277 32.4323 33.4 32.3628C33.2721 32.2933 33.2082 32.1948 33.2082 32.0669V27.0237C33.2082 26.8015 33.2707 26.6375 33.3958 26.5319C33.5208 26.4264 33.675 26.3736 33.8584 26.3736C34.1085 26.3736 34.2988 26.411 34.4294 26.4861C34.5599 26.5612 34.7058 26.7404 34.8671 27.0238L35.7257 28.5242L36.5843 27.0238C36.7453 26.7403 36.8913 26.561 37.0219 26.4861C37.1524 26.411 37.3429 26.3736 37.5929 26.3736C37.7763 26.3736 37.9305 26.4264 38.0556 26.5319C38.1806 26.6375 38.2431 26.8015 38.2431 27.0237V32.0669H38.2432C38.2433 32.1947 38.1793 32.2934 38.0515 32.3628Z" fill="#438D90"/>
</svg>
