<svg width="55" height="55" viewBox="0 0 55 55" fill="none" xmlns="http://www.w3.org/2000/svg">
<circle cx="27.5" cy="27.5" r="27" fill="#F7F7F7" stroke="#E5E5E5"/>
<g clip-path="url(#clip0)">
<path d="M44.4479 10H14.5521C13.1448 10 12 11.1448 12 12.5521V16.1979C12 17.6052 13.1448 18.75 14.5521 18.75H44.4479C45.8552 18.75 47 17.6052 47 16.1979V12.5521C47 11.1448 45.8552 10 44.4479 10Z" fill="#438D90"/>
<path d="M14.5521 45.0001H25.4896C26.8969 45.0001 28.0417 43.8553 28.0417 42.448V24.2189C28.0417 22.8116 26.8969 21.6668 25.4896 21.6668H14.5521C13.1448 21.6668 12 22.8116 12 24.2189V42.448C12 43.8553 13.1448 45.0001 14.5521 45.0001Z" fill="#438D90"/>
<path d="M44.4478 21.6668H33.5103C32.103 21.6668 30.9583 22.8116 30.9583 24.2189V29.323C30.9583 30.7303 32.103 31.8751 33.5103 31.8751H44.4478C45.8551 31.8751 46.9999 30.7303 46.9999 29.323V24.2189C46.9999 22.8116 45.8551 21.6668 44.4478 21.6668Z" fill="#438D90"/>
<path d="M44.4478 34.7918H33.5103C32.103 34.7918 30.9583 35.9366 30.9583 37.3439V42.448C30.9583 43.8553 32.103 45.0001 33.5103 45.0001H44.4478C45.8551 45.0001 46.9999 43.8553 46.9999 42.448V37.3439C46.9999 35.9366 45.8551 34.7918 44.4478 34.7918Z" fill="#438D90"/>
</g>
<defs>
<clipPath id="clip0">
<rect width="35" height="35" fill="white" transform="translate(12 10)"/>
</clipPath>
</defs>
</svg>
