<svg width="55" height="55" viewBox="0 0 55 55" fill="none" xmlns="http://www.w3.org/2000/svg">
<circle cx="27.5" cy="27.5" r="27" fill="#F7F7F7" stroke="#E5E5E5"/>
<g clip-path="url(#clip0)">
<path d="M44.9742 18.5089C44.9742 18.4689 45.0017 18.43 44.9999 18.3905L34.3191 28.682L44.9871 38.6448C44.9934 38.5736 44.9742 38.5019 44.9742 38.4292V18.5089Z" fill="#438D90"/>
<path d="M32.6888 30.2659L28.3286 34.4609C28.1079 34.6732 27.823 34.7797 27.5379 34.7797C27.2587 34.7797 26.9795 34.6778 26.7604 34.4736L22.412 30.4216L11.6743 40.7715C11.9354 40.8653 12.2157 40.9382 12.5091 40.9382H42.5667C43.0025 40.9382 43.4113 40.8054 43.7667 40.6074L32.6888 30.2659Z" fill="#438D90"/>
<path d="M27.5253 32.0687L43.8257 16.3666C43.4566 16.1472 43.0271 16 42.5666 16H12.509C11.9094 16 11.36 16.2328 10.9321 16.5879L27.5253 32.0687Z" fill="#438D90"/>
<path d="M10 18.8914V38.4289C10 38.6532 10.0515 38.8694 10.1075 39.076L20.712 28.8642L10 18.8914Z" fill="#438D90"/>
</g>
<defs>
<clipPath id="clip0">
<rect width="35" height="24.9381" fill="white" transform="translate(10 16)"/>
</clipPath>
</defs>
</svg>
