<svg width="55" height="55" viewBox="0 0 55 55" fill="none" xmlns="http://www.w3.org/2000/svg">
<circle cx="27.5" cy="27.5" r="27" fill="#F7F7F7" stroke="#E5E5E5"/>
<path d="M25.3984 42C28.4228 42 30.7644 41.7105 32.6427 41.1188C32.6029 40.9052 32.5762 40.6868 32.5762 40.4619C32.5762 39.4574 32.9938 38.5505 33.6614 37.8984C32.9938 37.2464 32.5762 36.3395 32.5762 35.335C32.5762 34.3304 32.9938 33.4236 33.6614 32.7715C32.9938 32.1194 32.5762 31.2126 32.5762 30.208C32.5762 29.2034 32.9938 28.2966 33.6614 27.6445C32.9938 26.9924 32.5762 26.0856 32.5762 25.0811C32.5762 23.8944 33.162 22.8484 34.0526 22.1947C33.4427 21.6364 32.7911 21.136 32.1075 20.6956C32.3852 20.3458 32.5762 19.9226 32.5762 19.4414C32.5762 18.3087 31.6581 17.3906 30.5254 17.3906H20.2715C19.1387 17.3906 18.2207 18.3087 18.2207 19.4414C18.2207 19.9215 18.4111 20.3434 18.6872 20.6927C14.7063 23.2572 12 27.9011 12 32.7715C12 41.0438 19.6757 42 25.3984 42ZM25.3875 32.0465C23.6911 32.0465 22.3113 30.6668 22.3113 28.9703C22.3113 27.6312 23.1765 26.5014 24.373 26.0797V24.5684C24.373 24.0017 24.8318 23.543 25.3984 23.543C25.9651 23.543 26.4238 24.0017 26.4238 24.5684V26.0867C27.6092 26.5142 28.4637 27.6395 28.4637 28.9703C28.4637 29.5372 28.0049 29.9957 27.4383 29.9957C26.8714 29.9957 26.4129 29.5372 26.4129 28.9703C26.4129 28.4045 25.9531 27.9449 25.3875 27.9449C24.8217 27.9449 24.3621 28.4045 24.3621 28.9703C24.3621 29.5362 24.8217 29.9957 25.3875 29.9957C27.0837 29.9957 28.4637 31.3757 28.4637 33.0719C28.4637 34.4028 27.6092 35.528 26.4238 35.9558V36.873C26.4238 37.4397 25.9651 37.8984 25.3984 37.8984C24.8318 37.8984 24.373 37.4397 24.373 36.873V35.9625C23.1765 35.5411 22.3113 34.411 22.3113 33.0719C22.3113 32.5053 22.7698 32.0465 23.3367 32.0465C23.9033 32.0465 24.3621 32.5053 24.3621 33.0719C24.3621 33.6377 24.8217 34.0973 25.3875 34.0973C25.9531 34.0973 26.4129 33.6377 26.4129 33.0719C26.4129 32.5061 25.9531 32.0465 25.3875 32.0465Z" fill="#438D90"/>
<path d="M45.4619 38.9238H36.165C35.3156 38.9238 34.627 39.6125 34.627 40.4619C34.627 41.3113 35.3156 42 36.165 42H45.4619C46.3113 42 47 41.3113 47 40.4619C47 39.6125 46.3113 38.9238 45.4619 38.9238Z" fill="#438D90"/>
<path d="M45.4619 33.7969H36.165C35.3156 33.7969 34.627 34.4855 34.627 35.335C34.627 36.1844 35.3156 36.873 36.165 36.873H45.4619C46.3113 36.873 47 36.1844 47 35.335C47 34.4855 46.3113 33.7969 45.4619 33.7969Z" fill="#438D90"/>
<path d="M45.4619 28.6699H36.165C35.3156 28.6699 34.627 29.3586 34.627 30.208C34.627 31.0574 35.3156 31.7461 36.165 31.7461H45.4619C46.3113 31.7461 47 31.0574 47 30.208C47 29.3586 46.3113 28.6699 45.4619 28.6699Z" fill="#438D90"/>
<path d="M45.4619 23.543H36.165C35.3156 23.543 34.627 24.2316 34.627 25.0811C34.627 25.9305 35.3156 26.6191 36.165 26.6191H45.4619C46.3113 26.6191 47 25.9305 47 25.0811C47 24.2316 46.3113 23.543 45.4619 23.543Z" fill="#438D90"/>
<path d="M28.2858 9.05078C27.861 7.85983 26.7336 7 25.3985 7C24.0617 7 22.9212 7.85716 22.4975 9.05078H19.2461C18.9166 9.05078 18.6071 9.20886 18.414 9.47643C18.2218 9.74372 18.1686 10.0882 18.2739 10.4006L19.8747 15.3398H30.9225L32.523 10.4006C32.6283 10.0882 32.5751 9.74372 32.3829 9.47643C32.1898 9.20886 31.8803 9.05078 31.5508 9.05078H28.2858Z" fill="#438D90"/>
</svg>
