<svg width="55" height="55" viewBox="0 0 55 55" fill="none" xmlns="http://www.w3.org/2000/svg">
<circle cx="27.5" cy="27.5" r="27" fill="#F7F7F7" stroke="#E5E5E5"/>
<path d="M29.25 25.75H44.4167V29.25H29.25V25.75Z" fill="#438D90"/>
<path d="M29.25 19.9167H40.3333V23.4167H29.25V19.9167Z" fill="#438D90"/>
<path d="M29.25 14.0833H35.6667V17.5833H29.25V14.0833Z" fill="#438D90"/>
<path d="M29.25 31.5833H39.1667V35.0833H29.25V31.5833Z" fill="#438D90"/>
<path d="M29.25 37.4167H34.5V40.9167H29.25V37.4167Z" fill="#438D90"/>
<path d="M25.7499 29.25H10.5833V25.75H25.7499V29.25Z" fill="#438D90"/>
<path d="M25.7501 23.4167H14.6667V19.9167H25.7501V23.4167Z" fill="#438D90"/>
<path d="M25.7499 17.5833H19.3333V14.0833H25.7499V17.5833Z" fill="#438D90"/>
<path d="M25.7499 35.0833H15.8333V31.5833H25.7499V35.0833Z" fill="#438D90"/>
<path d="M25.75 40.9167H20.5V37.4167H25.75V40.9167Z" fill="#438D90"/>
<path d="M26.9167 10H28.0834V45H26.9167V10Z" fill="#438D90"/>
</svg>
