<svg width="55" height="55" viewBox="0 0 55 55" fill="none" xmlns="http://www.w3.org/2000/svg">
<circle cx="27.5" cy="27.5" r="27" fill="#F7F7F7" stroke="#E5E5E5"/>
<path d="M28.5 18.75C30.6142 18.75 32.3281 17.0361 32.3281 14.9219C32.3281 12.8077 30.6142 11.0938 28.5 11.0938C26.3858 11.0938 24.6719 12.8077 24.6719 14.9219C24.6719 17.0361 26.3858 18.75 28.5 18.75Z" fill="#438D90"/>
<path d="M34.5156 28.5938V24.7656C34.5156 21.4434 31.8223 18.75 28.5 18.75C25.1777 18.75 22.4844 21.4434 22.4844 24.7656V28.5938C22.4844 29.8018 23.4638 30.7812 24.6719 30.7812H25.2188V42.2656C25.2188 43.1718 25.9532 43.9062 26.8594 43.9062C27.7655 43.9062 28.5 43.1718 28.5 42.2656C28.5 43.1718 29.2345 43.9062 30.1406 43.9062C31.0468 43.9062 31.7812 43.1718 31.7812 42.2656V30.7812H32.3281C33.5362 30.7812 34.5156 29.8018 34.5156 28.5938Z" fill="#438D90"/>
<path d="M14.2812 37.8906C13.3767 37.8906 12.6406 38.6267 12.6406 39.5312V41.7187C12.6406 42.6233 13.3767 43.3594 14.2812 43.3594H19.2031C20.1077 43.3594 20.8438 42.6233 20.8438 41.7187V38.6639L24.125 35.3827V33.8361L20.0705 37.8906H14.2812ZM13.7344 38.9844H14.8281V40.0781H13.7344V38.9844ZM19.75 42.2656H13.7344V41.1719H19.75V42.2656ZM19.75 40.0781H15.9219V38.9844H19.75V40.0781Z" fill="#438D90"/>
<path d="M33.8932 20.1462L36.9295 17.1094H42.7187C43.6232 17.1094 44.3593 16.3733 44.3593 15.4688V13.2812C44.3593 12.3767 43.6232 11.6406 42.7187 11.6406H37.7968C36.8923 11.6406 36.1562 12.3767 36.1562 13.2812V16.3361L33.1194 19.3729C33.3967 19.6102 33.6553 19.8689 33.8932 20.1462ZM43.2656 16.0156H42.1718V14.9219H43.2656V16.0156ZM37.2499 12.7344H43.2656V13.8281H37.2499V12.7344ZM37.2499 14.9219H41.0781V16.0156H37.2499V14.9219Z" fill="#438D90"/>
<path d="M44.3594 40.0781V30.7812H43.2656V40.0781H42.1719V31.875H41.0781V40.0781H39.9844V35.1562H38.8906V40.0781H37.7969V33.5156H36.7031V40.0781H35.6094V34.6094H34.5156V40.0781H33.4219V41.1719H45.4531V40.0781H44.3594Z" fill="#438D90"/>
<path d="M44.3594 42.2656H45.4531V43.3594H44.3594V42.2656Z" fill="#438D90"/>
<path d="M33.4219 42.2656H43.2656V43.3594H33.4219V42.2656Z" fill="#438D90"/>
<path d="M17.5625 21.4844C18.9729 21.4844 20.2433 20.8845 21.1418 19.9308L19.3677 18.6002C18.8848 19.0284 18.257 19.2969 17.5625 19.2969C16.0548 19.2969 14.8281 18.0703 14.8281 16.5626C14.8281 15.2424 15.7693 14.1377 17.0156 13.8834V11.6729C14.5585 11.9464 12.6406 14.0338 12.6406 16.5626C12.6406 19.2761 14.8489 21.4844 17.5625 21.4844Z" fill="#438D90"/>
<path d="M20.2969 16.5626C20.2969 16.9804 20.1952 17.3725 20.0267 17.7268L21.7986 19.0558C22.2312 18.3235 22.4844 17.4731 22.4844 16.5626C22.4844 14.0338 20.5665 11.9464 18.1094 11.6729V13.8834C19.3557 14.1377 20.2969 15.2424 20.2969 16.5626Z" fill="#438D90"/>
<path d="M17.5625 18.2031C18.4686 18.2031 19.2031 17.4686 19.2031 16.5625C19.2031 15.6564 18.4686 14.9219 17.5625 14.9219C16.6564 14.9219 15.9219 15.6564 15.9219 16.5625C15.9219 17.4686 16.6564 18.2031 17.5625 18.2031Z" fill="#438D90"/>
</svg>
