<svg width="55" height="55" viewBox="0 0 55 55" fill="none" xmlns="http://www.w3.org/2000/svg">
<circle cx="27.5" cy="27.5" r="27" fill="#F7F7F7" stroke="#E5E5E5"/>
<path d="M39.8238 11.0219C39.7874 11.019 39.7567 11 39.7188 11H24.0417C21.6297 11 19.6667 12.9629 19.6667 15.375V16.8333C19.6667 17.6383 20.3201 18.2917 21.1251 18.2917C21.9301 18.2917 22.5834 17.6383 22.5834 16.8333V15.375C22.5834 14.5715 23.2382 13.9167 24.0417 13.9167H30.8361L30.3913 14.0654C29.2101 14.4737 28.4167 15.5865 28.4167 16.8333V38.7083H24.0417C23.2382 38.7083 22.5834 38.0535 22.5834 37.25V34.3333C22.5834 33.5283 21.9301 32.875 21.1251 32.875C20.3201 32.875 19.6667 33.5283 19.6667 34.3333V37.25C19.6667 39.6621 21.6297 41.625 24.0417 41.625H28.4167V43.0833C28.4167 44.6919 29.7249 46 31.3334 46C31.6455 46 31.9415 45.9548 32.2624 45.8556L41.024 42.9346C42.2067 42.5262 43.0001 41.4135 43.0001 40.1667V13.9167C43.0001 12.2162 41.5345 10.8833 39.8238 11.0219Z" fill="#438D90"/>
<path d="M23.6144 24.5523L17.781 18.719C17.364 18.3019 16.7369 18.1765 16.1915 18.4026C15.6475 18.6286 15.2917 19.1609 15.2917 19.7501V24.1251H9.45833C8.65333 24.1251 8 24.7784 8 25.5834C8 26.3884 8.65333 27.0417 9.45833 27.0417H15.2917V31.4167C15.2917 32.0059 15.6475 32.5382 16.1915 32.7642C16.7369 32.9903 17.364 32.8648 17.781 32.4478L23.6144 26.6144C24.1846 26.0442 24.1846 25.1226 23.6144 24.5523Z" fill="#438D90"/>
</svg>
