<svg width="55" height="55" viewBox="0 0 55 55" fill="none" xmlns="http://www.w3.org/2000/svg">
<circle cx="27.5" cy="27.5" r="27" fill="#F7F7F7" stroke="#E5E5E5"/>
<path d="M37.6855 30.6445C33.7282 30.6445 30.5078 33.8649 30.5078 37.8223C30.5078 41.7797 33.7282 45 37.6855 45C41.6429 45 45 41.7797 45 37.8223C45 33.8649 41.6429 30.6445 37.6855 30.6445ZM39.7363 38.8477H37.6855C37.1188 38.8477 36.6602 38.389 36.6602 37.8223V35.7715C36.6602 35.2047 37.1188 34.7461 37.6855 34.7461C38.2523 34.7461 38.7109 35.2047 38.7109 35.7715V36.7969H39.7363C40.3031 36.7969 40.7617 37.2555 40.7617 37.8223C40.7617 38.389 40.3031 38.8477 39.7363 38.8477Z" fill="#438D90"/>
<path d="M14.1016 35.7715H12.0508C10.9181 35.7715 10 36.6896 10 37.8223C10 38.9548 10.9181 39.873 12.0508 39.873H14.1016C15.2342 39.873 16.1523 38.9548 16.1523 37.8223C16.1523 36.6896 15.2342 35.7715 14.1016 35.7715Z" fill="#438D90"/>
<path d="M14.1016 25.5176H12.0508C10.9181 25.5176 10 26.4357 10 27.5684C10 28.7009 10.9181 29.6191 12.0508 29.6191H14.1016C15.2342 29.6191 16.1523 28.7009 16.1523 27.5684C16.1523 26.4357 15.2342 25.5176 14.1016 25.5176Z" fill="#438D90"/>
<path d="M14.1016 15.127H12.0508C10.9181 15.127 10 16.0451 10 17.1777C10 18.3102 10.9181 19.2285 12.0508 19.2285H14.1016C15.2342 19.2285 16.1523 18.3102 16.1523 17.1777C16.1523 16.0451 15.2342 15.127 14.1016 15.127Z" fill="#438D90"/>
<path d="M39.7363 10H17.1777C15.4815 10 14.1016 11.3799 14.1016 13.0762C16.3636 13.0762 18.2031 14.9157 18.2031 17.1777C18.2031 19.4398 16.3636 21.2793 14.1016 21.2793V23.4668C16.3636 23.4668 18.2031 25.3063 18.2031 27.5684C18.2031 29.8304 16.3636 31.6699 14.1016 31.6699V33.7207C16.3636 33.7207 18.2031 35.5602 18.2031 37.8223C18.2031 40.0843 16.3636 41.9238 14.1016 41.9238C14.1016 43.6201 15.4815 45 17.1777 45H31.9566C29.841 43.3074 28.457 40.7362 28.457 37.8223C28.457 32.7334 32.5967 28.5938 37.6855 28.5938C39.582 28.5938 41.4815 29.1712 42.9492 30.156V13.0762C42.9492 11.3799 41.4326 10 39.7363 10ZM28.1567 32.3949L24.055 36.4964C23.8547 36.6967 23.5924 36.7969 23.3301 36.7969C23.0678 36.7969 22.8054 36.6967 22.6051 36.4964L20.2659 34.1572C19.8654 33.7567 19.8654 33.1078 20.2659 32.7073C20.6665 32.3068 21.3154 32.3068 21.7159 32.7073L23.3301 34.3215L26.7067 30.9449C27.1072 30.5444 27.7561 30.5444 28.1567 30.9449C28.5572 31.3454 28.5572 31.9944 28.1567 32.3949ZM28.1567 24.1917L24.0551 28.2933C23.8548 28.4936 23.5924 28.5938 23.3301 28.5938C23.0679 28.5938 22.8054 28.4936 22.6052 28.2933L20.266 25.9541C19.8654 25.5536 19.8654 24.9047 20.2659 24.5042C20.6665 24.1037 21.3154 24.1037 21.7159 24.5042L23.3301 26.1184L26.7067 22.7418C27.1072 22.3413 27.7561 22.3413 28.1567 22.7418C28.5572 23.1423 28.5572 23.7912 28.1567 24.1917ZM28.1567 15.8519L24.0551 19.9535C23.8548 20.1538 23.5924 20.2539 23.3301 20.2539C23.0679 20.2539 22.8054 20.1538 22.6052 19.9535L20.266 17.6143C19.8654 17.2138 19.8654 16.5649 20.2659 16.1644C20.6665 15.7639 21.3154 15.7639 21.7159 16.1644L23.3301 17.7785L26.7067 14.4019C27.1072 14.0014 27.7561 14.0014 28.1567 14.4019C28.5572 14.8025 28.5572 15.4514 28.1567 15.8519ZM37.6855 26.543H31.5332C30.9664 26.543 30.5078 26.0843 30.5078 25.5176C30.5078 24.9508 30.9664 24.4922 31.5332 24.4922H37.6855C38.2523 24.4922 38.7109 24.9508 38.7109 25.5176C38.7109 26.0843 38.2523 26.543 37.6855 26.543ZM37.6855 18.2031H31.5332C30.9664 18.2031 30.5078 17.7445 30.5078 17.1777C30.5078 16.611 30.9664 16.1523 31.5332 16.1523H37.6855C38.2523 16.1523 38.7109 16.611 38.7109 17.1777C38.7109 17.7445 38.2523 18.2031 37.6855 18.2031Z" fill="#438D90"/>
</svg>
