<svg width="68" height="36" viewBox="0 0 68 36" fill="none" xmlns="http://www.w3.org/2000/svg">
<g clip-path="url(#clip0)" filter="url(#filter0_d)">
<path d="M63.1379 27.2568H-40.5V0.5H63.1379L55.6255 13.6301L55.4834 13.8784L55.6255 14.1267L63.1379 27.2568Z" fill="#F16B24" stroke="#F16B24"/>
<path d="M28.1544 23C29.6637 23 30.9262 21.9241 31.2161 20.5H25.0928C25.3828 21.9241 26.6454 23 28.1544 23Z" fill="white"/>
<path d="M33.9975 12.9992C33.9941 12.9992 33.9908 13 33.9874 13C30.7716 13 28.1541 10.3832 28.1541 7.16669C28.1541 6.28244 28.3575 5.44656 28.7117 4.69492C28.5283 4.67752 28.3424 4.66669 28.1541 4.66669C24.9325 4.66669 22.3208 7.27823 22.3208 10.5V12.8233C22.3208 14.4724 21.5983 16.0291 20.3308 17.1008C19.9083 17.4616 19.7207 18.0366 19.8724 18.5975C20.0491 19.25 20.6941 19.6667 21.3708 19.6667H34.9333C35.6433 19.6667 36.3125 19.2066 36.4566 18.5108C36.5683 17.9725 36.3766 17.4349 35.9591 17.0841C34.7474 16.0684 34.0466 14.5757 33.9975 12.9992Z" fill="white"/>
<path d="M38.1536 7.16672C38.1536 9.4679 36.2882 11.3333 33.9869 11.3333C31.6857 11.3333 29.8203 9.4679 29.8203 7.16672C29.8203 4.86554 31.6857 3 33.9869 3C36.2882 3 38.1536 4.86554 38.1536 7.16672Z" fill="white"/>
</g>
<defs>
<filter id="filter0_d" x="0" y="0" width="68" height="36" filterUnits="userSpaceOnUse" color-interpolation-filters="sRGB">
<feFlood flood-opacity="0" result="BackgroundImageFix"/>
<feColorMatrix in="SourceAlpha" type="matrix" values="0 0 0 0 0 0 0 0 0 0 0 0 0 0 0 0 0 0 127 0"/>
<feOffset dy="4"/>
<feGaussianBlur stdDeviation="2"/>
<feColorMatrix type="matrix" values="0 0 0 0 0 0 0 0 0 0 0 0 0 0 0 0 0 0 0.25 0"/>
<feBlend mode="normal" in2="BackgroundImageFix" result="effect1_dropShadow"/>
<feBlend mode="normal" in="SourceGraphic" in2="effect1_dropShadow" result="shape"/>
</filter>
<clipPath id="clip0">
<rect width="60" height="28" fill="white" transform="translate(4)"/>
</clipPath>
</defs>
</svg>
