<svg width="20" height="20" viewBox="0 0 20 20" fill="none" xmlns="http://www.w3.org/2000/svg">
<path d="M9.99984 1.66666C5.39984 1.66666 1.6665 5.39999 1.6665 9.99999C1.6665 14.6 5.39984 18.3333 9.99984 18.3333C14.5998 18.3333 18.3332 14.6 18.3332 9.99999C18.3332 5.39999 14.5998 1.66666 9.99984 1.66666ZM9.99984 16.6667C6.32484 16.6667 3.33317 13.675 3.33317 9.99999C3.33317 6.32499 6.32484 3.33332 9.99984 3.33332C13.6748 3.33332 16.6665 6.32499 16.6665 9.99999C16.6665 13.675 13.6748 16.6667 9.99984 16.6667ZM13.8248 6.31666L8.33317 11.8083L6.17484 9.65832L4.99984 10.8333L8.33317 14.1667L14.9998 7.49999L13.8248 6.31666Z" fill="#438D90"/>
</svg>
