<svg width="20" height="20" viewBox="0 0 20 20" fill="none" xmlns="http://www.w3.org/2000/svg">
<path d="M16.6503 1.56667H3.97059C3.10448 1.56667 2.4 2.27115 2.4 3.13726V16.8628C2.4 17.7289 3.10448 18.4333 3.97059 18.4333H16.6503C17.5164 18.4333 18.2209 17.7289 18.2209 16.8628V3.13726C18.2209 2.27115 17.5164 1.56667 16.6503 1.56667ZM17.0405 16.8628C17.0405 17.0778 16.8654 17.2529 16.6503 17.2529H3.97059C3.75552 17.2529 3.58039 17.0778 3.58039 16.8628V3.13726C3.58039 2.92219 3.75552 2.74706 3.97059 2.74706H16.6503C16.8654 2.74706 17.0405 2.92219 17.0405 3.13726V16.8628Z" fill="#F16B24" stroke="#F16B24" stroke-width="0.2"/>
<path d="M15.5717 3.88146H5.04879C4.72284 3.88146 4.45859 4.14571 4.45859 4.47166V7.40195C4.45859 7.7279 4.72284 7.99215 5.04879 7.99215H15.5717C15.8976 7.99215 16.1619 7.7279 16.1619 7.40195V4.47166C16.1619 4.14571 15.8976 3.88146 15.5717 3.88146ZM14.9815 6.81176H5.63899V5.06185H14.9815V6.81176Z" fill="#F16B24" stroke="#F16B24" stroke-width="0.2"/>
<path d="M7.56427 9.12312H5.60348C5.33276 9.12312 5.11328 9.3426 5.11328 9.61332V11.5741C5.11328 11.8448 5.33276 12.0643 5.60348 12.0643H7.56427C7.83499 12.0643 8.05446 11.8448 8.05446 11.5741V9.61332C8.05446 9.34257 7.83499 9.12312 7.56427 9.12312ZM7.07407 11.0839H6.09368V10.1035H7.07407V11.0839Z" fill="#F16B24"/>
<path d="M7.56427 13.0774H5.60348C5.33276 13.0774 5.11328 13.2969 5.11328 13.5676V15.5284C5.11328 15.7991 5.33276 16.0186 5.60348 16.0186H7.56427C7.83499 16.0186 8.05446 15.7991 8.05446 15.5284V13.5676C8.05446 13.2968 7.83499 13.0774 7.56427 13.0774ZM7.07407 15.0382H6.09368V14.0578H7.07407V15.0382Z" fill="#F16B24"/>
<path d="M11.5682 9.12312H9.60738C9.33667 9.12312 9.11719 9.3426 9.11719 9.61332V11.5741C9.11719 11.8448 9.33667 12.0643 9.60738 12.0643H11.5682C11.8389 12.0643 12.0584 11.8448 12.0584 11.5741V9.61332C12.0584 9.34257 11.8389 9.12312 11.5682 9.12312ZM11.078 11.0839H10.0976V10.1035H11.078V11.0839Z" fill="#F16B24"/>
<path d="M11.5682 13.0774H9.60738C9.33667 13.0774 9.11719 13.2969 9.11719 13.5676V15.5284C9.11719 15.7991 9.33667 16.0186 9.60738 16.0186H11.5682C11.8389 16.0186 12.0584 15.7991 12.0584 15.5284V13.5676C12.0584 13.2968 11.8389 13.0774 11.5682 13.0774ZM11.078 15.0382H10.0976V14.0578H11.078V15.0382Z" fill="#F16B24"/>
<path d="M15.5721 9.12312H13.6113C13.3406 9.12312 13.1211 9.3426 13.1211 9.61332V15.5284C13.1211 15.7991 13.3406 16.0186 13.6113 16.0186H15.5721C15.8428 16.0186 16.0623 15.7991 16.0623 15.5284V9.61332C16.0623 9.34257 15.8428 9.12312 15.5721 9.12312ZM15.0819 15.0382H14.1015V10.1035H15.0819V15.0382Z" fill="#F16B24"/>
</svg>
