<svg width="20" height="20" viewBox="0 0 20 20" fill="none" xmlns="http://www.w3.org/2000/svg">
<path d="M8.96357 2.25H8.96328L4.07578 2.25L4.0755 2.25C3.81211 2.2503 3.55959 2.35507 3.37334 2.54131C3.1871 2.72756 3.08233 2.98007 3.08203 3.24346V3.24375L3.08203 8.13125L3.08203 8.13154C3.08233 8.39493 3.1871 8.64744 3.37334 8.83369C3.55959 9.01993 3.81211 9.1247 4.0755 9.125H4.07578H8.96328H8.96357C9.22696 9.1247 9.47948 9.01993 9.66572 8.83369C9.85197 8.64744 9.95673 8.39493 9.95703 8.13154V8.13125V3.24375V3.24347C9.95673 2.98007 9.85197 2.72756 9.66572 2.54131C9.47948 2.35507 9.22696 2.2503 8.96357 2.25ZM9.0118 8.17976L9.18857 8.35654L9.01179 8.17976C8.99885 8.1927 8.98131 8.19998 8.96301 8.2H4.07605C4.05775 8.19998 4.04021 8.1927 4.02727 8.17976C4.01435 8.16685 4.00708 8.14934 4.00703 8.13108V3.24392C4.00708 3.22566 4.01435 3.20815 4.02727 3.19524C4.04019 3.18232 4.05771 3.17504 4.07598 3.175H8.96309C8.98136 3.17504 8.99887 3.18232 9.01179 3.19524C9.02473 3.20818 9.03201 3.22572 9.03203 3.24402V8.13098C9.03201 8.14928 9.02473 8.16682 9.0118 8.17976Z" fill="#F16B24" stroke="#F16B24" stroke-width="0.5"/>
<path d="M16.7565 2.25H16.7562L11.8687 2.25L11.8685 2.25C11.6051 2.2503 11.3526 2.35507 11.1663 2.54131C10.9801 2.72756 10.8753 2.98007 10.875 3.24346V3.24375L10.875 8.13125L10.875 8.13154C10.8753 8.39493 10.9801 8.64744 11.1663 8.83369C11.3526 9.01993 11.6051 9.1247 11.8685 9.125H11.8687H16.7562H16.7565C17.0199 9.1247 17.2724 9.01993 17.4587 8.83369C17.6449 8.64744 17.7497 8.39493 17.75 8.13154V8.13125V3.24375V3.24346C17.7497 2.98007 17.6449 2.72756 17.4587 2.54131C17.2724 2.35507 17.0199 2.2503 16.7565 2.25ZM16.825 8.13098C16.825 8.14928 16.8177 8.16682 16.8048 8.17976C16.7918 8.1927 16.7743 8.19998 16.756 8.2H11.869C11.8507 8.19998 11.8332 8.1927 11.8202 8.17976C11.8073 8.16684 11.8 8.14933 11.8 8.13105V3.24395C11.8 3.22567 11.8073 3.20816 11.8202 3.19524C11.8332 3.18232 11.8507 3.17504 11.8689 3.175H16.7561C16.7743 3.17504 16.7918 3.18232 16.8048 3.19524C16.8177 3.20818 16.825 3.22572 16.825 3.24402V8.13098Z" fill="#F16B24" stroke="#F16B24" stroke-width="0.5"/>
<path d="M8.96357 10.0417H8.96328L4.07578 10.0417L4.0755 10.0417C3.81211 10.042 3.55959 10.1467 3.37334 10.333C3.1871 10.5192 3.08233 10.7717 3.08203 11.0351V11.0354L3.08203 15.9229L3.08203 15.9232C3.08233 16.1866 3.1871 16.4391 3.37334 16.6254C3.55959 16.8116 3.81211 16.9164 4.0755 16.9167H4.07578H8.96328H8.96357C9.22696 16.9164 9.47948 16.8116 9.66572 16.6254C9.85197 16.4391 9.95673 16.1866 9.95703 15.9232V15.9229V11.0354V11.0351C9.95673 10.7717 9.85197 10.5192 9.66572 10.333C9.47948 10.1467 9.22696 10.042 8.96357 10.0417ZM9.03203 15.9226C9.03201 15.9409 9.02473 15.9585 9.01179 15.9714C8.99886 15.9844 8.98131 15.9917 8.96301 15.9917H4.07605C4.05775 15.9917 4.04021 15.9844 4.02727 15.9714C4.01435 15.9585 4.00708 15.941 4.00703 15.9227V11.0356C4.00708 11.0173 4.01435 10.9998 4.02727 10.9869C4.04019 10.974 4.05771 10.9667 4.07598 10.9667H8.96309C8.98136 10.9667 8.99887 10.974 9.01179 10.9869C9.02473 10.9998 9.03201 11.0174 9.03203 11.0357V15.9226Z" fill="#F16B24" stroke="#F16B24" stroke-width="0.5"/>
<path d="M16.7565 10.0417H16.7562L11.8687 10.0417L11.8685 10.0417C11.6051 10.0419 11.3526 10.1467 11.1663 10.333C10.9801 10.5192 10.8753 10.7717 10.875 11.0351V11.0354L10.875 15.9229L10.875 15.9232C10.8753 16.1866 10.9801 16.4391 11.1663 16.6254C11.3526 16.8116 11.6051 16.9164 11.8685 16.9167H11.8687H16.7562H16.7565C17.0199 16.9164 17.2724 16.8116 17.4587 16.6254C17.6449 16.4391 17.7497 16.1866 17.75 15.9232V15.9229V11.0354V11.0351C17.7497 10.7717 17.6449 10.5192 17.4587 10.333C17.2724 10.1467 17.0199 10.0419 16.7565 10.0417ZM16.825 15.9227C16.825 15.941 16.8177 15.9585 16.8048 15.9714C16.7919 15.9844 16.7743 15.9916 16.756 15.9917H11.869C11.8507 15.9916 11.8331 15.9844 11.8202 15.9714C11.8073 15.9585 11.8 15.941 11.8 15.9227V11.0356C11.8 11.0356 11.8 11.0356 11.8 11.0356C11.8 11.0173 11.8073 10.9998 11.8202 10.9869C11.8331 10.9739 11.8507 10.9667 11.869 10.9667H16.756C16.7561 10.9667 16.7561 10.9667 16.7561 10.9667C16.7744 10.9667 16.7919 10.974 16.8048 10.9869C16.8177 10.9998 16.825 11.0173 16.825 11.0356V15.9227Z" fill="#F16B24" stroke="#F16B24" stroke-width="0.5"/>
</svg>
