<svg width="173" height="173" viewBox="0 0 173 173" fill="none" xmlns="http://www.w3.org/2000/svg">
<g clip-path="url(#clip0)">
<path d="M112.599 57.4005C102.591 47.3918 87.2896 46.4467 76.2515 53.9239C97.0609 48.3774 117.175 64.0973 117.175 85.3243C117.175 88.2084 116.8 91.0344 116.076 93.7486C123.556 82.707 122.605 67.4062 112.599 57.4005Z" fill="#F16B24"/>
<path d="M64.3989 65.047C53.2547 76.1914 53.252 94.0908 64.0845 105.279L56.3297 114H84.6758C92.3354 114 99.5364 111.017 104.952 105.601C116.159 94.394 116.16 76.2549 104.952 65.047C93.746 53.8405 75.607 53.8391 64.3989 65.047ZM67.4704 75.7652H84.6759V79.5886H67.4704V75.7652ZM101.881 94.8824H67.4704V91.0589H101.881V94.8824ZM101.881 87.2355H67.4704V83.4121H101.881V87.2355Z" fill="#438D90"/>
</g>
<g filter="url(#filter0_d)">
<circle cx="86.5" cy="86.5" r="65.4" stroke="#F16B24" stroke-width="0.2"/>
</g>
<g filter="url(#filter1_d)">
<circle cx="87" cy="87" r="53.9" stroke="#438D90" stroke-width="0.2"/>
</g>
<defs>
<filter id="filter0_d" x="0" y="0" width="173" height="173" filterUnits="userSpaceOnUse" color-interpolation-filters="sRGB">
<feFlood flood-opacity="0" result="BackgroundImageFix"/>
<feColorMatrix in="SourceAlpha" type="matrix" values="0 0 0 0 0 0 0 0 0 0 0 0 0 0 0 0 0 0 127 0"/>
<feMorphology radius="1" operator="dilate" in="SourceAlpha" result="effect1_dropShadow"/>
<feOffset/>
<feGaussianBlur stdDeviation="10"/>
<feColorMatrix type="matrix" values="0 0 0 0 0.945098 0 0 0 0 0.419608 0 0 0 0 0.141176 0 0 0 1 0"/>
<feBlend mode="normal" in2="BackgroundImageFix" result="effect1_dropShadow"/>
<feBlend mode="normal" in="SourceGraphic" in2="effect1_dropShadow" result="shape"/>
</filter>
<filter id="filter1_d" x="17" y="17" width="140" height="140" filterUnits="userSpaceOnUse" color-interpolation-filters="sRGB">
<feFlood flood-opacity="0" result="BackgroundImageFix"/>
<feColorMatrix in="SourceAlpha" type="matrix" values="0 0 0 0 0 0 0 0 0 0 0 0 0 0 0 0 0 0 127 0"/>
<feMorphology radius="1" operator="dilate" in="SourceAlpha" result="effect1_dropShadow"/>
<feOffset/>
<feGaussianBlur stdDeviation="7.5"/>
<feColorMatrix type="matrix" values="0 0 0 0 0.262745 0 0 0 0 0.552941 0 0 0 0 0.564706 0 0 0 1 0"/>
<feBlend mode="normal" in2="BackgroundImageFix" result="effect1_dropShadow"/>
<feBlend mode="normal" in="SourceGraphic" in2="effect1_dropShadow" result="shape"/>
</filter>
<clipPath id="clip0">
<rect width="65" height="65" fill="white" transform="translate(56 49)"/>
</clipPath>
</defs>
</svg>
