<svg height="512pt" viewBox="-68 0 512 512" width="512pt" xmlns="http://www.w3.org/2000/svg"><path d="m43.996094 141.410156c0-31.542968 25.664062-57.207031 57.210937-57.207031 31.542969 0 57.210938 25.664063 57.210938 57.207031v46.105469c15.890625-4.859375 27.488281-19.660156 27.488281-37.125v-111.578125c0-21.402344-17.414062-38.8125-38.816406-38.8125h-91.765625c-21.402344 0-38.816407 17.410156-38.816407 38.8125v111.578125c0 17.464844 11.59375 32.265625 27.488282 37.125zm0 0"/><path d="m337.296875 0h-91.769531c-21.402344 0-38.8125 17.410156-38.8125 38.8125v111.578125c0 21.402344 17.410156 38.8125 38.8125 38.8125h91.769531c21.402344 0 38.816406-17.410156 38.816406-38.8125v-111.578125c0-21.402344-17.414062-38.8125-38.816406-38.8125zm0 0"/><path d="m266.210938 241.144531c-15.191407 0-27.5 12.3125-27.5 27.5v-14.007812c0-15.1875-12.3125-27.5-27.503907-27.5-15.1875 0-27.5 12.308593-27.5 27.5v-11.78125c0-14.445313-11.136719-26.277344-25.289062-27.40625-.730469-.054688-1.464844-.09375-2.210938-.09375-11.085937 0-20.632812 6.566406-24.984375 16.015625-1.609375 3.496094-2.515625 7.382812-2.515625 11.484375v-101.445313c0-15.1875-12.3125-27.5-27.5-27.5s-27.5 12.3125-27.5 27.5v236.09375l-1.191406-.152344-16.941406-72.515624c-3.457031-14.789063-18.25-23.980469-33.039063-20.523438-15.53125 0-25.347656 12.375-21.816406 27.5l19.644531 84.074219c10.273438 65.78125 63.449219 116.113281 63.449219 116.113281h167.078125c27.917969-42.460938 42.796875-92.164062 42.804687-142.984375l.015626-100.371094c0-15.1875-12.3125-27.5-27.5-27.5zm0 0"/></svg>