<svg width="20" height="20" viewBox="0 0 20 20" fill="none" xmlns="http://www.w3.org/2000/svg">
<path d="M15.8327 5.34175L14.6577 4.16675L9.99935 8.82508L5.34102 4.16675L4.16602 5.34175L8.82435 10.0001L4.16602 14.6584L5.34102 15.8334L9.99935 11.1751L14.6577 15.8334L15.8327 14.6584L11.1743 10.0001L15.8327 5.34175Z" fill="#F16B24"/>
<path d="M3 2.5H17V-2.5H3V2.5ZM17.5 3V17H22.5V3H17.5ZM17 17.5H3V22.5H17V17.5ZM2.5 17V3H-2.5V17H2.5ZM3 17.5C2.72386 17.5 2.5 17.2761 2.5 17H-2.5C-2.5 20.0376 -0.0375672 22.5 3 22.5V17.5ZM17.5 17C17.5 17.2761 17.2761 17.5 17 17.5V22.5C20.0376 22.5 22.5 20.0376 22.5 17H17.5ZM17 2.5C17.2761 2.5 17.5 2.72386 17.5 3H22.5C22.5 -0.0375653 20.0376 -2.5 17 -2.5V2.5ZM3 -2.5C-0.0375653 -2.5 -2.5 -0.0375672 -2.5 3H2.5C2.5 2.72386 2.72386 2.5 3 2.5V-2.5Z" fill="#F16B24"/>
</svg>
