<svg width="20" height="20" viewBox="0 0 20 20" fill="none" xmlns="http://www.w3.org/2000/svg">
<path d="M5.35938 15.3474H14.6393C14.6393 13.2704 13.1925 11.5263 11.2264 11.0016C12.2563 10.5342 12.9746 9.49874 12.9746 8.29433C12.9746 6.651 11.6417 5.32001 10.0002 5.32001C8.35729 5.32001 7.02555 6.65212 7.02555 8.29433C7.02555 9.49986 7.7431 10.5339 8.77374 11.0016C6.80609 11.5263 5.35938 13.2704 5.35938 15.3474Z" fill="#F16B24"/>
<path d="M2.22973 7.40715C2.59505 7.40715 2.89149 7.11071 2.89149 6.7454V3.72352H5.91337C6.27868 3.72352 6.57512 3.42708 6.57512 3.06176C6.57512 2.69644 6.27868 2.4 5.91337 2.4H2.70722C2.07863 2.4 1.56797 2.91066 1.56797 3.53925V6.7454C1.56797 7.11063 1.86357 7.40715 2.22973 7.40715Z" fill="#F16B24" stroke="#F16B24" stroke-width="0.2"/>
<path d="M14.0891 2.4H17.2956C17.9235 2.4 18.4349 2.91143 18.4345 3.53969M14.0891 2.4L18.3345 6.7454C18.3345 7.05549 18.0825 7.30715 17.7727 7.30715C17.463 7.30715 17.211 7.05549 17.211 6.7454V3.72352H17.111M14.0891 2.4C13.7242 2.4 13.4273 2.6964 13.4273 3.06176C13.4273 3.42712 13.7242 3.72352 14.0891 3.72352H17.111M14.0891 2.4L17.111 3.62352V3.72352M18.4345 3.53969L18.3345 3.53963H18.4345V3.53969ZM18.4345 3.53969V6.7454C18.4345 7.11076 18.1376 7.40715 17.7727 7.40715C17.4078 7.40715 17.111 7.11076 17.111 6.7454V3.72352" fill="#F16B24" stroke="#F16B24" stroke-width="0.2"/>
<path d="M17.7727 13.2607C17.4074 13.2607 17.111 13.5571 17.111 13.9224V16.9443H14.0891C13.7238 16.9443 13.4273 17.2407 13.4273 17.6061C13.4273 17.9714 13.7238 18.2678 14.0891 18.2678H17.2949C17.9231 18.2678 18.4345 17.7564 18.4345 17.1282V13.9224C18.4345 13.5571 18.1381 13.2607 17.7727 13.2607Z" fill="#F16B24" stroke="#F16B24" stroke-width="0.2"/>
<path d="M5.91337 16.9443H2.89149V13.9224C2.89149 13.5571 2.59505 13.2607 2.22973 13.2607C1.86357 13.2607 1.56797 13.5572 1.56797 13.9224V17.1282C1.56797 17.7564 2.07856 18.2678 2.70722 18.2678H5.91337C6.27869 18.2678 6.57512 17.9714 6.57512 17.6061C6.57512 17.2408 6.2791 16.9443 5.91337 16.9443Z" fill="#F16B24" stroke="#F16B24" stroke-width="0.2"/>
</svg>
