<svg id="Engineer-Avatar-Worker-Man-Occupation" height="512" viewBox="0 0 64 64" width="512" xmlns="http://www.w3.org/2000/svg"><path d="m31 36.17v-1.26l-2-.58v1.84a3.113 3.113 0 0 1 2 0z"/><path d="m21 31.54v3.96l3 2.25 3-2.25v-3.96a10.013 10.013 0 0 1 -6 0z"/><path d="m32 22v-3h-16v3a8 8 0 0 0 16 0zm-13-2h2v2h-2zm5 8a4 4 0 0 1 -4-4h2a2 2 0 0 0 4 0h2a4 4 0 0 1 -4 4zm5-6h-2v-2h2z"/><path d="m27 6.58v6.42h4.93a8.108 8.108 0 0 0 -4.93-6.42z"/><path d="m14 16a1 1 0 0 0 1 1h18a1 1 0 0 0 0-2h-18a1 1 0 0 0 -1 1z"/><path d="m23 4h2v9h-2z"/><path d="m16.07 13h4.93v-6.42a8.108 8.108 0 0 0 -4.93 6.42z"/><path d="m40 42h8v2h-8z"/><path d="m27 49.24v10.76h10v-10.76l-1.62-3.24h-6.76z"/><path d="m45 53h-6v7h18v-7h-6a3 3 0 0 1 -6 0z"/><path d="m7 41.58v18.42h5v-15h2v15h11v-11a1 1 0 0 1 .11-.45l2-4a.988.988 0 0 1 .89-.55h10v-3a1 1 0 0 1 1-1h1.73a5 5 0 0 0 -3.42-3.25l-4.31-1.25v3.5a1 1 0 0 1 -2 0 1 1 0 0 0 -2 0 1 1 0 0 1 -2 0v-1l-2.4 1.8a1 1 0 0 1 -1.2 0l-2.4-1.8v1a1 1 0 0 1 -2 0 1 1 0 0 0 -2 0 1 1 0 0 1 -2 0v-3.5l-4.3 1.25a5.035 5.035 0 0 0 -3.7 4.83z"/><path d="m49 53v-2a1 1 0 0 0 -2 0v2a1 1 0 0 0 2 0z"/><path d="m57 49.24-1.62-3.24h-17.76l1.27 2.55a1 1 0 0 1 .11.45v2h6a3 3 0 0 1 6 0h6z"/><path d="m19 36.17v-1.84l-2 .58v1.26a3.113 3.113 0 0 1 2 0z"/></svg>