<svg width="19" height="24" viewBox="0 0 19 24" fill="none" xmlns="http://www.w3.org/2000/svg">
<path d="M17.5276 5.55336L12.9276 0.953344C12.8039 0.829659 12.6363 0.759999 12.4609 0.759999H2.80091C1.67618 0.759999 0.760937 1.67471 0.760937 2.80001V21.2C0.760937 22.3253 1.67619 23.24 2.80095 23.24H15.681C16.8057 23.24 17.7209 22.3253 17.7209 21.2V6.01998C17.7209 5.84465 17.6513 5.67703 17.5276 5.55336ZM13.1209 4.64003V3.01332L15.4676 5.36001H13.8409C13.4438 5.36001 13.1209 5.03679 13.1209 4.64003ZM16.401 21.2C16.401 21.5967 16.078 21.92 15.681 21.92H2.80095C2.40385 21.92 2.08097 21.5967 2.08097 21.2V2.80001C2.08097 2.40326 2.40389 2.08003 2.80095 2.08003H11.8009V4.64003C11.8009 5.7653 12.7162 6.68 13.841 6.68H16.401V21.2Z" fill="#F16B24" stroke="#F16B24" stroke-width="0.4"/>
<path d="M7.19158 14.8333H6.38841L6.74292 15.554C7.44418 16.9796 8.86488 17.9722 10.5263 17.9722C11.4217 17.9722 12.2467 17.6835 12.9261 17.1921L13.2745 17.5578C12.5 18.1525 11.5518 18.5 10.5263 18.5C8.49374 18.5 6.7475 17.125 6.09072 15.1738L5.97611 14.8333H5.61684H3.7901L3.89536 14.6111H5.35053H5.91123L5.84726 14.0541C5.8263 13.8715 5.81579 13.6889 5.81579 13.5C5.81579 13.3111 5.8263 13.1285 5.84726 12.9459L5.91123 12.3889H5.35053H3.7901L3.89536 12.1667H5.61684H5.97611L6.09072 11.8262C6.7475 9.87496 8.49374 8.5 10.5263 8.5C11.5477 8.5 12.4999 8.84809 13.2755 9.44326L12.9297 9.80829C12.2459 9.31691 11.4176 9.02778 10.5263 9.02778C8.87111 9.02778 7.44439 10.0199 6.74292 11.446L6.38841 12.1667H7.19158H10.3152L10.2099 12.3889H6.80947H6.37612L6.31455 12.8178C6.28291 13.0383 6.26316 13.2641 6.26316 13.5C6.26316 13.7359 6.28291 13.9617 6.31455 14.1822L6.37612 14.6111H6.80947H10.3152L10.2099 14.8333H7.19158Z" fill="#F16B24" stroke="#F16B24"/>
</svg>
