<svg id="Capa_1" enable-background="new 0 0 512 512" height="512" viewBox="0 0 512 512" width="512" xmlns="http://www.w3.org/2000/svg"><g><path d="m256 60c0-16.569-13.431-30-30-30h-30c0-16.569-13.431-30-30-30s-30 13.431-30 30h-30c-16.569 0-30 13.431-30 30v31h180z"/><path d="m286 256c-49.629 0-90 40.371-90 90s40.371 90 90 90c44.493 0 81.292-32.523 88.484-75h137.516v-30h-137.516c-7.192-42.477-43.991-75-88.484-75z"/><path d="m331 457.075c-13.92 5.66-29.068 8.925-45 8.925-20.695 0-39.884-5.742-56.893-15h-108.107v-30h72.083c-7.359-9.097-13.685-19.003-18.159-30h-53.924v-30h46.516c-.63-4.968-1.516-9.864-1.516-15s.886-10.032 1.516-15h-46.516v-30h53.925c4.473-10.997 10.8-20.903 18.159-30h-72.084v-30h108.107c17.009-9.258 36.198-15 56.893-15 15.932 0 31.08 3.265 45 8.925v-174.925h-45v61h-240v-61h-46v452h331zm-210-276.075h150v30h-150zm-30 270h-30v-30h30zm0-60h-30v-30h30zm0-60h-30v-30h30zm0-60h-30v-30h30zm0-60h-30v-30h30z"/></g></svg>