<svg width="35" height="35" viewBox="0 0 35 35" fill="none" xmlns="http://www.w3.org/2000/svg">
<circle cx="17.5" cy="17.5" r="17.5" fill="#2878B7"/>
<path d="M24.5 18.1513V22.9776H21.6749V18.4456C21.6749 17.3274 21.2629 16.5622 20.2623 16.5622C19.4972 16.5622 19.0263 17.0919 18.8498 17.5628C18.7909 17.7394 18.7321 17.9748 18.7321 18.2691V22.9776H15.9069C15.9069 22.9776 15.9658 15.3262 15.9069 14.5611H18.7321V15.7382C19.0852 15.1497 19.7915 14.3257 21.2629 14.3257C23.0874 14.3257 24.5 15.5617 24.5 18.1513ZM12.9641 10.5C12.0224 10.5 11.375 11.1474 11.375 11.9714C11.375 12.7954 11.9636 13.4428 12.9053 13.4428C13.9058 13.4428 14.4944 12.7954 14.4944 11.9714C14.5533 11.0886 13.9647 10.5 12.9641 10.5ZM11.5516 22.9776H14.3767V14.5611H11.5516V22.9776Z" fill="white"/>
</svg>
