<svg width="20" height="20" viewBox="0 0 20 20" fill="none" xmlns="http://www.w3.org/2000/svg">
<path d="M10.0013 3.33332C11.6096 3.33332 14.168 4.49999 14.168 7.62499C14.168 9.42499 12.7346 11.5167 10.0013 13.725C7.26797 11.5167 5.83464 9.41666 5.83464 7.62499C5.83464 4.49999 8.39297 3.33332 10.0013 3.33332ZM10.0013 1.66666C7.2763 1.66666 4.16797 3.71666 4.16797 7.62499C4.16797 10.225 6.10964 12.9667 10.0013 15.8333C13.893 12.9667 15.8346 10.225 15.8346 7.62499C15.8346 3.71666 12.7263 1.66666 10.0013 1.66666Z" fill="#F16B24"/>
<path d="M10.0013 5.83334C9.08464 5.83334 8.33464 6.58334 8.33464 7.50001C8.33464 8.41668 9.08464 9.16668 10.0013 9.16668C10.4433 9.16668 10.8673 8.99108 11.1798 8.67852C11.4924 8.36596 11.668 7.94204 11.668 7.50001C11.668 7.05798 11.4924 6.63406 11.1798 6.3215C10.8673 6.00894 10.4433 5.83334 10.0013 5.83334ZM4.16797 16.6667H15.8346V18.3333H4.16797V16.6667Z" fill="#F16B24"/>
</svg>
