<svg height="448pt" viewBox="0 0 448 448" width="448pt" xmlns="http://www.w3.org/2000/svg"><path d="m272 312h-144v48h144zm-112 32h-16v-16h16zm32 0h-16v-16h16zm32 0h-16v-16h16zm32 0h-16v-16h16zm0 0"/><path d="m296 384h80c4.417969 0 8-3.582031 8-8v-88c0-4.417969-3.582031-8-8-8h-80c-4.417969 0-8 3.582031-8 8v88c0 4.417969 3.582031 8 8 8zm8-56c0-4.417969 3.582031-8 8-8v-8c0-13.253906 10.746094-24 24-24s24 10.746094 24 24v8c4.417969 0 8 3.582031 8 8v32c0 4.417969-3.582031 8-8 8h-48c-4.417969 0-8-3.582031-8-8zm0 0"/><path d="m344 312c0-4.417969-3.582031-8-8-8s-8 3.582031-8 8v8h16zm0 0"/><path d="m248 168c0 13.253906-10.746094 24-24 24s-24-10.746094-24-24 10.746094-24 24-24 24 10.746094 24 24zm0 0"/><path d="m320 336h32v16h-32zm0 0"/><path d="m189.542969 188c-3.597657-6.054688-5.511719-12.957031-5.542969-20 0-22.089844 17.910156-40 40-40s40 17.910156 40 40c-.03125 7.042969-1.945312 13.945312-5.542969 20 9.679688 7.558594 16.605469 18.097656 19.703125 29.984375 16.875-26.808594 11.605469-61.925781-12.398437-82.597656-24.003907-20.667969-59.519531-20.667969-83.523438 0-24.003906 20.671875-29.273437 55.789062-12.398437 82.597656 3.097656-11.886719 10.023437-22.425781 19.703125-29.984375zm0 0"/><path d="m247.855469 199.910156c-14.074219 10.796875-33.636719 10.796875-47.710938 0-10.152343 7.542969-16.136719 19.441406-16.144531 32.089844v1.800781c3.53125 2.804688 7.324219 5.261719 11.328125 7.335938.296875.152343.601563.289062.894531.429687 1.363282.664063 2.777344 1.296875 4.226563 1.890625.453125.175781.917969.328125 1.375.503907 1.359375.496093 2.777343.976562 4.222656 1.429687 1.449219.457031 2.722656.753906 4.105469 1.058594l1.441406.320312c1.160156.230469 2.34375.375 3.519531.542969.902344.121094 1.816407.289062 2.71875.375 2.023438.191406 4.0625.3125 6.136719.3125.34375 0 .6875-.046875 1.03125-.046875 1.695312 0 3.390625-.105469 5.054688-.257813 1.203124-.121093 2.449218-.328124 3.679687-.519531.929687-.144531 1.882813-.238281 2.800781-.421875l.992188-.226562c1.769531-.382813 3.519531-.800782 5.234375-1.34375l.925781-.3125c1.328125-.429688 2.632812-.925782 3.921875-1.4375 1.285156-.511719 2.855469-1.226563 4.292969-1.921875l.800781-.390625c3.996094-2.066406 7.777344-4.519532 11.296875-7.320313v-1.800781c-.007812-12.648438-5.992188-24.546875-16.144531-32.089844zm0 0"/><path d="m424 0h-400c-13.253906 0-24 10.746094-24 24v24h448v-24c0-13.253906-10.746094-24-24-24zm-392 32h-16v-16h16zm32 0h-16v-16h16zm32 0h-16v-16h16zm0 0"/><path d="m0 424c0 13.253906 10.746094 24 24 24h400c13.253906 0 24-10.746094 24-24v-360h-448zm128-208h22.726562c-16.441406-37.46875-1.960937-81.304688 33.5625-101.609375 35.527344-20.300781 80.644532-10.523437 104.578126 22.664063 23.9375 33.1875 18.972656 79.085937-11.507813 106.386718l-.0625.078125c-.074219.066407-.152344.113281-.21875.175781-5.132813 4.574219-10.832031 8.46875-16.957031 11.59375-.136719.0625-.257813.160157-.386719.222657-.40625.207031-.796875.351562-1.222656.550781-1.601563.800781-3.253907 1.53125-4.9375 2.203125l-.453125.207031c-.496094.183594-.976563.320313-1.464844.496094-1.664062.617188-3.335938 1.214844-5.046875 1.726562-.402344.121094-.800781.289063-1.195313.410157l-3.796874.878906c-.671876.152344-1.335938.328125-2.023438.464844l-.386719.085937c-.910156.167969-1.734375.234375-2.613281.375-1.65625.265625-3.304688.546875-4.992188.707032-2.585937.253906-5.097656.382812-7.601562.382812s-5.054688-.136719-7.625-.382812c-1.445312-.136719-2.863281-.394532-4.285156-.601563-1.027344-.152344-2.011719-.238281-3.050782-.429687l-.527343-.121094c-.71875-.136719-1.421875-.320313-2.128907-.480469l-3.109374-.710937c-.65625-.183594-1.167969-.371094-1.769532-.554688-.800781-.238281-1.648437-.488281-2.457031-.796875-1.421875-.472656-2.742187-.945313-4.046875-1.449219l-.519531-.226562c-1.664063-.660156-3.28125-1.40625-4.886719-2.175782-.410156-.191406-.859375-.359374-1.257812-.558593-.144532-.070313-.273438-.167969-.414063-.246094-6.144531-3.125-11.859375-7.03125-17-11.617187-.066406-.054688-.144531-.105469-.21875-.167969l-.0625-.082031c-3.851563-3.457032-7.363281-7.273438-10.488281-11.398438h-32.152344zm-32 0h16v16h-16zm0 112h16v-16c0-8.835938 7.164062-16 16-16h144v-8c0-13.253906 10.746094-24 24-24h80c13.253906 0 24 10.746094 24 24v88c0 13.253906-10.746094 24-24 24h-80c-13.253906 0-24-10.746094-24-24h-144c-8.835938 0-16-7.164062-16-16v-16h-16zm-40-104c0-4.417969 3.582031-8 8-8h16v16h-8v96h8v16h-16c-4.417969 0-8-3.582031-8-8zm0 0"/></svg>