<svg width="32" height="32" viewBox="0 0 32 32" fill="none" xmlns="http://www.w3.org/2000/svg">
<g clip-path="url(#clip0)">
<path d="M26.4965 31.9383L26.4973 31.939C26.6687 32.1087 26.8976 32.2 27.1305 32.2C27.2464 32.2 27.3623 32.1765 27.4711 32.1326L27.4724 32.132C27.8078 31.9939 28.0262 31.6661 28.0262 31.3043V25.165C30.396 24.7399 32.2001 22.6639 32.2001 20.1739V4.86958C32.2 2.07387 29.9261 -0.2 27.1304 -0.2H4.86958C2.07387 -0.2 -0.2 2.07387 -0.2 4.86958V20.1739C-0.2 22.9696 2.07387 25.2435 4.86958 25.2435H19.8031L26.4965 31.9383ZM26.2347 24.3478V29.1421L20.8078 23.7139L20.8071 23.7131C20.6393 23.5471 20.4122 23.4521 20.1739 23.4521H4.86958C3.06279 23.4521 1.59135 21.9819 1.59135 20.1739V4.86958C1.59135 3.06147 3.06279 1.59135 4.86958 1.59135H27.1304C28.9372 1.59135 30.4087 3.06153 30.4087 4.86958V20.1739C30.4087 21.982 28.9372 23.4521 27.1304 23.4521C26.636 23.4521 26.2347 23.8533 26.2347 24.3478Z" fill="#F16B24" stroke="#F16B24" stroke-width="0.4"/>
<path d="M16.001 16.4956C14.7399 16.4956 13.7141 17.5215 13.7141 18.7826C13.7141 20.0437 14.7399 21.0695 16.001 21.0695C17.2621 21.0695 18.288 20.0437 18.288 18.7826C18.288 17.5215 17.2621 16.4956 16.001 16.4956ZM16.001 19.2783C15.7277 19.2783 15.5053 19.055 15.5053 18.7826C15.5053 18.5102 15.7277 18.2869 16.001 18.2869C16.2743 18.2869 16.4967 18.5102 16.4967 18.7826C16.4967 19.055 16.2743 19.2783 16.001 19.2783Z" fill="#F16B24" stroke="#F16B24" stroke-width="0.4"/>
<path d="M18.3706 4.70265L18.3706 4.70264C17.939 4.23904 17.3294 3.97389 16.6965 3.97389H15.3052C14.6723 3.97389 14.0642 4.23912 13.6327 4.70253C13.2006 5.16526 12.9802 5.79169 13.0243 6.43317L13.0243 6.43317L13.0246 6.43656L13.613 13.29C13.7018 14.5327 14.7464 15.5043 16.0008 15.5043C17.2454 15.5043 18.2901 14.5328 18.3776 13.3012L18.9772 6.42705L18.9772 6.42705L18.9774 6.42413C19.0232 5.79264 18.8021 5.16624 18.3706 4.70265ZM16.5919 13.1596L16.5919 13.1596L16.5916 13.1629C16.57 13.4694 16.3112 13.713 15.9898 13.713C15.6819 13.713 15.4208 13.4731 15.3976 13.1515L15.3976 13.1514L15.3974 13.1488L14.8103 6.29545C14.8007 6.15444 14.8473 6.02362 14.9416 5.92346C15.0379 5.82109 15.1663 5.76517 15.3052 5.76517H16.6965C16.8353 5.76517 16.9638 5.82109 17.0601 5.92346C17.1554 6.02475 17.201 6.15603 17.1928 6.28449L16.5919 13.1596Z" fill="#F16B24" stroke="#F16B24" stroke-width="0.4"/>
</g>
<defs>
<clipPath id="clip0">
<rect width="32" height="32" fill="white"/>
</clipPath>
</defs>
</svg>
