<svg width="20" height="20" viewBox="0 0 20 20" fill="none" xmlns="http://www.w3.org/2000/svg">
<path d="M17.2941 17.0235H17.2944C17.6592 17.0231 18.009 16.878 18.267 16.62C18.525 16.362 18.6702 16.0122 18.6706 15.6473V15.6471V3.17647V3.17623C18.6702 2.81137 18.525 2.46157 18.267 2.20357C18.009 1.94557 17.6592 1.80044 17.2944 1.8H17.2941L3.17647 1.8L3.17623 1.8C2.81137 1.80044 2.46157 1.94557 2.20357 2.20357C1.94557 2.46157 1.80044 2.81137 1.8 3.17623V3.17647L1.8 15.6471L1.8 15.6473C1.80044 16.0122 1.94557 16.362 2.20357 16.62C2.46157 16.878 2.81137 17.0231 3.17623 17.0235H3.17647H17.2941ZM2.81876 2.81876C2.91363 2.72389 3.0423 2.67059 3.17647 2.67059H17.2941C17.4283 2.67059 17.557 2.72389 17.6518 2.81876C17.7467 2.91363 17.8 3.0423 17.8 3.17647V15.6471C17.8 15.7812 17.7467 15.9099 17.6518 16.0048C17.557 16.0996 17.4283 16.1529 17.2941 16.1529H3.17647C3.0423 16.1529 2.91363 16.0996 2.81876 16.0048C2.72389 15.9099 2.67059 15.7812 2.67059 15.6471V3.17647C2.67059 3.0423 2.72389 2.91363 2.81876 2.81876Z" fill="#606161" stroke="#606161" stroke-width="0.4"/>
<path d="M4.04468 11.1313C4.12632 11.213 4.23704 11.2588 4.35248 11.2588C4.46793 11.2588 4.57865 11.213 4.66028 11.1313C4.74192 11.0497 4.78778 10.939 4.78778 10.8235V7.99999C4.78778 7.88454 4.74192 7.77382 4.66028 7.69219C4.57865 7.61055 4.46793 7.56469 4.35248 7.56469C4.23704 7.56469 4.12632 7.61055 4.04468 7.69219C3.96305 7.77382 3.91719 7.88454 3.91719 7.99999V10.8235C3.91719 10.939 3.96305 11.0497 4.04468 11.1313Z" fill="#606161" stroke="#606161" stroke-width="0.4"/>
<path d="M4.78778 6.11763V4.78822H15.6819V14.0353H4.78778V12.7059C4.78778 12.5904 4.74191 12.4797 4.66028 12.3981C4.57865 12.3164 4.46793 12.2706 4.35248 12.2706C4.23704 12.2706 4.12632 12.3164 4.04468 12.3981C3.96305 12.4797 3.91719 12.5904 3.91719 12.7059V14.4706C3.91719 14.586 3.96305 14.6968 4.04468 14.7784C4.12632 14.86 4.23703 14.9059 4.35248 14.9059H16.1172C16.2326 14.9059 16.3434 14.86 16.425 14.7784C16.5066 14.6968 16.5525 14.586 16.5525 14.4706V4.35292C16.5525 4.23748 16.5066 4.12676 16.425 4.04513C16.3434 3.96349 16.2326 3.91763 16.1172 3.91763H4.35248C4.23703 3.91763 4.12632 3.96349 4.04468 4.04512C3.96305 4.12676 3.91719 4.23748 3.91719 4.35292V6.11763C3.91719 6.23308 3.96305 6.3438 4.04468 6.42543C4.12632 6.50707 4.23703 6.55293 4.35248 6.55293C4.46793 6.55293 4.57865 6.50707 4.66028 6.42543C4.74191 6.3438 4.78778 6.23308 4.78778 6.11763Z" fill="#606161" stroke="#606161" stroke-width="0.4"/>
<path d="M4.58686 18.2H6.46921C6.58466 18.2 6.69538 18.1541 6.77701 18.0725C6.85864 17.9909 6.9045 17.8801 6.9045 17.7647V16.5882C6.9045 16.4728 6.85864 16.3621 6.77701 16.2804C6.69538 16.1988 6.58466 16.1529 6.46921 16.1529H4.58686C4.47141 16.1529 4.36069 16.1988 4.27906 16.2804C4.19742 16.3621 4.15156 16.4728 4.15156 16.5882V17.7647C4.15156 17.8801 4.19742 17.9909 4.27906 18.0725C4.36069 18.1541 4.47141 18.2 4.58686 18.2ZM6.03392 17.0235V17.3294H5.02215V17.0235H6.03392Z" fill="#606161" stroke="#606161" stroke-width="0.4"/>
<path d="M16.1872 16.2804L16.0457 16.4219L16.1872 16.2804C16.1055 16.1988 15.9948 16.1529 15.8794 16.1529H13.997C13.8816 16.1529 13.7708 16.1988 13.6892 16.2804C13.6076 16.3621 13.5617 16.4728 13.5617 16.5882V17.7647C13.5617 17.8801 13.6076 17.9909 13.6892 18.0725C13.7708 18.1541 13.8816 18.2 13.997 18.2H15.8794C15.9948 18.2 16.1055 18.1541 16.1872 18.0725C16.2688 17.9909 16.3146 17.8801 16.3146 17.7647V16.5882C16.3146 16.4728 16.2688 16.3621 16.1872 16.2804ZM15.4441 17.0235V17.3294H14.4323V17.0235H15.4441Z" fill="#606161" stroke="#606161" stroke-width="0.4"/>
<path d="M3.53547 5.87875L3.67689 6.02017L3.53547 5.87875C3.40971 6.00451 3.33906 6.17508 3.33906 6.35293V7.76469C3.33906 7.94254 3.40971 8.11311 3.53547 8.23887L3.53547 8.23887C3.66123 8.36463 3.8318 8.43528 4.00965 8.43528H4.69567C4.6957 8.43528 4.69574 8.43528 4.69577 8.43528C4.78383 8.43531 4.87103 8.418 4.95239 8.38433C5.03379 8.35065 5.10776 8.30126 5.17006 8.23899C5.23237 8.17671 5.28179 8.10277 5.31552 8.02139C5.34924 7.94001 5.36659 7.85278 5.36659 7.76469V6.35293C5.36659 6.17508 5.29594 6.00451 5.17018 5.87875C5.04442 5.75299 4.87386 5.68234 4.696 5.68234H4.00965C3.8318 5.68234 3.66123 5.75299 3.53547 5.87875ZM4.20965 7.56469V6.55293H4.4958L4.49597 7.56469H4.20965Z" fill="#606161" stroke="#606161" stroke-width="0.4"/>
<path d="M3.53547 12.9447L3.53547 12.9447C3.40971 12.819 3.33906 12.6484 3.33906 12.4706V11.0588C3.33906 10.881 3.40971 10.7104 3.53547 10.5846M3.53547 12.9447L3.53547 10.5846M3.53547 12.9447C3.66123 13.0705 3.8318 13.1412 4.00965 13.1412H4.69567M3.53547 12.9447L4.69567 13.1412M3.53547 10.5846C3.66123 10.4589 3.8318 10.3882 4.00965 10.3882H4.696C4.87385 10.3882 5.04442 10.4589 5.17018 10.5846C5.29594 10.7104 5.36659 10.881 5.36659 11.0588V12.4706C5.36659 12.5587 5.34924 12.6459 5.31551 12.7273C5.28179 12.8087 5.23237 12.8826 5.17006 12.9449C5.10776 13.0071 5.03379 13.0565 4.95239 13.0902C4.87103 13.1239 4.78383 13.1412 4.69577 13.1412C4.69574 13.1412 4.6957 13.1412 4.69567 13.1412M3.53547 10.5846L4.69567 13.1412M4.20965 12.2706V11.2588H4.4958L4.49597 12.2706H4.20965Z" fill="#606161" stroke="#606161" stroke-width="0.4"/>
<path d="M11.1127 12.1932L11.1129 12.1932C11.8502 12.1923 12.5571 11.899 13.0785 11.3776C13.5999 10.8562 13.8932 10.1493 13.8941 9.412V9.41177C13.8941 8.86165 13.7309 8.3239 13.4253 7.8665C13.1197 7.4091 12.6853 7.05259 12.1771 6.84208C11.6688 6.63156 11.1096 6.57648 10.57 6.6838C10.0305 6.79112 9.5349 7.05602 9.14591 7.44501C8.75692 7.834 8.49202 8.3296 8.3847 8.86914C8.27737 9.40868 8.33246 9.96793 8.54297 10.4762C8.75349 10.9844 9.10999 11.4188 9.56739 11.7244C10.0248 12.0301 10.5626 12.1932 11.1127 12.1932ZM10.0511 7.82297C10.3653 7.61303 10.7347 7.50096 11.1126 7.50094C11.6192 7.50153 12.1049 7.70305 12.4631 8.0613C12.8214 8.41957 13.0229 8.90532 13.0235 9.41199C13.0234 9.78984 12.9114 10.1592 12.7015 10.4734C12.4915 10.7876 12.1931 11.0325 11.8439 11.1771C11.4947 11.3218 11.1105 11.3596 10.7399 11.2859C10.3692 11.2121 10.0287 11.0302 9.76151 10.7629C9.49427 10.4957 9.31229 10.1552 9.23856 9.78455C9.16483 9.41389 9.20267 9.02968 9.34729 8.68053C9.49192 8.33137 9.73683 8.03294 10.0511 7.82297Z" fill="#606161" stroke="#606161" stroke-width="0.4"/>
<path d="M12.5736 9.41198V9.41176C12.5736 9.12206 12.4877 8.83886 12.3268 8.59797C12.1659 8.35708 11.9371 8.16931 11.6695 8.05841C11.4019 7.94751 11.1074 7.91845 10.8232 7.97491C10.5391 8.03137 10.278 8.17081 10.0731 8.3756C9.8682 8.5804 9.72862 8.84135 9.672 9.12546C9.61538 9.40958 9.64428 9.70411 9.75503 9.97181C9.86578 10.2395 10.0534 10.4684 10.2942 10.6294C10.535 10.7905 10.8182 10.8765 11.1079 10.8767H11.1081C11.4966 10.8765 11.8691 10.7221 12.1439 10.4475C12.4186 10.1729 12.5732 9.80046 12.5736 9.41198ZM10.7781 8.91783C10.8758 8.85246 10.9906 8.81751 11.1082 8.81741L11.1079 8.81741C11.2657 8.81746 11.4169 8.8801 11.5285 8.99158C11.6401 9.10306 11.7029 9.25427 11.7031 9.412L11.9031 9.41176H11.7031C11.7031 9.52929 11.6682 9.64418 11.6029 9.74191C11.5376 9.83964 11.4448 9.91582 11.3363 9.96082C11.2277 10.0058 11.1082 10.0176 10.9929 9.99473C10.8777 9.97184 10.7718 9.91529 10.6886 9.83222C10.6055 9.74915 10.5488 9.6433 10.5258 9.52804C10.5028 9.41278 10.5145 9.29329 10.5594 9.18468C10.6043 9.07607 10.6804 8.9832 10.7781 8.91783Z" fill="#606161" stroke="#606161" stroke-width="0.4"/>
<path d="M11.1064 8.8174C10.9909 8.8174 10.8802 8.77154 10.7986 8.6899C10.717 8.60827 10.6711 8.49755 10.6711 8.3821V7.06446C10.6711 6.94901 10.717 6.83829 10.7986 6.75666C10.8802 6.67502 10.9909 6.62916 11.1064 6.62916C11.2218 6.62916 11.3326 6.67502 11.4142 6.75666C11.4958 6.83829 11.5417 6.94901 11.5417 7.06446V8.3821C11.5417 8.49755 11.4958 8.60827 11.4142 8.6899M11.1064 8.8174L11.4142 8.6899M11.1064 8.8174C11.2218 8.8174 11.3326 8.77154 11.4142 8.6899M11.1064 8.8174L11.4142 8.6899" fill="#606161" stroke="#606161" stroke-width="0.4"/>
<path d="M11.1064 12.1932C10.9909 12.1932 10.8802 12.1473 10.7986 12.0657C10.717 11.984 10.6711 11.8733 10.6711 11.7579V10.4402C10.6711 10.3248 10.717 10.2141 10.7986 10.1324C10.8802 10.0508 10.9909 10.0049 11.1064 10.0049C11.2218 10.0049 11.3326 10.0508 11.4142 10.1324C11.4958 10.2141 11.5417 10.3248 11.5417 10.4402V11.7579C11.5417 11.8733 11.4958 11.984 11.4142 12.0657M11.1064 12.1932L11.4142 12.0657M11.1064 12.1932C11.2218 12.1932 11.3326 12.1473 11.4142 12.0657M11.1064 12.1932L11.4142 12.0657" fill="#606161" stroke="#606161" stroke-width="0.4"/>
<path d="M10.0744 8.99153C10.1064 9.02349 10.1428 9.04996 10.1822 9.07036V9.11933L10.3823 9.11928C10.4683 9.11926 10.5525 9.09372 10.624 9.04589C10.6956 8.99806 10.7514 8.93008 10.7843 8.85056C10.8173 8.77103 10.8259 8.68352 10.8091 8.59909L10.6129 8.6381L10.8091 8.59909C10.7923 8.51467 10.7509 8.43711 10.69 8.37624L10.69 8.37623L9.75895 7.44494L9.75897 7.44492L9.75645 7.44249C9.67435 7.36319 9.56439 7.31932 9.45026 7.32031C9.33613 7.3213 9.22695 7.36708 9.14624 7.44779C9.06554 7.5285 9.01976 7.63767 9.01877 7.75181C9.01777 7.86594 9.06165 7.97589 9.14094 8.05799L9.14092 8.05801L9.14338 8.06047L10.0744 8.99151C10.0744 8.99151 10.0744 8.99152 10.0744 8.99153Z" fill="#606161" stroke="#606161" stroke-width="0.4"/>
<path d="M12.7689 11.5061L12.9689 11.5061V11.4572C12.9833 11.4497 12.9972 11.4415 13.0108 11.4325C13.0823 11.3846 13.1381 11.3167 13.171 11.2371C13.204 11.1576 13.2126 11.0701 13.1958 10.9857C13.179 10.9013 13.1376 10.8237 13.0767 10.7628L13.0767 10.7628L12.1456 9.83175L12.1457 9.83173L12.1432 9.82931C12.0611 9.75002 11.9511 9.70614 11.837 9.70714C11.7228 9.70813 11.6137 9.75391 11.533 9.83461C11.4523 9.91532 11.4065 10.0245 11.4055 10.1386C11.4045 10.2528 11.4484 10.3627 11.5277 10.4448L11.5276 10.4448L11.5301 10.4473L12.4611 11.3786C12.4611 11.3786 12.4611 11.3786 12.4611 11.3786C12.5428 11.4602 12.6535 11.5061 12.7689 11.5061Z" fill="#606161" stroke="#606161" stroke-width="0.4"/>
<path d="M10.3881 9.10395L10.2478 9.24418L10.3881 9.10395C10.3064 9.02231 10.1957 8.97645 10.0803 8.97645H8.76264C8.64719 8.97645 8.53647 9.02231 8.45484 9.10395C8.3732 9.18558 8.32734 9.2963 8.32734 9.41174C8.32734 9.52719 8.3732 9.63791 8.45484 9.71954C8.53647 9.80118 8.64719 9.84704 8.76264 9.84704H10.0803C10.1957 9.84704 10.3064 9.80117 10.3881 9.71954C10.4697 9.63791 10.5156 9.52719 10.5156 9.41174C10.5156 9.2963 10.4697 9.18558 10.3881 9.10395Z" fill="#606161" stroke="#606161" stroke-width="0.4"/>
<path d="M12.1376 9.84704H13.4534H13.4553C13.5707 9.84704 13.6815 9.80118 13.7631 9.71955C13.8447 9.63792 13.8906 9.5272 13.8906 9.41175C13.8906 9.29631 13.8447 9.18559 13.7631 9.10395C13.6815 9.02232 13.5707 8.97646 13.4553 8.97646H12.1376C12.0222 8.97646 11.9115 9.02232 11.8298 9.10395C11.7482 9.18558 11.7023 9.2963 11.7023 9.41175C11.7023 9.5272 11.7482 9.63792 11.8298 9.71955C11.9115 9.80118 12.0222 9.84704 12.1376 9.84704Z" fill="#606161" stroke="#606161" stroke-width="0.4"/>
<path d="M9.45005 11.5061L9.45033 11.5061L9.61644 11.2369L9.75786 11.3784L9.75798 11.3783C9.75802 11.3782 9.75805 11.3782 9.75809 11.3781L10.6889 10.4473L10.689 10.4474L10.6934 10.4427C10.7707 10.3602 10.8129 10.2509 10.8111 10.1379C10.8093 10.0248 10.7635 9.91694 10.6836 9.83702C10.6036 9.75711 10.4957 9.71145 10.3826 9.70969C10.2696 9.70793 10.1603 9.75023 10.0779 9.82762L10.0778 9.82755L10.0734 9.83199L9.14231 10.7631L9.14229 10.7631C9.08144 10.824 9.03999 10.9015 9.0232 10.9859C9.00641 11.0704 9.01504 11.1579 9.04797 11.2374C9.08091 11.3169 9.13669 11.3849 9.20826 11.4327L9.20826 11.4327C9.27982 11.4806 9.36397 11.5061 9.45005 11.5061Z" fill="#606161" stroke="#606161" stroke-width="0.4"/>
<path d="M11.529 8.37598L11.529 8.376C11.4682 8.43688 11.4267 8.51443 11.4099 8.59886C11.3931 8.68329 11.4018 8.77079 11.4347 8.85032C11.4676 8.92985 11.5234 8.99782 11.595 9.04566C11.6665 9.09349 11.7507 9.11903 11.8368 9.11905H11.8368C11.9523 9.11902 12.063 9.07315 12.1446 8.99153C12.1446 8.99152 12.1446 8.99151 12.1446 8.99151L13.0756 8.06047L13.0757 8.06049L13.0781 8.05799C13.1574 7.97589 13.2012 7.86594 13.2002 7.75181C13.1993 7.63767 13.1535 7.5285 13.0728 7.44779C12.9921 7.36708 12.8829 7.3213 12.7688 7.32031C12.6546 7.31932 12.5447 7.36319 12.4626 7.44249L12.4625 7.44246L12.4601 7.44492L11.529 8.37598Z" fill="#606161" stroke="#606161" stroke-width="0.4"/>
</svg>
