<svg id="Capa_1" enable-background="new 0 0 510.013 510.013" height="512" viewBox="0 0 510.013 510.013" width="512" xmlns="http://www.w3.org/2000/svg"><g id="XMLID_126_"><path id="XMLID_173_" d="m444.099 65.914c-78.533-78.532-198.59-85.948-285.199-27.279 163.278-43.52 321.102 79.824 321.102 246.379 0 22.629-2.945 44.803-8.622 66.1 58.686-86.637 51.227-206.692-27.281-285.2z"/><path id="XMLID_174_" d="m65.901 125.914c-87.442 87.443-87.463 227.888-2.467 315.678l-60.847 68.421h222.413c60.1 0 116.602-23.404 159.098-65.901 87.931-87.931 87.941-230.257 0-318.198-87.93-87.93-230.255-87.941-318.197 0zm24.1 84.099h135v30h-135zm270 150h-270v-30h270zm0-60h-270v-30h270z"/></g></svg>