<svg id="Layer_5" enable-background="new 0 0 64 64" height="512" viewBox="0 0 64 64" width="512" xmlns="http://www.w3.org/2000/svg"><g><path d="m49 6c0-1.654-1.346-3-3-3h-9v3c0 1.13-.391 2.162-1.026 3h13.026zm-3 1c-.552 0-1-.448-1-1s.448-1 1-1 1 .448 1 1-.448 1-1 1z"/><path d="m46.991 15h6.019c-.789-2.473-1.935-4-3.009-4s-2.221 1.527-3.01 4z"/><path d="m32 9c1.654 0 3-1.346 3-3v-3h-6v3c0 1.654 1.346 3 3 3zm0-4c.552 0 1 .448 1 1s-.448 1-1 1-1-.448-1-1 .448-1 1-1z"/><path d="m16.498 48.909c5.314-.641 9.686-4.969 10.394-10.29.368-2.761-.203-5.475-1.651-7.85l-.321-.527 3.997-6.395c.054-.087.083-.189.083-.292.001-.408-.497-.689-.849-.47l-6.394 3.996-.527-.321c-1.907-1.162-4.032-1.76-6.224-1.76-.538 0-1.081.036-1.625.108-5.321.708-9.649 5.079-10.29 10.394-.449 3.72.799 7.358 3.424 9.983s6.263 3.875 9.983 3.424zm-10.168-13.935c-.219-.511-.33-1.051-.33-1.605 0-1.184.424-2.207 1.193-2.977l1.393-1.392c1.289-1.289 3.539-1.289 4.828 0l1.763 1.763c.531.53.823 1.236.823 1.986v.133c0 1.071-.595 2.034-1.553 2.513-.276.137-.447.415-.447.723v.133c0 .216.084.419.237.572l.939.939c.154.154.357.238.573.238h.133c.309 0 .586-.171.724-.447.478-.958 1.441-1.553 2.512-1.553h.133c.75 0 1.456.292 1.986.823l1.763 1.763c.645.645 1 1.502 1 2.414s-.355 1.77-1 2.414l-1.393 1.393c-.769.769-1.793 1.193-2.881 1.193-.629 0-1.258-.148-1.821-.43l-1.105-.551c-4.24-2.122-7.604-5.689-9.47-10.045z"/><path d="m17.798 43.781c.781.389 1.777.229 2.396-.389l1.392-1.392c.267-.268.414-.622.414-1s-.147-.732-.414-1l-1.763-1.763c-.153-.153-.356-.237-.572-.237h-.133c-.309 0-.586.171-.724.447-.478.958-1.441 1.553-2.512 1.553h-.133c-.75 0-1.456-.292-1.986-.823l-.939-.939c-.532-.531-.824-1.237-.824-1.987v-.133c0-1.071.595-2.034 1.553-2.513.276-.137.447-.415.447-.723v-.133c0-.216-.084-.419-.237-.572l-1.763-1.763c-.268-.267-.622-.414-1-.414s-.732.147-1 .414l-1.393 1.393c-.391.391-.607.913-.607 1.467 0 .377.057.651.168.912 1.681 3.922 4.709 7.134 8.526 9.043z"/><path d="m27 6v-3h-9c-1.654 0-3 1.346-3 3v3h13.026c-.635-.838-1.026-1.87-1.026-3z"/><path d="m58.479 15c-1.246-1.507-2.891-2.665-4.764-3.341.553.919 1.023 2.046 1.391 3.341z"/><path d="m46.021 21h7.958c-.052-1.447-.217-2.791-.46-4h-7.038c-.244 1.209-.408 2.553-.46 4z"/><path d="m55.978 21h4.971c-.13-1.43-.537-2.779-1.164-4h-4.216c.225 1.237.364 2.581.409 4z"/><path d="m44.431 17h-4.216c-.626 1.221-1.034 2.57-1.164 4h4.971c.045-1.419.184-2.763.409-4z"/><path d="m46.286 32.341c-.553-.919-1.023-2.046-1.391-3.341h-3.373c1.246 1.507 2.89 2.665 4.764 3.341z"/><path d="m40.214 27h4.216c-.225-1.237-.363-2.581-.409-4h-4.971c.13 1.43.538 2.779 1.164 4z"/><path d="m41.521 15h3.373c.368-1.295.837-2.422 1.391-3.341-1.873.676-3.517 1.834-4.764 3.341z"/><path d="m37 22c0-4.633 2.445-8.697 6.104-11h-28.104v12.008c2.356-.003 4.646.579 6.731 1.731l5.36-3.351c.408-.254.876-.388 1.354-.388 1.409 0 2.555 1.146 2.555 2.555 0 .479-.134.946-.388 1.353l-3.352 5.361c1.457 2.638 2.015 5.603 1.613 8.614-.566 4.252-3.138 7.96-6.695 10.117h26.822v-14.051c-6.701-.514-12-6.119-12-12.949zm-10-3h-10v-2h10zm0-4h-10v-2h10zm6 32h-2v-2h2zm14 0h-12v-2h12zm0-4h-16v-2h16zm0-4h-16v-2h16z"/><path d="m46.021 23c.052 1.447.217 2.791.46 4h7.038c.244-1.209.408-2.553.46-4z"/><path d="m53.714 32.341c1.874-.675 3.518-1.834 4.764-3.341h-3.373c-.368 1.295-.837 2.422-1.391 3.341z"/><path d="m55.569 27h4.216c.626-1.221 1.034-2.57 1.164-4h-4.971c-.045 1.419-.184 2.763-.409 4z"/><path d="m50 33c1.075 0 2.22-1.527 3.009-4h-6.019c.79 2.473 1.935 4 3.01 4z"/><path d="m15 58c0 1.654 1.346 3 3 3h28c1.654 0 3-1.346 3-3v-7h-34zm27-3c0-.552.448-1 1-1h2c.552 0 1 .448 1 1v2c0 .552-.448 1-1 1h-2c-.552 0-1-.448-1-1zm-14 0c0-.552.448-1 1-1h6c.552 0 1 .448 1 1v2c0 .552-.448 1-1 1h-6c-.552 0-1-.448-1-1zm-10 0c0-.552.448-1 1-1h2c.552 0 1 .448 1 1v2c0 .552-.448 1-1 1h-2c-.552 0-1-.448-1-1z"/></g></svg>