<svg width="24" height="24" viewBox="0 0 24 24" fill="none" xmlns="http://www.w3.org/2000/svg">
<path d="M16.9369 2.8353L16.9368 2.83519C16.6752 2.37907 16.2518 2.05223 15.7455 1.91668L15.7455 1.91666C15.2416 1.78203 14.7141 1.85286 14.2632 2.11525L14.2632 2.11526L5.34938 7.30475H3.81817C2.7326 7.30475 1.85 8.18731 1.85 9.27292V20.1818C1.85 21.2674 2.73255 22.15 3.81817 22.15H19.2725C20.358 22.15 21.2406 21.2674 21.2406 20.1818V17.4726C21.7732 17.2393 22.1497 16.7114 22.1497 16.091V13.3638C22.1497 12.7434 21.7732 12.2154 21.2406 11.9821V9.27292C21.2406 8.26706 20.4813 7.44574 19.509 7.32794L16.9369 2.8353ZM14.8718 3.16018L14.8721 3.16C15.0429 3.06004 15.2417 3.03351 15.4327 3.08447C15.578 3.12337 15.7052 3.2035 15.8021 3.31573L8.95063 7.30475H7.75245L14.8718 3.16018ZM17.3153 5.93049L18.1021 7.30475H14.9549L17.3153 5.93049ZM16.415 4.3579L16.7146 4.88124L12.5519 7.30475H11.3535L16.415 4.3579ZM20.0315 20.1818C20.0315 20.6001 19.6908 20.9409 19.2725 20.9409H3.81817C3.39988 20.9409 3.0591 20.6001 3.0591 20.1818V9.27292C3.0591 8.85463 3.39988 8.51386 3.81817 8.51386H19.2725C19.6908 8.51386 20.0315 8.85463 20.0315 9.27292V11.8501H17.4543C15.8676 11.8501 14.5771 13.1406 14.5771 14.7274C14.5771 16.3141 15.8676 17.6046 17.4543 17.6046H20.0315V20.1818ZM20.9406 16.091C20.9406 16.2589 20.8041 16.3955 20.6361 16.3955H17.4543C16.5344 16.3955 15.7861 15.6473 15.7861 14.7274C15.7861 13.8075 16.5344 13.0592 17.4543 13.0592H20.6361C20.804 13.0592 20.9406 13.1958 20.9406 13.3638V16.091Z" fill="#F16B24" stroke="#F16B24" stroke-width="0.3"/>
<path d="M16.443 14.7274C16.443 14.171 16.8957 13.7183 17.452 13.7183C18.0084 13.7183 18.4611 14.171 18.4611 14.7274H16.443ZM16.443 14.7274C16.443 15.2837 16.8957 15.7364 17.452 15.7364M16.443 14.7274L17.452 15.7364M17.452 15.7364C18.0084 15.7364 18.4611 15.2837 18.4611 14.7274L17.452 15.7364Z" fill="#F16B24" stroke="#F16B24" stroke-width="0.2"/>
</svg>
