<svg id="Solid" height="512" viewBox="0 0 512 512" width="512" xmlns="http://www.w3.org/2000/svg"><path d="m363.685 258.315-33.941-33.941-67.9 67.9 33.837 34.046z"/><path d="m336 308.627-34.541 34.541-.007-.007a7.988 7.988 0 0 1 -3.287 2.088l-67.881 22.351a8 8 0 0 1 -10.084-10.148l22.765-67.744a7.972 7.972 0 0 1 1.938-3.1l-.011-.01 91.108-91.107v-163.491h-208v88a8 8 0 0 1 -8 8h-88v304h304zm-168-196.627h128a8 8 0 0 1 0 16h-128a8 8 0 0 1 0-16zm-96 48h224a8 8 0 0 1 0 16h-224a8 8 0 0 1 0-16zm0 48h192a8 8 0 0 1 0 16h-192a8 8 0 0 1 0-16zm112 160h-112a8 8 0 0 1 0-16h112a8 8 0 0 1 0 16zm16-48h-128a8 8 0 0 1 0-16h128a8 8 0 0 1 0 16zm-128-48a8 8 0 0 1 0-16h144a8 8 0 0 1 0 16z"/><path d="m384 80h-32v99.491l32-32z"/><path d="m112 43.313-68.687 68.687h68.687z"/><path d="m240.454 347.405 40.404-13.302-26.854-27.02z"/><path d="m341.626 166.433h112v48h-112z" transform="matrix(.707 -.707 .707 .707 -18.195 336.941)"/><path d="m352 440a8 8 0 0 1 -8 8h-264v32h304v-219.373l-32 32z"/><path d="m471.165 116.894a24.027 24.027 0 0 0 -33.941 0l-5.657 5.657 33.941 33.941 5.657-5.657a24 24 0 0 0 0-33.941z"/></svg>