<svg width="34" height="40" viewBox="0 0 34 40" fill="none" xmlns="http://www.w3.org/2000/svg">
<g clip-path="url(#clip0)">
<path d="M9.73659 5.03287H24.8032V22.0053H5.98438V9.91535" stroke="#606161" stroke-width="2" stroke-miterlimit="10" stroke-linecap="round" stroke-linejoin="round"/>
<path d="M1.19238 36.3621C1.19238 37.699 2.28918 38.8034 3.61689 38.8034H27.227C28.5547 38.8034 29.6515 37.699 29.6515 36.3621V3.63787C29.6515 2.301 28.5547 1.19663 27.227 1.19663H9.5627L1.19238 9.62473V36.3621Z" stroke="#606161" stroke-width="2" stroke-miterlimit="10" stroke-linecap="round" stroke-linejoin="round"/>
<path d="M1.19238 9.62473H7.1382C8.4659 9.62473 9.5627 8.52036 9.5627 7.18349V1.19663L1.19238 9.62473Z" fill="#438D90" stroke="#606161" stroke-width="2" stroke-miterlimit="10" stroke-linecap="round" stroke-linejoin="round"/>
<path d="M8.75468 25.5509H31.7875C32.5957 25.5509 33.2307 26.1903 33.2307 27.004V32.8165C33.2307 33.6303 32.5957 34.2696 31.7875 34.2696H8.75468C7.94651 34.2696 7.31152 33.6303 7.31152 32.8165V27.004C7.31152 26.1903 7.94651 25.5509 8.75468 25.5509Z" fill="#438D90"/>
<path d="M17.1827 32.9909L16.4322 31.7121C16.1436 31.189 15.9127 30.8984 15.7395 30.5496C15.5663 30.8984 15.3931 31.189 15.1045 31.7121L14.4118 32.9909H13.5459L15.3354 30.0265L13.6036 27.1203H14.4695L15.22 28.5153C15.4509 28.9222 15.624 29.2128 15.7395 29.5034C15.9127 29.1547 16.0281 28.864 16.259 28.5153L17.0672 27.1203H17.9331L16.2013 29.9684L17.9908 32.9909H17.1827Z" fill="white"/>
<path d="M18.9141 27.1203H19.6645V32.3515H22.1467V32.9909H18.9141V27.1203Z" fill="white"/>
<path d="M22.8978 32.0609C23.2441 32.2934 23.706 32.4678 24.2255 32.4678C24.9759 32.4678 25.4377 32.0609 25.4377 31.4796C25.4377 30.9565 25.1491 30.6078 24.3409 30.3172C23.4173 29.9684 22.7823 29.5034 22.7823 28.6315C22.7823 27.7015 23.5328 27.0622 24.6873 27.0622C25.2646 27.0622 25.7264 27.1784 25.9573 27.3528L25.7841 27.934C25.6109 27.8178 25.2068 27.6434 24.6873 27.6434C23.8791 27.6434 23.5905 28.1084 23.5905 28.5153C23.5905 29.0384 23.9369 29.329 24.745 29.6197C25.7264 30.0265 26.2459 30.4915 26.2459 31.3634C26.2459 32.2934 25.5532 33.049 24.2255 33.049C23.6482 33.049 23.071 32.8746 22.7246 32.7003L22.8978 32.0609Z" fill="white"/>
<path d="M9.5625 22.0053V5.03287" stroke="#606161" stroke-width="2" stroke-miterlimit="10" stroke-linecap="round" stroke-linejoin="round"/>
<path d="M5.98438 9.62473H24.8032" stroke="#606161" stroke-width="2" stroke-miterlimit="10" stroke-linecap="round" stroke-linejoin="round"/>
<path d="M5.98438 15.9022H24.8032" stroke="#606161" stroke-width="2" stroke-miterlimit="10" stroke-linecap="round" stroke-linejoin="round"/>
</g>
<defs>
<clipPath id="clip0">
<rect width="33.2308" height="40" fill="white"/>
</clipPath>
</defs>
</svg>
