<svg width="35" height="35" viewBox="0 0 35 35" fill="none" xmlns="http://www.w3.org/2000/svg">
<circle cx="17.5" cy="17.5" r="17.5" fill="#F40000"/>
<path d="M25.124 16.549C25.124 16.2096 25.0674 15.8136 25.0674 15.3611C25.0109 14.9086 24.9543 14.4561 24.8977 14.0601C24.7846 13.6076 24.6149 13.2682 24.2755 12.9854C23.9927 12.7025 23.5967 12.5328 23.2008 12.4763C21.8997 12.3066 19.9765 12.25 17.3745 12.25C14.7725 12.25 12.7927 12.3066 11.5482 12.4763C11.1523 12.5328 10.7563 12.7025 10.4735 12.9854C10.1907 13.2682 9.96439 13.6076 9.85126 14.0601C9.73813 14.4561 9.68157 14.852 9.68157 15.3611C9.625 15.8136 9.625 16.2096 9.625 16.549C9.625 16.8884 9.625 17.2843 9.625 17.85C9.625 18.4157 9.625 18.8682 9.625 19.151C9.625 19.4904 9.68157 19.8864 9.68157 20.3389C9.73813 20.7914 9.79469 21.2439 9.85126 21.6399C9.96439 22.0924 10.1341 22.4318 10.4735 22.7146C10.7563 22.9975 11.1523 23.1672 11.5482 23.2237C12.8492 23.3934 14.7725 23.45 17.3745 23.45C19.9765 23.45 21.9563 23.3934 23.2008 23.2237C23.5967 23.1672 23.9927 22.9975 24.2755 22.7146C24.5583 22.4318 24.7846 22.0924 24.8977 21.6399C25.0109 21.2439 25.0674 20.848 25.0674 20.3389C25.124 19.8864 25.124 19.4904 25.124 19.151C25.124 18.8116 25.124 18.4157 25.124 17.85C25.124 17.2843 25.124 16.8318 25.124 16.549ZM20.3725 18.3025L15.9038 21.0742C15.8472 21.1308 15.7341 21.1874 15.621 21.1874C15.5078 21.1874 15.4513 21.1874 15.3381 21.1308C15.1684 21.0177 15.0553 20.848 15.0553 20.6217V15.0217C15.0553 14.7955 15.1684 14.6258 15.3381 14.5126C15.5078 14.3995 15.7341 14.3995 15.9038 14.5126L20.3725 17.2843C20.5422 17.3975 20.6553 17.5672 20.6553 17.7369C20.6553 17.9066 20.5422 18.1894 20.3725 18.3025Z" fill="white"/>
</svg>
