<svg fill="#438D90" id="Capa_1" enable-background="new 0 0 512 512" height="512" viewBox="0 0 512 512" width="512" xmlns="http://www.w3.org/2000/svg"><g><g><g><path d="m357.66 90h-23.35v35c0 24.81-20.19 45-45 45h-193.62c-24.81 0-45-20.19-45-45v-35h-23.35c-8.28 0-15 6.72-15 15v392c0 8.28 6.72 15 15 15h330.32c8.28 0 15-6.72 15-15v-392c0-8.28-6.72-15-15-15zm-225.72 336.8-29.61 29.61c-5.846 5.846-15.348 5.862-21.21 0l-14.39-14.38c-5.85-5.86-5.85-15.36 0-21.22 5.86-5.85 15.36-5.85 21.22 0l3.77 3.78 19-19c5.86-5.86 15.36-5.86 21.22 0s5.86 15.35 0 21.21zm0-90-29.61 29.61c-5.846 5.846-15.348 5.862-21.21 0l-14.39-14.38c-5.85-5.86-5.85-15.36 0-21.22 5.86-5.85 15.36-5.85 21.22 0l3.77 3.78 19-19c5.86-5.86 15.36-5.86 21.22 0s5.86 15.35 0 21.21zm0-90-29.61 29.61c-5.846 5.846-15.348 5.862-21.21 0l-14.39-14.38c-5.85-5.86-5.85-15.36 0-21.22 5.86-5.85 15.36-5.85 21.22 0l3.77 3.78 19-19c5.86-5.86 15.36-5.86 21.22 0s5.86 15.35 0 21.21zm175.72 199.2h-126.33c-8.28 0-15-6.71-15-15 0-8.28 6.72-15 15-15h126.33c8.28 0 15 6.72 15 15 0 8.29-6.72 15-15 15zm0-90h-126.33c-8.28 0-15-6.71-15-15 0-8.28 6.72-15 15-15h126.33c8.28 0 15 6.72 15 15 0 8.29-6.72 15-15 15zm0-90h-126.33c-8.28 0-15-6.71-15-15 0-8.28 6.72-15 15-15h126.33c8.28 0 15 6.72 15 15 0 8.29-6.72 15-15 15z"/></g></g><g><path d="m289.31 60h-23.31c-7.07-34.84-37.79-60-73.5-60s-66.43 25.16-73.5 60h-23.31c-8.28 0-15 6.72-15 15v50c0 8.28 6.72 15 15 15h193.62c8.28 0 15-6.72 15-15v-50c0-8.28-6.72-15-15-15zm-96.81 30c-8.28 0-15-6.72-15-15s6.72-15 15-15 15 6.72 15 15-6.72 15-15 15z"/></g><path d="m415.96 434.51h83.4c-.63 5.62-2.24 11.13-4.77 16.18l-23.51 53.02c-5.514 11.027-21.32 11.041-26.84 0l-23.51-53.02c-2.53-5.05-4.14-10.56-4.77-16.18z"/><path d="m499.66 105v45h-84v-45c0-8.28 6.72-15 15-15h54c8.28 0 15 6.72 15 15z"/><path d="m415.66 180h84v224.51h-84z"/></g></svg>