<svg width="40" height="40" viewBox="0 0 40 40" fill="none" xmlns="http://www.w3.org/2000/svg">
<g clip-path="url(#clip0)">
<path d="M24.0279 20.2126C23.8817 20.0761 23.6689 20.0078 23.3896 20.0078H22.4464V21.7798H23.3896C23.6689 21.7798 23.8817 21.7116 24.0279 21.575C24.1739 21.4385 24.2471 21.2116 24.2471 20.8938C24.2471 20.5763 24.1739 20.3492 24.0279 20.2126Z" fill="#438D90"/>
<path d="M0 8.80743V31.1926C0 32.9269 1.41086 34.3377 3.14516 34.3377H7.87297V5.66235H3.14516C1.41086 5.66235 0 7.07321 0 8.80743Z" fill="#438D90"/>
<path d="M36.8549 5.66211H10.2181V10.3459H40V8.80726C40 7.07297 38.5892 5.66211 36.8549 5.66211Z" fill="#438D90"/>
<path d="M10.2181 12.6912V34.3378H36.8549C38.5892 34.3378 40 32.9269 40 31.1926V12.6912H10.2181ZM17.8832 24.438C18.0609 24.438 18.2086 24.4094 18.3262 24.3522C18.4436 24.2951 18.5277 24.2078 18.5786 24.0901C18.6293 23.9727 18.6627 23.8758 18.6787 23.7996C18.6945 23.7233 18.7088 23.6187 18.7215 23.4852C18.7468 23.1869 18.9914 23.0375 19.455 23.0375C19.7281 23.0375 19.9218 23.0867 20.0362 23.1851C20.1505 23.2837 20.2076 23.4695 20.2076 23.7425C20.2076 24.3586 19.9837 24.8445 19.536 25.2001C19.0882 25.5559 18.5149 25.7336 17.8164 25.7336C17.1367 25.7336 16.5858 25.5526 16.1635 25.1905C15.7411 24.8285 15.5299 24.2602 15.5299 23.4853V20.9608C15.5299 20.1859 15.7411 19.6174 16.1635 19.2555C16.5858 18.8935 17.1367 18.7126 17.8164 18.7126C18.515 18.7126 19.0882 18.8809 19.536 19.2175C19.9837 19.5542 20.2076 20.0177 20.2076 20.6084C20.2076 20.8816 20.1505 21.0673 20.0362 21.1657C19.9218 21.2643 19.7313 21.3134 19.4645 21.3134C18.9882 21.3134 18.7405 21.1643 18.7215 20.8656C18.7024 20.294 18.4198 20.0082 17.8736 20.0082C17.302 20.0082 17.0162 20.3258 17.0162 20.9609V23.4855C17.0162 24.1204 17.3051 24.438 17.8832 24.438ZM25.4902 25.4859C25.2902 25.6511 25.079 25.7336 24.8567 25.7336C24.6343 25.7336 24.4756 25.6416 24.3804 25.4573L23.0753 22.9232H22.4465V25.2192C22.4465 25.3654 22.3735 25.4781 22.2274 25.5573C22.0812 25.6369 21.9066 25.6764 21.7034 25.6764C21.5 25.6764 21.3254 25.6368 21.1794 25.5573C21.0332 25.478 20.9602 25.3654 20.9602 25.2192V19.1601C20.9602 19.0396 21.0031 18.9348 21.0889 18.8458C21.1747 18.7569 21.2842 18.7125 21.4176 18.7125H23.3896C24.952 18.7125 25.7332 19.3921 25.7332 20.7512C25.7332 21.7419 25.3488 22.3867 24.5805 22.6851L25.7427 24.7905C25.7744 24.835 25.7903 24.8923 25.7903 24.9619C25.7903 25.1462 25.6902 25.3208 25.4902 25.4859ZM32.0588 25.5573C31.9127 25.6369 31.7381 25.6764 31.5349 25.6764C31.3316 25.6764 31.1569 25.6368 31.0109 25.5573C30.8647 25.478 30.7917 25.3654 30.7917 25.2192V21.6466L29.8771 23.209C29.7691 23.3932 29.604 23.4852 29.3817 23.4852C29.1657 23.4852 29.0102 23.3932 28.9149 23.209L28.0099 21.5513V25.2192C28.0099 25.3654 27.9367 25.4781 27.7907 25.5573C27.6445 25.6369 27.4699 25.6764 27.2667 25.6764C27.0634 25.6764 26.8888 25.6368 26.7427 25.5573C26.5966 25.478 26.5236 25.3654 26.5236 25.2192V19.4555C26.5236 19.2016 26.595 19.0142 26.738 18.8935C26.8809 18.7729 27.0571 18.7126 27.2667 18.7126C27.5525 18.7126 27.77 18.7554 27.9193 18.8412C28.0685 18.9269 28.2352 19.1318 28.4195 19.4556L29.4007 21.1704L30.382 19.4556C30.566 19.1317 30.7328 18.9268 30.8821 18.8412C31.0313 18.7554 31.2489 18.7126 31.5347 18.7126C31.7443 18.7126 31.9206 18.7729 32.0635 18.8935C32.2063 19.0142 32.2778 19.2016 32.2778 19.4555V25.2192H32.2779C32.278 25.3653 32.2049 25.478 32.0588 25.5573Z" fill="#438D90"/>
</g>
<defs>
<clipPath id="clip0">
<rect width="40" height="40" fill="white"/>
</clipPath>
</defs>
</svg>
