<svg fill="#438D90" height="480pt" viewBox="-8 0 480 480" width="480pt" xmlns="http://www.w3.org/2000/svg"><path d="m256 216h208v48h-208zm0 0"/><path d="m256 136h152v48h-152zm0 0"/><path d="m256 56h88v48h-88zm0 0"/><path d="m256 296h136v48h-136zm0 0"/><path d="m256 376h72v48h-72zm0 0"/><path d="m208 264h-208v-48h208zm0 0"/><path d="m208 184h-152v-48h152zm0 0"/><path d="m208 104h-88v-48h88zm0 0"/><path d="m208 344h-136v-48h136zm0 0"/><path d="m208 424h-72v-48h72zm0 0"/><path d="m224 0h16v480h-16zm0 0"/></svg>