<svg fill="#438D90" id="Layer_3" enable-background="new 0 0 64 64" height="512" viewBox="0 0 64 64" width="512" xmlns="http://www.w3.org/2000/svg"><circle cx="32" cy="9" r="7"/><path d="m43 34v-7c0-6.075-4.925-11-11-11s-11 4.925-11 11v7c0 2.209 1.791 4 4 4h1v21c0 1.657 1.343 3 3 3s3-1.343 3-3c0 1.657 1.343 3 3 3s3-1.343 3-3v-21h1c2.209 0 4-1.791 4-4z"/><path d="m6 51c-1.654 0-3 1.346-3 3v4c0 1.654 1.346 3 3 3h9c1.654 0 3-1.346 3-3v-5.586l6-6v-2.828l-7.414 7.414zm-1 2h2v2h-2zm11 6h-11v-2h11zm0-4h-7v-2h7z"/><path d="m41.862 18.553 5.552-5.553h10.586c1.654 0 3-1.346 3-3v-4c0-1.654-1.346-3-3-3h-9c-1.654 0-3 1.346-3 3v5.586l-5.553 5.553c.507.434.98.907 1.415 1.414zm17.138-7.553h-2v-2h2zm-11-6h11v2h-11zm0 4h7v2h-7z"/><path d="m61 55v-17h-2v17h-2v-15h-2v15h-2v-9h-2v9h-2v-12h-2v12h-2v-10h-2v10h-2v2h22v-2z"/><path d="m61 59h2v2h-2z"/><path d="m41 59h18v2h-18z"/><path d="m12 21c2.579 0 4.902-1.097 6.545-2.841l-3.244-2.433c-.883.783-2.031 1.274-3.301 1.274-2.757 0-5-2.243-5-5 0-2.414 1.721-4.434 4-4.899v-4.042c-4.493.5-8 4.317-8 8.941 0 4.962 4.038 9 9 9z"/><path d="m17 12c0 .764-.186 1.481-.494 2.129l3.24 2.43c.791-1.339 1.254-2.894 1.254-4.559 0-4.624-3.507-8.441-8-8.941v4.042c2.279.465 4 2.485 4 4.899z"/><circle cx="12" cy="12" r="3"/></svg>