<svg fill="#438D90" id="Layer_35" enable-background="new 0 0 64 64" height="512" viewBox="0 0 64 64" width="512" xmlns="http://www.w3.org/2000/svg"><path d="m3 43h6.556c-.344-.591-.556-1.268-.556-2v-6c0-4.125 2.511-7.674 6.085-9.2-1.86-1.26-3.085-3.39-3.085-5.8 0-3.859 3.14-7 7-7s7 3.141 7 7c0 2.41-1.225 4.54-3.085 5.8 3.078 1.315 5.357 4.133 5.933 7.525l3.875-2.325h2.277v-16h6v16h2v-10h6v10h2v-18h6v18h2v2h-25.723l-4.277 2.566v5.434c0 .732-.212 1.409-.556 2h32.556v-32h-58zm52-2h-10v-2h10zm0-4h-10v-2h10zm4 4h-2v-2h2zm0-4h-2v-2h2zm-54-6h2v2h-2zm0 4h2v2h-2zm0 4h2v2h-2z"/><path d="m45 23h2v8h-2z"/><path d="m19 27c-4.411 0-8 3.589-8 8v6c0 1.103.897 2 2 2v-9h2v25.5c0 .827.673 1.5 1.5 1.5s1.5-.673 1.5-1.5v-18.5h2v18.5c0 .827.673 1.5 1.5 1.5s1.5-.673 1.5-1.5v-25.5h2v9c1.103 0 2-.897 2-2v-6c0-4.411-3.589-8-8-8z"/><circle cx="19" cy="20" r="5"/><path d="m37 17h2v14h-2z"/><path d="m53 15h2v16h-2z"/><path d="m3 3v6h58v-6zm4 4h-2v-2h2zm4 0h-2v-2h2zm4 0h-2v-2h2z"/><path d="m36 48.586-2 2v-2.586h-2v10h2v-2.586l2 2v.586h2v-1.414l-3.586-3.586 3.586-3.586v-1.414h-2z"/><path d="m43.5 48h-3.5v10h2v-3h1.5c1.93 0 3.5-1.57 3.5-3.5s-1.57-3.5-3.5-3.5zm0 5h-1.5v-3h1.5c.827 0 1.5.673 1.5 1.5s-.673 1.5-1.5 1.5z"/><path d="m48 50h2v6h-2v2h6v-2h-2v-6h2v-2h-6z"/></svg>