<svg version="1.0" xmlns="http://www.w3.org/2000/svg" width="25.563" height="27"><path fill-rule="evenodd" clip-rule="evenodd" fill="#39BDD7" d="M10.515 22.287l-1.185-.19v-4.24l1.185-.19.891-.142c.051-.128.106-.255.165-.381l-.313-.416-.17-.225-.209-.278c-.25.076-.505.133-.763.171a1.64 1.64 0 01-2.62.434c-2.658-.7-2.914-.7-3.609-1.069-2.751 1.366-3.3 3.708-3.785 5.143a1.3 1.3 0 001.232 1.708c4.5 0 7.771.025 10.172.044-.034-.077-.07-.154-.1-.231l-.891-.138zm3.378-12.132V7.366c-1.11-6.262-7.889-6.1-8.967 0 0 1.863-.313 4.373 1.835 6.374l1.428.376a1.616 1.616 0 011.84.675c1.902-.338 3.432-2.204 3.864-4.641v.005zm2.372 1.4a.83.83 0 00.2-.365 2 2 0 100-4 .786.786 0 00-.373-.492c.5-4.933-5.913-8.713-10.557-5.517a6.721 6.721 0 00-2.254 2.656 6.7 6.7 0 00-.437 1.308 5.66 5.66 0 00-.122 1.552.785.785 0 00-.374.494 2 2 0 100 4 .776.776 0 00.4.511v.554c0 2.739 2.62 2.986 5.1 3.639a.832.832 0 10.183-.778c-2.4-.632-4.484-.763-4.484-2.861v-.605a.781.781 0 00.364-.65c0-3.522.17-3.852-.305-4.235a6.174 6.174 0 011.712-3.3 5.758 5.758 0 018.143-.023l.023.023a6.195 6.195 0 011.712 3.3.785.785 0 00-.305.612v3.623a.8.8 0 00.8.8.792.792 0 00.227-.036l.036-.207h.3l.011-.003zm7.479 6.932a5.224 5.224 0 00-.523-1.194l-.159-.268 1.026-1.363-1.4-1.323-1.436.975-.251-.127a6.194 6.194 0 00-1.276-.5l-.287-.078-.289-1.65h-2l-.289 1.65-.287.078a6.225 6.225 0 00-1.277.5l-.251.134-1.436-.976-1.4 1.323.169.225.857 1.138-.159.268a5.224 5.224 0 00-.523 1.194l-.084.283-1.738.278v1.849l1.739.279.083.284c.123.418.299.819.523 1.193l.146.246.013.022-1.026 1.362 1.4 1.324 1.436-.976.252.134c.406.213.833.381 1.276.5l.287.079.289 1.655h2l.289-1.655.287-.079c.443-.119.87-.287 1.276-.5l.252-.134 1.436.976 1.4-1.324-1.026-1.362.159-.268c.224-.374.4-.775.523-1.193l.083-.284 1.739-.279v-1.849l-1.738-.278-.085-.289zm-5.589 5.179a3.953 3.953 0 01-2.338-.759 3.631 3.631 0 01-1.524-2.932 3.68 3.68 0 012.027-3.251 3.958 3.958 0 011.835-.445 3.7 3.7 0 11-.002 7.389l.002-.002z"/></svg>