<svg version="1.0" xmlns="http://www.w3.org/2000/svg" width="65.125" height="65.03"><path fill-rule="evenodd" clip-rule="evenodd" fill="#41BFD8" d="M14.099 33.64h3.251v2.17h-3.251v-2.17zm7.586 5.41h3.251v2.17h-3.255v-2.17h.004zm-7.586 0h5.418v2.17h-5.418v-2.17zm-8.67 0h6.5v2.17h-6.5v-2.17zm6.5 5.42h13v2.16h-13v-2.16zm-6.5 0h4.335v2.16H5.429v-2.16zm13 5.41h6.5v2.16h-6.5v-2.16zm-13 0h10.837v2.16H5.429v-2.16zm6.5 5.411h6.5v2.17h-6.5v-2.17zm-6.5 0h4.335v2.17H5.429v-2.17zm57.436-24.9a1.086 1.086 0 00-1.083-1.08h-6.5a1.086 1.086 0 00-1.083 1.08v5.42h-5.418a1.079 1.079 0 00-1.083 1.075v5.415h-5.419a1.087 1.087 0 00-1.084 1.08v5.42h-5.418a1.08 1.08 0 00-1.084 1.076v6.494h-7.772a3.25 3.25 0 10.001 2.169h1.27v3.25a1.087 1.087 0 01-1.084 1.08H3.262a1.087 1.087 0 01-1.084-1.08v-24.9h5.419a3.256 3.256 0 003.251-3.25v-5.41h16.255a1.082 1.082 0 011.084 1.078v1.082h2.167v-1.08a3.262 3.262 0 00-3.251-3.25H10.662a3.247 3.247 0 00-2.3.95l-7.4 7.4A3.202 3.202 0 00.01 36.7v25.09a3.247 3.247 0 003.251 3.24h23.841a3.247 3.247 0 003.251-3.24v-3.25h34.679v-2.17h-2.168V30.39l.001.001zm-54.185-.63v3.88a1.078 1.078 0 01-1.078 1.08H3.711l4.969-4.96zm15.172 28.78a1.086 1.086 0 111.084-1.086v.006a1.088 1.088 0 01-1.084 1.08zm13-7.581h4.334v5.41h-4.334v-5.41zm6.5-6.49h4.335v11.9h-4.335v-11.9zm6.5-6.5h4.335v18.4h-4.326v-18.4h-.009zm6.5 18.4V31.48h4.335v24.89h-4.335zm-53.1-29.22a3.248 3.248 0 002.933-4.65l3.252-3.25a3.252 3.252 0 004.34-1.521l.004-.008c.051-.104.095-.21.132-.32h4.708a3.252 3.252 0 006.271-.54l6.12-5.24a3.25 3.25 0 10-1.475-1.59l-5.184 4.44a3.245 3.245 0 00-5.732.77h-4.708a3.251 3.251 0 00-6.13 2.16c.038.109.082.216.132.32l-3.251 3.25a3.249 3.249 0 10-1.402 6.18h-.01zm29.26-19.49a1.086 1.086 0 11-1.084 1.086V8.74a1.08 1.08 0 011.078-1.08h.016-.01zm-10.837 7.58a1.08 1.08 0 11-.006 0h.012-.006zm-10.837 0a1.08 1.08 0 11-.006 0h.016-.01zm-7.586 7.58a1.08 1.08 0 11-.006 0h.016-.01zm39.225 2.58l-7.163 7.16h-9.491a3.245 3.245 0 100 2.16h2.354v19.49h2.167V34.72h5.419c.286.001.561-.11.766-.31l7.822-7.82c6.882 3.644 15.415 1.019 19.059-5.864 3.644-6.882 1.019-15.415-5.864-19.059C50.664-1.977 42.131.648 38.487 7.531a14.1 14.1 0 003.99 17.869zm-19.719 9.32a1.08 1.08 0 11.01.001l-.01-.001zm36.869-12.43l-6.279-7.05h9.458a11.842 11.842 0 01-3.169 7.05h-.01zm3.179-9.221H52.028V2.299A11.937 11.937 0 0162.816 13.07l-.01-.001zM49.851 2.299v11.86c0 .263.098.516.275.71l7.883 8.86c-5.283 3.919-12.742 2.813-16.661-2.469-3.919-5.283-2.814-12.742 2.469-16.661a11.907 11.907 0 016.044-2.298l-.01-.002z"/></svg>