<svg version="1.0" xmlns="http://www.w3.org/2000/svg" width="64.75" height="65.03"><path fill-rule="evenodd" clip-rule="evenodd" fill="#41BFD8" d="M44.042 43.02c.788.77 1.529 1.52 2.308 2.23a.667.667 0 00.628.05 6.418 6.418 0 017.859 1.2c3.109 3.18 6.342 6.24 9.521 9.36a1.026 1.026 0 01.082 1.57 732.526 732.526 0 01-7.074 7.23 1.075 1.075 0 01-1.69-.14c-2.02-1.97-4.031-3.95-6.046-5.92-1.18-1.16-2.363-2.31-3.538-3.47a6.076 6.076 0 01-1.12-7.72c.025-.042.047-.085.067-.13-.882-.93-1.733-1.82-2.6-2.73a25.105 25.105 0 01-20.262 6.19 24.685 24.685 0 01-16.488-9.25C-3.147 30.53-1.425 14.482 9.535 5.646s27.008-7.114 35.844 3.846c8.01 9.935 7.438 24.262-1.337 33.528zM2.413 25.43c-.07 12.893 10.325 23.401 23.218 23.471 12.893.07 23.401-10.325 23.471-23.218.07-12.893-10.325-23.402-23.218-23.471a21.51 21.51 0 00-.762.008C12.506 2.508 2.426 12.811 2.413 25.43zm59.591 31.24c-3.16-3.08-6.256-6.15-9.411-9.15a3.506 3.506 0 00-3.42-.75 3.906 3.906 0 00-1.69 6.66c2.879 2.86 5.791 5.69 8.689 8.53.111.1.233.2.4.35 1.814-1.89 3.604-3.75 5.432-5.64zM41.289 35.88a19.371 19.371 0 003.162-10.96h2.1c.667 10.79-8.4 21.45-20.334 21.67v-2.14c2.314-.091 4.592-.6 6.726-1.5a17.972 17.972 0 005.74-3.82c.238-.256.374-.59.383-.94-.019-1.9-.077-3.81-.154-5.71a3.122 3.122 0 00-2.895-3.19c-1.111-.16-2.233-.23-3.345-.39a.623.623 0 00-.753.458l-.005.022c-1.407 3.2-2.837 6.4-4.246 9.61a1.442 1.442 0 01-1.279 1.07 1.461 1.461 0 01-1.365-.96c-1.722-3.05-3.464-6.1-5.2-9.14-.136-.24-.279-.47-.442-.75-1.4.25-2.806.44-4.183.76a3.107 3.107 0 00-2.34 3.3c.056 1.88.118 3.76.176 5.64.006.2 0 .4 0 .67h-2.16c-.017-.34-.045-.72-.053-1.1-.043-1.81-.107-3.63-.113-5.44a5.327 5.327 0 014.574-5.36c1.4-.23 2.8-.47 4.2-.71a1.014 1.014 0 00.64-1.68 19.045 19.045 0 01-1.388-2.36 1.261 1.261 0 00-.774-.75 3.216 3.216 0 01-1.768-4.71 2.41 2.41 0 00.251-1.2 39.39 39.39 0 01-.168-4.93 8.519 8.519 0 019.286-7.38 25.05 25.05 0 013.254.78c.192.062.392.096.594.1a3.748 3.748 0 014.128 2.5c.467 1.31.744 2.681.821 4.07a43.491 43.491 0 01-.217 4.39c-.01.326.081.647.259.92a3.262 3.262 0 01-1.381 5.03 1.192 1.192 0 00-.7.74c-.355.814-.772 1.6-1.247 2.35a1.102 1.102 0 00.748 1.75c1.5.19 3 .34 4.5.53a5.323 5.323 0 014.677 5.13c.035 1.2.006 2.41.006 3.61.096.01.191.01.285.02zM20.34 16.09a.617.617 0 00-.09.17c-.079 1.01-.325 1.82-1.59 1.9a.886.886 0 00-.7 1.11.95.95 0 00.987.86c1.188.08 1.29.17 1.582 1.29.824 3.18 3.494 4.84 6.359 3.9a5.446 5.446 0 003.651-4.36 1.2 1.2 0 011.163-1.12.992.992 0 001.06-.917c.002-.031.003-.062.002-.093a.98.98 0 00-1.049-1.02 1.127 1.127 0 01-1.142-.8c-.078-.24-.122-.48-.177-.7-1.607-.27-1.992-.52-3.109-2.03a13.42 13.42 0 01-6.947 1.81zm11.792-2.01c0-1.21.078-2.45-.028-3.67a8.418 8.418 0 00-.642-2.43 1.401 1.401 0 00-1.583-.94 2.708 2.708 0 01-1.915-.23 6.86 6.86 0 00-7.094.7 6.158 6.158 0 00-2.307 6.45c.707-.06 1.373-.15 2.038-.15a11.074 11.074 0 005.748-1.6c1.71-1.03 2.06-.94 2.967.87.228.594.826.963 1.46.9.453.008.906.042 1.356.1zM26.1 31.3c-.542.7-1.045 1.34-1.53 2a.43.43 0 00-.052.37c.532.97 1.084 1.93 1.68 2.98.5-1.13.948-2.13 1.368-3.14a.633.633 0 00-.044-.54c-.433-.56-.909-1.08-1.422-1.67zm-4.43-3.06c-.063.05-.126.09-.188.14.561.99 1.122 1.97 1.725 3.04.393-.5.721-.92 1.032-1.32-.9-.65-1.734-1.25-2.569-1.86zm8.252-.05a1.204 1.204 0 01-.145-.1l-1.985 1.81c.283.32.578.65.922 1.04l1.211-2.75h-.003zm-4.971-.43c.975.72 1.1.85 2-.19-.654.06-1.307.12-2 .19z"/></svg>