<svg version="1.0" xmlns="http://www.w3.org/2000/svg" width="64.968" height="65"><path fill-rule="evenodd" clip-rule="evenodd" fill="#41BFD8" d="M6.445 62.81v-2.15c-1.087 0-2.14.02-3.192-.01a3.242 3.242 0 01-3.255-3.22c-.018-2.9-.018-5.81-.007-8.71a3.243 3.243 0 013.2-3.24c.345-.01.691 0 1.094 0 .012-.2.031-.37.031-.55 0-1.53.024-3.07 0-4.6-.042-2.34.057-2.46 2.4-2.44 3.993.04 7.987.01 11.98.01h.72c-1.313-3.17-.977-6.44-1.023-9.75H10.01a1.16 1.16 0 01-1.369-1.379V17.321c-1.423 0-2.789.03-4.153-.01a6.094 6.094 0 01-1.646-.27 4.233 4.233 0 01-2.853-3.95c-.006-.33 0-.66 0-.99a1.13 1.13 0 011.312-1.29c1.832-.01 3.664-.01 5.5-.01h10.45a.757.757 0 00-.212-.9c-2.5-2.49-4.993-4.99-7.5-7.48a.95.95 0 00-.6-.25 94.88 94.88 0 00-3.416-.01 1.072 1.072 0 00-1.187 1.2c-.009 1.28 0 2.55 0 3.82.005.146.002.293-.008.44a1.08 1.08 0 01-1.126 1.02 1.042 1.042 0 01-1.032-1.05c-.015-1.55-.044-3.11.006-4.66a3.168 3.168 0 013.015-2.94c3.746-.03 7.492-.03 11.238 0a3.21 3.21 0 013.062 3.22c.019 2.32.007 4.65.008 6.98v.62c.331 0 .637-.01.943 0a1.117 1.117 0 011.221 1.19 5.502 5.502 0 01-.546 3.07 4.182 4.182 0 01-3.719 2.24c-1.98.04-3.96.01-5.941.02h-.587v8.6h7.531v-2.82c0-1.12.319-1.45 1.426-1.47a19.856 19.856 0 0012.679-4.85c.914-.77 1.208-.78 2.136 0a20.185 20.185 0 005.01 3.14c.1.04.21.07.41.15v-.62-10.45a1.2 1.2 0 011.453-1.451h10.46c0-.97-.01-1.88 0-2.8a5.766 5.766 0 01.106-1.23 3.169 3.169 0 013.128-2.46c1.453-.01 2.906-.01 4.357 0a3.2 3.2 0 013.229 3.171v.019c.015 2.94.015 5.88 0 8.82a3.213 3.213 0 01-3.122 3.15c-1.501.02-3.001.02-4.5 0a3.238 3.238 0 01-3.2-3.23c-.01-1.07 0-2.14 0-3.24H42.28c-.013.19-.037.36-.038.53 0 3.35 0 6.7-.016 10.06a.56.56 0 00.511.67c1.588.384 3.212.595 4.845.63.46-.026.885.244 1.058.67a.912.912 0 01-.215 1.13 1.608 1.608 0 01-.928.36 21.436 21.436 0 01-10.977-3.02 29.963 29.963 0 01-2.568-1.76.508.508 0 00-.757.01 21.344 21.344 0 01-8.558 4.16 35.376 35.376 0 01-3.562.55.467.467 0 00-.5.58c.018 2.61.013 5.21.013 7.82a13.93 13.93 0 004.546 10.55c2.68 2.52 5.4 5 8.1 7.49.1.09.2.17.34.28.128-.11.259-.2.375-.31 2.678-2.47 5.369-4.93 8.028-7.43a13.998 13.998 0 004.576-10.58c0-1.68 0-3.37.008-5.05a1.083 1.083 0 012.145-.25c.027.179.035.359.026.54l-.026 5.9c0 .06.011.13.025.28h9.48a1.144 1.144 0 011.348 1.35v12.67c.352.06.7.14 1.043.24a3.213 3.213 0 012.2 3.09c.006 2.31 0 4.62 0 6.93v.63c.357 0 .678-.01 1 0a1.117 1.117 0 011.174 1.19 5.155 5.155 0 01-.829 3.53 4.225 4.225 0 01-3.473 1.79c-4.34.01-8.68.01-13.02 0a4.326 4.326 0 01-4.35-4.302v-.038c0-.35-.012-.7 0-1.04a1.094 1.094 0 011.057-1.13h.07c.214-.01.429 0 .643 0h15.482a.79.79 0 00-.214-.92c-2.481-2.46-4.948-4.94-7.437-7.4a1.21 1.21 0 00-.766-.32c-1.088-.03-2.177-.02-3.266-.01a1.107 1.107 0 00-1.232 1.22c-.007 1.38.007 2.77-.006 4.16a1.083 1.083 0 01-2.12.34 1.725 1.725 0 01-.053-.48v-4.02a3.251 3.251 0 013.387-3.399c2.64-.01 5.281 0 7.921 0h.574V35.77h-8.978a17.134 17.134 0 01-1.861 4.77 19.083 19.083 0 01-3.818 4.52c-2.727 2.49-5.435 5.01-8.149 7.52a1.176 1.176 0 01-1.928.01c-2.922-2.7-5.845-5.396-8.768-8.09a17.366 17.366 0 01-3.287-4.07.745.745 0 00-.513-.34c-4.439-.01-8.878-.013-13.317-.01a1.093 1.093 0 00-.187.04v5.35h.549c3.713.01 7.426.013 11.138.01a3.258 3.258 0 013.43 3.411c.007 2.78.007 5.554 0 8.32a3.244 3.244 0 01-3.448 3.44c-1 .01-2 .01-3.028.01v2.15h1.926a1.128 1.128 0 011.3 1.11 1.11 1.11 0 01-1.28 1.07H4.496a1.094 1.094 0 01-1.254-1.089 1.113 1.113 0 011.262-1.09h1.941zm4.348-4.33v-.01c2.441 0 4.883.01 7.324 0 .279.008.555-.047.81-.16.472-.22.5-.5.127-.87-3.169-3.17-6.342-6.339-9.519-9.51a1.005 1.005 0 00-.638-.26c-1.815-.02-3.63-.02-5.444-.01a1.129 1.129 0 00-1.289 1.31v8.12a1.163 1.163 0 001.4 1.39h7.229zm49.83-49.84V4.53a1.11 1.11 0 00-1.259-1.29h-3.959a1.1 1.1 0 00-1.253 1.24v8.32a1.112 1.112 0 001.286 1.26h3.909a1.112 1.112 0 001.282-1.27c-.001-1.38-.006-2.77-.006-4.15zM45.509 60.68a2.116 2.116 0 002.102 2.131l.098-.001c3.76.01 7.52 0 11.28 0 .577 0 1.154.02 1.731 0a2.064 2.064 0 002.016-2.109l-.001-.021H45.509zM19.434 13.04H2.188a2.132 2.132 0 002.165 2.1h.008c2.506.01 5.012.014 7.519.01 1.814 0 3.627.01 5.441-.01a2.1 2.1 0 002.113-2.087v-.013zm-6.852 34.62l6.868 6.91a.163.163 0 00.027-.08c0-1.92.013-3.83 0-5.74a1.063 1.063 0 00-1.037-1.09h-.073c-.527-.01-1.054 0-1.582 0h-4.203zm48.022 6.96c0-1.31.027-2.6-.014-3.9a1 1 0 00-1.026-.89c-.461-.02-.923-.01-1.384-.01h-2.374c1.618 1.62 3.186 3.19 4.798 4.8zM17.256 6.94a.3.3 0 00.045-.08c0-1.18.014-2.35 0-3.52a1.09 1.09 0 00-1.215-1.181c-.924-.01-1.848 0-2.771 0h-.863C14.098 3.79 15.67 5.35 17.256 6.94zm-4.307 53.721c-1.372 0-2.721 0-4.069.01a.301.301 0 00-.215.2c-.017.63-.01 1.27-.01 1.9h4.301v-2.11h-.007zm20.6-16.04c1.314-1.22 2.586-2.36 3.824-3.55a32.526 32.526 0 002.878-2.91 9.031 9.031 0 001.955-5.7c.019-1.47-.006-2.94.013-4.41a.475.475 0 00-.44-.57 25.539 25.539 0 01-7.754-3.13.725.725 0 00-.883-.02 25.669 25.669 0 01-7.94 3.2c-.354.08-.709.16-1.067.21a1.1 1.1 0 01-1.391-.91 1.134 1.134 0 011.012-1.246l.049-.004c.71-.15 1.423-.29 2.121-.48a23.11 23.11 0 006.687-3.01 1.508 1.508 0 011.9-.02 23.785 23.785 0 007.785 3.3c.336.08.678.14 1.017.21a1.14 1.14 0 011.068 1.3c0 1.83.021 3.66 0 5.5a11.595 11.595 0 01-3.612 8.5c-2.06 2-4.2 3.92-6.309 5.86a1.146 1.146 0 01-1.821-.02c-2-1.85-4.008-3.69-6-5.54a12.075 12.075 0 01-3.917-9.77 1.083 1.083 0 012.163-.03l-.001.059a12.555 12.555 0 00.407 3.63 8.667 8.667 0 002.178 3.83c1.973 1.93 4.011 3.78 6.084 5.72l-.006.001zm-1.137-9.431l4.415-5.3c.091-.115.189-.226.293-.33a1.062 1.062 0 011.478-.06c.434.352.511.984.175 1.43-.41.56-.87 1.08-1.313 1.61-1.318 1.59-2.638 3.173-3.96 4.75a1.156 1.156 0 01-2 .1c-.982-.98-1.962-1.96-2.939-2.94a1.109 1.109 0 01-.374-1.16 1.076 1.076 0 011.82-.46c.677.63 1.314 1.3 1.97 1.95.133.129.265.25.437.41h-.002zm23.893-24.399a1.08 1.08 0 111.049 1.11h-.018a1.084 1.084 0 01-1.029-1.11h-.002z"/></svg>