<svg version="1.0" xmlns="http://www.w3.org/2000/svg" width="99.75" height="100"><path fill-rule="evenodd" clip-rule="evenodd" fill="#42C0D8" d="M99.757 51.85v43.49a4.813 4.813 0 00-.28.52 7.36 7.36 0 01-3.14 3.56 2.848 2.848 0 01-1.136.38c-.808.08-1.625.09-2.439.1-5.427.04-10.854.1-16.281.1-18.488.02-36.976.023-55.463.01-5.392-.01-10.785-.12-16.177-.18a3.066 3.066 0 01-2.1-.76 28.755 28.755 0 01-1.936-2 2.683 2.683 0 01-.6-1.75c-.039-1.39-.08-2.78-.121-4.17-.023-.74-.055-1.49-.083-2.23V16.1c.242-.45.464-.9.731-1.33a5.778 5.778 0 014.837-3.08c.746-.02 1.491-.07 2.237-.08 5.903-.05 11.807-.093 17.71-.13.9-.01 1.79 0 2.738 0v-.69c.016-1.73.02-3.46.055-5.19-.024-1.009.273-2 .847-2.83A6.052 6.052 0 0135.48.12a6.18 6.18 0 014.841 5.36c.09 1.79.057 3.59.081 5.39 0 .2.016.39.025.59h16.068v-.62c.031-1.91.046-3.81.1-5.71.005-.82.26-1.619.731-2.29a6.133 6.133 0 016.33-2.76c1.866.3 4.72 2.51 4.776 4.87.048 1.98.155 3.96.237 5.95.008.18.025.35.04.56.246 0 .432-.01.618 0 7.091.04 14.182.083 21.273.13 1.153.01 2.306.08 3.459.08 2.1 0 3.5 1.17 4.695 2.72.453.58.701 1.294.705 2.03.036 1.66.124 3.32.132 4.98.044 9.83.08 19.66.108 29.49.006.32.039.64.058.96zM40.504 15.37c-.065.8-.164 1.56-.183 2.32a6.172 6.172 0 01-5.772 5.72 5.953 5.953 0 01-6.1-4.5 22.608 22.608 0 01-.262-3.03.466.466 0 00-.571-.54c-7.091.03-14.182.03-21.273.05a7.085 7.085 0 00-1.217.08 1.126 1.126 0 00-1.174 1.29c-.068 2.79-.155 5.57-.158 8.35-.022 23.19-.035 46.377-.038 69.56a1.567 1.567 0 001.533 1.6H94.328a1.756 1.756 0 001.676-1.68c0-25.63.007-51.263.02-76.9a2.331 2.331 0 00-.8-2 1.268 1.268 0 00-.677-.33c-8.431-.06-16.862-.11-25.294-.15-.178 0-.356.01-.652.03 0 .66.022 1.27 0 1.87-.151 3.55-2.285 5.89-5.576 6.28-3.312.4-6.4-2.53-6.449-5.22-.017-.92-.133-1.85-.205-2.8H40.504zm-8.515-3.7c0 2.19-.01 4.38.015 6.57.025.274.136.533.317.74a3.065 3.065 0 003.454.33c.454-.165.782-.563.859-1.04 0-4.38-.002-8.76-.007-13.14a.778.778 0 00-.2-.48 3.011 3.011 0 00-4.013-.33.977.977 0 00-.436.89c.022 2.15.011 4.31.011 6.46zm28.263-.01c0 2.19.009 4.38-.008 6.56a.985.985 0 00.374.83 3.172 3.172 0 003.56.16c.39-.182.657-.553.706-.98-.011-4.36 0-8.72-.017-13.08a.896.896 0 00-.254-.56 3 3 0 00-3.976-.25.878.878 0 00-.394.8c.018 2.17.009 4.35.009 6.52zM10.387 37.94v-3.68h76.1v3.68h-76.1zM51.83 70.02v8.33h-3.724v-8.33h3.724zm-.012-2.92h-3.691v-8.31h3.691v8.31zm.013 14.19v8.32h-3.692v-8.32h3.692zM40.375 47.32v8.5h-3.7a1.348 1.348 0 01-.032-.21c.028-2.57.064-5.15.083-7.73a.463.463 0 01.514-.57c1.026.01 2.056.01 3.135.01zm45.228-.07v8.61h-2.741c-.989 0-1 0-.987-.99.021-2.25.047-4.503.079-6.76.011-.75.033-.77.753-.82.49-.03.982-.03 1.473-.03.453-.01.909-.01 1.421-.01h.002zm-60.2 22.76h3.685v8.35h-3.685v-8.35zm11.263 8.34v-8.33h3.7v8.33h-3.7zm26.426.01h-3.7v-8.33h3.7v8.33zm11.263-8.33v8.33h-3.692v-8.33h3.692zM14.16 78.4v-8.38h3.691c.012.17.031.32.031.47 0 2.46-.009 4.92.01 7.38a.429.429 0 01-.544.53c-1.051-.02-2.099 0-3.192 0h.004zm71.439-8.37v8.36c-1.176 0-2.324.01-3.472-.02a.486.486 0 01-.241-.38c-.021-.9-.011-1.8-.011-2.7v-5.26h3.724zM59.39 47.33h3.649v8.49H59.39v-8.49zM17.854 67.1h-3.69v-8.31h3.69v8.31zm11.251-8.32v8.3h-3.7v-8.3h3.7zm11.259 8.33h-3.689v-8.34h3.687v8.34h.002zm19.018-.01v-8.32h3.693v8.32h-3.7.007zm14.972.01h-3.682v-8.34h3.682v8.34zm11.244 0h-3.683v-8.34h3.683v8.34zm-71.447 22.5v-8.3h3.7v8.3h-3.7zm11.251-.01v-8.3h3.686v8.3h-3.686zm11.27-8.3h3.7v8.32h-3.7V81.3zm26.412 8.32H59.39V81.3h3.694v8.32zm11.205-33.79h-3.628v-8.51h3.628v8.51zm-22.579-.04h-3.563c-.008-.09-.032-.26-.032-.42-.011-2.53-.011-5.05-.037-7.58a.42.42 0 01.5-.51c1.032.01 2.063.01 3.135.01v8.5h-.003z"/></svg>