<svg version="1.0" xmlns="http://www.w3.org/2000/svg" width="25" height="25"><path fill-rule="evenodd" clip-rule="evenodd" fill="#39BDD7" d="M22.289 25H2.711l-.083-.017a5.583 5.583 0 01-.754-.179A2.89 2.89 0 010 22.044V4.868c0-.108 0-.218.015-.326a2.91 2.91 0 012.308-2.568 5.348 5.348 0 011.035-.056h.488V0h1.925v1.91h13.463V0h1.921v1.919h.97a2.892 2.892 0 012.76 2.11c.051.184.077.375.114.563v17.734c-.012.076-.023.151-.038.226a2.866 2.866 0 01-2.008 2.311 5.18 5.18 0 01-.664.137zm.788-15.381H1.923v12.459c0 .112.017.223.049.33a.95.95 0 00.97.666h18.767c.131.008.263.008.394 0 .143-.009.284-.041.417-.093a.946.946 0 00.555-.94V9.619h.002zM5.771 5.758H3.844V3.845h-.976a.945.945 0 00-.944.972v2.8a.508.508 0 00.007.067h21.147v-.738-2.145a.945.945 0 00-.935-.955h-.917c-.021 0-.042.006-.07.009v1.908h-1.924V3.85H5.771v1.912-.004zm.063 11.017l1.334-1.335 3.394 3.4 7.241-7.246 1.352 1.352-8.575 8.577-4.746-4.748z"/></svg>