<svg xmlns="http://www.w3.org/2000/svg" width="18" height="17"><path fill-rule="evenodd" clip-rule="evenodd" fill="#171717" d="M16.537 6.2l-1.265 1.173a.155.155 0 00-.056.125v6.837a1.39 1.39 0 01-.022.273 1.361 1.361 0 01-1.386 1.081H2.76a1.381 1.381 0 01-.728-.2 1.269 1.269 0 01-.659-1.14V3.874a1.348 1.348 0 011.36-1.275h7.316a.151.151 0 00.116-.042c.423-.409.847-.815 1.271-1.223.012-.011.022-.024.041-.045h-.087l-8.866.012c-.57.036-1.115.25-1.557.611a2.5 2.5 0 00-.978 2.019v10.523c.006.334.083.662.228.963a2.699 2.699 0 002.565 1.574c3.657.012 7.314 0 10.971 0 .106 0 .213 0 .318-.012a2.73 2.73 0 001.442-.528 2.524 2.524 0 001.088-2.12V6.144l-.064.056zm-9.694 4.318l.206-.819.745-2.955a.232.232 0 01.059-.1c1.05-1.011 2.101-2.022 3.154-3.032 1.067-1.023 2.131-2.046 3.192-3.07a1.81 1.81 0 01.99-.523 1.777 1.777 0 011.542.436c.254.229.5.465.745.7a1.601 1.601 0 01-.036 2.366 3050.343 3050.343 0 00-4.088 3.8l-2.423 2.252a.197.197 0 01-.088.046l-3.509.79-.489.109zM8.71 8.751h.034c.461-.1.923-.207 1.384-.314a.282.282 0 00.128-.067 2898.97 2898.97 0 003.2-2.977l3.04-2.825a.312.312 0 00.015-.46 27.766 27.766 0 00-.768-.726.356.356 0 00-.491.019l-1.31 1.26L9.12 7.298a.305.305 0 00-.078.133c-.071.268-.137.537-.2.806-.042.166-.088.337-.132.514z"/></svg>