<svg version="1.0" xmlns="http://www.w3.org/2000/svg" width="27" height="27"><path fill-rule="evenodd" clip-rule="evenodd" fill="#39BDD7" d="M.013 13.419c.016-.2.029-.4.049-.6.158-1.652.65-3.255 1.446-4.711A12.986 12.986 0 017.02 2.699a13.119 13.119 0 013.61-1.2 12.818 12.818 0 013.371-.118c2.037.168 4.002.831 5.724 1.932.269.1.415.391.335.666a3.824 3.824 0 00-.047.534.802.802 0 01-.271.539 2.81 2.81 0 00-.227.261 10.946 10.946 0 00-9.191-1.93 10.716 10.716 0 00-6.566 4.444c-3.492 5.01-2.26 11.902 2.75 15.393a11.056 11.056 0 0013.13-.359 10.723 10.723 0 004.149-7.262 10.96 10.96 0 00-2.1-8.093 1.157 1.157 0 011.015-.568c.21 0 .421-.03.631-.036a.192.192 0 01.142.07 13.337 13.337 0 011.919 4.558c.254 1.209.329 2.449.222 3.68a12.855 12.855 0 01-1.353 4.769 13.08 13.08 0 01-3.021 3.837 12.233 12.233 0 01-6.568 3.03 12.484 12.484 0 01-8.2-1.541 12.706 12.706 0 01-6.051-7.852 9.776 9.776 0 01-.4-2.437 1.01 1.01 0 00-.021-.134v-1.458l.011-.005zM26.987 3.15c-.365.335-.722.678-1.095 1-.508.442-1.039.859-1.541 1.308-.421.368-.96.574-1.519.581-.311.015-.621.052-.932.07a.338.338 0 00-.236.113 9540.08 9540.08 0 01-8.418 8.414.387.387 0 01-.206.137.826.826 0 01-.548-.074.76.76 0 01-.294-.812.323.323 0 01.09-.117 6497.43 6497.43 0 017.411-7.456c.359-.361.715-.725 1.069-1.091a.347.347 0 00.086-.188c.058-.5.107-1 .161-1.5.019-.203.098-.395.227-.553.513-.623 1.025-1.246 1.545-1.863.295-.351.6-.693.909-1.033a.303.303 0 01.206-.092.26.26 0 01.091.175c.049.447.084.895.132 1.341.03.278.065.556.115.83a.46.46 0 00.437.407c.474.05.948.1 1.421.155.255.028.511.054.765.086a.466.466 0 01.124.052v.11zm-9.745 4.375l-1.264 1.263-.617-.286a6.19 6.19 0 103.23 7.9 6.567 6.567 0 00.4-2.641 6.09 6.09 0 00-.741-2.608.22.22 0 01.052-.308l.003-.002c.379-.365.748-.743 1.146-1.142a8.37 8.37 0 011.28 3.486 7.782 7.782 0 01-1.826 6.079 7.95 7.95 0 11-1.663-11.741zm-1.418 5.886a3.082 3.082 0 01-5.14 2.951 3.09 3.09 0 012.868-5.224 1.528 1.528 0 01-.122.165c-.474.5-.95 1-1.425 1.493-.117.122-.228.251-.349.37a1.519 1.519 0 00-.192 1.7c.316.583.964.903 1.619.8.278-.043.535-.17.739-.364.544-.526 1.09-1.05 1.637-1.573.115-.108.241-.208.365-.318z"/></svg>