<svg version="1.0" xmlns="http://www.w3.org/2000/svg" width="25" height="25"><path fill-rule="evenodd" clip-rule="evenodd" fill="#39BDD7" d="M9.637 8.336H1.83A1.824 1.824 0 01.008 6.514V1.83A1.824 1.824 0 011.83.008h7.807a1.824 1.824 0 011.822 1.822v4.684a1.824 1.824 0 01-1.822 1.822zM1.83 1.57a.26.26 0 00-.26.258v4.686a.26.26 0 00.259.261H9.637a.261.261 0 00.261-.261V1.83a.26.26 0 00-.26-.26H1.83zm7.807 23.422H1.83A1.824 1.824 0 01.008 23.17V12.24a1.824 1.824 0 011.822-1.822h7.807a1.824 1.824 0 011.822 1.822v10.93a1.824 1.824 0 01-1.822 1.822zM1.83 11.979a.26.26 0 00-.26.26V23.17a.26.26 0 00.258.26h7.809a.26.26 0 00.261-.259V12.24a.261.261 0 00-.261-.261H1.83zm21.34 13.013h-7.807a1.824 1.824 0 01-1.822-1.822v-4.684a1.824 1.824 0 011.822-1.822h7.807a1.824 1.824 0 011.822 1.822v4.684a1.824 1.824 0 01-1.822 1.822zm-7.807-6.767a.261.261 0 00-.261.261v4.684c0 .144.116.26.26.26H23.17a.26.26 0 00.26-.258v-4.686a.26.26 0 00-.259-.261H15.363zm7.807-3.643h-7.807a1.824 1.824 0 01-1.822-1.822V1.83A1.824 1.824 0 0115.363.008h7.807a1.824 1.824 0 011.822 1.822v10.93a1.824 1.824 0 01-1.822 1.822zM15.363 1.57a.26.26 0 00-.261.259V12.76c0 .144.117.261.261.261h7.807a.26.26 0 00.26-.26V1.83a.26.26 0 00-.258-.26h-7.809z"/></svg>