<svg xmlns="http://www.w3.org/2000/svg" height="608.347" width="991.947"><path d="M248.487 556.613l-22.878-11.917-68.552-35.71-67.682-35.255v-89.753l135.365-76.875v.228l.87-.492V201.837L0 329.76V518.7l157.492 89.646 67.415-38.328 23.58-13.406" fill="#488e90"/><path d="M314.976.007l-89.367 50.621v256.21l-.869.493V473.5l-67.683 35.487 68.552 35.71 22.878 11.916 66.497-37.806V.01l-.008-.004M347.867 519.47V230.3h69v289.17h-69M693.41 364.076v136.312c-18.82 9.413-37.155 16.501-55.01 21.268-17.852 4.77-35.16 7.157-51.913 7.157-42.668 0-78.086-14.082-106.248-42.25-28.168-28.163-42.25-63.71-42.25-106.635 0-43.312 14.276-79.144 42.83-107.505 28.552-28.358 64.677-42.538 108.376-42.538 16.497 0 32.222 2.258 47.178 6.768 14.951 4.515 29.322 11.346 43.119 20.494l-7.157 70.19c-13.022-13.148-25.976-22.782-38.864-28.906-12.891-6.123-26.427-9.187-40.604-9.187-25.135 0-45.956 8.412-62.454 25.235-16.501 16.82-24.746 37.866-24.746 63.128 0 26.558 7.956 48.242 23.877 65.064 15.919 16.824 36.445 25.233 61.584 25.233 5.8 0 11.661-.513 17.595-1.545 5.926-1.032 12.113-2.515 18.561-4.448v-40.798h-53.172v-57.037h119.299M809.81 430.59h73.666l-36.35-87.787zm-104.8 89.134L847.9 230.66h4.255l139.794 289.064h-69.996l-17.786-40.797H790.476l-18.177 40.797h-67.29M348.536 600.644v-41.832h12.728l9.367 29.277h.172l9.452-29.277h12.842v41.832h-9.71v-26.95l-.172-.029-9.223 26.98h-6.521l-9.051-26.577-.172.028v26.548h-9.712M408.697 583.49c0 3.029.704 5.498 2.108 7.414 1.406 1.915 3.418 2.872 6.038 2.872 2.544 0 4.513-.957 5.908-2.872 1.396-1.916 2.094-4.385 2.094-7.414v-7.583c0-2.988-.704-5.439-2.109-7.356-1.404-1.914-3.388-2.873-5.95-2.873-2.62 0-4.622.954-6.009 2.86-1.386 1.905-2.08 4.362-2.08 7.369zm-9.709 0v-7.526c0-5.133 1.643-9.375 4.93-12.728 3.287-3.352 7.577-5.028 12.867-5.028 5.254 0 9.527 1.676 12.826 5.028 3.296 3.353 4.945 7.595 4.945 12.728v7.526c0 5.154-1.635 9.4-4.903 12.743s-7.538 5.014-12.81 5.014c-5.31 0-9.614-1.671-12.91-5.014-3.297-3.343-4.945-7.589-4.945-12.743M450.156 593.173h5.603c2.202 0 4.017-.9 5.444-2.7 1.426-1.8 2.141-4.128 2.141-6.983v-7.583c0-2.815-.715-5.124-2.141-6.924-1.427-1.8-3.242-2.701-5.444-2.701h-5.603zm-9.71 7.471v-41.832h15.3c4.917 0 9.031 1.605 12.342 4.812 3.31 3.208 4.967 7.321 4.967 12.34v7.526c0 5.04-1.656 9.158-4.967 12.355-3.31 3.2-7.425 4.8-12.343 4.8h-15.3M478.628 585.933v-27.121h9.71v27.121c0 2.587.673 4.54 2.015 5.862 1.344 1.321 3.206 1.98 5.586 1.98 2.36 0 4.197-.654 5.51-1.966 1.316-1.312 1.974-3.27 1.974-5.876v-27.121h9.71v27.121c0 4.788-1.588 8.54-4.765 11.249-3.177 2.71-7.32 4.065-12.43 4.065-5.147 0-9.32-1.355-12.517-4.065-3.196-2.71-4.793-6.46-4.793-11.249M519.599 600.644v-41.832h9.71v34.361h17.956v7.471H519.6M564.704 585.043h7.959l-3.908-12.987h-.172zm-14.883 15.601l13.647-41.832h5.2v.028l.03-.028h5.2l13.675 41.832h-10.228l-2.442-8.13h-12.44l-2.414 8.13h-10.228M600.273 577.143h4.912c1.954 0 3.447-.446 4.482-1.336 1.034-.891 1.552-2.17 1.552-3.836 0-1.706-.532-3.079-1.595-4.123-1.064-1.044-2.563-1.566-4.497-1.566h-4.854zm-9.712 23.501v-41.832h14.58c4.851 0 8.694 1.12 11.532 3.361 2.836 2.242 4.256 5.307 4.256 9.195 0 2.164-.572 4.021-1.714 5.572-1.144 1.552-2.83 2.817-5.058 3.793 2.574.728 4.422 1.94 5.547 3.635 1.124 1.695 1.685 3.807 1.685 6.336v2.641c0 1.092.163 2.338.488 3.737.326 1.398.891 2.394 1.695 2.987v.575h-10.05c-.767-.595-1.267-1.638-1.498-3.132a27.749 27.749 0 01-.347-4.224v-2.527c0-1.993-.525-3.516-1.578-4.569-1.054-1.053-2.598-1.58-4.627-1.58h-5.199v16.032h-9.712M646.013 600.644v-41.832h27.41v7.47h-17.699v8.993h14.739v7.47h-14.739v10.428h17.668v7.471h-27.379M688.563 577.143h4.913c1.953 0 3.447-.446 4.481-1.336 1.035-.891 1.551-2.17 1.551-3.836 0-1.706-.53-3.079-1.593-4.123-1.064-1.044-2.563-1.566-4.498-1.566h-4.854zm-9.711 23.501v-41.832h14.58c4.85 0 8.693 1.12 11.532 3.361 2.836 2.242 4.256 5.307 4.256 9.195 0 2.164-.572 4.021-1.716 5.572-1.143 1.552-2.83 2.817-5.057 3.793 2.574.728 4.422 1.94 5.548 3.635 1.122 1.695 1.684 3.807 1.684 6.336v2.641c0 1.092.162 2.338.488 3.737.326 1.398.89 2.394 1.696 2.987v.575h-10.05c-.768-.595-1.268-1.638-1.498-3.132a27.749 27.749 0 01-.347-4.224v-2.527c0-1.993-.525-3.516-1.579-4.569-1.054-1.053-2.597-1.58-4.626-1.58h-5.2v16.032h-9.711M726.085 578.837h6.263c2.107 0 3.715-.578 4.827-1.738 1.11-1.16 1.665-2.648 1.665-4.467 0-1.859-.55-3.38-1.65-4.57-1.102-1.187-2.717-1.78-4.842-1.78h-6.263zm-9.71 21.807v-41.832h15.988c4.965 0 8.904 1.264 11.817 3.792 2.915 2.53 4.372 5.852 4.372 9.97s-1.457 7.437-4.373 9.955c-2.915 2.52-6.856 3.78-11.823 3.78h-6.27v14.335h-9.711M768.928 587.37l.057-.171h9.452c0 2.432.598 4.161 1.792 5.184 1.196 1.025 3.027 1.538 5.494 1.538 2.025 0 3.534-.402 4.528-1.208.994-.804 1.49-1.857 1.49-3.16 0-1.493-.486-2.637-1.462-3.433-.974-.795-2.74-1.642-5.302-2.543-5.186-1.685-9.042-3.48-11.569-5.387-2.525-1.905-3.79-4.65-3.79-8.23 0-3.505 1.467-6.34 4.397-8.505 2.93-2.165 6.656-3.247 11.177-3.247 4.768.02 8.608 1.14 11.521 3.363 2.815 2.164 4.223 5.18 4.223 9.05v.373l-.057.171h-9.424c0-1.971-.535-3.404-1.606-4.293-1.07-.89-2.684-1.336-4.844-1.336-1.757 0-3.142.43-4.156 1.292-1.013.861-1.518 1.925-1.518 3.19 0 1.225.52 2.206 1.561 2.943 1.043.739 2.987 1.663 5.833 2.774 4.838 1.436 8.502 3.189 10.994 5.257 2.489 2.068 3.733 4.903 3.733 8.504 0 3.677-1.435 6.555-4.304 8.633-2.87 2.08-6.677 3.118-11.423 3.118-4.725-.02-8.734-1.14-12.029-3.362-3.197-2.164-4.788-5.534-4.768-10.113v-.401M803.264 558.812h10.513l8.319 18.273h.173l8.346-18.273h10.514l-14.192 27.121v14.711h-9.712v-15.141l-13.961-26.691M842.593 587.37l.058-.171h9.452c0 2.432.597 4.161 1.792 5.184 1.196 1.025 3.026 1.538 5.493 1.538 2.025 0 3.535-.402 4.528-1.208.995-.804 1.49-1.857 1.49-3.16 0-1.493-.486-2.637-1.462-3.433-.973-.795-2.74-1.642-5.301-2.543-5.187-1.685-9.043-3.48-11.57-5.387-2.525-1.905-3.789-4.65-3.789-8.23 0-3.505 1.467-6.34 4.396-8.505 2.93-2.165 6.656-3.247 11.177-3.247 4.768.02 8.608 1.14 11.522 3.363 2.814 2.164 4.222 5.18 4.222 9.05v.373l-.057.171h-9.424c0-1.971-.535-3.404-1.605-4.293-1.071-.89-2.684-1.336-4.844-1.336-1.758 0-3.143.43-4.156 1.292-1.014.861-1.519 1.925-1.519 3.19 0 1.225.52 2.206 1.561 2.943 1.043.739 2.987 1.663 5.834 2.774 4.837 1.436 8.501 3.189 10.993 5.257 2.49 2.068 3.733 4.903 3.733 8.504 0 3.677-1.434 6.555-4.304 8.633-2.869 2.08-6.677 3.118-11.422 3.118-4.724-.02-8.735-1.14-12.03-3.362-3.197-2.164-4.788-5.534-4.768-10.113v-.401M877.876 566.282v-7.47h31.63v7.47h-11.06v34.362h-9.711v-34.362h-10.859M913.444 600.644v-41.832h27.41v7.47h-17.698v8.993h14.737v7.47h-14.737v10.428h17.668v7.471h-27.38M946.283 600.644v-41.832h12.726l9.368 29.277h.172L978 558.812h12.843v41.832h-9.711v-26.95l-.172-.029-9.223 26.98h-6.521l-9.05-26.577-.171.028v26.548h-9.712" fill="#58595b"/></svg>