<svg xmlns="http://www.w3.org/2000/svg" width="18" height="18"><path d="M9 0C4.037 0 0 4.037 0 9s4.037 9 9 9c1.705 0 3.365-.48 4.8-1.386l-.6-.951A7.852 7.852 0 019 16.875c-4.342 0-7.875-3.533-7.875-7.875S4.658 1.125 9 1.125 16.875 4.658 16.875 9v.563c0 .931-.757 1.688-1.688 1.688S13.5 10.493 13.5 9.563V5.625h-1.125v.43C11.549 5.11 10.35 4.5 9 4.5 6.519 4.5 4.5 6.519 4.5 9s2.019 4.5 4.5 4.5c1.681 0 3.132-.937 3.905-2.307a2.805 2.805 0 002.283 1.182 2.816 2.816 0 002.813-2.813V9C18 4.037 13.963 0 9 0zm0 12.375c-1.861 0-3.375-1.514-3.375-3.375S7.139 5.625 9 5.625 12.375 7.139 12.375 9 10.861 12.375 9 12.375z"/></svg>