<svg version="1.0" xmlns="http://www.w3.org/2000/svg" width="28" height="24"><path fill-rule="evenodd" clip-rule="evenodd" fill="#39BDD7" d="M13.828-.009h.343c.094.034.187.065.28.1l7.271 2.8c1.873.72 3.746 1.441 5.618 2.163a.992.992 0 01.645.726.22.22 0 00.025.048v.343c-.093.375-.37.676-.735.8a7462.047 7462.047 0 00-12.8 4.921 1.26 1.26 0 01-.954 0A7411.292 7411.292 0 00.658 6.942a.998.998 0 01-.642-.711.446.446 0 00-.028-.063v-.343A.099.099 0 00.01 5.79c.076-.358.339-.647.688-.756.383-.142.763-.292 1.145-.439L13.828-.009zm-10.036 6c.084.037.134.061.185.081l9.895 3.8a.388.388 0 00.256 0c3.317-1.271 6.633-2.546 9.948-3.823.036-.014.07-.034.124-.06-.058-.025-.092-.04-.127-.053a9227.465 9227.465 0 00-9.935-3.819.41.41 0 00-.268 0A3096.27 3096.27 0 005.838 5.2l-2.046.791zm24.218 6.18a.22.22 0 00-.025.048 1 1 0 01-.645.726l-5.246 2.02-7.617 2.93a1.251 1.251 0 01-.954 0A6639.516 6639.516 0 00.699 12.964a1.114 1.114 0 01-.709-.792v-.344c.057-.159.133-.31.228-.45.122-.138.274-.247.444-.318.91-.363 1.827-.709 2.742-1.056a.288.288 0 01.188 0c.867.329 1.732.663 2.6 1a.744.744 0 01.085.042l-2.482.955c.08.035.132.06.185.081l7.749 2.979c.715.275 1.428.553 2.145.821a.385.385 0 00.255 0 4986.34 4986.34 0 009.959-3.829c.031-.012.06-.027.128-.057l-2.494-.96.493-.191c.727-.28 1.454-.562 2.184-.837a.33.33 0 01.215 0c.9.343 1.8.694 2.7 1.038.342.112.599.398.673.751a.098.098 0 00.023.034v.344-.004zM-.01 17.832c.057-.159.133-.311.228-.451.122-.138.274-.247.444-.318.91-.363 1.827-.709 2.742-1.056a.288.288 0 01.188 0c.867.329 1.732.663 2.6 1 .022.009.042.021.085.042l-2.482.955c.08.035.132.061.185.081l7.749 2.98c.715.275 1.428.552 2.145.821a.385.385 0 00.255 0c3.321-1.273 6.641-2.55 9.959-3.829.031-.012.06-.026.128-.056l-2.494-.961.493-.191c.727-.28 1.454-.562 2.184-.837a.33.33 0 01.215 0c.9.343 1.8.694 2.7 1.038.342.112.599.398.673.751a.118.118 0 00.023.035v.343a1.16 1.16 0 01-.761.815c-2.125.808-4.245 1.629-6.367 2.444-2.236.859-4.473 1.717-6.711 2.574h-.343c-.1-.038-.2-.074-.3-.113L.66 18.95a1.002 1.002 0 01-.642-.712.69.69 0 00-.028-.062V17.832z"/></svg>