<svg version="1.0" xmlns="http://www.w3.org/2000/svg" width="50" height="37.09"><path fill-rule="evenodd" clip-rule="evenodd" fill="#39BDD7" d="M25 37.08H4.42a4.2 4.2 0 01-4.415-4.41V4.42A4.183 4.183 0 014.418.01C18.191 0 31.964 0 45.735.01a4.176 4.176 0 014.258 4.31c.009 7.867.009 15.733 0 23.6v4.8a4.2 4.2 0 01-4.363 4.36c-6.877.01-13.754.01-20.63 0zm.026-34.19H4.445a1.319 1.319 0 00-1.559 1.54v28.19A1.326 1.326 0 004.45 34.2h41.108a1.313 1.313 0 001.552-1.54V4.37a1.287 1.287 0 00-1.456-1.48h-20.63.002zm10.241 26.56c-2.814-.01-5.628-.02-8.442.01a.526.526 0 01-.642-.669 12.77 12.77 0 000-1.66c-.032-.49.136-.63.62-.63 4.1.02 8.2.01 12.3.01 1.581 0 3.162.02 4.742-.01a.5.5 0 01.614.64 14.954 14.954 0 000 1.72.48.48 0 01-.591.6c-2.868-.021-5.736-.01-8.603-.01l.002-.001zm-23.7-21.84c1.822 0 3.645.01 5.467-.01.416 0 .595.09.57.55-.035.65-.022 1.32 0 1.97a.392.392 0 01-.461.5c-3.733-.01-7.467-.01-11.2 0a.37.37 0 01-.432-.47c.015-.69.023-1.39 0-2.08-.014-.38.134-.47.486-.47 1.851.02 3.708.01 5.566.01h.004zm4.473 16.9c-1.839 0-3.679-.01-5.517.01a.46.46 0 01-.558-.57c.028-.66.02-1.32 0-1.98a.4.4 0 01.49-.48c3.713.01 7.426.01 11.139 0a.4.4 0 01.474.5 29.87 29.87 0 000 2.03c.017.4-.147.5-.517.5-1.837-.01-3.676-.01-5.515-.01h.004zm10.778-8.92c-1.525 0-3.052-.01-4.577.01a.442.442 0 01-.545-.54c.026-.67.019-1.35 0-2.03a.374.374 0 01.459-.45c3.121 0 6.243-.003 9.364-.01a.374.374 0 01.455.449c-.022.68-.033 1.36 0 2.03.025.47-.179.55-.583.55-1.525-.02-3.051-.01-4.577-.01h.004zm13.455 4.89c-1.2 0-2.4-.01-3.6.01-.42.01-.605-.11-.584-.56a23.5 23.5 0 000-1.82.462.462 0 01.547-.56c2.432 0 4.864.01 7.3-.01a.43.43 0 01.516.52c-.02.63-.029 1.26 0 1.88.024.46-.179.56-.588.55-1.2-.02-2.4-.01-3.595-.01h.004zm-15.7 7.04h1v.91c-.5 0-1.013.03-1.523-.01a.5.5 0 01-.4-.629c.006-1.21-.027-2.43.015-3.65.019-.55-.145-.76-.692-.68a1.055 1.055 0 01-.331-.04v-.87c.509 0 .992-.02 1.472 0a.516.516 0 01.455.64v4.33l.004-.001zM19.192 9.58h-1.013v-.92c.509 0 1.023-.02 1.535 0 .378.02.4.33.4.62 0 1.23.021 2.46-.01 3.69-.012.47.089.69.617.66.751-.05.35.51.455.91-.549 0-1.048.03-1.54-.01a.546.546 0 01-.45-.626l.007-.034c.007-1.21 0-2.43 0-3.64v-.65h-.001zm13.356 4.05c.536 0 1.035-.02 1.533.01.373.02.405.31.4.6V18.55h1.01v.92c-.507 0-1.022.03-1.533-.01-.354-.02-.4-.32-.395-.62v-4.26c-.353-.03-.671-.05-1.018-.07v-.88h.003z"/></svg>