<svg version="1.0" xmlns="http://www.w3.org/2000/svg" width="28" height="19.688"><g fill-rule="evenodd" clip-rule="evenodd" fill="#39BDD7"><path d="M26.219.013H1.781A1.774 1.774 0 00.009 1.785v16.118a1.774 1.774 0 001.772 1.772h24.438a1.774 1.774 0 001.772-1.772V1.785A1.774 1.774 0 0026.219.013zM26.11 17.79H1.9V1.898h24.21V17.79z"/><path d="M5.307 6.963h4.356a.2.2 0 00.2-.2v-.702h.583v3.876c0 .037.015.071.039.095.024.025.057.04.094.041h.321c.017 0 .028-.012.043-.018h.679v.707c.002.076.053.129.117.161.027.014.051.034.083.034h4.356a.202.202 0 00.2-.195v-.707h.583V14.119a.135.135 0 00.139.131h.319c.029 0 .053-.015.075-.031h.643v.707c.002.076.053.129.117.161.027.014.051.034.083.034h4.356a.202.202 0 00.2-.195V12.92a.2.2 0 00-.2-.2h-4.356a.2.2 0 00-.2.2v.707h-.583V9.623a.16.16 0 00-.16-.16h-1.016v-.701a.201.201 0 00-.2-.2h-4.356a.2.2 0 00-.2.2v.701h-.586V6.061h.003v-.432c0-.003-.003-.005-.003-.007v-.017a.136.136 0 00-.136-.136H9.863v-.712c-.002-.076-.053-.129-.117-.161-.027-.014-.051-.034-.083-.034H5.307a.2.2 0 00-.2.195v2.006c0 .11.09.2.2.2z"/></g></svg>