<svg version="1.0" xmlns="http://www.w3.org/2000/svg" width="50" height="44.56"><path fill-rule="evenodd" clip-rule="evenodd" fill="#39BDD7" d="M45.1 44.58a3.006 3.006 0 01-.4-1.51c-.031-.23-.047-.47-.074-.75h-.3l-6.04.18-7.111.24c-4.393.13-8.785.3-13.178.37-4.47.08-8.941.06-13.412.08-.535 0-.552-.01-.6-.57-.1-1.29-.2-2.57-.261-3.86-.144-3.28-.274-6.56-.389-9.84-.092-2.61-.161-5.22-.227-7.82-.112-4.42-.219-8.84-.322-13.26-.011-.45-.051-.9-.081-1.41-.256 0-.5.01-.741 0-.424.002-.848-.022-1.27-.07a3.126 3.126 0 01-.7-.25v-.26a.15.15 0 00.04-.02 29.524 29.524 0 012.467-4.15c.41-.6.911-1.13 1.371-1.7h.051c.178.204.345.417.5.64a28.07 28.07 0 012.173 4.41c.086.247.148.501.188.76a.35.35 0 01-.264.417l-.012.003a6.043 6.043 0 01-1.976.33H4.18l.072 1.55c.1 2.1.192 4.19.287 6.29.133 2.933.265 5.863.395 8.79.1 2.25.205 4.5.327 6.75.133 2.49.281 4.977.444 7.46.079 1.2.208 2.39.316 3.58.008.09.033.18.058.32 12.826-.41 25.654-.827 38.484-1.25l-.235-2.34A31.74 31.74 0 0150 39.98v.21a11.203 11.203 0 01-1.785 2 21.584 21.584 0 01-2.96 2.39H45.1zM3.55 2.05a2.052 2.052 0 00-.252.32c-.4.77-.812 1.54-1.2 2.32-.16.33-.081.49.283.49.888.01 1.776-.03 2.663-.06a.164.164 0 00.157-.25 2.503 2.503 0 00-.193-.46c-.427-.73-.864-1.44-1.3-2.16-.048-.07-.1-.136-.156-.2H3.55zm42.38 40.43c.031.01.062.01.093.02a21.173 21.173 0 002.084-2.12 8.366 8.366 0 00-2.427-1.04c.089 1.09.17 2.11.252 3.14h-.002zm-30.6-12.84c-.121.26-.228.48-.332.7-1.139 2.42-2.269 4.84-3.424 7.25-.258.508-.553.996-.884 1.46-.261.38-.395.4-.815.19a5.1 5.1 0 01-1.467-1.13.788.788 0 01-.175-.93c.277-.62.539-1.25.845-1.85 1.295-2.57 2.62-5.13 4.136-7.58.206-.33.428-.65.659-.97a.63.63 0 01.95-.291c.563.21 1.114.46 1.665.7.714.32 1.426.64 2.133.97.147.09.338.06.451-.07 1.387-1.36 2.773-2.71 4.172-4.05s2.821-2.68 4.243-4.01a7.85 7.85 0 01.82-.61.8.8 0 01.912-.04c.723.43 1.452.85 2.156 1.3.776.51 1.525 1.05 2.289 1.58.359.25.385.25.645-.12.679-.95 1.346-1.92 2.013-2.88a7428.12 7428.12 0 015.885-8.51c.421-.61.9-1.18 1.352-1.76.057-.07.122-.14.185-.21.5-.54.7-.61 1.32-.23.674.41 1.3.89 1.953 1.33a.256.256 0 01.061.42c-.986 1.44-1.942 2.9-2.949 4.32-2.462 3.467-4.937 6.93-7.425 10.39-.207.29-.457.55-.674.83a.452.452 0 01-.647.14c-.529-.29-1.063-.57-1.58-.88-1.086-.65-2.161-1.32-3.244-1.97-.52-.32-.558-.32-1.007.1-1.258 1.17-2.5 2.36-3.768 3.52-1.722 1.58-3.441 3.16-5.2 4.71-.926.81-.874.74-1.888.19-.825-.46-1.612-.98-2.419-1.47-.296-.18-.609-.35-.943-.54l-.004.001z"/></svg>