<svg version="1.0" xmlns="http://www.w3.org/2000/svg" width="31" height="31"><path fill-rule="evenodd" clip-rule="evenodd" fill="#39BDD7" d="M16.574 27.243c0 .922-.007 1.8 0 2.672a.917.917 0 01-.5.935 1.282 1.282 0 01-1.258-.045.874.874 0 01-.4-.809c0-.814-.009-1.629.007-2.444a.293.293 0 00-.317-.357 11.976 11.976 0 01-8.94-5.623 11.485 11.485 0 01-1.721-4.721.277.277 0 00-.348-.29c-.7.01-1.406.007-2.109 0a.9.9 0 01-.973-.967 2.009 2.009 0 01.113-.741c.133-.3.443-.48.769-.447.734 0 1.467-.006 2.2 0a.23.23 0 00.274-.26A12.011 12.011 0 0111.26 3.731a9.92 9.92 0 012.9-.68.235.235 0 00.257-.284 62.224 62.224 0 010-1.833.85.85 0 01.93-.93c.213-.008.426.013.633.061a.78.78 0 01.589.8c.009.632.012 1.263 0 1.894a.246.246 0 00.275.3c5.103.577 9.293 4.3 10.466 9.3.15.662.231 1.34.351 2.048h.772c.56 0 1.121-.007 1.681 0a.827.827 0 01.843.7c.038.232.038.468 0 .7a.889.889 0 01-.931.756c-.8.006-1.608 0-2.455 0a12.211 12.211 0 01-10.997 10.68zM5.142 16.602a10.3 10.3 0 009.231 8.906.911.911 0 011.074-.9.954.954 0 011.171.906 10.3 10.3 0 009.187-8.914c-.938-.153-1.178-.338-1.179-.989a1.897 1.897 0 01.161-.847 1.165 1.165 0 011.142-.372 10.438 10.438 0 00-3.516-7.094 10.138 10.138 0 00-5.84-2.571c0 .273.015.5 0 .717-.009.161-.05.319-.12.464a.963.963 0 01-.957.467.925.925 0 01-1.075-1.051v-.569a10.355 10.355 0 00-9.328 9.575c.326.057.645.15.951.277a.894.894 0 01.333.923c-.024.716-.224.897-1.235 1.072zm11.453 5.139l1.876-6.1c.754.238 1.481.425 2.172.7.461.181.768.622.776 1.117.076 1.208.166 2.416.232 3.625a.525.525 0 01-.184.347 8.432 8.432 0 01-4.812 2.251 8.624 8.624 0 01-7.021-2.214.499.499 0 01-.185-.472c.089-1.1.186-2.192.219-3.289a1.522 1.522 0 011.1-1.5c.26-.088.521-.173.787-.24.384-.1.772-.177 1.171-.267l1.845 6.033h.072c.024-.354.053-.707.072-1.061.029-.539.079-1.079.067-1.617a1.3 1.3 0 01.408-1.007c.115-.115.221-.238.347-.375-.208-.224-.409-.449-.619-.665a.439.439 0 010-.671c.034-.038.064-.079.1-.117a.678.678 0 011.209.007.518.518 0 010 .867c-.175.2-.36.384-.549.585a.052.052 0 00.009.034c.51.449.775 1.114.713 1.791-.023.745.074 1.493.118 2.239l.077-.001zm1.744-10.987a4.75 4.75 0 01-1.383 3.171 1.9 1.9 0 01-2.878.065 4.477 4.477 0 01-1.319-4.435 2.638 2.638 0 012.879-1.95c1.69.131 2.692 1.219 2.701 3.149z"/></svg>