<svg version="1.0" xmlns="http://www.w3.org/2000/svg" width="90.563" height="99.97"><path fill-rule="evenodd" clip-rule="evenodd" fill="#42C0D8" d="M45.217 85.43c-2.741-.066-5.482-.14-8.223-.22-1.278-.03-2.012-.91-2.076-2.37-.06-1.37-.114-2.73-.267-4.09A27.286 27.286 0 0030.9 67.86c-1.766-2.98-3.7-5.86-5.436-8.85a27.29 27.29 0 01-3.488-9.9 26.115 26.115 0 01-.235-6.69 23.158 23.158 0 017.82-15.22 23.407 23.407 0 0112.185-5.77A23.949 23.949 0 0166.488 34.3a24.072 24.072 0 012.25 7.44 24.56 24.56 0 01.092 5.83 27.08 27.08 0 01-3.532 11.03c-1.654 2.8-3.409 5.54-5.1 8.32a29.348 29.348 0 00-4.028 10.15c-.256 1.45-.34 2.92-.5 4.38a20.905 20.905 0 01-.286 2.34 2.012 2.012 0 01-2.052 1.56c-2.702.01-5.404.013-8.105.01a.2.2 0 00-.01.07zm-.045-4.4c1.641 0 3.282.01 4.923-.01 1-.01 1.133-.16 1.248-1.14.134-1.15.211-2.31.445-3.44a29.15 29.15 0 013.022-8.57c1.824-3.2 3.745-6.35 5.683-9.49a25.447 25.447 0 003.92-11.52c.237-2.434.05-4.89-.552-7.26-2.534-9.358-11.683-15.329-21.27-13.88a19.181 19.181 0 00-5.552 1.68 18.649 18.649 0 00-9.128 8.88 20.741 20.741 0 00-1.676 11.77 19.438 19.438 0 002.17 7.15c1.512 2.78 3.1 5.53 4.821 8.19a36.031 36.031 0 016.044 16.82.788.788 0 00.916.83c1.662-.02 3.324-.01 4.986-.01zm-6 15.48c-.845-.08-1.589-.11-2.325-.21a2.06 2.06 0 01-1.531-3.13 1.173 1.173 0 00.018-1.49 2.087 2.087 0 011.787-3.22c5.34-.05 10.681-.07 16.022-.15.89-.04 1.719.451 2.113 1.25.398.734.33 1.633-.172 2.3a.764.764 0 00.035 1.079l.002.001a2.14 2.14 0 01-1.471 3.38c-.538.03-1.075.12-1.612.11-.512 0-.727.2-.555.68a2.06 2.06 0 01-.889 2.48c-.256.209-.57.335-.9.36-2.907.03-5.815.06-8.722.01a2.2 2.2 0 01-1.965-2.64c.06-.249.108-.509.168-.809h-.003zm42.845-52.76c1.859-.13 3.72-.23 5.575-.41a2.668 2.668 0 012.863 1.59c.407 1.49-.883 2.69-2.681 2.57-1.819-.13-3.644-.16-5.464-.28-2.27-.16-4.537-.37-6.806-.55a.121.121 0 01-.062-.01 1.475 1.475 0 01-1.387-1.2 1.57 1.57 0 011.39-1.3c.9-.13 1.81-.21 2.718-.28.641-.04 1.285-.03 1.927-.06s1.282-.09 1.922-.14c.005.03.006.05.008.07h-.003zM4.07 47.41c-.746 0-1.5.05-2.235-.01a2.113 2.113 0 01-1.838-2.02 2.08 2.08 0 012.045-1.94c1.824.04 3.646.14 5.469.22 1.2.06 2.4.129 3.6.21 1.323.09 2.646.17 3.965.3a1.37 1.37 0 011.358 1.34 1.273 1.273 0 01-1.332 1.14c-2.267.22-4.536.41-6.808.57-1.403.1-2.813.129-4.221.189l-.003.001zm43.354-43.2c-.142 3.03-.284 6.3-.46 9.57a6.608 6.608 0 01-.326 1.7c-.114.58-.638.986-1.228.95a1.216 1.216 0 01-1.1-1.11 25.45 25.45 0 01-.38-2.95 586.13 586.13 0 01-.441-9.68A2.706 2.706 0 0143.98.74a1.716 1.716 0 011.86-.67 1.834 1.834 0 011.557 1.49c.069.882.079 1.767.03 2.65h-.003zM14.849 77.94a2.231 2.231 0 01-1.878-1.32 1.413 1.413 0 01.271-1.81c.79-.85 1.647-1.64 2.507-2.42 2.046-1.85 4.103-3.69 6.171-5.52.446-.402.917-.776 1.41-1.12a1.206 1.206 0 011.686 0 1.07 1.07 0 01.083 1.66c-.69.93-1.474 1.79-2.249 2.65a1057.02 1057.02 0 01-6.348 7.02 2.061 2.061 0 01-1.65.86h-.003zm9.019-52.48a7.236 7.236 0 01-1.032-.62c-2.38-2.08-4.75-4.167-7.11-6.26a54.278 54.278 0 01-2.678-2.51 1.957 1.957 0 012.661-2.83c1.054.99 2.025 2.08 3 3.16a513.75 513.75 0 015.634 6.32c.302.366.529.787.67 1.24a1.233 1.233 0 01-1.142 1.5h-.003zm52 52.51a2.699 2.699 0 01-1.965-1.02c-1.924-2.14-3.844-4.287-5.76-6.44-.894-1.01-1.809-2.01-2.62-3.08a1.723 1.723 0 01-.193-1.31 1.05 1.05 0 011.582-.55c.554.321 1.073.7 1.547 1.13 2.635 2.34 5.259 4.693 7.872 7.06a8.51 8.51 0 011.046 1.15c.486.487.575 1.244.215 1.83a2.451 2.451 0 01-1.726 1.23h.002zm2.03-63.06a5.895 5.895 0 01-.879 1.34c-1.484 1.42-3.024 2.78-4.565 4.14-1.7 1.49-3.41 2.96-5.128 4.43-.362.38-.95.432-1.373.12a1.157 1.157 0 01-.578-1.27c.083-.297.233-.571.44-.8 1.7-1.95 3.426-3.89 5.143-5.83.934-1.06 1.862-2.12 2.809-3.17.289-.296.594-.577.913-.84a1.619 1.619 0 012-.26 2.253 2.253 0 011.216 2.139h.002zm-34.2 62.72c-.411-.01-.821-.044-1.228-.1a.508.508 0 01-.28-.38c-.1-1.11-.192-2.23-.256-3.35-.151-2.61-.281-5.21-.428-7.82-.137-2.45-.267-4.89-.431-7.33-.15-2.23-.358-4.46-.5-6.69a.646.646 0 00-.567-.66 9.301 9.301 0 01-4.506-2.97 5.098 5.098 0 01-1.16-4.64 3.739 3.739 0 017.281.37c.217 1.81.322 3.63.428 5.45a.748.748 0 00.732.88c1.785.271 3.604.24 5.379-.09a.735.735 0 00.316-.55c.122-1.76.226-3.52.311-5.28A3.876 3.876 0 0152.948 41a3.828 3.828 0 013.178 5.36c-.879 2.47-2.817 3.86-5.16 4.79a2.597 2.597 0 01-.47.15.729.729 0 00-.6.838v.001c-.139 2.67-.332 5.33-.5 8-.119 1.97-.216 3.94-.331 5.9-.127 2.16-.265 4.31-.394 6.46-.093 1.55-.179 3.11-.27 4.66-.006.1-.033.2-.059.35-.47.04-.937.08-1.493.13.5-8.58 1-17.09 1.49-25.58h-6.1c.485 8.461.969 16.961 1.459 25.571zm6.354-27.94a3.694 3.694 0 001.013-.2 15.297 15.297 0 002.414-1.61 3.97 3.97 0 001.379-3.45 2.121 2.121 0 00-1.923-1.97 2.088 2.088 0 00-2.405 1.33 6.307 6.307 0 00-.238 1.58c-.095 1.4-.154 2.8-.24 4.32zm-9.555-.06c-.121-1.83-.2-3.57-.364-5.3a2.1 2.1 0 00-1.817-1.87 2.169 2.169 0 00-2.284 1.16 4.471 4.471 0 00-.1 2.25c.528 2.05 2.18 3.02 4.008 3.75.184.031.372.034.557.01z"/></svg>