<svg xmlns="http://www.w3.org/2000/svg" width="30.031" height="30.78"><path fill-rule="evenodd" clip-rule="evenodd" fill="#41BFD8" d="M29.881 30.79c-.234-.11-.427-.19-.618-.29l-2.349-1.14-3.13-1.53-1.407-.69a.226.226 0 00-.178.02c-.752.395-1.536.726-2.343.99-.5.167-1.01.304-1.526.41-.706.13-1.422.21-2.135.31-.2.017-.4.023-.6.02-.67.025-1.341.015-2.01-.03a6.623 6.623 0 01-.767-.1 16.471 16.471 0 01-3.017-.74 15.22 15.22 0 01-3.137-1.54 14.214 14.214 0 01-1.9-1.45 14.075 14.075 0 01-2.231-2.52c-.56-.784-1.03-1.63-1.4-2.52a14.149 14.149 0 01-.655-1.92 14.353 14.353 0 01-.477-3.29c-.021-.742.02-1.485.122-2.22a15.76 15.76 0 01.445-2.05 13.4 13.4 0 011.21-2.91c.431-.765.931-1.488 1.495-2.16a15.141 15.141 0 012.834-2.63c.81-.587 1.684-1.08 2.605-1.47A18.57 18.57 0 0110.72.6a11.575 11.575 0 012.257-.46c.476-.04.953-.07 1.43-.11.266-.03.533-.04.8-.03a15.72 15.72 0 012.372.22c.66.15 1.33.26 1.977.45.71.2 1.398.471 2.053.81.62.33 1.251.65 1.843 1.03 1.156.753 2.2 1.665 3.1 2.71a14.11 14.11 0 011.543 2.17 11.67 11.67 0 011 2.11c.2.61.407 1.23.566 1.85.119.47.171.95.244 1.43.135.971.152 1.955.049 2.93a14.11 14.11 0 01-.622 3.03 15.183 15.183 0 01-1.742 3.59c-.131.2-.279.4-.427.59a.241.241 0 00-.044.27c.459 1.24.912 2.48 1.364 3.71l.931 2.57c.142.38.29.77.434 1.16.015.052.026.106.033.16zm-2.084-2.33a.206.206 0 000-.07c-.195-.53-.391-1.07-.587-1.6-.246-.67-.491-1.35-.737-2.02-.213-.58-.423-1.16-.641-1.74a.263.263 0 01.035-.29 17.795 17.795 0 001.447-2.18c.502-.918.884-1.896 1.137-2.91.132-.53.218-1.08.3-1.63.103-.692.136-1.392.1-2.09a12.814 12.814 0 00-.4-2.64c-.231-.93-.57-1.829-1.011-2.68a13.862 13.862 0 00-2.03-2.93 13.548 13.548 0 00-2.664-2.26 13.124 13.124 0 00-2.918-1.43 12.835 12.835 0 00-2.653-.67c-.682-.08-1.368-.14-2.054-.17a8.77 8.77 0 00-1.255.06 10.86 10.86 0 00-1.393.16c-.692.15-1.377.34-2.056.54a11.22 11.22 0 00-2.273.99 13.602 13.602 0 00-3.257 2.46c-.863.884-1.6 1.883-2.188 2.97a8.985 8.985 0 00-.53 1.09c-.209.53-.383 1.08-.558 1.63a5.316 5.316 0 00-.224.87c-.104.592-.177 1.19-.217 1.79-.039.7-.029 1.402.031 2.1.061.62.235 1.23.357 1.85.15.664.369 1.311.651 1.93.407.935.924 1.818 1.54 2.63.428.587.909 1.132 1.437 1.63a12.21 12.21 0 002.575 1.94c.63.33 1.264.67 1.92.95.54.211 1.091.391 1.651.54.368.1.741.18 1.118.24.243.052.488.088.735.11.623.081 1.249.128 1.877.14a19.86 19.86 0 002.039-.16 12.165 12.165 0 002.308-.53c.894-.281 1.754-.66 2.564-1.13a.528.528 0 01.567-.01c.892.45 1.795.88 2.694 1.31.8.39 1.6.79 2.406 1.18a.65.65 0 00.157.03zm-15.43-16.75v-.35h4.231v.2c0 2.533.002 5.067.006 7.6.01.262.039.523.088.78a.704.704 0 00.569.61c.177.04.358.07.55.11v.33h-5.44v-.31c.235-.07.471-.12.692-.2a.676.676 0 00.429-.57c.036-.215.06-.432.07-.65v-6.22a4.028 4.028 0 00-.072-.6.764.764 0 00-.691-.66c-.143-.03-.282-.04-.432-.07zm2.717-1.83a1.613 1.613 0 111.648-1.911 1.561 1.561 0 01-1.008 1.76c-.206.071-.427.101-.64.151z"/></svg>