<svg version="1.0" xmlns="http://www.w3.org/2000/svg" width="74.281" height="65.03"><path fill-rule="evenodd" clip-rule="evenodd" fill="#41BFD8" d="M-.007 3.07c.047-.19.088-.38.142-.56A3.483 3.483 0 013.466 0c5.035 0 10.07.003 15.105.01C24.434.01 30.296.007 36.159 0 41.3 0 46.441-.01 51.582.01a5.651 5.651 0 015.284 3.21c.624 1.19 1.216 2.38 1.815 3.58a.264.264 0 00.28.17c.782-.01 1.564.02 2.344-.01a3.579 3.579 0 013.672 3.66c-.022 12.45-.026 24.896-.011 37.34v.32c.088-.08.143-.13.195-.18l2.392-2.4a1.156 1.156 0 011.777-.01c1.505 1.5 3.009 3.003 4.512 4.51a1.164 1.164 0 010 1.78c-4.211 4.21-8.422 8.423-12.633 12.64a1.167 1.167 0 01-1.781-.01c-2.893-2.89-5.785-5.783-8.676-8.68a.584.584 0 00-.461-.2c-15.577.01-31.153.013-46.73.01a3.5 3.5 0 01-3.454-2.6c-.043-.16-.078-.31-.117-.47V3.07h.003zm48.248 50.34c-.5-.5-.959-.95-1.416-1.41a1.166 1.166 0 010-1.81l4.5-4.5a1.163 1.163 0 011.777 0c.77.78 1.54 1.55 2.309 2.32.079.08.149.17.223.26.019-.01.038-.03.058-.04v-.26V33.8a1.177 1.177 0 011.277-1.29h5.681V10.58a1.175 1.175 0 00-1.293-1.29H28.195a5.788 5.788 0 01-5.034-2.68c-.628-.91-1.239-1.85-1.874-2.76a3.36 3.36 0 00-2.89-1.52c-4.927-.009-9.854-.013-14.781-.01a1.18 1.18 0 00-1.3 1.31v48.49a1.172 1.172 0 001.287 1.29h44.641-.003zm1.03-2.33c3.688 3.69 7.386 7.39 11.05 11.06C64 58.46 67.699 54.76 71.354 51.1l-2.968-2.97c-.031.03-.085.1-.145.16l-3.555 3.57a1.18 1.18 0 01-1.092.37 1.162 1.162 0 01-.948-1.25V34.85h-4.641v16.13c.046.51-.249.99-.725 1.18a1.173 1.173 0 01-1.347-.33 623.78 623.78 0 00-3.539-3.55c-.058-.06-.12-.12-.168-.16l-2.955 2.96zM41.107 6.97c-.574-1.09-1.068-2.17-1.688-3.17A3.1 3.1 0 0036.7 2.33c-4.485-.02-8.969-.01-13.454-.01a1.105 1.105 0 00-.172.02c.7 1.03 1.376 2.04 2.064 3.05a3.445 3.445 0 002.982 1.58h12.987zm15.08 0c-.564-1.08-1.05-2.14-1.659-3.13a3.169 3.169 0 00-2.839-1.51c-3.394-.01-6.788-.013-10.182-.01h-.257c.182.31.361.58.508.87.611 1.18 1.216 2.37 1.813 3.57a.33.33 0 00.35.21h12.266zM35.96 16.26h13.851a1.16 1.16 0 11.127 2.319H22.144a1.168 1.168 0 01-1.267-1.18 1.156 1.156 0 011.093-1.14c.085-.005.171-.005.256 0l13.734.001zm.011 9.29h13.828a1.158 1.158 0 011.241 1.069c.003.034.004.068.003.101a1.172 1.172 0 01-1.093 1.15H22.156a1.164 1.164 0 11-.2-2.32c.085-.005.171-.005.256 0h13.759zm-4.626 9.29c3.07 0 6.14-.01 9.21 0a1.157 1.157 0 01.122 2.311.882.882 0 01-.162.01h-18.4a1.165 1.165 0 01-1.239-1.086c-.002-.024-.002-.049-.003-.073a1.154 1.154 0 011.119-1.16c.355-.01.711 0 1.067 0h8.29l-.004-.002zM13.892 18.58h-1.113a1.167 1.167 0 01-1.184-1.15v-.02a1.153 1.153 0 011.156-1.15h.017c.765-.01 1.53-.01 2.295 0a1.16 1.16 0 11-.012 2.32h-1.159zm.031 9.29h-1.159a1.163 1.163 0 01-1.169-1.157v-.003a1.148 1.148 0 011.136-1.16h.03c.772-.01 1.545-.01 2.318 0a1.16 1.16 0 110 2.32H13.92h.003zm-.008 9.29h-1.136a1.166 1.166 0 01-1.184-1.148v-.022a1.153 1.153 0 011.156-1.15h.017c.765-.01 1.53-.01 2.295 0a1.153 1.153 0 011.173 1.133v.017a1.168 1.168 0 01-1.166 1.17H13.915zM5.794 48.75v-1.14a1.159 1.159 0 012.317-.01c.008.78.008 1.56 0 2.34a1.159 1.159 0 01-2.317-.01c-.004-.39 0-.79 0-1.18zm8.121.02v1.14a1.16 1.16 0 11-2.319 0v-2.29a1.159 1.159 0 112.317-.01c.007.39.002.78.002 1.16zm3.482 0v-1.14a1.16 1.16 0 012.318-.01c.006.77.006 1.53 0 2.3a1.16 1.16 0 01-2.318-.01c-.003-.38 0-.76 0-1.14zm8.121-.01v1.16a1.16 1.16 0 01-2.318.01c-.006-.78-.006-1.55 0-2.32a1.159 1.159 0 012.317-.01c.006.39.001.77.001 1.16zm3.481.01v-1.14a1.16 1.16 0 012.318-.01v2.3a1.16 1.16 0 01-2.318-.01c-.003-.38 0-.76 0-1.14zm5.8-.02v-1.13a1.16 1.16 0 012.318-.01c.006.78.007 1.55 0 2.32a1.16 1.16 0 01-2.318-.02c-.002-.38.001-.77 0-1.16zm8.122.02v1.14a1.16 1.16 0 11-2.32.046l.001-.066v-2.25a1.16 1.16 0 112.319-.01c.004.38.001.76 0 1.14z"/></svg>