<svg version="1.0" xmlns="http://www.w3.org/2000/svg" width="67.56" height="65"><path fill-rule="evenodd" clip-rule="evenodd" fill="#41BFD8" d="M47.25 13.43a24.823 24.823 0 01-5.8-1.07 22.157 22.157 0 01-7.09-3.74.778.778 0 00-1.16.01 22.48 22.48 0 01-11.82 4.7l-.87.09-.21.04c-.01.17-.03.35-.03.53 0 .88.01 1.77 0 2.66A1.152 1.152 0 0119 17.93c-3.27.01-6.55.01-9.82 0a1.158 1.158 0 01-1.3-1.3c0-1.33-.01-2.67.01-4a.68.68 0 00-.42-.71 3.3 3.3 0 01-1.63-4.13 3.4 3.4 0 013.88-2.13 3.36 3.36 0 012.65 3.64 3.175 3.175 0 01-1.82 2.62.662.662 0 00-.42.71c.02 1 .01 2 .01 3.03h7.88c0-1.05-.01-2.07 0-3.09a1.17 1.17 0 011.32-1.37 20.705 20.705 0 0013.3-4.98c1-.85 1.3-.85 2.3-.01a20.67 20.67 0 0013.29 4.99 1.174 1.174 0 011.31 1.34v3.1h7.84c.01-.13.04-.27.04-.42 0-.55-.03-1.09 0-1.64a1.832 1.832 0 00-.94-2.03 3.089 3.089 0 01-1.08-3.83 3.38 3.38 0 016.47.63 3.307 3.307 0 01-1.76 3.56.716.716 0 00-.45.75c.03 1.28.01 2.56.01 3.84a1.2 1.2 0 01-1.42 1.43h-8.69v5.56c.15.01.33.04.51.04 1.6 0 3.19-.01 4.79 0a.674.674 0 00.71-.42 3.33 3.33 0 014.11-1.63 3.358 3.358 0 01-1.18 6.529 3.2 3.2 0 01-2.91-1.79.761.761 0 00-.79-.46c-1.74.02-3.47.02-5.2.01a.437.437 0 00-.53.39 16.795 16.795 0 01-2.78 6 1.542 1.542 0 00-.16.3c.22.01.38.03.55.03 1.63 0 3.26 0 4.89.01a1.157 1.157 0 011.34 1.34c.01 1.22.01 2.43.01 3.64v.62c.79 0 1.52.02 2.25-.02a.82.82 0 00.39-.41 3.25 3.25 0 013.22-1.79 3.158 3.158 0 012.89 2.11c.151.417.229.856.23 1.3a1.065 1.065 0 01-1.07 1.04 1.118 1.118 0 01-1.14-.91c-.03-.15-.02-.31-.06-.46a1.116 1.116 0 10-1.31 1.35c.14.03.28.02.41.05.564.102.963.608.93 1.18a1.1 1.1 0 01-1.13 1.03 3.241 3.241 0 01-2.95-1.81.694.694 0 00-.72-.43c-.96.02-1.92.02-2.88.01a1.155 1.155 0 01-1.32-1.319c-.01-1.4 0-2.8 0-4.24a4.157 4.157 0 00-.46-.04c-1.92 0-3.85-.01-5.77.02a1.291 1.291 0 00-.8.33c-2.96 2.69-5.9 5.41-8.85 8.12a1.226 1.226 0 01-2-.03c-2.95-2.71-5.903-5.417-8.86-8.12a1.07 1.07 0 00-.65-.31c-2.01-.02-4.02-.01-6.02-.01a3.33 3.33 0 00-.36.04v3.28c0 .36.01.72 0 1.08a1.131 1.131 0 01-1.19 1.2c-.99.01-1.99.02-2.98 0a.713.713 0 00-.75.45 3.349 3.349 0 01-3.53 1.75 3.41 3.41 0 01-2.8-2.95 3.363 3.363 0 012.09-3.48 3.32 3.32 0 014.2 1.48.837.837 0 00.91.52c.58-.04 1.16-.01 1.8-.01V36c0-.74-.01-1.47 0-2.21a1.143 1.143 0 011.29-1.29c1.63-.01 3.26-.01 4.89-.01h.67c-.24-.35-.42-.61-.59-.87a16.257 16.257 0 01-2.36-5.31.611.611 0 00-.73-.55c-1.71.03-3.43.02-5.14 0a.655.655 0 00-.68.41 3.36 3.36 0 11-3.83-4.77 3.384 3.384 0 013.86 1.74.73.73 0 00.51.37c1.75.02 3.5.01 5.25.01.078-.007.155-.02.23-.04 0-.72-.01-1.43.01-2.14a1.108 1.108 0 011-1.16 1.16 1.16 0 011.26 1.23c.051 1.394.188 2.783.41 4.16a13.117 13.117 0 003.88 6.97c2.96 2.82 6 5.55 9.01 8.32.066.055.136.105.21.15.12-.1.26-.2.38-.31 2.72-2.5 5.43-5.01 8.16-7.5a14.696 14.696 0 004.76-8.62c.12-.69.18-1.389.18-2.09.02-2.87.01-5.74.01-8.6 0-.14-.02-.27-.03-.46zM9.02 7.85a1.115 1.115 0 101.11 1.12v-.01a1.135 1.135 0 00-1.11-1.11zm-.03 15.69a1.133 1.133 0 00-1.1 1.12 1.12 1.12 0 102.24-.04 1.128 1.128 0 00-1.14-1.08zm49.57 0a1.11 1.11 0 10-.019 2.221 1.11 1.11 0 00.019-2.221zM9.02 38.11a1.111 1.111 0 00-1.13 1.08 1.12 1.12 0 002.24.03 1.114 1.114 0 00-1.11-1.11zm49.54-28.03a1.115 1.115 0 10-1.13-1.099V9a1.12 1.12 0 001.13 1.08zm-.28 52.67a3.232 3.232 0 00-3-2.23c-.56-.02-1.13-.01-1.69-.01-13.64 0-27.277-.003-40.91-.01a3.5 3.5 0 00-3.37 2 .954.954 0 00-.02.22c.2.01.39.03.59.03 2.98 0 5.97-.01 8.95 0 .24-.011.48.02.71.09.489.167.791.658.72 1.17a1.156 1.156 0 01-.99.97 2.805 2.805 0 01-.41.01H8.21a1.221 1.221 0 01-1.44-1.51 5.6 5.6 0 015.3-5.19c.96-.05 1.92-.01 2.88-.03a1.25 1.25 0 00.66-.2 12.573 12.573 0 004.53-8.29 3.53 3.53 0 000-.46h-.62c-4.53 0-9.057-.003-13.58-.01A5.632 5.632 0 010 43.381c0-2.47.01-4.95 0-7.43a1.128 1.128 0 01.68-1.11.927.927 0 011.14.17c.249.288.396.65.42 1.03.04 2.46.02 4.92.02 7.38a3.373 3.373 0 003.66 3.641h55.73a3.372 3.372 0 003.64-3.65v-21.62c0-.19 0-.37.01-.56a1.121 1.121 0 012.24 0c.02.2.01.41.01.61v21.67a5.588 5.588 0 01-4.83 5.73c-.375.05-.752.07-1.13.06-4.51.01-9.023.014-13.54.01h-.73c.14.76.23 1.47.41 2.15a12.475 12.475 0 004.12 6.51c.226.17.498.268.78.28 1.2.07 2.42-.02 3.59.15a5.506 5.506 0 014.56 5.11 1.207 1.207 0 01-1.41 1.48h-28.4c-2.39 0-4.77 0-7.16.01a1.161 1.161 0 01-1.15-.62 1.108 1.108 0 011.05-1.63c1.13-.02 2.27-.01 3.4-.01 10.15 0 20.303.003 30.46.01l.71-.002zm-39.56-4.54h30.07c-.06-.1-.08-.15-.11-.19a14.878 14.878 0 01-3.56-8.29.422.422 0 00-.53-.43c-7.2.01-14.403.01-21.61 0a.477.477 0 00-.57.51 30.623 30.623 0 01-.73 3.28 14.336 14.336 0 01-2.96 5.12zM33.81 0h27.94a5.642 5.642 0 015.79 5.65c.02 3.65.01 7.3.01 10.96a1.139 1.139 0 11-2.25.01c-.01-3.58 0-7.17-.01-10.75a3.357 3.357 0 00-3.62-3.62c-11.74-.01-23.473-.01-35.2 0H5.78A3.342 3.342 0 002.32 5c-.05.32-.07.645-.06.97v25c.012.221-.001.442-.04.66a1.12 1.12 0 01-2.21-.18C0 31.33 0 31.209 0 31.09c0-8.45.003-16.9.01-25.35A5.5 5.5 0 013.85.31a7.21 7.21 0 012.12-.3C15.25-.01 24.53-.013 33.81 0zm-9.17 20.43c.091 1.478.258 2.95.5 4.41a9.34 9.34 0 002.99 4.92c1.76 1.61 3.53 3.23 5.28 4.86a.453.453 0 00.76-.01c1.74-1.62 3.5-3.22 5.24-4.83a10.001 10.001 0 003.36-7.64c.01-.3-.01-.59.02-.88a1.12 1.12 0 112.24.03 12.332 12.332 0 01-3.84 9.89c-2.12 2.02-4.29 3.98-6.45 5.95a1.193 1.193 0 01-1.89.01c-2.18-2-4.39-3.97-6.53-6.02a11.925 11.925 0 01-3.79-8.78c-.03-1.91-.02-3.82-.01-5.73a1.194 1.194 0 011.13-1.34 24.22 24.22 0 009.15-3.62 1.577 1.577 0 011.94-.02 25.14 25.14 0 009.09 3.63c.119.016.236.043.35.08.577.146.941.715.83 1.3a1.08 1.08 0 01-1.253.872l-.007-.001c-.93-.16-1.85-.36-2.76-.61a26.39 26.39 0 01-6.8-2.96.645.645 0 00-.79 0 26.227 26.227 0 01-8.2 3.3.471.471 0 00-.43.569c.02.87 0 1.74 0 2.61-.04 0-.09.01-.13.01zm7.95 4.78c1.08-1.29 2.13-2.54 3.18-3.8.51-.6 1.01-1.21 1.52-1.8a1.126 1.126 0 011.66-.29 1.107 1.107 0 01.07 1.71c-1.79 2.16-3.59 4.3-5.39 6.45a1.16 1.16 0 01-1.9.09 914.85 914.85 0 01-3.13-3.11 1.136 1.136 0 111.59-1.599c.67.64 1.31 1.3 1.97 1.95.13.129.27.249.43.399z"/></svg>