<svg version="1.0" xmlns="http://www.w3.org/2000/svg" width="63.938" height="64.97"><path fill-rule="evenodd" clip-rule="evenodd" fill="#41BFD8" d="M63.923 33.57a3.255 3.255 0 00-3.25-3.25h-19.5V19.3a3.249 3.249 0 10-2.167 0v11.02H36.84a3.256 3.256 0 00-3.25 3.25v6.5a3.212 3.212 0 00.831 2.16 3.26 3.26 0 00-.831 2.17v5.41H18.242a3.251 3.251 0 100 2.17H33.78c.14.399.359.767.644 1.08a3.26 3.26 0 00-.831 2.17v6.5a3.263 3.263 0 003.25 3.25h23.826a3.261 3.261 0 003.25-3.25v-6.5a3.26 3.26 0 00-.83-2.17 3.216 3.216 0 00.83-2.16v-6.5a3.26 3.26 0 00-.83-2.17 3.216 3.216 0 00.83-2.16v-6.5h.004zm-23.83-18.41a1.08 1.08 0 11-.006 0h.006zM35.76 33.57c0-.596.483-1.08 1.08-1.08h23.829a1.079 1.079 0 011.083 1.075v6.505a1.078 1.078 0 01-1.078 1.08H36.839a1.08 1.08 0 01-1.083-1.077V33.57h.004zm26 10.83v6.5a1.078 1.078 0 01-1.078 1.08H36.847a1.08 1.08 0 01-1.083-1.077V44.4c0-.596.483-1.08 1.08-1.08h23.825a1.079 1.079 0 011.087 1.071v.009h.004zm-46.577 7.58a1.085 1.085 0 111.083-1.087v.007a1.078 1.078 0 01-1.078 1.08h-.009.004zm46.577 9.75a1.078 1.078 0 01-1.078 1.08H36.847a1.08 1.08 0 01-1.083-1.077V55.23c0-.596.483-1.08 1.08-1.08h23.825a1.079 1.079 0 011.083 1.075v6.505h.008zM40.097 35.74a1.08 1.08 0 11-.006 0h.006zm5.416-1.09h2.166v4.33h-2.17v-4.33h.004zm3.249 0h2.167v4.33h-2.167v-4.33zm3.25 0h2.166v4.33h-2.166v-4.33zM40.097 46.57a1.08 1.08 0 11-.006 0h.006zm5.416-1.09h2.166v4.33h-2.17v-4.33h.004zm3.249 0h2.167v4.33h-2.167v-4.33zm3.25 0h2.166v4.33h-2.166v-4.33zM40.097 57.4a1.08 1.08 0 11-.006 0h.006zm5.416-1.09h2.166v4.33h-2.17v-4.33h.004zm3.249 0h2.167v4.33h-2.167v-4.33zm3.25 0h2.166v4.33h-2.166v-4.33zM3.268 63.89h23.83a3.25 3.25 0 003.25-3.248V58.48a1.078 1.078 0 00-1.078-1.08H27.098v-3.25h-2.166v3.25h-19.5V45.48a1.081 1.081 0 011.082-1.08h17.333a1.08 1.08 0 011.083 1.077v2.173h2.166v-2.17a3.261 3.261 0 00-3.249-3.25H6.514a3.261 3.261 0 00-3.25 3.25V57.4H1.098a1.079 1.079 0 00-1.083 1.075v2.165a3.248 3.248 0 003.246 3.25h.008-.001zm-1.083-4.33h9.3l.766.77c.205.2.48.311.766.31h4.333c.286.001.561-.11.766-.31l.766-.77h9.3v1.08c.001.6-.483 1.087-1.083 1.09H3.269a1.088 1.088 0 01-1.083-1.09v-1.08h-.001zM51.469 9.74h-.632a6.5 6.5 0 00-6.409-5.41h-1.459a6.5 6.5 0 00-12.626 2.16v1.09h-.542a8.12 8.12 0 00-.018 16.24H36.841v-2.16H29.8a5.96 5.96 0 010-11.919h5.958V7.58h-3.25V6.49a4.333 4.333 0 018.666 0v3.25h2.166V6.49h1.083a4.35 4.35 0 014.333 4.34 1.086 1.086 0 001.083 1.08h1.629a4.875 4.875 0 010 9.75h-8.124v2.16h8.124a7.04 7.04 0 00.001-14.08z"/></svg>