<svg version="1.0" xmlns="http://www.w3.org/2000/svg" width="74.25" height="70"><path fill-rule="evenodd" clip-rule="evenodd" fill="#FFF" d="M74.256 17.75V70H-.006V17.75c.143 0 .285.02.428.02h16.209c.588 0 1.176 0 1.763.01a.264.264 0 00.311-.27c.289-1.32.512-2.67.923-3.95C22.548 4.44 30.522.58 37.106.06c2.404-.185 4.82.125 7.1.91a16.707 16.707 0 019.273 7.08 15.835 15.835 0 012.334 7.65c.037.68.006 1.36.006 2.07h18.074c.119 0 .241-.02.363-.02zm-32.969 6.83a13.054 13.054 0 01-2.714 2.37 11.018 11.018 0 01-7.143 2 5.674 5.674 0 01-4.378-2.54 7.718 7.718 0 01-.768-7.65 15.274 15.274 0 019.05-8.65 14.572 14.572 0 019.581-.42.276.276 0 01.244.38c-.046.22-.075.45-.108.67-.47 3.14-.933 6.29-1.414 9.44a5.563 5.563 0 00-.109 2 5.054 5.054 0 004 3.91 2.981 2.981 0 003.225-1.23c.346-.467.627-.978.837-1.52a18.562 18.562 0 001-9.19 11.774 11.774 0 00-6.323-9.13 16.568 16.568 0 00-12.532-1.31 15.467 15.467 0 00-9.716 7.33 18.44 18.44 0 00-2.24 6.73 21.634 21.634 0 00-.137 6.04 12.44 12.44 0 005.962 9.18 15.487 15.487 0 007.3 2.35c2.042.189 4.1-.116 6-.89.723-.31 1.394-.73 2.116-1.12.6.75 1.231 1.53 1.873 2.33a10.149 10.149 0 01-2.887 1.57 16.93 16.93 0 01-7.926.74 19.66 19.66 0 01-9.1-3.46 14.928 14.928 0 01-6.541-11.93c-.028-.57 0-1.14 0-1.72h-13a314232.7 314232.7 0 0131.7 31.38C47.69 41.8 58.265 31.334 68.864 20.84H55.865a.562.562 0 00-.183 0 .496.496 0 00-.234.2c-.1.36-.164.74-.262 1.1a10.865 10.865 0 01-2.49 4.79 6.502 6.502 0 01-4.6 2.21 6.366 6.366 0 01-4.3-1.52 9.288 9.288 0 01-2.509-3.04zM26.449 46.09L5.423 66.91H68.87c-7.005-6.94-14.021-13.884-21.046-20.83l-10.7 10.58-10.675-10.57zM3.102 64.63c6.992-6.933 13.98-13.854 20.965-20.76L3.102 23.12v41.51zm47.042-20.77c6.996 6.92 13.994 13.847 20.994 20.78V23.08c-7.016 6.94-14.014 13.867-20.994 20.78zM41.71 12.18c-.122-.01-.222-.03-.322-.03a12.738 12.738 0 00-5.487 1.01 12.588 12.588 0 00-6.416 5.55 5.525 5.525 0 00-.322 5.18 3.629 3.629 0 002.7 2.29 5.273 5.273 0 002.911-.33 9.857 9.857 0 004.832-4.12 6.465 6.465 0 001.086-2.66c.19-1.46.426-2.91.643-4.36.123-.84.247-1.67.375-2.53z"/></svg>