<svg version="1.0" xmlns="http://www.w3.org/2000/svg" width="28" height="19.719"><path fill-rule="evenodd" clip-rule="evenodd" fill="#39BDD7" d="M13.977 19.726H2.805a2.75 2.75 0 01-1.76-.545 2.665 2.665 0 01-1.04-2.22V4.535c0-.605-.007-1.21 0-1.815A2.622 2.622 0 011.544.234a2.863 2.863 0 011.3-.242h22.392a2.641 2.641 0 012.765 2.775v14.218a2.645 2.645 0 01-1.041 2.2 2.751 2.751 0 01-1.761.544c-3.741-.003-7.482-.004-11.222-.003zm-3.432-9.479l-2.376 1.577-6.231 4.134a.363.363 0 00-.176.186c-.026.382-.018.765.023 1.145a.87.87 0 001.018.684h22.391c.076 0 .153 0 .229-.007a.866.866 0 00.822-.856c.008-.222-.015-.446.007-.666a.476.476 0 00-.258-.5 2044.057 2044.057 0 01-7.845-5.186l-.731-.48c-.384.369-.751.726-1.122 1.079a3.3 3.3 0 01-4.582.012c-.39-.363-.77-.738-1.169-1.125v.003zm13.172-8.483H4.301c.069.073.113.122.16.168l8.385 8.1c.125.124.265.231.418.318a1.57 1.57 0 001.923-.347l7.032-6.789c.488-.47.976-.947 1.498-1.45zm2.533 12.257v-.3V2.788a.88.88 0 00-.008-.251c-.056-.18-.131-.354-.215-.573l-7.314 7.063 7.537 4.994zm-24.5-.043L9.25 9 2.017 2.013a.908.908 0 00-.271.743v11.222h.004z"/></svg>