<svg xmlns="http://www.w3.org/2000/svg" width="45" height="45"><linearGradient id="a" gradientUnits="userSpaceOnUse" x1="45" y1="45" x2="0" y2="0"><stop offset="0" stop-color="#45a7c3"/><stop offset=".025" stop-color="#45a7c3"/><stop offset=".977" stop-color="#57c7dd"/><stop offset="1" stop-color="#57c7dd"/></linearGradient><path fill="url(#a)" d="M41 0H4a4 4 0 00-4 4v37a4 4 0 004 4h37a4 4 0 004-4V4a4 4 0 00-4-4z"/><g fill="#FFF"><path d="M35.344 31.849l.1-.333 2.042-.328v-2.169l-2.04-.327-.104-.335a6.171 6.171 0 00-.614-1.4l-.187-.315 1.2-1.6-1.638-1.554-1.685 1.145-.3-.156a7.355 7.355 0 00-1.5-.59l-.338-.092-.338-1.936H27.6l-.339 1.936-.337.092a7.298 7.298 0 00-1.5.59l-.3.157-1.686-1.146-1.638 1.554.2.263 1.006 1.336-.186.315a6.065 6.065 0 00-.614 1.4l-.1.332-2.041.327v2.174l2.042.327.1.333c.145.491.351.961.614 1.4l.171.289.015.025-1.2 1.6 1.638 1.553 1.686-1.145.3.157c.477.251.98.449 1.5.589l.337.093.339 1.942h2.342l.338-1.942.338-.093a7.294 7.294 0 001.5-.589l.295-.157 1.686 1.145 1.638-1.553-1.2-1.6.187-.314a6.02 6.02 0 00.613-1.4zm-6.562 2.587a4.638 4.638 0 01-2.743-.892 4.262 4.262 0 01-1.79-3.441 4.318 4.318 0 012.38-3.815 4.65 4.65 0 012.153-.522 4.336 4.336 0 110 8.67zM13.26 15.298c0 2.186-.367 5.133 2.154 7.481l1.675.441c.816-.251 1.7.073 2.16.792 2.232-.392 4.028-2.585 4.535-5.441v-3.273c-1.3-7.35-9.259-7.156-10.524 0z"/><path d="M10.238 19.787a.914.914 0 00.471.6v.651c0 3.213 3.075 3.5 5.992 4.27a.976.976 0 10.214-.913c-2.817-.742-5.262-.9-5.262-3.357v-.711a.92.92 0 00.427-.763c0-4.133.2-4.521-.358-4.969a7.247 7.247 0 012.009-3.874 6.758 6.758 0 019.556-.027l.027.027a7.26 7.26 0 012.01 3.873.922.922 0 00-.359.718v4.252a.94.94 0 00.944.936.892.892 0 00.267-.042l.042-.242h.35v-.001a.974.974 0 00.238-.429 2.35 2.35 0 100-4.7.919.919 0 00-.438-.577c.585-5.79-6.94-10.226-12.389-6.475a7.873 7.873 0 00-2.646 3.117 7.84 7.84 0 00-.512 1.535 6.6 6.6 0 00-.143 1.822.916.916 0 00-.44.579 2.35 2.35 0 100 4.7z"/><path d="M19.82 32.809l-1.392-.223v-4.97l1.392-.223 1.045-.168c.06-.15.125-.299.194-.446l-.368-.489-.2-.264-.246-.326a6.126 6.126 0 01-.9.2 1.924 1.924 0 01-3.075.509c-3.119-.822-3.42-.826-4.236-1.255-3.228 1.6-3.866 4.352-4.442 6.036a1.522 1.522 0 001.447 2c5.278 0 9.12.029 11.937.051-.04-.09-.082-.18-.118-.271l-1.038-.161z"/></g></svg>