<svg xmlns="http://www.w3.org/2000/svg" width="45" height="45"><linearGradient id="a" gradientUnits="userSpaceOnUse" x1="44.62" y1="44.62" x2=".38" y2=".38"><stop offset="0" stop-color="#009cb2"/><stop offset="1" stop-color="#04b4bf"/></linearGradient><path fill="url(#a)" d="M41 0H4a4 4 0 00-4 4v37a4 4 0 004 4h37a4 4 0 004-4V4a4 4 0 00-4-4z"/><g fill="#FFF"><path d="M36.766 27.907c-.97-.368-1.933-.744-2.9-1.112a.362.362 0 00-.23 0l-2.34.9-.528.205 2.672 1.028c-.073.032-.104.048-.137.06a7583.201 7583.201 0 01-10.67 4.1.412.412 0 01-.273 0c-.77-.288-1.535-.585-2.3-.879l-8.3-3.193c-.059-.022-.114-.049-.2-.086l2.659-1.024c-.046-.023-.068-.036-.09-.044-.926-.36-1.854-.716-2.783-1.068a.298.298 0 00-.2 0c-.981.372-1.963.743-2.938 1.132a1.31 1.31 0 00-.476.34c-.102.15-.184.312-.244.483h.004v.368a.399.399 0 01.029.067c.085.355.345.642.689.762l13.781 5.3.327.12h.368c2.397-.918 4.793-1.837 7.189-2.757 2.274-.874 4.545-1.753 6.822-2.619a1.24 1.24 0 00.815-.873v-.368a.13.13 0 01-.024-.037 1.088 1.088 0 00-.722-.805z"/><path d="M37.489 22.287a1.084 1.084 0 00-.722-.805c-.97-.368-1.933-.744-2.9-1.112a.362.362 0 00-.23 0l-2.34.9-.528.2 2.672 1.029c-.073.032-.104.048-.137.06a7583.201 7583.201 0 01-10.67 4.1.425.425 0 01-.273 0c-.77-.288-1.535-.585-2.3-.879l-8.3-3.193c-.059-.022-.114-.049-.2-.087l2.658-1.026c-.046-.023-.068-.036-.09-.045-.928-.357-1.854-.715-2.783-1.067a.311.311 0 00-.2 0c-.981.372-1.963.743-2.938 1.132a1.312 1.312 0 00-.476.341 2.061 2.061 0 00-.244.482v.368c.093.393.379.713.759.849 4.581 1.757 9.161 3.518 13.739 5.283.328.135.695.135 1.023 0l8.161-3.14 5.62-2.164c.35-.121.612-.416.691-.778a.25.25 0 01.027-.051l.005.008v-.368a.098.098 0 01-.024-.037z"/><path d="M8.207 17.089a6405.25 6405.25 0 0113.78 5.3c.328.135.695.135 1.023 0 4.568-1.762 9.139-3.519 13.712-5.272.392-.134.689-.459.787-.862v-.367a.257.257 0 01-.027-.052 1.067 1.067 0 00-.69-.778l-6.02-2.317-7.79-3c-.1-.037-.2-.071-.3-.107h-.368l-12.838 4.94c-.409.157-.816.318-1.227.47a1.083 1.083 0 00-.736.811.13.13 0 01-.024.037v.367a.448.448 0 01.029.068c.084.355.344.642.689.762zm5.551-1.88c2.867-1.102 5.733-2.202 8.6-3.3a.444.444 0 01.288 0c3.549 1.362 7.097 2.726 10.644 4.092.037.014.074.03.137.057-.059.028-.095.049-.134.064a4586.639 4586.639 0 01-10.658 4.1.415.415 0 01-.274 0c-3.533-1.357-7.067-2.714-10.6-4.073-.056-.021-.11-.047-.2-.086l2.197-.854z"/></g></svg>