<svg xmlns="http://www.w3.org/2000/svg" width="45" height="45"><linearGradient id="a" gradientUnits="userSpaceOnUse" x1="45" y1="45" x2="0" y2="0"><stop offset="0" stop-color="#2f6fd0"/><stop offset="1" stop-color="#398cd7"/></linearGradient><path fill="url(#a)" d="M41 0H4a4 4 0 00-4 4v37a4 4 0 004 4h37a4 4 0 004-4V4a4 4 0 00-4-4z"/><g fill="#FFF"><path d="M20.372 19.543c-.075-.325-.163-.641-.222-.974s-.085-.671-.127-1.015a6.078 6.078 0 107.214 6.897c-.331-.044-.662-.081-.992-.144s-.654-.155-.98-.234a4.067 4.067 0 11-4.893-4.53z"/><path d="M33.183 26.539a.145.145 0 01-.079-.157c.056-.256.112-.502.15-.756.055-.357.094-.717.14-1.08-.031-.009-.047-.009-.064-.009-.636-.006-1.273-.01-1.91-.019-.073-.001-.079.032-.087.09-.056.388-.096.78-.18 1.162-.096.434-.232.86-.355 1.289a.112.112 0 00.038.139c.081.062.16.132.239.2l1.348 1.16a1.578 1.578 0 00-.078.152c-.359.617-.719 1.233-1.073 1.852a.123.123 0 01-.18.069c-.623-.224-1.249-.44-1.873-.662a.108.108 0 00-.137.04c-.166.181-.33.362-.5.537a10.2 10.2 0 01-3.849 2.516c-.573.205-1.161.366-1.758.483h-.003a.1.1 0 00-.111.087c-.085.483-.175.965-.264 1.447l-.119.637h-2.439a.575.575 0 01-.02-.071c-.123-.669-.248-1.334-.366-2a.108.108 0 00-.1-.1c-.129-.025-.258-.055-.386-.083a10.164 10.164 0 01-4.352-2.1c-.496-.42-.962-.875-1.394-1.362a.11.11 0 00-.138-.033c-.385.14-.77.277-1.155.41l-.829.293-1.22-2.123a.372.372 0 00.048-.027c.5-.431 1-.864 1.5-1.29a.18.18 0 00.065-.23 10.336 10.336 0 01-.44-5.23c.111-.602.266-1.195.463-1.774a.122.122 0 00-.041-.155c-.318-.27-.633-.542-.948-.814l-.633-.546c.408-.713.814-1.413 1.214-2.113.671.234 1.331.463 1.99.695a.11.11 0 00.14-.033c.158-.173.318-.343.48-.512a9.904 9.904 0 014.226-2.652c.46-.146.933-.249 1.4-.372a.117.117 0 00.117-.1c.077-.446.162-.891.244-1.337l.138-.735h.7l.268-2.025h-2.647c-.007.028-.019.051-.019.074-.145.765-.291 1.532-.432 2.3a.177.177 0 01-.153.176c-.079.017-.157.04-.233.068a12.203 12.203 0 00-4.643 2.764.119.119 0 01-.141.034l-1.347-.476-1-.349-2.9 5.032.071.066c.589.505 1.178 1.009 1.769 1.511.068.045.096.13.069.207a12.126 12.126 0 000 5.632.184.184 0 01-.073.215c-.452.382-.902.768-1.352 1.153l-.484.418 2.9 5.032.125-.041c.733-.26 1.467-.521 2.2-.784a.132.132 0 01.16.032c.183.169.368.338.559.5a11.957 11.957 0 004.352 2.347.126.126 0 01.1.112c.102.562.21 1.124.317 1.685.042.243.095.496.142.743h5.808a.687.687 0 00.019-.075c.143-.781.288-1.563.427-2.345a.132.132 0 01.108-.121 12.058 12.058 0 004.933-2.852.118.118 0 01.144-.021l1.844.65.485.169 2.9-5.033-.179-.157-1.656-1.424z"/><path d="M35.375 14.359a6.197 6.197 0 00-1.044-2.486l1.5-1.5-1.432-1.476-1.522 1.526a5.944 5.944 0 00-2.485-1.051v-2.12h-2.029v2.122a5.993 5.993 0 00-2.5 1.066l-1.486-1.52-1.441 1.442 1.51 1.51a6.11 6.11 0 00-1.056 2.5h-2.128V16.4h2.13a6.144 6.144 0 001.059 2.502l-1.509 1.508 1.437 1.436 1.488-1.522a5.972 5.972 0 002.5 1.061v2.12h2.032v-2.122a5.953 5.953 0 002.49-1.055l1.521 1.522 1.423-1.464-1.5-1.5c.26-.372.481-.769.659-1.186a6.09 6.09 0 00.386-1.3h2.125v-2.041h-2.128zm-5.998 5.089a4.065 4.065 0 11.092-8.131 4.05 4.05 0 013.979 4.119 4.068 4.068 0 01-4.071 4.012zM37.505 16.4h-.002z"/></g></svg>