<svg xmlns="http://www.w3.org/2000/svg" width="45" height="45"><linearGradient id="a" gradientUnits="userSpaceOnUse" x1="45" y1="-322.796" x2="0" y2="-277.796" gradientTransform="matrix(1 0 0 -1 0 -278.335)"><stop offset="0" stop-color="#45a7c3"/><stop offset=".025" stop-color="#45a7c3"/><stop offset=".977" stop-color="#57c7dd"/><stop offset="1" stop-color="#57c7dd"/></linearGradient><path fill="url(#a)" d="M41-.539H4a4 4 0 00-4 4v37a4 4 0 004 4h37a4 4 0 004-4v-37a4 4 0 00-4-4z"/><g fill="#FFF"><path d="M16.852 15.904H8.379a.88.88 0 000 1.758h8.473a.88.88 0 000-1.758zM16.852 23.435H8.379a.88.88 0 000 1.758h8.473a.88.88 0 000-1.758zM27.527 29.341l-3.144 3.144-1.261-1.261a.88.88 0 00-1.243 1.243l1.883 1.883a.877.877 0 001.242 0l3.766-3.766a.88.88 0 00-1.243-1.243zM16.852 30.967H8.379a.88.88 0 000 1.758h8.473a.88.88 0 000-1.758zM37.242 13.606l-4.035-4.035a.877.877 0 00-1.243 0l-4.034 4.035-6.052 6.052a.877.877 0 00-.257.621v4.034a.88.88 0 00.879.879h4.035a.88.88 0 00.621-.257l6.051-6.052 4.035-4.034a.878.878 0 000-1.243zm-11.071 9.829h-2.792v-2.792l5.173-5.173 2.792 2.792-5.173 5.173zm6.415-6.416l-.532-.532-2.259-2.259 2.792-2.792 2.792 2.792-2.793 2.791z"/></g></svg>