<svg xmlns="http://www.w3.org/2000/svg" width="45" height="45"><linearGradient id="a" gradientUnits="userSpaceOnUse" x1="45" y1="45" x2="0" y2="0"><stop offset="0" stop-color="#8048b7"/><stop offset="1" stop-color="#975ac1"/></linearGradient><path fill="url(#a)" d="M41 0H4a4 4 0 00-4 4v37a4 4 0 004 4h37a4 4 0 004-4V4a4 4 0 00-4-4z"/><g fill="#FFF"><path d="M19.007 17.119l.005.002h-.005V19.695l-.006.03a.32.32 0 00.272.362c.295.026.594.007.924.007-.063-.234.177-.572-.273-.543-.317.019-.378-.114-.37-.4.018-.738.006-1.477.006-2.215-.001-.173-.012-.356-.239-.367-.307-.01-.615 0-.92 0v.552h.606v-.002z"/><path d="M34.943 11.377H10.152a2.512 2.512 0 00-2.648 2.65v16.946a2.521 2.521 0 002.649 2.651h12.348a25531.688 25531.688 0 0012.572 0 2.524 2.524 0 002.424-2.62v-2.877c.005-4.721.005-9.443 0-14.164.001-.043.002-.085.001-.128a2.507 2.507 0 00-2.555-2.458zm.824 19.597a.786.786 0 01-.931.921H10.171a.802.802 0 01-.938-.95V14.03a.791.791 0 01.935-.922h12.348c4.123-.001 8.249 0 12.378.003a.772.772 0 01.873.886v16.977z"/><path d="M27.637 20.456v2.218c-.001.181.025.359.237.374.306.022.62.006.92.006v-.553h-.606v-.366-2.218c.001-.179-.019-.354-.243-.364-.298-.011-.598 0-.919 0v.524l.611.044v.335zM29.506 23.665c.719-.008 1.438 0 2.157 0l-.003-.002c.719 0 1.439-.011 2.158 0 .245.004.366-.054.352-.329-.018-.374-.012-.75 0-1.125a.256.256 0 00-.31-.312c-1.459.005-2.918.005-4.377 0a.278.278 0 00-.328.339c.012.364.017.73 0 1.094-.012.268.099.335.351.335zM17.909 17.749a.235.235 0 00.153-.295 13.82 13.82 0 010-1.187c.015-.271-.092-.327-.342-.327-1.093.007-2.187 0-3.28 0l-.001-.001c-1.115 0-2.229.005-3.338.006-.212-.001-.3.053-.292.279.013.416.009.834 0 1.25a.22.22 0 00.259.28c2.239-.008 4.478-.008 6.717 0a.248.248 0 00.124-.005zM23.59 20.728c.911 0 1.831-.006 2.744.002.243.003.365-.048.35-.326-.02-.405-.013-.817 0-1.217a.224.224 0 00-.273-.271h-5.618a.228.228 0 00-.276.274c.012.405.016.817 0 1.217a.264.264 0 00.327.322c.915-.006 1.831 0 2.747 0l-.001-.001zM22.239 27.88v-.379-2.219a.306.306 0 00-.273-.381c-.284-.013-.578 0-.884 0v.528a.846.846 0 00.2.022c.328-.051.427.08.415.41-.025.729-.009 1.459-.009 2.188a.3.3 0 00.239.375c.306.024.614.006.914.006v-.544h-.6l-.002-.006zM20.461 24.266c-2.229.005-4.456.005-6.683 0a.24.24 0 00-.3.287c.013.396.017.787 0 1.187a.274.274 0 00.335.342c1.103-.008 2.21 0 3.31 0l-.001-.001c1.104 0 2.207-.004 3.313.003.222 0 .32-.058.31-.3a18.32 18.32 0 010-1.218.239.239 0 00-.284-.3zM33.807 27.267c-.945.017-1.897.006-2.845.006-2.46.006-4.919.01-7.379 0-.29-.001-.391.084-.372.374.021.333.021.667 0 1a.313.313 0 00.385.4c1.688-.014 3.377-.007 5.065-.007h-.001c1.72.001 3.441-.004 5.16-.001.277.001.371-.085.355-.359a8.866 8.866 0 010-1.031.3.3 0 00-.368-.382z"/></g></svg>