<svg xmlns="http://www.w3.org/2000/svg" width="45" height="45"><linearGradient id="a" gradientUnits="userSpaceOnUse" x1="45" y1="-105.897" x2="0" y2="-60.897" gradientTransform="matrix(1 0 0 -1 0 -60.897)"><stop offset="0" stop-color="#17ac81"/><stop offset="1" stop-color="#1cba98"/></linearGradient><path fill="url(#a)" d="M41 0H4a4 4 0 00-4 4v37a4 4 0 004 4h37a4 4 0 004-4V4a4 4 0 00-4-4z"/><g><g fill="#FFF"><path d="M29.571 25.342c-1.317-1.108-2.897-1.675-4.509-2.171-.083-.026-.221.017-.292.077-.378.321-.743.658-1.164 1.035.124.06.212.122.308.145 1.067.256 2.1.611 3.093 1.074.706.329 1.39.701 1.913 1.302.243.28.398.598.397.982-.003 2.019.001 4.038-.002 6.057-.001.709-.243.947-.948.947-5.795.001-11.589 0-17.384-.001-.74 0-.971-.233-.984-.975l-.001-.19c0-1.82.028-3.64-.014-5.459-.019-.818.318-1.381.941-1.835 1.136-.828 2.442-1.277 3.765-1.684.285-.088.578-.147.865-.229a.309.309 0 00.161-.123c.014-.021-.041-.105-.082-.14-.345-.291-.687-.586-1.046-.858a.474.474 0 00-.357-.08c-.425.12-.843.268-1.261.415-1.078.38-2.109.857-3.017 1.564-.822.641-1.437 1.415-1.443 2.518a364.48 364.48 0 00.006 6.274c.008.67.196 1.31.737 1.778.465.402 1.03.504 1.621.504 2.101.002 4.201-.001 6.302.002 3.739.005 7.478.015 11.218.018 1.546.001 2.407-.869 2.41-2.411.004-1.938-.011-3.875.024-5.812.021-1.13-.413-2.014-1.257-2.724zM19.699 23.079c3.537-.022 6.318-2.908 6.271-6.329.052-3.518-2.874-6.343-6.322-6.331a6.333 6.333 0 00-6.311 6.382c.03 3.452 2.821 6.301 6.362 6.278zm-.036-11.162c2.631-.002 4.81 2.167 4.819 4.793.009 2.671-2.156 4.874-4.795 4.873-2.732-.001-4.899-2.266-4.837-4.849-.044-2.604 2.156-4.816 4.813-4.817z"/><path d="M22.645 10.181c.302.161.595.343.908.48a.558.558 0 00.425-.001c1.461-.763 2.914-.769 4.356.029 2.448 1.356 3.046 4.647 1.242 6.771-.752.886-1.703 1.405-2.848 1.59-.107.017-.233.123-.288.223-.152.276-.272.57-.401.859-.035.078-.057.162-.085.243.089.028.178.081.268.082a5.518 5.518 0 002.873-.774c2.612-1.525 3.677-4.77 2.397-7.519-1.037-2.227-2.874-3.33-4.902-3.452-1.691-.009-2.955.403-3.958 1.156-.17.124-.164.219.013.313zM36.499 25.911c.016-.943-.337-1.683-1.014-2.297-1.098-.996-2.447-1.505-3.811-2.001-.51-.186-.867-.115-1.197.299-.121.152-.302.257-.45.389-.071.064-.131.141-.19.206.933.325 1.835.612 2.717.954.716.278 1.402.63 1.973 1.163.317.296.584.625.584 1.09.003 1.92.008 3.839 0 5.759-.002.577-.245.804-.818.807-.761.005-1.521.007-2.282 0-.215-.002-.319.062-.307.294.014.28.008.561.002.842-.003.173.07.244.243.243.887-.006 1.775.006 2.662-.016.431-.011.84-.148 1.174-.436.516-.446.698-1.039.699-1.699.005-1.866-.017-3.732.015-5.597z"/></g></g></svg>