<svg xmlns="http://www.w3.org/2000/svg" width="45" height="45"><linearGradient id="a" gradientUnits="userSpaceOnUse" x1="45" y1="45" x2="0" y2="0"><stop offset="0" stop-color="#8048b7"/><stop offset="1" stop-color="#975ac1"/></linearGradient><path fill="url(#a)" d="M41 0H4a4 4 0 00-4 4v37a4 4 0 004 4h37a4 4 0 004-4V4a4 4 0 00-4-4z"/><g fill="#FFF"><path d="M20.75 34.545a.392.392 0 00-.3-.12h-8.582a1.1 1.1 0 01-1.187-1.181v-20.4c-.003-.115.008-.23.031-.342a1.1 1.1 0 011.112-.839h3.134c.045 0 .084.007.145.007v.16c0 .283-.011.566 0 .849a1.5 1.5 0 00.07.436c.165.458.614.752 1.1.72h9.272c.072 0 .144-.005.215-.015.458-.052.83-.393.921-.844.024-.18.034-.362.028-.544v-.768h2.663a1.11 1.11 0 011.216 1.212V23.839a.407.407 0 00.053-.031c.704-.712 1.406-1.426 2.106-2.143a.236.236 0 00.053-.153v-9.878a1.883 1.883 0 00-.186-.835 2.175 2.175 0 00-2.094-1.3h-3.801a1.093 1.093 0 00-.728-1.018 2.42 2.42 0 00-.261-.075v.002h-9.661c-.04.012-.08.026-.121.036a1.091 1.091 0 00-.835.949c-.003.032-.012.064-.02.106h-.175c-1.431 0-2.863-.008-4.294 0a2.177 2.177 0 00-2.015 1.427c-.058.164-.088.334-.131.5v23.241c.024.1.044.2.071.3.23.85.946 1.481 1.819 1.6a.775.775 0 01.094.027h12.364c-.035-.039-.068-.08-.105-.117-.658-.643-1.318-1.285-1.971-1.932z"/><path d="M15.203 18.96c-.124.362-.122.755.007 1.115a.621.621 0 00.576.251H25.5c.072.001.144-.004.215-.014a.529.529 0 00.45-.5v-.474a.557.557 0 00-.636-.633h-4.886c-1.638.002-3.275 0-4.912-.006a.583.583 0 00-.528.261zM15.775 26.29h9.743c.076.001.153-.005.228-.019a.532.532 0 00.421-.514c0-.145-.012-.297 0-.445a.592.592 0 00-.655-.652c-1.619.005-3.238 0-4.857 0v.001h-4.943a.552.552 0 00-.593.592c0 .124.01.249 0 .373a.591.591 0 00.656.664zM36.468 21.548L25.462 32.627l-4.1-3.509-1.465 1.429 5.695 6.039 10.93-14.99-.054-.048z"/></g></svg>