<svg xmlns="http://www.w3.org/2000/svg" width="45" height="45"><linearGradient id="a" gradientUnits="userSpaceOnUse" x1="44.62" y1="44.62" x2=".38" y2=".38"><stop offset="0" stop-color="#5756e1"/><stop offset="1" stop-color="#6c6ddf"/></linearGradient><path fill="url(#a)" d="M41 0H4a4 4 0 00-4 4v37a4 4 0 004 4h37a4 4 0 004-4V4a4 4 0 00-4-4z"/><g fill="#FFF"><path d="M35.133 25.287a13.876 13.876 0 00-2.317-4.815 19.031 19.031 0 00-3.55-3.672c-.022-.018-.043-.039-.083-.077h6.314v-2.308H27.12a8955.24 8955.24 0 012.274-5.253.718.718 0 00-.061-.033c-.368-.155-.732-.315-1.1-.462a17.487 17.487 0 00-3.065-.9 13.752 13.752 0 00-2.435-.278 14.612 14.612 0 00-3.963.52c-.984.258-1.944.599-2.87 1.018-.111.046-.223.095-.342.146l2.811 5.9a1.313 1.313 0 00-.076.054 21.275 21.275 0 00-4.516 3.566 16.586 16.586 0 00-2.572 3.368 12.44 12.44 0 00-1.675 5.343 11.891 11.891 0 00.23 3.413 7.942 7.942 0 001.693 3.529 7.256 7.256 0 002.612 1.893c.991.429 2.033.732 3.1.9 1.02.172 2.051.278 3.085.318 1.816.088 3.635.068 5.449-.06a19.936 19.936 0 003.149-.466 10.592 10.592 0 003.035-1.188 6.852 6.852 0 002.605-2.8 9.433 9.433 0 00.961-3.476 12.284 12.284 0 00-.316-4.18zm-8.627-14.636l-.042.105c-.515 1.185-1.028 2.372-1.539 3.56a.135.135 0 01-.144.1h-4.35a.117.117 0 01-.131-.071l-1.744-3.671-.013-.036a9.745 9.745 0 017.963.013zm6.985 18.211a9.002 9.002 0 01-.278 1.952 4.507 4.507 0 01-1.658 2.477c-.7.517-1.486.905-2.322 1.146-.718.223-1.454.383-2.2.477-.728.091-1.459.166-2.19.214-.782.051-1.566.062-2.43.094-.843-.036-1.766-.061-2.685-.12a18.5 18.5 0 01-3.278-.479 8.9 8.9 0 01-2.238-.833 5.323 5.323 0 01-1.563-1.264 4.831 4.831 0 01-.991-2.278 9.934 9.934 0 01.924-6.368 14.025 14.025 0 012.422-3.358 20.138 20.138 0 014.816-3.7.769.769 0 01.383-.1c1.627.006 3.254.006 4.881.006a.568.568 0 01.276.069 18.74 18.74 0 015.919 5.157 11.56 11.56 0 011.773 3.428 9.86 9.86 0 01.439 3.48z"/><path d="M24.541 25.966H20.51a1.14 1.14 0 01-.941-1.571c.12-.44.523-.743.979-.737h4.953v-2.313h-2v-2.3h-2v2.3c-.359 0-.7-.002-1.028.001a2.546 2.546 0 00-1.034.229 3.6 3.6 0 00-1.854 4.014 3.151 3.151 0 002.912 2.684c1.344 0 2.688-.008 4.031 0a1.115 1.115 0 01.949 1.44 1.017 1.017 0 01-1 .866H17.51v2.313h4v1.142h2v-1.145c.33 0 .653.013.976 0 .217-.004.433-.029.644-.077a3.444 3.444 0 002.362-3.715 3.221 3.221 0 00-2.951-3.131z"/></g></svg>