<svg xmlns="http://www.w3.org/2000/svg" width="45" height="45"><linearGradient id="a" gradientUnits="userSpaceOnUse" x1="44.62" y1="-106.056" x2=".38" y2="-61.816" gradientTransform="matrix(1 0 0 -1 0 -61.975)"><stop offset="0" stop-color="#5756e1"/><stop offset="1" stop-color="#6c6ddf"/></linearGradient><path fill="url(#a)" d="M41-.539H4a4 4 0 00-4 4v37a4 4 0 004 4h37a4 4 0 004-4v-37a4 4 0 00-4-4z"/><g><g fill="#FFF"><path d="M37.485 30.269c.001-1.08.003-2.16-.001-3.24a2.077 2.077 0 00-.05-.444c-.137-.605-.534-1.022-1.02-1.368-.617-.44-1.317-.698-2.034-.915-1.901-.577-4.68-.406-4.964-.394-.901.039-1.78.227-2.637.506-.707.23-1.381.532-1.949 1.028-.448.391-.776.861-.778 1.479-.008 2.231-.008 4.461.006 6.692.002.243.078.5.179.724.269.595.775.963 1.327 1.265 1.154.631 2.414.906 3.706 1.03 1.465.141 2.929.101 4.375-.213.888-.193 1.751-.46 2.533-.941.857-.527 1.374-1.226 1.317-2.301-.05-.967-.01-1.939-.01-2.908zm-11.972-3.686c.326-.385.762-.61 1.219-.785 1.605-.614 3.271-.76 4.974-.645.941.064 1.863.208 2.755.517.522.181 1.031.395 1.439.785.421.402.418.725-.017 1.117-.467.422-1.037.654-1.626.836-1.138.352-2.309.491-3.498.483-1.189.008-2.365-.119-3.495-.494-.495-.164-.956-.434-1.423-.674-.128-.066-.233-.188-.33-.3-.258-.296-.254-.538.002-.84zm-.195 2.618c.004-.216.056-.249.236-.153 1.121.603 2.336.869 3.588 1.019 1.15.138 2.296.128 3.441-.02 1.185-.154 2.338-.422 3.397-1.004.164-.09.235-.042.234.138-.001.37.039.747-.016 1.109-.032.212-.179.439-.339.592-.46.44-1.05.657-1.646.84-1.131.347-2.295.475-3.643.477-1.107-.015-2.37-.138-3.57-.591-.464-.175-.898-.446-1.32-.713-.271-.171-.392-.455-.369-.796.022-.298.002-.599.007-.898zm10.877 4.379c-.038.216-.211.44-.382.594-.408.37-.919.574-1.436.744-1.172.386-2.381.522-3.737.512-.949.01-2.012-.094-3.053-.382-.594-.164-1.168-.376-1.685-.721-.392-.261-.646-.587-.59-1.096.027-.241.001-.488.006-.733.005-.212.06-.245.241-.148 1.137.609 2.366.879 3.635 1.025 1.079.124 2.154.12 3.231-.009 1.235-.148 2.435-.416 3.541-1.013.148-.08.246-.078.248.118.003.371.044.75-.019 1.109z"/><path d="M30.846 36.785c-.512 0-1.038-.026-1.583-.079-1.52-.146-2.707-.476-3.735-1.039-.507-.276-1.064-.647-1.359-1.299-.084-.188-.185-.47-.186-.755a662.323 662.323 0 01-.007-6.692c.003-.563.266-1.065.805-1.535.5-.437 1.127-.768 1.975-1.043.941-.307 1.811-.474 2.657-.51l.053-.002c1.161-.059 3.346-.085 4.936.399.686.207 1.408.463 2.057.925.373.268.888.704 1.05 1.413.033.151.051.306.051.461.003.9.003 1.8.003 2.7l-.001.614c-.001.271-.004.544-.008.816-.008.661-.017 1.344.019 2.013.053 1.016-.377 1.769-1.354 2.369-.686.422-1.475.715-2.557.95-.9.196-1.83.294-2.816.294zm-.162-12.835c-.463 0-.879.014-1.211.03l-.055.003c-.832.035-1.688.199-2.616.502-.828.269-1.438.591-1.923 1.014-.512.445-.751.897-.753 1.422-.009 2.48-.007 4.669.007 6.691.001.26.094.521.172.693.277.611.81.965 1.295 1.23 1.01.553 2.179.877 3.677 1.021 1.578.152 3.002.082 4.353-.212 1.064-.231 1.839-.519 2.51-.931.925-.569 1.332-1.279 1.281-2.234-.035-.674-.026-1.359-.018-2.022.003-.297.007-.593.007-.89l.001-.54c0-.899.001-1.799-.003-2.699 0-.145-.016-.288-.047-.428-.116-.509-.422-.917-.991-1.324-.63-.449-1.339-.699-2.012-.904-1.115-.337-2.534-.422-3.674-.422zm-.175 11.557a11.15 11.15 0 01-2.941-.386c-.72-.198-1.246-.424-1.707-.73-.301-.2-.692-.54-.622-1.166.016-.146.012-.291.008-.444a5.341 5.341 0 01-.003-.283c.003-.104.016-.208.093-.253.076-.045.17-.006.258.041.991.53 2.104.844 3.609 1.017 1.063.122 2.143.118 3.213-.009 1.471-.177 2.555-.487 3.513-1.006.074-.039.18-.088.268-.036.091.054.092.179.093.22.001.099.004.197.008.297.01.272.02.555-.028.825-.052.29-.3.543-.404.638-.427.386-.956.593-1.464.76-1.067.352-2.224.516-3.628.516a7.872 7.872 0 00-.266-.001zm-5.1-3.132c.002 0-.014.021-.016.126-.002.092 0 .184.002.275.004.152.009.309-.009.464-.047.421.125.737.558 1.025.446.297.959.517 1.663.711.938.259 1.978.396 3.032.379l.131.001c1.391 0 2.531-.162 3.583-.509.492-.162 1.004-.362 1.409-.729.194-.176.328-.383.357-.552.046-.256.036-.53.026-.795-.003-.1-.007-.2-.008-.3 0-.068-.015-.09-.019-.092 0 0-.03-.01-.12.039-.976.527-2.075.843-3.566 1.021-1.079.13-2.173.134-3.248.009-1.504-.172-2.668-.5-3.662-1.032-.088-.046-.113-.04-.113-.041zm5.162-.101c-1.407-.019-2.584-.214-3.596-.596-.482-.183-.935-.468-1.334-.72-.286-.182-.43-.488-.404-.865.013-.183.01-.37.008-.552a9.762 9.762 0 01-.002-.342c.002-.108.015-.214.092-.26.077-.041.167-.005.256.043.965.518 2.063.829 3.561 1.01 1.125.135 2.277.128 3.422-.02 1.412-.184 2.452-.491 3.371-.995.04-.021.16-.09.253-.031.094.056.093.191.093.235 0 .108.003.218.007.326.008.262.017.532-.023.794-.038.251-.212.492-.361.635-.489.467-1.122.688-1.677.856-1.08.333-2.211.481-3.666.482zm-5.178-3.072c-.002.112 0 .226.001.338.003.185.006.376-.007.563-.022.324.093.576.334.729.394.248.839.528 1.307.706.996.376 2.155.567 3.544.586 1.438-.001 2.556-.146 3.619-.473.539-.165 1.151-.378 1.617-.823.165-.157.29-.372.316-.549.038-.248.03-.511.021-.766-.003-.11-.007-.221-.007-.331.001-.09-.019-.106-.019-.106 0 .001-.026-.009-.104.033-.924.507-2.012.829-3.424 1.013a13.957 13.957 0 01-3.459.02c-1.518-.182-2.632-.499-3.614-1.026-.082-.045-.111-.046-.111-.044.003-.001-.012.022-.014.13zm5.264-.234c-1.289 0-2.407-.163-3.417-.498-.398-.132-.777-.333-1.144-.526-.097-.051-.193-.103-.29-.152-.142-.072-.254-.202-.353-.317-.28-.326-.28-.607.001-.939.365-.431.859-.657 1.25-.807 1.478-.565 3.117-.779 5.005-.649 1.077.073 1.958.238 2.774.521.513.179 1.044.399 1.467.804.231.221.339.417.336.617s-.115.394-.354.609c-.503.455-1.118.686-1.653.852-1.085.336-2.237.494-3.521.487-.034-.002-.068-.002-.101-.002zm.012-3.775c-1.441 0-2.729.223-3.911.676-.373.143-.846.358-1.188.764-.232.273-.233.476-.003.744.09.104.192.223.308.282.098.05.194.101.291.152.361.191.735.389 1.121.517.994.33 2.098.491 3.371.491l.185-.001c1.235 0 2.346-.157 3.392-.479.521-.161 1.116-.385 1.599-.82.202-.183.302-.347.304-.5.002-.155-.09-.316-.289-.507-.401-.385-.916-.598-1.412-.77-.804-.278-1.673-.441-2.735-.513a15.293 15.293 0 00-1.033-.036zM22.305 10.579H11.701c-.744 0-1.35.605-1.35 1.35v3.257a1.35 1.35 0 001.35 1.349h10.604c.744 0 1.35-.605 1.35-1.349v-3.257c0-.745-.606-1.35-1.35-1.35zm.215 4.608a.214.214 0 01-.215.214H11.701a.215.215 0 01-.215-.214V11.93c0-.119.096-.215.215-.215h10.604c.119 0 .215.096.215.215v3.257z"/><path d="M22.304 16.611H11.7c-.786 0-1.425-.64-1.425-1.425v-3.257c0-.786.639-1.426 1.425-1.426h10.604c.786 0 1.426.64 1.426 1.426v3.257c0 .785-.639 1.425-1.426 1.425zM11.7 10.654c-.703 0-1.274.572-1.274 1.275v3.257c0 .703.572 1.274 1.274 1.274h10.604c.703 0 1.275-.571 1.275-1.274v-3.257c0-.703-.572-1.275-1.275-1.275H11.7zm10.604 4.822H11.7a.29.29 0 01-.29-.29v-3.257c0-.16.13-.29.29-.29h10.604c.16 0 .291.13.291.29v3.257c0 .16-.13.29-.291.29zM11.7 11.79a.14.14 0 00-.139.14v3.257c0 .077.063.14.139.14h10.604a.14.14 0 00.14-.14V11.93a.14.14 0 00-.14-.14H11.7zM10.918 19.968h4.541v1.135h-4.541z"/><path d="M15.535 21.179h-4.692v-1.286h4.692v1.286zm-4.542-.15h4.391v-.985h-4.391v.985zM18.546 19.968h4.541v1.135h-4.541z"/><path d="M23.163 21.179h-4.692v-1.286h4.692v1.286zm-4.542-.15h4.391v-.985h-4.391v.985zM10.918 22.94h4.541v1.135h-4.541z"/><path d="M15.535 24.15h-4.692v-1.285h4.692v1.285zM10.993 24h4.391v-.984h-4.391V24z"/><g><path d="M18.546 22.94h4.541v1.135h-4.541z"/><path d="M23.163 24.15h-4.692v-1.285h4.692v1.285zM18.621 24h4.391v-.984h-4.391V24z"/></g><g><path d="M10.918 25.912h4.541v1.135h-4.541z"/><path d="M15.535 27.123h-4.692v-1.286h4.692v1.286zm-4.542-.151h4.391v-.985h-4.391v.985z"/></g><g><path d="M18.546 25.912h4.541v1.135h-4.541z"/><path d="M23.163 27.123h-4.692v-1.286h4.692v1.286zm-4.542-.151h4.391v-.985h-4.391v.985z"/></g><g><path d="M25.371 9.889v12.814h1.135V9.889a2.68 2.68 0 00-2.678-2.677h-13.65A2.68 2.68 0 007.5 9.889v19.659a2.68 2.68 0 002.678 2.677h11.318V31.09H10.178a1.544 1.544 0 01-1.543-1.542V9.889c0-.85.692-1.542 1.543-1.542h13.65c.851 0 1.543.692 1.543 1.542z"/><path d="M21.571 32.301H10.178a2.756 2.756 0 01-2.753-2.753V9.889a2.756 2.756 0 012.753-2.753h13.65a2.756 2.756 0 012.753 2.753v12.89h-1.285V9.889c0-.809-.658-1.467-1.468-1.467h-13.65c-.81 0-1.468.658-1.468 1.467v19.659c0 .809.658 1.467 1.468 1.467h11.393v1.286zM10.178 7.287A2.605 2.605 0 007.575 9.89v19.659a2.605 2.605 0 002.603 2.603h11.243v-.985H10.178A1.62 1.62 0 018.56 29.55V9.889a1.62 1.62 0 011.618-1.617h13.65a1.62 1.62 0 011.618 1.617v12.739h.984V9.889a2.605 2.605 0 00-2.603-2.603H10.178z"/></g></g></g></svg>