<svg xmlns="http://www.w3.org/2000/svg" width="45" height="45"><linearGradient id="a" gradientUnits="userSpaceOnUse" x1="45.087" y1="-105.517" x2=".847" y2="-61.276" gradientTransform="matrix(1 0 0 -1 0 -60.897)"><stop offset="0" stop-color="#009cb2"/><stop offset="1" stop-color="#04b4bf"/></linearGradient><path fill="url(#a)" d="M41.467 0h-37a4 4 0 00-4 4v37a4 4 0 004 4h37a4 4 0 004-4V4a4 4 0 00-4-4z"/><g><g fill="#FFF"><path d="M26.684 18.787c.225-2.526-.469-4.721-2.062-6.525C22.942 10.363 20.815 9.4 18.3 9.4h-.058c-4.637.024-8.316 3.689-8.377 8.343-.028 2.255.74 4.225 2.285 5.853 1.877 1.977 4.277 2.859 7.108 2.625-.245 2.501.449 4.694 2.063 6.521 1.677 1.897 3.807 2.859 6.331 2.859h.051c4.582-.023 8.335-3.776 8.365-8.365.015-2.21-.727-4.14-2.205-5.736-1.903-2.056-4.315-2.969-7.179-2.713zm8.103 8.384a7.112 7.112 0 01-2.099 5.058 7.088 7.088 0 01-5.044 2.09h-.009c-3.938-.005-7.143-3.214-7.143-7.154a7.08 7.08 0 012.096-5.049 7.118 7.118 0 015.06-2.089h.002c1.903 0 3.695.745 5.046 2.098a7.081 7.081 0 012.091 5.046zm-23.532-8.103c-.623-3.702 1.628-7.21 5.235-8.159.26-.068.5-.116.733-.146.246-.032.495-.053.744-.073l.319-.028a7.195 7.195 0 017.044 5.924c.143.8.147 1.606.014 2.397-.013.071-.026.093-.107.119-2.84.916-4.746 2.821-5.667 5.661-.028.089-.048.102-.114.113a7.05 7.05 0 01-5.298-1.219 7.026 7.026 0 01-2.903-4.589zM36.073 15.786a4.86 4.86 0 00-.056-.664c-.253-1.657-1.744-3.023-3.394-3.112a29.54 29.54 0 00-1.68-.023c-.238 0-.476.003-.709 0l1.568-1.565-.871-.872-3.134 3.095 3.108 3.074.895-.892-.09-.089c-.264-.262-.54-.537-.815-.813l-.651-.651.461-.002c.536-.002 1.086-.007 1.626.011.292.009.586.063.848.158 1.004.366 1.606 1.267 1.611 2.408.002.625.001 1.249.001 1.873l-.001 1.257h1.271l.01-.178c.002-.033.004-.062.004-.091l.001-.835c0-.695.001-1.393-.003-2.089zM14.939 29.364l-.72.724-.088.088 1.548 1.546h-.405c-.573 0-1.145.001-1.716-.002a2.056 2.056 0 01-.365-.039c-1.215-.226-2.036-1.221-2.044-2.477-.005-.677-.004-1.353-.003-2.028l.001-.846c0-.042-.003-.084-.006-.126l-.01-.188H9.878l-.012.161c-.003.04-.006.076-.006.113l-.001.783c0 .72-.001 1.438.004 2.157.002.267.024.501.066.717.354 1.786 1.881 3.046 3.713 3.063.486.006.97.005 1.457.002l.602-.001-1.567 1.564.866.867 3.14-3.087-3.113-3.079-.088.088z"/><path d="M29.354 26.993c-.348-.146-.69-.267-1.103-.408-.068-.023-.068-.023-.068-.081.004-.638.004-1.275.003-1.913v-.633c.538.146.872.498 1.022 1.071.006.022.06.224.201.229.234.008.472.011.709.006h.365l-.034-.152c-.326-1.429-1.048-2.186-2.27-2.372v-.774h-.876v.743l-.242.066c-.235.063-.458.122-.672.218a2.566 2.566 0 00-1.498 2.696c.063.444.15.866.518 1.153.24.187.513.349.789.469.275.12.568.197.853.271l.079.021c.079.021.079.021.078.094-.005.622-.004 1.243-.004 1.865v.872c-.4-.1-.688-.25-.922-.479-.287-.282-.409-.641-.396-1.165l.003-.128h-1.236l.008.133c.043.671.204 1.189.508 1.632.496.722 1.199 1.134 2.093 1.227v.925h.861v-.92l.012-.002c1.126-.11 1.884-.626 2.317-1.575.27-.59.29-1.301.056-1.9a2.077 2.077 0 00-1.154-1.189zm-2.159-3.007v2.392l-.122-.059c-.207-.1-.402-.193-.571-.316-.339-.246-.453-.864-.253-1.377.133-.344.541-.612.946-.64zm2.133 5.267c-.001.063-.012.126-.022.188l-.014.087c-.058.42-.311.7-.773.856-.113.038-.23.064-.352.092l-.039.009v-2.566c.397.131.769.267 1.035.569.178.201.171.501.165.765zM20.461 21.751c.166-.086.317-.204.296-.489-.014-.17-.01-.347-.008-.518.002-.084.003-.168.003-.255-.001-.031-.005-.062-.009-.094l-.046-.188-.148.053-.089.059a2.138 2.138 0 00-.121.11c-.476.472-1.048.659-1.738.582a1.618 1.618 0 01-1.082-.568c-.388-.456-.56-.998-.683-1.662h.481c.563-.002 1.135 0 1.702-.002.144 0 .229-.033.27-.104.083-.149.156-.304.235-.47l.167-.346h-2.917v-.334h.081c.877 0 1.754 0 2.631-.003.099 0 .227-.02.28-.113.076-.143.144-.29.216-.45l.159-.348h-3.307c.134-.71.394-1.226.811-1.617.238-.224.521-.358.838-.4.566-.073 1.081.103 1.615.555.034.029.067.06.104.093l.196.173.743-1.146-.129-.062a18.933 18.933 0 01-.349-.172 6.66 6.66 0 00-.739-.338c-1.289-.472-2.987-.195-3.877 1.478-.143.268-.248.557-.351.835l-.085.228c-.026.069-.039.145-.052.217-.012.068-.03.172-.056.191-.041.03-.148.025-.244.02-.066-.003-.133-.007-.19-.003-.083.006-.189.03-.229.113-.08.158-.152.321-.23.498l-.146.326h.886v.313c-.097.001-.188-.002-.279.003-.066.003-.187.021-.231.112-.075.146-.145.297-.218.457l-.158.341.417.001c.168.003.325.002.482-.004.038 0 .058.003.059.003.001.001.012.014.026.069l.021.089c.099.399.201.812.357 1.201.374.932 1.006 1.537 1.878 1.801.379.114.753.171 1.119.171a3.557 3.557 0 001.638-.406z"/></g></g></svg>