<svg xmlns="http://www.w3.org/2000/svg" width="45" height="45"><linearGradient id="a" gradientUnits="userSpaceOnUse" x1="45" y1=".35" x2="0" y2="45.35" gradientTransform="matrix(1 0 0 -1 0 45.89)"><stop offset="0" stop-color="#8048b7"/><stop offset="1" stop-color="#975ac1"/></linearGradient><path fill="url(#a)" d="M41 .539H4a4 4 0 00-4 4v37a4 4 0 004 4h37a4 4 0 004-4v-37a4 4 0 00-4-4z"/><g><g fill="#FFF"><path d="M27.963 26.523l1.859 1.208 5.645 3.659c1.165.756 1.375 2.21.47 3.261-.237.276-.475.552-.73.811a2.118 2.118 0 01-3.101-.071l-5.856-6.439c-.069-.076-.14-.149-.223-.238-2.677 2.121-5.678 2.965-9.035 2.303-2.601-.513-4.713-1.863-6.329-3.964-3.12-4.057-2.833-9.957.649-13.659 3.662-3.893 9.471-4.546 13.844-1.526 2.377 1.642 3.839 3.915 4.379 6.749.537 2.822-.016 5.452-1.572 7.906zm-8.848 2.52c4.634-.001 8.432-3.757 8.434-8.342.002-4.747-3.743-8.534-8.436-8.53-4.677.004-8.423 3.794-8.424 8.522-.001 4.591 3.793 8.351 8.426 8.35z"/><path d="M18.209 18.11l-1.87 2.535c.775.828 1.277 1.909 2.011 2.902-.478 0-.898.021-1.313-.013-.125-.01-.27-.153-.351-.272-.376-.55-.732-1.114-1.097-1.672-.231-.352-.399-.416-.856-.317v2.262h-1.249v-5.409h1.243v1.59c0 .087-.011.175.003.26.019.117.055.231.084.346.167-.052.36-.068.494-.166.133-.096.207-.273.305-.415.295-.428.596-.852.881-1.285.158-.24.363-.355.65-.347.336.008.67.001 1.065.001zM20.004 21.762v1.78h-1.229v-5.473c.914.045 1.83.013 2.718.153.989.156 1.416.84 1.363 1.891-.042.817-.646 1.448-1.538 1.565-.419.055-.845.056-1.314.084zm.005-1.85c0 .233-.013.468.008.7.006.066.111.173.175.176.249.011.502.005.749-.026.419-.053.656-.355.672-.819.015-.453-.211-.783-.627-.853-.253-.043-.516-.026-.774-.043-.164-.011-.21.067-.205.217.007.216.002.432.002.648zM23.543 18.124h1.22v5.412h-1.22v-5.412z"/></g></g></svg>