<svg xmlns="http://www.w3.org/2000/svg" width="45" height="45"><linearGradient id="a" gradientUnits="userSpaceOnUse" x1="43.934" y1=".877" x2="1.066" y2="43.745" gradientTransform="matrix(1 0 0 -1 0 44.811)"><stop offset="0" stop-color="#c2387a"/><stop offset="1" stop-color="#c9478f"/></linearGradient><path fill="url(#a)" d="M41 0H4a4 4 0 00-4 4v37a4 4 0 004 4h37a4 4 0 004-4V4a4 4 0 00-4-4z"/><g><path fill="#FFF" d="M21.625 8.5h-1.75v2.625C13.506 11.816 8.5 17.274 8.5 23.813 8.5 30.82 14.181 36.5 21.187 36.5c5.168 0 9.606-3.095 11.584-7.528l1.979.528c.956-1.571 1.75-3.8 1.75-6.5 0-8.008-6.996-14.5-14.875-14.5zm-.438 26.25c-6.041 0-10.937-4.896-10.937-10.937 0-5.504 4.302-10.169 9.625-10.937v11.75l11.12 3.874c-1.48 3.737-5.727 6.25-9.808 6.25zm12.295-7.338l-11.857-4.037V10.25c6.807-.035 13.028 5.847 13.028 12.75 0 1.8-.471 3.166-1.171 4.412z"/></g></svg>