<svg xmlns="http://www.w3.org/2000/svg" width="45" height="45"><linearGradient id="a" gradientUnits="userSpaceOnUse" x1="45" y1="45" x2="0" y2="0"><stop offset="0" stop-color="#17ac81"/><stop offset="1" stop-color="#1cba98"/></linearGradient><path fill="url(#a)" d="M41 0H4a4 4 0 00-4 4v37a4 4 0 004 4h37a4 4 0 004-4V4a4 4 0 00-4-4z"/><g><g fill="#FFF"><path d="M31.394 8.878H13.606c-3.705 0-6.721 3.081-6.721 6.868v6.803c0 3.786 3.015 6.868 6.721 6.868h11.243l8.173 6.707v-6.913c2.956-.753 5.092-3.475 5.092-6.661v-6.803c.001-3.788-3.015-6.869-6.72-6.869zm4.769 13.67c0 2.499-1.818 4.598-4.231 4.882l-.862.102v4.464l-5.524-4.532h-11.94c-2.629 0-4.769-2.205-4.769-4.916v-6.803c0-2.71 2.14-4.916 4.769-4.916h17.788c2.629 0 4.769 2.205 4.769 4.916v6.803z"/><path d="M15.06 18.238c-.746-.261-.983-.411-.983-.697 0-.311.261-.497.721-.497.522 0 1.045.199 1.318.349l.335-1.306c-.373-.187-1.007-.348-1.716-.348-1.504 0-2.474.858-2.474 1.989-.012.721.473 1.405 1.729 1.828.708.236.895.385.895.697 0 .311-.236.51-.808.51-.559 0-1.281-.249-1.629-.46l-.335 1.355c.459.249 1.168.422 1.964.422 1.741 0 2.636-.833 2.636-1.964-.012-.895-.497-1.48-1.653-1.878zM24.993 15.74c-.448 0-.821.099-1.157.298a2.703 2.703 0 00-.783.733h-.025c-.261-.634-.883-1.031-1.666-1.031-1.045 0-1.579.572-1.84.957h-.037l-.087-.821h-1.592c.025.535.05 1.182.05 1.939v4.141h1.84v-3.543c0-.15.012-.324.074-.473.111-.311.398-.684.883-.684.598 0 .871.522.871 1.293v3.407h1.84V18.4c0-.15.025-.349.074-.485.124-.361.436-.66.87-.66.609 0 .896.51.896 1.393v3.307h1.84v-3.582c.001-1.813-.882-2.633-2.051-2.633zM31.146 18.238c-.746-.261-.983-.411-.983-.697 0-.311.261-.497.721-.497.522 0 1.044.199 1.318.349l.336-1.306c-.374-.187-1.007-.348-1.716-.348-1.504 0-2.474.858-2.474 1.989-.012.721.473 1.405 1.729 1.828.708.236.895.385.895.697 0 .311-.236.51-.808.51-.559 0-1.281-.249-1.629-.46l-.335 1.355c.459.249 1.168.422 1.964.422 1.741 0 2.636-.833 2.636-1.964-.013-.895-.498-1.48-1.654-1.878z"/></g></g></svg>