<svg xmlns="http://www.w3.org/2000/svg" width="45" height="45"><linearGradient id="a" gradientUnits="userSpaceOnUse" x1="45" y1="45" x2="0" y2="0"><stop offset="0" stop-color="#8048b7"/><stop offset="1" stop-color="#975ac1"/></linearGradient><path fill="url(#a)" d="M41 0H4a4 4 0 00-4 4v37a4 4 0 004 4h37a4 4 0 004-4V4a4 4 0 00-4-4z"/><g fill="#FFF"><path d="M21.229 21.143a1.964 1.964 0 002.765-.264 4.898 4.898 0 001.428-3.273h.001c-.009-1.992-1.044-3.115-2.79-3.251a2.723 2.723 0 00-2.972 2.014 4.623 4.623 0 001.362 4.577c.064.07.133.136.206.197zM27.801 23.372c-.714-.286-1.464-.479-2.242-.725-.662 2.158-1.3 4.229-1.937 6.3l-.084-.013c-.046-.77-.146-1.543-.122-2.311a2.198 2.198 0 00-.735-1.849.044.044 0 01-.01-.035c.195-.2.386-.4.567-.6a.534.534 0 000-.894.7.7 0 00-1.247-.008c-.035.039-.066.082-.1.121a.45.45 0 000 .692c.217.223.425.455.639.687-.13.141-.239.268-.358.387a1.342 1.342 0 00-.421 1.039c.013.556-.039 1.113-.069 1.669-.02.37-.049.735-.074 1.1h-.075l-1.9-6.227c-.409.093-.809.174-1.209.274-.274.07-.544.158-.813.249a1.57 1.57 0 00-1.139 1.553c-.034 1.133-.134 2.264-.226 3.395a.513.513 0 00.191.487 8.908 8.908 0 007.247 2.286 8.717 8.717 0 004.968-2.323.553.553 0 00.189-.359c-.068-1.248-.161-2.494-.24-3.742a1.26 1.26 0 00-.8-1.153z"/><path d="M38.461 22.087a.851.851 0 00-.87-.719c-.578-.007-1.157 0-1.735 0h-.8c-.123-.731-.207-1.431-.362-2.114a12.544 12.544 0 00-10.8-9.6.255.255 0 01-.284-.307c.012-.656.009-1.304 0-1.956a.806.806 0 00-.608-.822 2.437 2.437 0 00-.654-.062.877.877 0 00-.96.959c-.009.63-.009 1.261 0 1.892a.242.242 0 01-.265.294c-1.03.08-2.041.316-3 .7a12.4 12.4 0 00-8.144 10.751.237.237 0 01-.283.269H7.424a.783.783 0 00-.794.462 2.102 2.102 0 00-.117.766.923.923 0 001 1c.726.006 1.452.009 2.177 0a.286.286 0 01.359.3 11.847 11.847 0 001.777 4.874 12.364 12.364 0 009.228 5.8.3.3 0 01.32.372c-.017.84-.007 1.682-.007 2.523a.9.9 0 00.414.835c.396.242.889.259 1.3.045a.947.947 0 00.519-.965c-.007-.903 0-1.806 0-2.758a12.6 12.6 0 0011.366-11.039c.874 0 1.704.006 2.534 0a.917.917 0 00.961-.78 2.23 2.23 0 000-.72zm-5.331 1.551a10.628 10.628 0 01-9.484 9.2.985.985 0 00-1.209-.935.942.942 0 00-1.109.932 10.633 10.633 0 01-9.528-9.193c1.044-.18 1.254-.368 1.274-1.108a.923.923 0 00-.344-.954 4.73 4.73 0 00-.981-.285 10.69 10.69 0 019.629-9.883v.587a.953.953 0 001.109 1.084.993.993 0 00.989-.481c.072-.15.114-.313.123-.479.016-.228 0-.458 0-.741a10.472 10.472 0 016.029 2.654 10.77 10.77 0 013.629 7.323 1.206 1.206 0 00-1.179.384 1.947 1.947 0 00-.166.874c.001.673.249.863 1.218 1.021z"/></g></svg>