<svg xmlns="http://www.w3.org/2000/svg" width="45" height="45"><linearGradient id="a" gradientUnits="userSpaceOnUse" x1="43.934" y1="43.934" x2="1.066" y2="1.066"><stop offset="0" stop-color="#c2387a"/><stop offset="1" stop-color="#c9478f"/></linearGradient><path fill="url(#a)" d="M41 0H4a4 4 0 00-4 4v37a4 4 0 004 4h37a4 4 0 004-4V4a4 4 0 00-4-4z"/><g fill="#FFF"><path d="M19.794 20.668H11.05a2.042 2.042 0 00-2.04 2.04V34.95a2.042 2.042 0 002.04 2.04h8.744a2.042 2.042 0 002.04-2.04V22.708a2.042 2.042 0 00-2.04-2.04zm.291 14.282a.29.29 0 01-.291.291H11.05h-.001a.29.29 0 01-.291-.291V22.708v-.001a.29.29 0 01.292-.29h8.744a.29.29 0 01.291.291V34.95zM19.794 9.01H11.05a2.042 2.042 0 00-2.04 2.04v5.246a2.042 2.042 0 002.04 2.04h8.744a2.041 2.041 0 002.04-2.036v-5.25a2.042 2.042 0 00-2.04-2.04zm.291 7.29v.001a.29.29 0 01-.291.291H11.05a.292.292 0 01-.292-.292v-5.25c0-.161.131-.292.292-.292h8.745a.29.29 0 01.29.292v5.25zM34.95 9.01h-8.744a2.042 2.042 0 00-2.04 2.04v12.241a2.044 2.044 0 002.04 2.041h8.744a2.044 2.044 0 002.04-2.041V11.05a2.042 2.042 0 00-2.04-2.04zm.291 14.281v.001a.29.29 0 01-.291.291h-8.744a.292.292 0 01-.292-.292V11.05c0-.161.131-.292.292-.292h8.745a.29.29 0 01.29.292v12.241zM34.95 27.659h-8.744a2.042 2.042 0 00-2.04 2.041v5.25a2.042 2.042 0 002.04 2.04h8.744a2.042 2.042 0 002.04-2.044V29.7a2.042 2.042 0 00-2.04-2.041zm.291 7.291a.29.29 0 01-.291.291h-8.744-.001a.29.29 0 01-.291-.291v-5.246c0-.161.131-.292.292-.292v-.004h8.745a.29.29 0 01.29.292v5.25z"/></g></svg>