<svg xmlns="http://www.w3.org/2000/svg" width="45" height="45"><linearGradient id="a" gradientUnits="userSpaceOnUse" x1="43.934" y1="1.956" x2="1.066" y2="44.824" gradientTransform="matrix(1 0 0 -1 0 45.89)"><stop offset="0" stop-color="#c2387a"/><stop offset="1" stop-color="#c9478f"/></linearGradient><path fill="url(#a)" d="M41 0H4a4 4 0 00-4 4v37a4 4 0 004 4h37a4 4 0 004-4V4a4 4 0 00-4-4z"/><g fill="#FFF"><path d="M22.483 18.843c.003-.048.006-.079.002-.11v-5.629a.553.553 0 00-.599-.594h-3.969a.558.558 0 00-.623.626v6.028a42.446 42.446 0 015.189-.321zM29.245 9.997a.556.556 0 00-.63-.63h-3.929a.557.557 0 00-.638.634v8.87c1.742.059 3.478.235 5.197.526v-9.4zM37.269 23.042a3.625 3.625 0 00-1.08-1.288 9.279 9.279 0 00-2.586-1.374.727.727 0 00-.421.006c-.654.181-1.302.38-1.954.566a.455.455 0 01-.226 0c-.33-.084-.656-.188-.988-.266a34.968 34.968 0 00-5.653-.783 38.203 38.203 0 00-5.8.108 33.422 33.422 0 00-3.537.492c-1.509.27-2.982.712-4.39 1.317a7.555 7.555 0 00-2.175 1.38 2.706 2.706 0 00-.874 1.407c-.056.34-.08.685-.07 1.029 0 1.442.007 2.885 0 4.327a2.426 2.426 0 00.483 1.484c.337.445.752.825 1.225 1.121.922.584 1.92 1.038 2.966 1.35 2.49.758 5.064 1.21 7.663 1.348a.586.586 0 00.582-.3c.216-.346.436-.689.654-1.033l.175-.273.028.015v1.43a.538.538 0 00.542.534 53.391 53.391 0 003.94-.105 30.153 30.153 0 004.614-.643c.728-.166 1.447-.378 2.167-.578a.55.55 0 00.434-.6v-.694c.056.007.092.007.126.007.431.056.866.112 1.3.171a.69.69 0 00.434-.052l.291-.151a5.84 5.84 0 001.68-1.29c.412-.44.649-1.015.666-1.618v-5.893a2.617 2.617 0 00-.216-1.151zm-15.32 5.011v1.537a.45.45 0 01-.051.2c-.138.267-.282.534-.438.792a1.022 1.022 0 00-.169.673.75.75 0 01-.152.537c-.22.318-.415.647-.62.972l-.033-.006v-.115-2.3a.362.362 0 01.045-.185l1.359-2.169c.011-.017.025-.033.059-.08v.144zm-.001-3.856v1.5a.42.42 0 01-.058.207c-.672 1.078-1.349 2.153-2.022 3.23a.163.163 0 01-.178.092c-.788-.079-1.58-.132-2.366-.232a23.007 23.007 0 01-6.026-1.471 6.525 6.525 0 01-2.027-1.217 2.9 2.9 0 01-.482-.6 1.101 1.101 0 01.03-1.218c.207-.317.472-.591.783-.807a9.32 9.32 0 012.4-1.206 22.97 22.97 0 013.924-1 34.583 34.583 0 013.756-.438 35.345 35.345 0 014.794-.016c1.494.1 2.981.287 4.454.559.017.003.034.012.05.012v.029l-.923.274-5.618 1.651a.652.652 0 00-.491.651zm7.997 5.546a36.225 36.225 0 01-7.156.747c.02-.045.033-.079.05-.11.32-.583.643-1.166.959-1.751a.137.137 0 01.178-.076c1.257.251 2.515.501 3.772.75l2.061.408c.046.009.091.021.136.032zm4.17 2.296l-1.128-.144v-2.157l.001-.006a.575.575 0 00-.522-.624l-8.731-1.729a.59.59 0 00-.671.287v-2.9l11.051 2.285v4.988zm2.114-7.479a2.167 2.167 0 01-.616.71c-.336.246-.687.466-1.036.692a.209.209 0 01-.147.021l-6.991-1.443-2.48-.513c-.024-.005-.047-.014-.071-.021v-.025l2.16-.636a2000.28 2000.28 0 016.217-1.828.394.394 0 01.247.014 7.619 7.619 0 012.128 1.2c.239.194.438.432.589.7.203.349.203.78 0 1.129zM15.698 19.408a.122.122 0 00.125-.149v-3.5a.57.57 0 00-.645-.646h-3.9a.574.574 0 00-.655.65v5.119c.296-.123.571-.245.848-.35a22.39 22.39 0 014.227-1.124z"/></g></svg>