<svg xmlns="http://www.w3.org/2000/svg" width="45" height="45"><linearGradient id="a" gradientUnits="userSpaceOnUse" x1="44.62" y1="44.62" x2=".38" y2=".38"><stop offset="0" stop-color="#aa3fa9"/><stop offset="1" stop-color="#b74fb8"/></linearGradient><path fill="url(#a)" d="M41 0H4a4 4 0 00-4 4v37a4 4 0 004 4h37a4 4 0 004-4V4a4 4 0 00-4-4z"/><g fill="#FFF"><path d="M19.074 21.376h-5.116v2.245h4.867l.249-2.245zM17.847 27.458a.14.14 0 00-.098.171c.005.645.005 1.289 0 1.933a.14.14 0 00.169.17h3.036c-.072-.1-.113-.154-.151-.211-.209-.305-.439-.598-.621-.918s-.329-.663-.482-1a.211.211 0 00-.224-.145c-.52.005-1.039.005-1.558 0a.142.142 0 00-.071 0zM11.672 18.334h3v2.239h-3zM20.396 18.336a.473.473 0 00-.091-.018h-2.413c-.124-.001-.139.062-.139.162v2.108c.488 0 .944-.006 1.404.002a.24.24 0 00.265-.183c.257-.595.535-1.182.808-1.771.046-.1.106-.193.166-.3zM18.013 14.488h2.464c.446-.002.897-.024 1.346-.024.418-.001.836.024 1.254.024.244.001.491-.041.733-.019a3.789 3.789 0 001.677-.176 9.611 9.611 0 013.72-.551c.228.01.454.026.7.041 0-.468-.012-.913 0-1.358.004-.168-.057-.2-.214-.2h-11.73c-.069 0-.134.01-.2.01v2.253h.25zM14.683 14.481c.003-.061.009-.112.009-.161 0-.631-.009-1.263 0-1.895 0-.162-.048-.2-.2-.2h-2.634c-.059 0-.119.012-.179.012v2.236l.004.008h3zM16.471 17.541h4.322a.338.338 0 00.294-.143 9.762 9.762 0 011.83-1.751c.157-.116.319-.228.5-.356h-7.176v2.247l.002.003h.228zM17.753 20.588h-.002zM10.298 26.683h1.355v.001c.455 0 .904-.006 1.355 0a.13.13 0 00.16-.159c-.004-.651-.004-1.301 0-1.952a.132.132 0 00-.158-.163c-.903.004-1.807.004-2.71 0a.132.132 0 00-.16.161c.004.651.004 1.301 0 1.952a.13.13 0 00.158.16zM28.794 16.82a6.836 6.836 0 00-6.855 6.815h-.002l.001.111a6.832 6.832 0 006.921 6.743 6.835 6.835 0 00-.065-13.669zm1.674 10.344a9.315 9.315 0 01-1.206.553v1.263c-.348 0-.679.004-1.009-.007a.208.208 0 01-.075-.153v-1.082a6.432 6.432 0 01-.782-.113c-.391-.107-.773-.251-1.158-.383a.186.186 0 01-.125-.274c.108-.341.201-.687.308-1.057.08.038.145.068.208.1a3.661 3.661 0 002.278.417c.461-.044.835-.393.911-.85a.918.918 0 00-.32-.848 3.958 3.958 0 00-1.12-.605 7.98 7.98 0 01-1.416-.718 1.924 1.924 0 01-.69-2.283 2.24 2.24 0 011.813-1.499.223.223 0 00.172-.264c-.012-.292.001-.592-.006-.892a.14.14 0 01.17-.173c.255.006.508.006.761 0a.147.147 0 01.066 0 .134.134 0 01.095.163v1.026c.303.047.598.074.883.142a7.1 7.1 0 01.79.263c.052.023.09.07.1.126-.1.375-.212.747-.325 1.134l-.002-.002c-.22-.086-.416-.177-.621-.24a2.97 2.97 0 00-1.715-.113.882.882 0 00-.584.452.756.756 0 00.2.944c.398.305.842.544 1.315.708a3.966 3.966 0 011.442.842 2.226 2.226 0 01-.358 3.423zM10.153 15.29h3v2.234h-3z"/><path d="M28.757 14.509c-5.043-.002-9.133 4.086-9.135 9.129s4.086 9.133 9.129 9.135a9.143 9.143 0 009.135-9.134 9.132 9.132 0 00-9.129-9.13zm-.006 16.757a7.615 7.615 0 117.636-7.621v.003a7.634 7.634 0 01-7.636 7.618zM19.324 26.624a10.472 10.472 0 01-.409-2.09c-.009-.112-.078-.122-.166-.122h-2.354a.14.14 0 00-.166.175v2.084l.002-.001h3.084a.122.122 0 00.009-.046z"/><path d="M21.706 30.597a.358.358 0 00-.225-.084c-.465-.008-.93 0-1.394 0l-3.729-.009a.76.76 0 00-.116.02v2.239h8.607a.406.406 0 00-.096-.058 10.175 10.175 0 01-3.047-2.108zM10.885 23.428c0-.613-.012-1.226 0-1.838.004-.187-.061-.225-.232-.225H8.076c-.063 0-.128.014-.2.014v2.243l.002.006h3.007v-.2zM14.534 27.463h-2.692c-.085 0-.177-.019-.177.122V29.7h.001c.37 0 .718-.004 1.064.004.6.006 1.2.017 1.8.032a.13.13 0 00.164-.157c-.004-.651-.004-1.302 0-1.953a.138.138 0 00.001-.067.134.134 0 00-.161-.096zM12.24 30.499c-.63 0-1.265.007-1.9 0a.163.163 0 00-.2.2c.008.619.01 1.239 0 1.859-.004.174.049.217.218.217h2.6c.061 0 .127-.015.2-.015v-2.257l-.001-.004h-.917z"/></g></svg>