<svg xmlns="http://www.w3.org/2000/svg" width="45" height="45"><linearGradient id="a" gradientUnits="userSpaceOnUse" x1="45" y1="45" x2="0" y2="0"><stop offset="0" stop-color="#17ac81"/><stop offset="1" stop-color="#1cba98"/></linearGradient><path fill="url(#a)" d="M41 0H4a4 4 0 00-4 4v37a4 4 0 004 4h37a4 4 0 004-4V4a4 4 0 00-4-4z"/><path fill-rule="evenodd" clip-rule="evenodd" fill="#FFF" d="M36.301 24.933h-3.382c-.246 0-.246 0-.246-.238-.005-2.477-.005-4.955 0-7.432.005-.16-.028-.209-.2-.209h-5.236c-.27 0-.27 0-.27-.261a986.093 986.093 0 010-5.439c0-.143-.028-.19-.184-.19-2.856.004-5.712.004-8.568 0-.146-.001-.191.031-.191.184v5.472c0 .211 0 .211-.213.211-1.762 0-3.524.006-5.286 0-.165-.001-.207.04-.207.206.008 2.5.008 5 .008 7.5a.154.154 0 01-.19.19c-1.154-.007-2.308-.007-3.463-.007-.135-.001-.173.032-.173.17.004 2.847.004 5.695 0 8.543 0 .144.036.181.181.181 2.861-.004 5.723-.004 8.585 0 .13 0 .176-.025.176-.167-.005-2.853-.005-5.706 0-8.559 0-.142-.044-.167-.175-.167-1.105.006-2.21.001-3.316.006a.132.132 0 01-.165-.163v-6.109c-.001-.115.021-.16.151-.16h3.939a.12.12 0 01.15.146c-.006.419.003.839-.006 1.258-.003.138.038.169.173.169h4.3c1.422 0 2.845-.003 4.283.004.172.001.2-.05.2-.208-.007-.392.003-.784-.007-1.176-.003-.137.036-.17.172-.17 1.301.005 2.604.005 3.907 0 .141-.001.168.043.168.174-.004 2.025-.004 4.051 0 6.077.001.137-.037.17-.173.17-1.1-.006-2.2-.006-3.3-.006-.137-.001-.185.022-.185.175.005 2.854.005 5.707 0 8.56 0 .14.041.169.174.169 2.861-.004 5.723-.004 8.584 0 .14 0 .185-.029.185-.178-.006-2.847-.006-5.695 0-8.543 0-.159-.06-.183-.2-.183z"/></svg>