<svg xmlns="http://www.w3.org/2000/svg" width="45" height="45"><linearGradient id="a" gradientUnits="userSpaceOnUse" x1="45" y1="-209.537" x2="0" y2="-164.537" gradientTransform="matrix(1 0 0 -1 0 -165.077)"><stop offset="0" stop-color="#45a7c3"/><stop offset=".025" stop-color="#45a7c3"/><stop offset=".977" stop-color="#57c7dd"/><stop offset="1" stop-color="#57c7dd"/></linearGradient><path fill="url(#a)" d="M41-.539H4a4 4 0 00-4 4v37a4 4 0 004 4h37a4 4 0 004-4v-37a4 4 0 00-4-4z"/><g><g fill="#FFF"><path d="M35.149 19.752a3.188 3.188 0 010-.633 2.907 2.907 0 010-.646 3.188 3.188 0 010-.633 2.89 2.89 0 010-.644 3.124 3.124 0 010-.634 2.89 2.89 0 010-.644 3.124 3.124 0 010-.634 2.89 2.89 0 010-.644 3.144 3.144 0 010-.636 2.822 2.822 0 010-.643 3.124 3.124 0 010-.634 2.89 2.89 0 010-.644 3.073 3.073 0 010-.636c-.03-.214-.013-.428-.013-.642l-.111-.636c-.176-.483-.419-.926-.788-1.292-.361-.358-.79-.602-1.263-.777l-.594-.114-.641-.024H17.031l-.638.005-.639.099a3.629 3.629 0 00-1.279.697.392.392 0 01-.146.134c-.235.291-.465.586-.604.939-.048.122-.094.245-.141.368l-.103.603c0 .244 0 .489.002.733 0 .067.002.126-.086.143-.281.054-.554.144-.839.179l-.638.163c-.488.194-.932.451-1.286.848-.138.155-.25.327-.375.491l-.256.546c.001.035 0 .069-.031.093l-.128.64.004.635.141.639c.129.422.226.852.324 1.282l.149.594.174.684c.114.424.235.846.321 1.277.065.211.132.421.161.64.068.209.126.421.16.639l.004.078c.097.175.12.37.157.561.073.208.126.421.161.639.072.208.124.422.161.639a4 4 0 01.161.638c.025.029.026.064.024.099.07.174.113.355.136.54.078.207.125.422.162.639.071.207.131.418.16.636h-.002l.019.036c.104.414.23.823.308 1.244.074.21.126.425.167.644l.148.598c.076.222.129.45.173.68l.01.063c.078.185.112.382.153.576.062.209.123.418.151.635l.159.635c.114.151.115.339.161.511.068.256.145.51.182.773.074.208.122.422.157.639.072.208.122.422.159.64.069.172.097.355.14.534.063.259.182.495.287.738l.338.456c.069.051.13.109.174.183l.465.365.545.28.095.036.681.181.598.01.638-.103c.422-.126.849-.232 1.28-.322.208-.07.42-.126.638-.158.198-.069.402-.119.608-.156a15.44 15.44 0 011.309-.325 4.03 4.03 0 01.64-.163c.209-.067.42-.127.638-.157.422-.128.85-.232 1.28-.328l.644-.163.599-.146c.435-.128.875-.235 1.317-.335.209-.062.42-.118.635-.154.209-.076.427-.12.644-.166l1.276-.317c.21-.072.425-.12.642-.164.197-.057.394-.115.597-.145.191-.065.385-.116.584-.149l.093-.023c.211-.065.423-.126.642-.16.208-.067.42-.118.635-.156l.643-.199.253-.106.387-.249c.126-.11.253-.218.352-.355l.275-.498c0-.052.014-.099.044-.141l.157-.64.023-.636a2.907 2.907 0 010-.646 3.124 3.124 0 010-.634 2.83 2.83 0 010-.644 3.188 3.188 0 010-.633 2.89 2.89 0 010-.644 3.073 3.073 0 010-.636 2.83 2.83 0 010-.644 3.188 3.188 0 010-.633 2.907 2.907 0 010-.646 3.188 3.188 0 010-.633 2.89 2.89 0 010-.644 3.144 3.144 0 010-.636 2.822 2.822 0 010-.643 3.073 3.073 0 010-.636c-.02-.212-.02-.426.004-.641zm-21.67 1.28c.014.214.014.428 0 .642a5.19 5.19 0 010 .636v1.201l-.015.004c-.082-.315-.171-.629-.245-.946-.069-.299-.171-.59-.212-.895a3.541 3.541 0 01-.158-.607 6.509 6.509 0 01-.175-.676 18.594 18.594 0 01-.325-1.275l-.163-.641a4.647 4.647 0 01-.149-.591c-.135-.435-.238-.879-.344-1.322l-.157-.642a3.592 3.592 0 01-.161-.638 1.048 1.048 0 01-.005-.646c.093-.581.611-1.092 1.225-1.209a.97.97 0 01.305-.072c.16-.087.342-.106.512-.165.072-.025.077.029.076.081l-.01.732a5.19 5.19 0 010 .636c.014.214.014.429 0 .643.013.212.013.423 0 .635.014.214.014.429 0 .643.013.212.013.423 0 .635.014.214.014.429 0 .643.013.212.013.424 0 .635.014.214.014.428 0 .643a5.19 5.19 0 010 .636c.014.214.014.428 0 .643.014.213.014.425.001.637zm11.133 11.66a3.362 3.362 0 01-.543.133 3.51 3.51 0 01-.638.162 4.128 4.128 0 01-.639.163c-.418.132-.843.237-1.273.321l-.002-.002-.036.022-.605.15c-.211.07-.426.124-.644.167-.425.109-.846.235-1.276.322-.209.07-.423.124-.641.162a4.375 4.375 0 01-.638.159 1.154 1.154 0 01-.681-.019 1.159 1.159 0 01-.604-.317.637.637 0 01-.263-.292c-.153-.188-.217-.41-.246-.645-.07-.166-.085-.347-.138-.518-.031-.098.024-.101.089-.084.186.047.375.057.565.066H24.067l.541-.001.142-.008a.139.139 0 01-.138.059zm8.94-2.711c-.025.266-.172.471-.341.661-.223.251-.492.428-.831.484-.211.061-.427.04-.641.033H17.044c-.214.006-.428.022-.642-.009a1.218 1.218 0 01-.636-.213 1.002 1.002 0 01-.385-.316.85.85 0 01-.271-.467c-.053-.268-.142-.529-.092-.808a3.09 3.09 0 010-.645 3.357 3.357 0 01.001-.634c-.032-.424-.012-.848-.013-1.272 0-.206-.024-.413.018-.618a3.099 3.099 0 01-.005-.667c-.032-.424-.012-.848-.013-1.272 0-.206-.024-.413.018-.618a3.099 3.099 0 01-.005-.667c-.032-.424-.012-.848-.013-1.272 0-.206-.024-.413.018-.618a3.099 3.099 0 01-.005-.667c-.032-.424-.012-.848-.013-1.272 0-.206-.024-.413.018-.618a3.099 3.099 0 01-.005-.667c-.032-.424-.012-.848-.013-1.272 0-.206-.024-.413.018-.618a3.099 3.099 0 01-.005-.667c-.032-.424-.012-.848-.013-1.272 0-.206-.024-.413.018-.618a3.155 3.155 0 01-.005-.666 3.09 3.09 0 010-.645 3.357 3.357 0 01.001-.634c-.039-.453-.033-.897.263-1.281.116-.199.277-.349.482-.453.196-.127.408-.202.643-.206.212-.021.424-.011.636-.007.214-.015.427-.014.641 0h.637c.214-.015.427-.014.641 0h.637c.214-.015.427-.014.641 0h.637c.214-.015.427-.014.641 0h.637c.214-.015.427-.014.641 0h.637c.214-.015.427-.014.641 0h.637c.214-.015.427-.014.641 0h.637c.214-.015.427-.014.641 0h.637c.214-.015.427-.014.641 0h.637c.214-.015.427-.014.641 0h.637c.214-.015.427-.014.641 0h.637c.214-.015.427-.014.641 0 .213 0 .427-.026.638.029.243.028.458.119.64.285.145.083.255.2.33.35.157.185.231.402.248.641.047.212.023.425.017.638.014.214.015.428 0 .642a5.19 5.19 0 010 .636c.014.214.014.428 0 .643a5.19 5.19 0 010 .636c.014.214.014.428 0 .643a5.19 5.19 0 010 .636c.014.214.014.428 0 .643a5.19 5.19 0 010 .636c.014.214.015.428 0 .642a5.19 5.19 0 010 .636c.014.214.014.428 0 .643a5.19 5.19 0 010 .636c.014.214.014.428 0 .643a5.19 5.19 0 010 .636c.014.214.014.428 0 .643a5.19 5.19 0 010 .636c.014.214.014.428 0 .643a5.19 5.19 0 010 .636c.014.214.014.428 0 .643a5.19 5.19 0 010 .636c.014.214.014.428 0 .643a5.19 5.19 0 010 .636c.014.214.014.428 0 .643a5.19 5.19 0 010 .636c.014.214.014.428 0 .643a5.19 5.19 0 010 .636c.014.214.014.428 0 .643.013.212.013.423 0 .635-.004.21.053.431-.064.635z"/><path d="M17.678 18.028c.194.024.387.051.582.072.099.01.135.055.129.155-.008.127.002.254-.006.381-.006.1.034.129.129.126.148-.005.296.002.445.004.114-.077.022-.197.06-.29.001-.122-.032-.258.011-.362.044-.107.204-.08.307-.13.085-.042.174-.077.261-.116.034-.038.08-.052.128-.062.184-.126.348-.274.502-.433a.486.486 0 01.1-.177c.084-.206.157-.414.174-.638a2.091 2.091 0 00-.107-.637l-.159-.284-.357-.353-.281-.197c-.367-.192-.76-.328-1.133-.507-.052-.025-.098-.062-.146-.094-.218-.096-.396-.231-.45-.48-.064-.228-.055-.447.083-.65a.56.56 0 01.364-.317v.002l.036-.023a1.47 1.47 0 01.606-.082c.224-.028.435.029.641.108.12.013.216.083.321.131.038.017.082.051.104-.012.068-.198.182-.382.185-.599-.2-.094-.393-.204-.61-.258-.169-.031-.338-.064-.508-.091-.084-.014-.079-.068-.072-.128-.039-.106-.009-.216-.018-.324-.005-.055.018-.117-.04-.158-.127.002-.255.009-.382.004-.101-.005-.147.025-.139.133.007.1-.011.204.004.302.025.159-.067.225-.191.254-.189.043-.359.127-.531.21l-.291.218a2.092 2.092 0 00-.353.544c.003.037-.013.067-.035.095a2.18 2.18 0 00-.059.639c.023.081.045.162.07.242.105.344.342.581.632.773l.478.263c.06.006.11.036.16.067.22.079.432.178.638.287.16.063.309.143.415.286a.818.818 0 01.247.637c.013.277-.1.498-.306.677-.098.1-.206.184-.354.191a1.059 1.059 0 01-.641.057 1.75 1.75 0 01-.639-.123.65.65 0 01-.318-.132c-.242-.095-.245-.096-.331.161-.114.34-.199.322.226.505.131.056.278.089.419.133zM31.739 19.459c-.19-.105-.383-.207-.556-.341a.2.2 0 01-.117-.065c-.044-.002-.056.026-.062.062.02.318.02.319-.291.318-.084 0-.169-.005-.253-.008h-.636a5.5 5.5 0 01-.642 0h-.637a5.5 5.5 0 01-.642 0h-3.192a5.5 5.5 0 01-.642 0h-.636c-.026.002-.052.008-.078.007-.333-.012-.317.086-.299-.319v-.636-.642-.636-.642-.636-.642-.636-.642-.636-.642l-.001-.255c-.004-.023-.008-.046.027-.047l.314-.019-.455-.81c-.026-.046-.045-.104-.114-.049-.083.189-.192.365-.3.541-.006.015-.01.03-.017.044-.042.085-.138.195-.113.247.039.081.171.025.262.032.068.005.096.031.092.098-.005.074.012.149-.016.221.023.211.022.423 0 .634a2.83 2.83 0 010 .644c.023.211.022.423 0 .634a2.83 2.83 0 010 .644c.023.211.022.423 0 .634a2.83 2.83 0 010 .644c.022.212.022.424 0 .636.025.214.025.428 0 .643.023.211.022.423 0 .634a2.83 2.83 0 010 .644c.029.203.008.407.012.61l.044.024.637-.001c.214-.033.428-.033.641 0h.637c.214-.033.428-.033.641 0h.637c.214-.033.428-.033.641 0h.637c.214-.033.428-.033.641 0h.637c.214-.033.428-.033.641 0h.637c.214-.033.427-.033.641 0 .131-.001.262.004.393-.006.124-.01.167.032.161.158-.003.052-.071.173.082.156.212-.132.422-.266.636-.396.164-.097.166-.095.008-.203zM30.46 28.372a4.82 4.82 0 01-.636 0 4.438 4.438 0 01-.642 0 4.82 4.82 0 01-.636 0 4.451 4.451 0 01-.643 0 4.82 4.82 0 01-.636 0c-.127.003-.256.019-.382.006-.157-.016-.195.058-.19.192.006.207.016.414.009.621-.003.098.032.119.117.119.148-.001.297.005.446.009h.637c.214-.016.428-.016.641 0h.637c.214-.016.428-.016.641 0h.637l.222-.009.015-.604c-.003-.026-.008-.053-.008-.079-.005-.233-.005-.233-.229-.255zM25.71 28.38c-.121.003-.242-.005-.364-.008-.111.003-.222.014-.332.006-.117-.008-.167.029-.153.15.006.057-.005.115-.008.173l.014.613.066.004.031.001.383-.001c.121-.003.243-.011.364-.009.086.002.123-.024.121-.117-.005-.232-.004-.465.001-.698.002-.089-.036-.116-.123-.114zM20.874 22.122H17.68c-.105.002-.212.016-.316.003-.152-.019-.215.036-.197.186l-.001.64c-.004.091.031.132.131.125.127-.008.255.001.382.003h3.198c.056-.002.114-.011.169-.004.1.013.126-.04.127-.124a5.289 5.289 0 010-.642c.025-.262-.178-.159-.299-.187zM17.201 26.082l.158.001c.145-.046.295-.018.442-.018 1.121-.005 2.242-.006 3.363-.009l.007-.547-.006-.031c-.015-.302-.015-.302-.292-.343a3.218 3.218 0 01-.636 0 2.89 2.89 0 01-.644 0 3.198 3.198 0 01-.634 0 2.89 2.89 0 01-.644 0 3.198 3.198 0 01-.634 0c-.047.005-.093.013-.14.014-.356.005-.356.005-.375.36l.003.541.032.032zM21.165 28.324c.009-.127-.026-.189-.163-.17-.041.006-.084-.004-.126-.007-.764.003-1.529.008-2.293.01-.302.001-.605-.006-.907-.01-.121.003-.242.013-.363.005-.108-.006-.152.025-.145.139.008.136-.001.274-.003.411.002.089.008.179.004.268-.005.088.026.122.117.119.131-.005.262.003.393.005h3.193c.282-.018.282-.018.289-.314.001-.026.005-.052.008-.078-.001-.126-.013-.253-.004-.378zM30.698 22.313c-.025-.162-.16-.062-.237-.099h-.638c-.105.002-.21.009-.315.005-.072-.003-.108.025-.115.095a4.82 4.82 0 010 .636c-.018.176.069.225.23.202.065-.009.135.007.202.011.211-.019.423-.021.634.001.141-.003.269-.02.238-.214a5.415 5.415 0 01.001-.637zM30.652 25.272l-.015.006-.015-.004-.159-.003a4.758 4.758 0 01-.643 0 5.19 5.19 0 01-.636 0 4.758 4.758 0 01-.643 0 5.19 5.19 0 01-.636 0 4.743 4.743 0 01-.642 0 5.19 5.19 0 01-.636 0 4.743 4.743 0 01-.642 0 5.19 5.19 0 01-.636 0c-.109.003-.219.014-.328.007-.119-.008-.179.025-.159.154.004.025-.006.051-.009.077a4.5 4.5 0 01.001.636c.019.077.082.065.138.066l.358.007.607-.002.672.002.607-.002.671.002.607-.002.671.002.607-.002.672.002c.075-.035.186.051.235-.07a4.897 4.897 0 01.001-.641c-.032-.076.027-.169-.048-.235z"/><path d="M28.962 18.797l.223.008.637-.001c.182-.038.324-.115.334-.328a5.015 5.015 0 010-.637 4.286 4.286 0 010-.641 4.836 4.836 0 010-.637 4.286 4.286 0 010-.641 4.67 4.67 0 010-.637 4.286 4.286 0 010-.641l-.005-.128-.009-.063c-.056-.148-.184-.176-.32-.191h-.639l-.218.006c-.156.002-.269.068-.325.217l-.007.031a5.389 5.389 0 00-.005.127c.003.064.007.127.009.191.018.926-.022 1.851-.031 2.776-.003.26.003.521-.019.781-.023.254.119.4.375.408zM23.775 18.476c.005.194.11.298.296.328l.637.001c.052-.003.105-.007.157-.007.283-.003.364-.062.443-.322a2.878 2.878 0 01.001-.636 2.413 2.413 0 01.003-.641l-.018-.269c-.013-.205-.111-.322-.314-.329a11.484 11.484 0 00-.89-.002c-.21.009-.298.117-.307.33-.004.09-.006.18-.008.27.013.214.013.428 0 .641v.636zM26.487 18.794c.047.006.094.007.141.01h.637c.338-.028.397-.07.463-.33a4.64 4.64 0 01.002-.635 4.072 4.072 0 010-.644 4.328 4.328 0 010-.634 4.072 4.072 0 010-.644l-.004-.016c-.034-.458-.038-.462-.499-.466a29.839 29.839 0 00-.669.002c-.266.003-.364.11-.35.37.002.037-.004.074-.006.111.014.64.014 1.28 0 1.92.009.212.017.424-.005.636.026.228.087.295.29.32zM25.076 23.153c.088-.01.179.006.269.01a2.95 2.95 0 01.644 0c.211-.02.423-.021.634 0a2.95 2.95 0 01.644 0c.212-.02.424-.021.636 0l.638-.026.004-.187a2.106 2.106 0 010-.639l-.003-.062c-.063-.005-.126-.015-.189-.015h-3.234c-.062 0-.128.017-.187-.019-.062.001-.069.048-.08.093.017.214.018.429-.001.643-.016.171.066.221.225.202z"/></g></g></svg>