<svg xmlns="http://www.w3.org/2000/svg" width="45" height="45"><linearGradient id="a" gradientUnits="userSpaceOnUse" x1="44.62" y1="44.62" x2=".38" y2=".38"><stop offset="0" stop-color="#009cb2"/><stop offset="1" stop-color="#04b4bf"/></linearGradient><path fill="url(#a)" d="M41 0H4a4 4 0 00-4 4v37a4 4 0 004 4h37a4 4 0 004-4V4a4 4 0 00-4-4z"/><g fill="#FFF"><path d="M37.363 12.332A3.47 3.47 0 0034.052 9.8h-1.165V7.5h-2.306v2.295H14.426V7.502h-2.309v2.3h-.587a6.36 6.36 0 00-1.241.066 3.494 3.494 0 00-2.788 3.474v20.611a3.468 3.468 0 002.249 3.311c.294.094.595.165.9.215.032.008.066.014.1.021h23.492c.271-.038.539-.094.802-.167a3.445 3.445 0 002.411-2.774c.017-.09.03-.18.045-.27V13.007c-.045-.225-.075-.455-.137-.675zm-27.562.935a1.146 1.146 0 011.133-1.157H12.108v2.3h2.314v-2.296h16.144v2.294h2.31V12.12a.571.571 0 01.083-.011h1.104c.626.007 1.129.52 1.122 1.146.006.857 0 1.715 0 2.573v.886H9.809a.556.556 0 01-.008-.081v-3.357-.009zm25.386 5.784v14.903c.039.479-.228.931-.667 1.127a1.65 1.65 0 01-.5.112 4.147 4.147 0 01-.473 0h-22.52a1.138 1.138 0 01-1.164-.8 1.388 1.388 0 01-.059-.4v-14.95h25.384l-.001.008z"/><path d="M20.544 30.351a4.468 4.468 0 01-1.217-.684l-.609 1.366c.352.307.825.559 1.421.758.595.198 1.227.32 1.894.365v1.502h1.11v-1.515c1.019-.108 1.797-.418 2.334-.927.536-.51.805-1.13.805-1.861 0-.587-.147-1.058-.44-1.414a2.758 2.758 0 00-1.082-.805c-.429-.181-.968-.347-1.617-.501v-2.733c.776.09 1.506.334 2.192.73l.555-1.366a4.87 4.87 0 00-1.265-.568 6.306 6.306 0 00-1.482-.257v-1.502h-1.11v1.528c-1.01.1-1.782.406-2.314.921a2.5 2.5 0 00-.798 1.868c0 .586.144 1.058.433 1.414.289.356.647.627 1.076.811.429.185.963.354 1.604.507v2.706a5.384 5.384 0 01-1.49-.343zm2.599-2.078c.451.126.798.282 1.042.467a.882.882 0 01.366.737.995.995 0 01-.345.771c-.23.208-.584.348-1.062.42v-2.395zm-2.125-2.381a.862.862 0 01-.352-.718c0-.315.113-.581.338-.798.226-.217.568-.36 1.028-.432v2.409c-.441-.127-.779-.28-1.014-.461z"/></g></svg>