<svg xmlns="http://www.w3.org/2000/svg" width="45" height="45"><linearGradient id="a" gradientUnits="userSpaceOnUse" x1="43.934" y1="43.934" x2="1.066" y2="1.066"><stop offset="0" stop-color="#c2387a"/><stop offset="1" stop-color="#c9478f"/></linearGradient><path fill="url(#a)" d="M41 0H4a4 4 0 00-4 4v37a4 4 0 004 4h37a4 4 0 004-4V4a4 4 0 00-4-4z"/><path fill-rule="evenodd" clip-rule="evenodd" fill="#FFF" d="M34.931 11.578H10.143a3.173 3.173 0 00-1.435.268 2.902 2.902 0 00-1.7 2.753c-.007.669 0 1.339 0 2.008v13.757a2.948 2.948 0 001.152 2.458c.561.418 1.249.63 1.948.6h12.369c4.141-.001 8.278-.001 12.413.001a3.045 3.045 0 001.949-.6 2.93 2.93 0 001.153-2.432v-6.459-9.281a2.926 2.926 0 00-3.061-3.073zm.881 2.185c.093.242.176.434.238.634a.996.996 0 01.009.278v12.426l-8.347-5.519 8.1-7.819zm-2.553-.233v.005c-.577.558-1.117 1.081-1.663 1.598l-7.785 7.516a1.735 1.735 0 01-2.129.384 2.197 2.197 0 01-.462-.352c-3.096-2.987-6.19-5.975-9.283-8.964-.053-.051-.101-.106-.178-.187h21.5zM8.938 27.057v-.3-12.128a.997.997 0 01.3-.822l8.008 7.735-8.306 5.511-.002.004zm27.117 3.464a.959.959 0 01-.91.948c-.084.007-.169.007-.254.007H10.102a.967.967 0 01-1.128-.758 7.346 7.346 0 01-.025-1.267.396.396 0 01.2-.205l6.9-4.578 2.628-1.746v.005c.441.425.863.841 1.29 1.241a3.652 3.652 0 005.073-.014l1.242-1.194c.275.181.543.355.809.531 2.891 1.92 5.786 3.834 8.685 5.742a.526.526 0 01.286.551c-.024.244.001.491-.007.737z"/></svg>