<svg xmlns="http://www.w3.org/2000/svg" width="45" height="45"><linearGradient id="a" gradientUnits="userSpaceOnUse" x1="44.62" y1="44.62" x2=".38" y2=".38"><stop offset="0" stop-color="#aa3fa9"/><stop offset="1" stop-color="#b74fb8"/></linearGradient><path fill="url(#a)" d="M41 0H4a4 4 0 00-4 4v37a4 4 0 004 4h37a4 4 0 004-4V4a4 4 0 00-4-4z"/><g fill="#FFF"><path d="M30.481 23.03l-1.623-1.623-8.688 8.7-4.074-4.076-1.6 1.6 5.7 5.693z"/><path d="M37.363 12.332A3.47 3.47 0 0034.052 9.8h-1.165V7.5h-2.306v2.3H14.426V7.502h-2.309v2.3h-.587a6.36 6.36 0 00-1.241.066 3.494 3.494 0 00-2.788 3.474v20.611a3.468 3.468 0 002.249 3.311c.294.093.595.165.9.215.032.008.066.014.1.021h23.492c.271-.038.539-.094.802-.167a3.445 3.445 0 002.411-2.774c.017-.09.03-.18.045-.27V13.007c-.045-.225-.075-.455-.137-.675zm-27.562.944a1.134 1.134 0 01.86-1.13c.089-.023.181-.036.273-.036H12.108v2.3h2.314V12.109h16.144v2.3h2.31v-2.288a.572.572 0 01.083-.012h1.104c.626.007 1.129.52 1.122 1.146.006.857 0 1.715 0 2.573v.886H9.809a.7.7 0 01-.008-.08v-3.358zm25.386 5.775v14.903c.039.479-.228.931-.667 1.127a1.65 1.65 0 01-.5.112 4.147 4.147 0 01-.473 0h-22.52a1.138 1.138 0 01-1.164-.8 1.394 1.394 0 01-.059-.4v-14.95h25.384l-.001.008z"/></g></svg>