<svg xmlns="http://www.w3.org/2000/svg" width="45" height="45"><linearGradient id="a" gradientUnits="userSpaceOnUse" x1="45.467" y1="-322.256" x2=".467" y2="-277.256" gradientTransform="matrix(1 0 0 -1 0 -277.256)"><stop offset="0" stop-color="#2f6fd0"/><stop offset="1" stop-color="#398cd7"/></linearGradient><path fill="url(#a)" d="M41.467 0h-37a4 4 0 00-4 4v37a4 4 0 004 4h37a4 4 0 004-4V4a4 4 0 00-4-4z"/><g><g fill="#FFF"><path d="M13.79 22.698h-.406v.462c-.229.069-.445.11-.641.197a1.575 1.575 0 00-.924 1.663c.037.258.085.523.306.695.15.117.319.218.494.294.188.082.392.132.591.185.082.022.112.051.112.14-.004.586-.002 1.172-.003 1.758 0 .037-.004.073-.006.117-.283-.059-.529-.158-.73-.354-.227-.223-.289-.504-.281-.814h-.632c.023.37.107.714.315 1.017.327.476.787.725 1.371.767v.592h.397v-.588l.08-.009c.656-.064 1.153-.354 1.437-.974.299-.655.108-1.566-.671-1.893-.232-.098-.471-.18-.709-.263-.069-.024-.1-.05-.099-.13.004-.551.002-1.102.002-1.653 0-.03.003-.061.006-.096a.811.811 0 01.059.011c.409.099.653.361.758.763.009.033.035.086.055.087.194.007.389.004.593.004-.185-.811-.592-1.377-1.474-1.485v-.493zm-.476 2.912c-.207-.108-.409-.185-.579-.309-.258-.188-.33-.633-.192-.988.106-.273.449-.484.77-.467l.001 1.764zm1.256 1.182c.134.152.131.357.127.551-.001.063-.015.125-.024.188-.046.332-.255.52-.556.621-.115.039-.235.06-.361.091v-1.878c.302.1.603.187.814.427zM32.381 21.647c.432-.056.79.107 1.11.379.039.033.077.069.124.11l.381-.586c-.244-.116-.464-.242-.698-.328-.767-.28-1.843-.154-2.414.92-.114.215-.191.451-.278.68-.038.101-.029.25-.098.301-.074.055-.214.019-.325.026-.029.002-.072.01-.082.029-.065.13-.123.265-.191.417h.53v.366c-.091 0-.175-.002-.258.001-.028.001-.072.009-.082.028-.065.126-.122.256-.189.4.165 0 .309.004.452-.002.084-.004.115.019.137.109.069.278.136.56.242.826.218.543.591.947 1.166 1.12a2.23 2.23 0 001.727-.147c.107-.055.158-.113.148-.239-.013-.168-.003-.337-.004-.505 0-.026-.005-.051-.009-.079-.015.006-.023.007-.028.012-.032.028-.064.055-.094.085-.332.329-.732.453-1.193.4a1.123 1.123 0 01-.754-.396c-.293-.345-.4-.764-.477-1.211h.133c.46 0 .92.001 1.38-.001.036 0 .092-.004.104-.026.07-.127.13-.26.202-.408H31.2v-.379h.134c.569 0 1.137.001 1.706-.001.038 0 .097-.008.11-.031.066-.122.12-.251.188-.398h-2.114c.074-.464.228-.871.566-1.188.167-.158.364-.255.591-.284z"/><path d="M37.038 20.933a14.24 14.24 0 01-.723-1.172c-.731-1.361-1.448-2.731-2.168-4.098-.407-.772-.811-1.547-1.217-2.322.369-.092.732-.123 1.031-.278.215-.111.468-.377.484-.591.025-.336-.33-.464-.624-.491a5.168 5.168 0 00-1.04.019c-1.842.197-3.681.412-5.524.604-.125.013-.347-.078-.385-.175-.583-1.488-1.697-2.294-3.228-2.607-.139-.028-.297-.218-.347-.367-.088-.259-.08-.55-.149-.818-.086-.336-.323-.543-.674-.488-.344.054-.522.304-.508.66.008.208.021.419.059.623.06.323-.036.51-.358.644-1.35.56-2.166 1.577-2.443 3.008-.064.329-.19.451-.533.485-1.843.181-3.685.384-5.523.605a2.368 2.368 0 00-.931.323c-.41.253-.35.663.095.862.16.072.337.106.541.168-.448.851-.877 1.693-1.331 2.521a641.638 641.638 0 01-2.81 5.075c-.422.754-.687 1.55-.749 2.412-.169 2.332 1.027 4.458 3.087 5.488a5.638 5.638 0 006.283-.805c1.723-1.515 2.37-3.909 1.578-6.087-.229-.628-.641-1.189-.959-1.786-1.19-2.237-2.375-4.476-3.56-6.716-.041-.077-.058-.168-.095-.278l8.025-.887v.517c-.004 3.368-.01 6.737-.012 10.105-.002 2.396.001 4.793 0 7.189 0 .809-.003.813-.827.814-2.856.002-5.712.006-8.569-.004-.377-.001-.668.11-.928.378-.699.719-1.413 1.424-2.118 2.137-.226.229-.478.459-.329.832.151.378.492.411.834.427.111.005.223.001.334.001h10.825l13.918-.002c.344 0 .689-.023.85-.394.164-.379-.075-.632-.318-.876-.668-.671-1.35-1.33-1.999-2.02-.332-.353-.695-.489-1.179-.486-2.842.017-5.684.01-8.526.006-.723-.001-.723-.009-.723-.714V20.593v-5.768-.498l8.088-.892c-.508.969-.958 1.847-1.426 2.714-.833 1.543-1.623 3.113-2.533 4.609-.755 1.24-1.155 2.518-.991 3.964.262 2.316 1.933 4.22 4.226 4.807 2.248.576 4.658-.315 6.009-2.223 1.326-1.87 1.36-4.476.09-6.373zm-18.989 5.153c-.077 2.375-2.132 4.381-4.488 4.321-2.472-.063-4.452-2.112-4.377-4.551.067-2.179 1.823-4.42 4.545-4.296 2.105-.171 4.4 2.031 4.32 4.526zm-2.474-5.595l-.066.107c-1.26-.358-2.52-.382-3.778.008l-.081-.112 1.884-3.562.166.009 1.875 3.55zm16.441 13.807c1.028-.01 1.518.536 2.163 1.271H11.836l-.048-.111c.55-.45.835-1.157 1.8-1.151 6.142.041 12.285.051 18.428-.009zM20.523 13.354c-.219-.854.848-2.005 2.085-2.283 1.24-.278 2.787.586 2.989 1.722l-5.074.561zm11.72 1.644l.147-.011 1.89 3.563-.053.134c-1.266-.381-2.531-.399-3.792-.001l-.074-.12 1.882-3.565zm.088 13.479c-2.368.01-4.4-1.995-4.445-4.322-.05-2.573 2.115-4.555 4.421-4.536 2.446.02 4.442 1.984 4.446 4.433.005 2.399-2.01 4.415-4.422 4.425z"/></g></g></svg>