<svg xmlns="http://www.w3.org/2000/svg" width="45" height="45"><linearGradient id="a" gradientUnits="userSpaceOnUse" x1="44.62" y1="44.62" x2=".38" y2=".38"><stop offset="0" stop-color="#aa3fa9"/><stop offset="1" stop-color="#b74fb8"/></linearGradient><path fill="url(#a)" d="M41 0H4a4 4 0 00-4 4v37a4 4 0 004 4h37a4 4 0 004-4V4a4 4 0 00-4-4z"/><g fill="#FFF"><path d="M37.351 10.84c-.283-.04-.567-.069-.85-.1-.526-.057-1.053-.116-1.579-.172a.512.512 0 01-.486-.452 12.453 12.453 0 01-.127-.922c-.054-.496-.093-.99-.147-1.49a.284.284 0 00-.1-.195.341.341 0 00-.229.1 40.77 40.77 0 00-1.01 1.147c-.577.686-1.146 1.379-1.716 2.071-.143.175-.23.388-.252.613-.061.557-.114 1.115-.179 1.671a.386.386 0 01-.1.209c-.387.407-.787.812-1.187 1.212l-8.235 8.284a.363.363 0 00-.1.13.848.848 0 00.327.9.912.912 0 00.609.081.446.446 0 00.229-.151c3.119-3.115 6.237-6.231 9.353-9.349a.373.373 0 01.262-.126c.346-.02.69-.062 1.036-.078a2.601 2.601 0 001.687-.645c.558-.499 1.148-.962 1.713-1.454.416-.361.811-.742 1.216-1.114l.002.01v-.122a.538.538 0 00-.137-.058z"/><path d="M33.58 15.243a.214.214 0 00-.157-.078c-.233.007-.467.046-.7.04a1.286 1.286 0 00-1.128.631 12.182 12.182 0 012.332 8.993 11.92 11.92 0 01-4.61 8.068 12.284 12.284 0 01-14.576.401c-5.569-3.875-6.943-11.531-3.068-17.101a11.904 11.904 0 017.3-4.937 12.16 12.16 0 0110.212 2.15c.078-.102.163-.199.253-.291a.893.893 0 00.3-.6c.003-.199.021-.397.052-.594a.608.608 0 00-.372-.739 13.957 13.957 0 00-6.36-2.148 14.287 14.287 0 00-3.746.132c-1.395.249-2.746.7-4.011 1.338a14.434 14.434 0 00-6.124 6.01 13.598 13.598 0 00-1.607 5.235c-.022.221-.036.444-.054.666l-.005-.008v1.621c.011.049.019.099.023.149.031.917.179 1.827.439 2.707a14.116 14.116 0 006.723 8.725 13.867 13.867 0 009.106 1.712 13.586 13.586 0 007.3-3.367 14.51 14.51 0 003.357-4.262 14.282 14.282 0 001.5-5.3 14 14 0 00-.246-4.089 14.834 14.834 0 00-2.133-5.064z"/><path d="M20.84 21.727c.529-.551 1.057-1.104 1.583-1.658a2.03 2.03 0 00.136-.184 3.433 3.433 0 10.016 6.672 3.427 3.427 0 002.508-4.146c-.14.122-.282.233-.405.359-.607.581-1.213 1.164-1.818 1.748a1.525 1.525 0 01-.822.4 1.74 1.74 0 01-1.8-.886 1.69 1.69 0 01.214-1.893c.134-.133.258-.275.388-.412z"/><path d="M25.258 17.271l1.4-1.4a8.833 8.833 0 101.857 13.042 8.643 8.643 0 002.029-6.755 9.3 9.3 0 00-1.422-3.873c-.443.443-.852.863-1.274 1.269l-.005.003a.246.246 0 00-.057.342c.489.893.77 1.884.824 2.9a7.338 7.338 0 01-.449 2.935 6.877 6.877 0 11-12.679-5.32 6.877 6.877 0 019.089-3.46c.236.107.469.217.687.317z"/></g></svg>