<svg xmlns="http://www.w3.org/2000/svg" width="45" height="45"><linearGradient id="a" gradientUnits="userSpaceOnUse" x1="45.087" y1=".73" x2=".847" y2="44.971" gradientTransform="matrix(1 0 0 -1 0 45.89)"><stop offset="0" stop-color="#aa3fa9"/><stop offset="1" stop-color="#b74fb8"/></linearGradient><path fill="url(#a)" d="M41.467.539h-37a4 4 0 00-4 4v37a4 4 0 004 4h37a4 4 0 004-4v-37a4 4 0 00-4-4z"/><g><g fill="#FFF"><path d="M37.46 9.373a.855.855 0 00-.837-.865.887.887 0 00-.938.802c-.016.136-.007.275-.007.412v1.94h-2.741c0-.75.005-1.479-.002-2.208-.005-.563-.374-.946-.893-.947-.528-.001-.884.372-.891.941-.005.423-.001.847-.001 1.27v.949h-2.754v-.386c-.002-.646.011-1.292-.01-1.937a.851.851 0 00-.833-.834c-.483-.02-.864.284-.932.767-.028.198-.017.401-.018.602-.002.59-.001 1.18-.001 1.785h-2.744V11.3c0-.603.002-1.207-.001-1.81-.003-.597-.349-.977-.886-.981-.537-.004-.894.38-.897.969-.002.434-.001.868-.001 1.302v.878h-2.744c0-.746.005-1.465-.002-2.184-.005-.584-.376-.97-.909-.965-.52.005-.872.38-.88.956-.008.625-.001 1.249-.004 1.874 0 .111-.013.222-.019.327h-2.731v-.327c-.001-.656.007-1.313-.006-1.969-.01-.499-.384-.854-.874-.861a.892.892 0 00-.905.84c-.009.116-.002.233-.002.349v1.964h-2.74V9.545c-.001-.634-.353-1.038-.903-1.036-.546.002-.883.385-.885 1.013-.002.91-.001 1.82-.001 2.73l-.001 21.819v2.969h10.99v-1.781h-9.176V13.5H35.69v6.563h1.775v-.305-7.21c0-1.059.007-2.117-.005-3.175z"/><path d="M28.322 19.339c-4.905-.004-9.112 4.206-9.123 9.127-.011 4.897 4.228 9.123 9.134 9.105 4.9-.017 9.108-4.233 9.1-9.116-.008-4.886-4.232-9.112-9.111-9.116zm-.014 16.443c-4.129.017-7.302-3.142-7.319-7.285-.016-4.176 3.131-7.346 7.309-7.363 4.133-.016 7.308 3.132 7.337 7.274.029 4.186-3.122 7.357-7.327 7.374zM23.635 16.796H12.242v1.755h11.393v-1.755zM13.815 25.388H12.06v1.605h1.755v-1.605zM17.166 25.39h-1.755v1.602h1.755V25.39zM13.812 28.728h-1.754v1.606h1.754v-1.606zM13.801 33.663v-1.609H12.06v1.609h1.741zM17.152 32.048H15.41v1.616h1.742v-1.616zM17.16 28.732h-1.747v1.604h1.747v-1.604zM13.811 22.055h-1.753v1.604h1.753v-1.604zM17.162 22.057h-1.757v1.601h1.757v-1.601z"/><path d="M29.474 27.719h-.392v-.394c0-1.175.002-2.35-.002-3.525a1.459 1.459 0 00-.06-.467.88.88 0 00-.987-.567c-.442.083-.737.446-.739.938-.004 1.62-.006 3.239 0 4.859.002.595.372.945.993.947 1.599.004 3.197.004 4.796-.002.582-.002.982-.381.973-.9-.009-.523-.408-.886-.993-.888-1.196-.004-2.392-.001-3.589-.001z"/></g></g></svg>