<svg xmlns="http://www.w3.org/2000/svg" width="45" height="45"><linearGradient id="a" gradientUnits="userSpaceOnUse" x1="45" y1="45" x2="0" y2="0"><stop offset="0" stop-color="#45a7c3"/><stop offset=".025" stop-color="#45a7c3"/><stop offset=".977" stop-color="#57c7dd"/><stop offset="1" stop-color="#57c7dd"/></linearGradient><path fill="url(#a)" d="M41 0H4a4 4 0 00-4 4v37a4 4 0 004 4h37a4 4 0 004-4V4a4 4 0 00-4-4z"/><path fill-rule="evenodd" clip-rule="evenodd" fill="#FFF" d="M31.622 34.156V10.864a3.42 3.42 0 00-.056-.707 2.28 2.28 0 00-2.367-1.86h-11.56c-.694 0-1.391-.031-2.081.021a2.511 2.511 0 00-1.054.322 2.347 2.347 0 00-1.128 2.2v11.646c0 3.69.001 7.378.004 11.065 0 .283-.008.567.006.85l.003.129a2.292 2.292 0 002.402 2.178c4.475.006 8.949.006 13.423 0 .273.003.545-.034.808-.11a2.36 2.36 0 001.6-2.442zM19.104 9.494h5.677l.077 1.148h-5.754V9.494zm4.506 24.384a1.134 1.134 0 11-2.265-.143l.001-.06a1.134 1.134 0 112.266.09c.001.038 0 .075-.002.113zm5.714-3.098H15.682V11.867h13.642V30.78z"/></svg>