<svg xmlns="http://www.w3.org/2000/svg" width="45" height="45"><linearGradient id="a" gradientUnits="userSpaceOnUse" x1="44.62" y1="44.62" x2=".38" y2=".38"><stop offset="0" stop-color="#5756e1"/><stop offset="1" stop-color="#6c6ddf"/></linearGradient><path fill="url(#a)" d="M41 0H4a4 4 0 00-4 4v37a4 4 0 004 4h37a4 4 0 004-4V4a4 4 0 00-4-4z"/><path fill-rule="evenodd" clip-rule="evenodd" fill="#FFF" d="M28.384 8.504c0 .684.011 1.349-.006 2.013-.005.224.074.261.274.261 1.762-.006 3.524-.006 5.287-.006.3 0 .3 0 .3.293v12.376c0 .074-.014.149-.014.234-.078.005-.139.011-.2.011-.638.006-1.276.006-1.914.006a.184.184 0 00-.225.228v1.851c0 .067.01.134.017.215h.246c.611 0 1.222.011 1.832 0a.207.207 0 01.26.256v7.654c0 .338 0 .338-.343.338h-9.95c-.293 0-.293 0-.293-.3v-1.206-6.344c0-.451-.061-.393.4-.393h1.686c.074 0 .148-.011.234-.011v-2.271H19.03v2.282h2c.321 0 .321 0 .321.311 0 2.558-.008 5.117 0 7.675.001.225-.085.261-.278.261h-3.2c-2.283-.004-4.565-.004-6.847 0-.174 0-.263-.031-.263-.237v-7.8a.177.177 0 01.219-.212h1.894c.073 0 .146-.01.208-.01a.273.273 0 00.026-.061c0-.693.008-1.386 0-2.079a.211.211 0 00-.151-.136c-.249-.015-.499-.008-.749-.008h-1.425c-.007-.103-.017-.177-.017-.251V11.089c0-.314 0-.314.3-.314 2.435.001 4.87-.001 7.305.008a.89.89 0 01.459.141c1.842 1.226 3.682 2.454 5.521 3.683l1 .66 1.283-1.93c-.088-.062-.155-.111-.223-.156a730.43 730.43 0 00-1.834-1.224 1295.154 1295.154 0 00-5.041-3.351.661.661 0 00-.344-.113H8.725c-.074 0-.148.013-.234.013v27.998h28.018v-28h-8.125z"/></svg>