<svg xmlns="http://www.w3.org/2000/svg" width="45" height="45"><linearGradient id="a" gradientUnits="userSpaceOnUse" x1="45" y1="-322.256" x2="0" y2="-277.256" gradientTransform="matrix(1 0 0 -1 0 -277.256)"><stop offset="0" stop-color="#8048b7"/><stop offset="1" stop-color="#975ac1"/></linearGradient><path fill="url(#a)" d="M41 0H4a4 4 0 00-4 4v37a4 4 0 004 4h37a4 4 0 004-4V4a4 4 0 00-4-4z"/><path fill-rule="evenodd" clip-rule="evenodd" fill="#FFF" d="M31.079 14.594H24.78a1.05 1.05 0 10.001 2.1h6.299a1.05 1.05 0 10-.001-2.1zm0 6.857H24.78a1.048 1.048 0 100 2.098h6.299c.553.172 1.156-.184 1.328-.738a1.05 1.05 0 00-.689-1.313 1.728 1.728 0 00-.639-.047zm0 6.855H24.78a1.05 1.05 0 10.001 2.1h6.299a1.05 1.05 0 10-.001-2.1zm-9.827-15.503a1.05 1.05 0 00-1.484-.001l-.001.001-3.459 3.459-1.653-1.652a1.05 1.05 0 00-1.484 0 1.05 1.05 0 000 1.484l2.395 2.394a1.05 1.05 0 001.484.001l.001-.001 4.199-4.197a1.048 1.048 0 00.007-1.483l-.005-.005zm0 6.856a1.052 1.052 0 00-1.485 0l-3.459 3.459-1.651-1.656a1.052 1.052 0 00-1.485 0 1.051 1.051 0 00.001 1.485l2.395 2.394a1.05 1.05 0 001.484.001l.001-.001 4.199-4.198a1.05 1.05 0 00.001-1.483l-.001-.001zm0 6.856a1.052 1.052 0 00-1.485 0l-3.459 3.459-1.653-1.652a1.05 1.05 0 00-1.484 0 1.05 1.05 0 000 1.484l2.395 2.394a1.05 1.05 0 001.484.001l.001-.001 4.199-4.197a1.049 1.049 0 00.002-1.488zm13 10.983H10.743a2.383 2.383 0 01-2.478-2.266V9.768a2.38 2.38 0 012.478-2.266h23.515a2.38 2.38 0 012.477 2.266v25.465a2.382 2.382 0 01-2.477 2.266h-.006zM10.743 9.232a.564.564 0 00-.587.536v25.465c.015.31.277.549.587.536h23.515a.564.564 0 00.586-.536V9.768a.564.564 0 00-.586-.536H10.743z"/></svg>