<svg xmlns="http://www.w3.org/2000/svg" width="45" height="45"><linearGradient id="a" gradientUnits="userSpaceOnUse" x1="45.467" y1="-208.998" x2=".467" y2="-163.998" gradientTransform="matrix(1 0 0 -1 0 -163.998)"><stop offset="0" stop-color="#2f6fd0"/><stop offset="1" stop-color="#398cd7"/></linearGradient><path fill="url(#a)" d="M41.467 0h-37a4 4 0 00-4 4v37a4 4 0 004 4h37a4 4 0 004-4V4a4 4 0 00-4-4z"/><g><g fill="#FFF"><path d="M36.53 15.383c0-.406-.023-.811-.029-1.217-.004-.242-.093-.421-.315-.538-.737-.384-1.464-.789-2.208-1.161-3.483-1.743-6.971-3.477-10.457-5.214-.174-.086-.351-.169-.526-.253h-.063c-.605.295-1.212.585-1.814.886-3.52 1.763-7.038 3.527-10.556 5.294-.296.149-.579.323-.868.486a.448.448 0 00-.247.395c-.012.363-.043.726-.043 1.089-.001 4.496.001 8.991.006 13.487 0 .353.029.705.034 1.058.002.161.072.27.2.352.504.326 1 .665 1.514.974a7463.93 7463.93 0 0010.898 6.52c.274.164.562.306.843.458h.127c2.349-1.265 4.705-2.518 7.045-3.799 2.009-1.099 3.998-2.235 6.002-3.344.319-.176.451-.383.45-.767-.008-4.901.003-9.804.007-14.706zm-15.113-6.27c.429-.212.865-.41 1.291-.63.175-.09.319-.072.487.011 1.165.577 2.337 1.139 3.499 1.721 2.485 1.244 4.965 2.496 7.447 3.746.079.04.157.084.265.142-.145.087-.265.169-.392.235-.627.322-1.257.639-1.884.963-.084.043-.144.025-.217-.013-3.149-1.667-6.3-3.332-9.448-5-.47-.249-.93-.516-1.394-.775-.05-.028-.097-.06-.182-.113.197-.109.36-.204.528-.287zm9.973 11.603c0 .09-.033.184-.067.269-.086.213-.181.422-.288.668-.035-.007-.11-.016-.181-.034-.244-.064-.483-.146-.744-.082-.469.115-.783.39-.921.858-.009.03-.017.061-.027.091-.025.073-.037.173-.15.133-.094-.033-.231.009-.23-.184.008-1.318.004-2.635.008-3.953 0-.051.033-.128.073-.148.786-.394 1.574-.781 2.363-1.169.027-.013.059-.019.122-.039.011.157.029.292.03.428.006 1.053.012 2.108.012 3.162zm-14.255-9.46c.683-.34 1.369-.675 2.05-1.018a.374.374 0 01.381.001c1.577.822 3.161 1.632 4.736 2.458 2.018 1.058 4.031 2.128 6.045 3.193.064.034.124.072.218.127-.079.059-.13.109-.19.14-.716.368-1.433.735-2.153 1.094-.051.025-.142.002-.2-.026a944.608 944.608 0 01-4.152-2.075c-2.227-1.123-4.452-2.25-6.678-3.376-.163-.082-.322-.172-.512-.273.17-.093.311-.173.455-.245zm5.194 24.336v.598l-.062.017c-.367-.215-.735-.428-1.1-.646-3.461-2.07-6.922-4.142-10.384-6.21-.086-.051-.125-.103-.125-.209.003-4.628.003-9.255.003-13.883v-.126c.055.023.098.039.139.059 3.797 1.903 7.594 3.806 11.392 5.707.091.046.143.09.143.209-.005 4.828-.005 9.656-.006 14.484zm.517-15.777a912.833 912.833 0 01-4.082-2.039c-2.341-1.178-4.681-2.359-7.021-3.539-.073-.037-.142-.081-.238-.136.394-.206.76-.401 1.13-.59.801-.41 1.605-.814 2.406-1.226.109-.056.198-.049.306.005 3.315 1.667 6.631 3.331 9.947 4.996.386.194.769.392 1.153.588.055.028.108.058.187.102-.092.059-.157.109-.229.146-1.119.574-2.238 1.148-3.361 1.716-.05.025-.141.006-.198-.023zm12.397 9.957c0 .108-.03.168-.127.221-3.68 2.015-7.359 4.032-11.038 6.049-.141.077-.285.151-.474.25v-.651L23.6 21.109c0-.084.011-.144.1-.188 1.188-.59 2.373-1.186 3.559-1.779.055-.028.114-.048.194-.082.013.122.032.224.033.327.021 1.286.038 2.572.06 3.858.002.096-.008.221.045.282.115.132.258.242.453.262.323.034.646.077.966.133.49.086 1.066-.273 1.263-.8l.112-.301c.156.036.298.07.441.1.613.133 1.141-.156 1.374-.733.08-.198.216-.374.289-.573.074-.204.139-.423.144-.638.024-.975.027-1.95.034-2.925.004-.501-.002-1.002.004-1.502.001-.056.037-.139.081-.161.781-.392 1.565-.777 2.349-1.162.028-.014.059-.02.11-.038.009.141.025.27.025.4.008 3.083.017 6.167.019 9.25.002 1.644-.01 3.288-.012 4.933z"/><path d="M18.271 25.384c-.253-.333-.701-.33-.942.011-.452.64-.881 1.298-1.314 1.952a.828.828 0 00-.119.29.493.493 0 00.018.275.64.64 0 001.081.159c.019-.022.04-.043.085-.091.013.108.027.183.029.259.023.938.042 1.876.066 2.814.001.059.007.137.043.173.096.096.201.19.319.256.353.197.849-.093.856-.497.018-1.033.033-2.066.05-3.099.001-.055.005-.111.01-.205l.116.146c.182.239.359.482.548.715.089.11.19.215.302.298a.581.581 0 00.741-.062c.21-.201.259-.498.088-.731a179.626 179.626 0 00-1.977-2.663z"/></g></g></svg>