<svg xmlns="http://www.w3.org/2000/svg" width="45" height="45"><linearGradient id="a" gradientUnits="userSpaceOnUse" x1="45" y1="45" x2="0" y2="0"><stop offset="0" stop-color="#2f6fd0"/><stop offset="1" stop-color="#398cd7"/></linearGradient><path fill="url(#a)" d="M41 0H4a4 4 0 00-4 4v37a4 4 0 004 4h37a4 4 0 004-4V4a4 4 0 00-4-4z"/><g><g fill="#FFF"><path d="M11.63 34.142V7.522H9.992v1.755H8.517v1.755h1.475v8.922H8.517v1.755h1.475v8.922H8.517v1.755h1.475v3.51h3.276v1.58h1.638v-1.58h8.326v1.58h1.638v-1.58h8.326v1.58h1.638v-1.58h1.638v-1.755H11.63z"/><path d="M26.622 21.584h6.899v3.223h-6.899v-3.223zM26.622 13.751v6.078h6.899v-6.078l1.802 1.934 1.159-1.24-6.411-6.881-6.411 6.881 1.159 1.24 1.803-1.934zM14.977 21.154h1.638v11.265h-1.638V21.154zM19.329 13.745h1.638v18.673h-1.638V13.745zM23.68 26.64h1.638v5.779H23.68V26.64zM28.032 26.64h1.638v5.779h-1.638V26.64zM32.383 26.64h1.638v5.779h-1.638V26.64z"/></g></g></svg>