<svg xmlns="http://www.w3.org/2000/svg" width="45" height="45"><linearGradient id="a" gradientUnits="userSpaceOnUse" x1="44.62" y1="44.62" x2=".38" y2=".38"><stop offset="0" stop-color="#5756e1"/><stop offset="1" stop-color="#6c6ddf"/></linearGradient><path fill="url(#a)" d="M41 0H4a4 4 0 00-4 4v37a4 4 0 004 4h37a4 4 0 004-4V4a4 4 0 00-4-4z"/><path fill-rule="evenodd" clip-rule="evenodd" fill="#FFF" d="M36.911 23.251a3.78 3.78 0 00-2.917-1.7 1.88 1.88 0 10-2.071-2.173 1.824 1.824 0 00.363 1.434c.308.41.77.677 1.279.74a.426.426 0 01-.1.022 2.786 2.786 0 00-.955.256 3.668 3.668 0 00-1.627 1.548c-.114.194-.208.399-.308.585-.259-.283-.511-.587-.791-.856s-.587-.507-.887-.758a3.754 3.754 0 00-5.012-5.576 3.618 3.618 0 00-1.355 2.461 3.719 3.719 0 001.01 3.029 5.537 5.537 0 00-1.265.96 5.835 5.835 0 00-.949 1.286 8.458 8.458 0 00-3.151-1.673 4.686 4.686 0 10-5.569-7.42 4.49 4.49 0 00-1.376 3.5 4.665 4.665 0 002.43 3.918 8.539 8.539 0 00-3.2 1.7 8.392 8.392 0 00-2.995 6.418l-.002.008h1.88a6.58 6.58 0 1113.159.001h1.879c0-.686-.085-1.37-.255-2.035a8.57 8.57 0 00-1.345-2.87.138.138 0 01-.037-.15 3.746 3.746 0 014.084-2.426 3.745 3.745 0 013.158 3.231c.021.16.03.322.045.482h1.87v-.11-1.787a1.88 1.88 0 013.701-.433c.034.149.048.3.071.449h1.862a3.62 3.62 0 00-.624-2.061zm-20.996-1.7h-.003l-.078-.001a2.8 2.8 0 01-2.729-2.869 2.82 2.82 0 112.81 2.87zm10.349-.001a1.88 1.88 0 01-1.881-1.879v-.004-.038a1.868 1.868 0 011.895-1.839 1.88 1.88 0 01-.014 3.76z"/></svg>