<svg version="1.0" xmlns="http://www.w3.org/2000/svg" width="71.71" height="64.96"><path fill-rule="evenodd" clip-rule="evenodd" fill="#41BFD8" d="M22.13 35.41v-2.64a1.269 1.269 0 011.48-1.48h3.08v-2.68a1.236 1.236 0 011.42-1.44h20.36a1.254 1.254 0 011.47 1.49v21.31h9.88V33.56c-.15.1-.24.18-.34.25a1.213 1.213 0 01-1.63-.14 1.181 1.181 0 01-.04-1.63 60.6 60.6 0 012.54-2.53 1.12 1.12 0 011.58.01c.86.81 1.69 1.64 2.5 2.5a1.183 1.183 0 01-.023 1.674l-.027.026c-.481.459-1.24.45-1.71-.02-.1-.09-.19-.18-.38-.34v17.48c0 1.22-.38 1.6-1.61 1.6H49.94v2.69c0 1.19-.4 1.59-1.57 1.59H45.4v1.55c0 .42.01.83 0 1.25a1.229 1.229 0 01-1.349 1.321c-1.04.01-2.08.01-3.21.01 0 .73-.03 1.44.01 2.14.08 1.51-.33 1.99-1.95 1.98-6.59-.04-13.18-.02-19.76-.02-1.18 0-1.57-.4-1.57-1.59v-26.38c0-1.16.41-1.57 1.6-1.57.969-.011 1.949-.001 2.959-.001zm-2.06 2.47v24.61h18.28V37.88H20.07zm9.08-6.59h.64c4.76 0 9.52.007 14.28.02a1.2 1.2 0 011.33 1.32c.01.8 0 1.59 0 2.39v18.71c0 .18.02.35.03.51h2.04a2.69 2.69 0 00.03-.38c0-7.93.003-15.86.01-23.79 0-.45-.2-.46-.54-.46-5.76.01-11.51 0-17.27 0h-.55v1.68zm13.78 2.48H24.61v1.63c.11 0 .18.01.24.01h14.46a1.3 1.3 0 011.53 1.53v21.42h2.09V33.77zM17.81 17.68c1.765-7.255 9.077-11.705 16.332-9.94 1.047.255 2.061.634 3.018 1.13.08-.16.18-.31.26-.47C41.483.702 51.018-2.246 58.717 1.818A15.76 15.76 0 0166.8 12.59a15.347 15.347 0 01-.1 6.71.707.707 0 00.27.84c5.65 4.764 6.369 13.205 1.605 18.855-.157.186-.318.367-.485.544-.92.984-1.986 1.82-3.16 2.48a1.255 1.255 0 11-1.22-2.13 10.712 10.712 0 005.36-7.48 10.98 10.98 0 00-7.14-12.39c-.2-.07-.41-.12-.61-.21a1.22 1.22 0 01-.69-1.48c.173-.626.82-.994 1.446-.821l.004.001c.77.23 1.52.54 2.32.83.267-1.211.342-2.456.22-3.69-.609-7.324-7.042-12.768-14.367-12.159a13.311 13.311 0 00-11.273 8.37 1.268 1.268 0 01-2.14.7c-5.076-3.283-11.852-1.829-15.134 3.247a10.942 10.942 0 00-1.666 4.553 1.269 1.269 0 01-2.01 1.07c-5.487-2.542-11.996-.154-14.538 5.333C.95 31.251 3.337 37.76 8.825 40.302c1.076.499 2.226.819 3.405.948.38.04.76.06 1.14.08a1.22 1.22 0 11-.06 2.43C5.91 43.693-.035 37.639.032 30.239A13.4 13.4 0 0110.91 17.2a12.562 12.562 0 016.35.32c.17.05.35.1.55.16zm37.23 26.09h-2.49a1.226 1.226 0 110-2.44h4.98a1.226 1.226 0 110 2.44c-.83.01-1.66 0-2.49 0zm-25.86.81h-5.82a1.224 1.224 0 01-1.349-1.085l-.001-.015a1.2 1.2 0 011.3-1.34c2.14-.01 4.28-.013 6.42-.01 1.81 0 3.62 0 5.42.01a1.223 1.223 0 011.2.8 1.142 1.142 0 01-.38 1.34c-.31.182-.661.281-1.02.29-1.92.02-3.85.01-5.77.01zm.03 9.32c-1.97 0-3.94.01-5.92 0a1.193 1.193 0 01-1.28-1.31 1.161 1.161 0 011.2-1.121l.02.001c.83-.02 1.66-.01 2.49-.01 3.12 0 6.237.003 9.35.01a1.22 1.22 0 11.011 2.43H29.21zm0-4.66h-5.92a1.193 1.193 0 01-1.17-.69 1.033 1.033 0 01.12-1.22c.264-.28.618-.46 1-.51 3.98-.04 7.96-.03 11.94-.02a1.201 1.201 0 011.24 1.22 1.184 1.184 0 01-1.158 1.211c-.027.001-.054 0-.082-.001-1.99.02-3.98.01-5.97.01z"/></svg>