<svg version="1.0" xmlns="http://www.w3.org/2000/svg" width="59" height="65"><path fill-rule="evenodd" clip-rule="evenodd" fill="#41BFD8" d="M43.938 64.99c-.534-.05-1.069-.08-1.6-.13a1.629 1.629 0 01-1.569-1.67c.02-3.69.039-7.38.056-11.07a.422.422 0 01.335-.48c.575-.21 1.133-.46 1.746-.7v11.99h13.92V49.74c-.665 0-1.32.04-1.966-.01a5.12 5.12 0 01-1.273-.3 1.407 1.407 0 01-.955-1.35c-.04-.83-.048-1.66-.068-2.49v-.4h-4.25l.279-2.01c.1-.01.215-.02.328-.02 1.507 0 3.014 0 4.52.02a.72.72 0 01.459.21c1.71 1.85 3.413 3.7 5.108 5.55v14.79c-.08.075-.151.159-.213.25a1.676 1.676 0 01-1.55.9c-.464.02-.927.07-1.391.11H43.938zM12.96.01c.083.09.162.19.252.27 1.593 1.51 3.187 3.017 4.784 4.52.153.128.238.32.23.52-.008 2.52-.008 5.04 0 7.56a.414.414 0 01-.294.45c-.586.23-1.16.5-1.8.78-.01-.19-.023-.33-.024-.46-.012-2.37-.032-4.73-.024-7.09 0-.36-.121-.45-.471-.45A17 17 0 0113.726 6a1.917 1.917 0 01-1.889-1.91c-.048-.59-.043-1.19-.062-1.78 0-.08-.012-.15-.019-.24H2.139V19.3h8.711c-.142.64-.268 1.24-.421 1.84a.353.353 0 01-.27.2c-2.791-.03-5.582-.06-8.371-.12a1.642 1.642 0 01-1.664-1.56C.073 18.43.061 17.19.03 15.95c0-.18-.027-.37-.04-.56V1.94c.017-.09.04-.17.051-.26A1.91 1.91 0 011.688.12c.6-.06 1.2-.07 1.806-.11h9.466zm46.046 13.66c-.014.18-.037.35-.04.53-.033 1.8-.1 3.6-.077 5.4-.116.9-.858 1.59-1.764 1.64-2.114 0-4.227.05-6.341.08-.732.01-1.464 0-2.2 0-.052-.67-.1-1.32-.154-2.01h8.4V6.14c-.664-.03-1.328-.04-1.986-.1a3.845 3.845 0 01-1.173-.27 1.748 1.748 0 01-1.035-1.59c-.041-.69-.009-1.39-.009-2.11h-9.738v11.51c-.181-.06-.3-.09-.407-.14a8.993 8.993 0 00-1.08-.47.815.815 0 01-.651-.952l.003-.018c.035-2.7.02-5.4.034-8.09 0-.74.037-1.48.071-2.22A1.757 1.757 0 0142.372.14c.636-.07 1.278-.09 1.917-.13h9.462c.041.05.076.11.123.16 1.646 1.56 3.293 3.12 4.942 4.68.06.052.124.099.191.14l-.001 8.68zM-.006 46.02c.022-.26.054-.52.064-.78a2.09 2.09 0 011.964-2.01c1.024-.07 2.053-.06 3.08-.06 1.762-.01 3.524 0 5.3 0 .05.67.1 1.32.149 2.02h-.4c-2.546 0-5.092-.003-7.637-.01-.3 0-.4.06-.4.36.01 5.69.013 11.38.008 17.07 0 .1.01.19.016.32h13.938V50.94c.718.26 1.377.5 2.029.75a.335.335 0 01.1.25c-.014 3.76-.018 7.51-.062 11.27a1.487 1.487 0 01-1.728 1.64c-1.622.04-3.245.07-4.867.1a2.873 2.873 0 00-.414.04H3.705c-.207-.02-.414-.04-.622-.05-.545-.03-1.094-.02-1.636-.08a1.875 1.875 0 01-1.271-.8 1.315 1.315 0 01-.126-.72c-.029-1.06-.041-2.13-.059-3.19V46.02h.003zm13.2-19.72c.042.04.08.083.115.13a6.714 6.714 0 003.5 3.42 22.643 22.643 0 006.262 1.92c3.007.425 6.048.545 9.079.36 2.53-.052 5.04-.466 7.453-1.23a12.901 12.901 0 004.342-2.16 5.366 5.366 0 001.683-2.12 2.06 2.06 0 01.132-.21c.025.23.055.37.055.52-.007 2.16-.018 4.313-.033 6.46a1.006 1.006 0 01-.1.38 7.35 7.35 0 01-3.54 3.54 20.944 20.944 0 01-6.882 2.13 36.89 36.89 0 01-13.971-.51 16.863 16.863 0 01-5.659-2.37 6.591 6.591 0 01-2.379-2.85.843.843 0 01-.072-.32c-.011-2.23-.018-4.46-.023-6.69.009-.11.024-.22.038-.4zm2.133 5.19a3.107 3.107 0 00.6 2.6 5.908 5.908 0 001.9 1.44 21.33 21.33 0 008.2 2.14 43.76 43.76 0 006.964 0 21.145 21.145 0 006.938-1.59 11.078 11.078 0 002.739-1.58 3.133 3.133 0 001.03-2.89.66.66 0 00-.078-.13c-.221.1-.432.19-.64.29a27.166 27.166 0 01-10.293 2.38c-2 .08-4.017.03-6.024 0a28.59 28.59 0 01-8.986-1.68c-.777-.28-1.53-.64-2.35-.98zm30.5 4.99v2.49c-.008 1.48-.015 2.96-.038 4.44a1.473 1.473 0 01-.15.6 8.13 8.13 0 01-4.417 3.87 22.713 22.713 0 01-6.547 1.72 39.521 39.521 0 01-8.491.19 24.711 24.711 0 01-8.73-2.09 8.874 8.874 0 01-3.4-2.59c-.29-.415-.557-.846-.8-1.29a.566.566 0 01-.062-.28c-.01-2.23-.016-4.47-.02-6.7 0-.1.02-.2.032-.32.052.03.084.03.089.04a6.884 6.884 0 003.568 3.41 22.323 22.323 0 006.168 1.88c3.141.478 6.324.612 9.494.4a26.796 26.796 0 008.634-1.81 8.77 8.77 0 003.71-2.52c.333-.419.592-.889.955-1.439h.005zm-30.51 5.06a3.166 3.166 0 001.15 3.16c.361.303.75.571 1.162.8a20.798 20.798 0 008.166 2.24c2.699.245 5.416.225 8.112-.06a20.423 20.423 0 006.666-1.77 7.456 7.456 0 002.374-1.62 3.335 3.335 0 00.751-2.75c-.217.09-.4.17-.571.25a25.37 25.37 0 01-9.157 2.36 50.328 50.328 0 01-9.267-.04 26.117 26.117 0 01-8.626-2.23c-.252-.12-.506-.22-.765-.34h.005zM29.446 29.5a25.486 25.486 0 01-9.222-1.31 13.653 13.653 0 01-5.5-3.18 4.34 4.34 0 01-1.318-4.13 4.755 4.755 0 011.492-2.44 12.962 12.962 0 014.681-2.77 27.877 27.877 0 018.645-1.62c3.558-.17 7.119.287 10.519 1.35a13.885 13.885 0 015.272 2.86c.288.273.559.564.811.87a4.213 4.213 0 01-.393 5.83 12.342 12.342 0 01-4.478 2.83 24.677 24.677 0 01-9.245 1.71h-1.264zm.237-1.97a28.752 28.752 0 005.158-.4 18.397 18.397 0 006.268-2.18 6.959 6.959 0 002.134-1.84c.541-.64.611-1.555.173-2.27a4.774 4.774 0 00-1.23-1.47 11.402 11.402 0 00-2.818-1.59 24.33 24.33 0 00-7.362-1.62 29.141 29.141 0 00-8.289.43 19.188 19.188 0 00-5.9 2.18 6.312 6.312 0 00-1.856 1.59 2.2 2.2 0 00.044 2.97c.414.482.891.906 1.419 1.26 1.397.91 2.93 1.592 4.542 2.02 2.518.65 5.112.96 7.712.92h.005zM8.933 13.21l4.407.12a.472.472 0 01.272.04.656.656 0 01.3.34.486.486 0 01-.3.34 1.604 1.604 0 01-.619.08c-2.45.03-4.9.05-7.349.06-.291 0-.582-.04-.873-.05a.413.413 0 01-.484-.41.407.407 0 01.48-.44c.874-.03 1.749-.05 2.624-.07h1.54v-.01h.002zm40.8 0l4.407.12a.468.468 0 01.271.04c.132.08.232.204.283.35a.531.531 0 01-.306.34 1.608 1.608 0 01-.585.07c-2.473.02-4.946.05-7.419.06-.291 0-.582-.04-.873-.05a.425.425 0 11-.011-.85c.734-.02 1.468-.05 2.2-.06.676-.02 1.353-.01 2.03-.01v-.01h.003zm-.028 38.51c-1.318 0-2.636.01-3.954 0a.858.858 0 01-.468-.08.58.58 0 01-.181-.46.517.517 0 01.337-.3 4.22 4.22 0 01.869-.07c2.519.01 5.039.04 7.558.06.175-.013.35.011.515.07a.34.34 0 010 .679 3.89 3.89 0 01-.9.09c-1.26.01-2.519 0-3.779 0v.01h.003zm-40.831.01c-1.294 0-2.589 0-3.884-.01-.1 0-.209-.01-.313-.02a.386.386 0 01-.382-.43.38.38 0 01.408-.41c.629-.02 1.258-.06 1.887-.06 2.123.01 4.246.04 6.369.07.21-.012.42.011.621.07a.527.527 0 01.331.33.482.482 0 01-.32.35 7.088 7.088 0 01-1.217.1c-1.167.01-2.333 0-3.5 0v.01zm40.845-41.56c1.458.04 2.915.07 4.373.11a.475.475 0 01.273.04.673.673 0 01.327.35.499.499 0 01-.322.34c-.671.07-1.348.11-2.022.12-1.949.02-3.9.02-5.846.02-.337 0-.674-.05-1.012-.06a.383.383 0 01-.411-.354l-.001-.045a.362.362 0 01.374-.43c.792-.03 1.585-.06 2.377-.08.63-.01 1.26 0 1.89 0v-.011zm-40.542.93H4.839a.448.448 0 01-.547-.42c-.016-.28.15-.43.561-.44 1.4-.03 2.8-.06 4.2-.05 1.422.01 2.845.06 4.267.09a.475.475 0 01.273.04.72.72 0 01.319.35.481.481 0 01-.331.34c-.695.07-1.394.1-2.093.12-.769.02-1.54 0-2.31 0v-.03h-.001zm.019 42.81c1.272 0 2.543 0 3.814.01a1.83 1.83 0 01.62.07.472.472 0 01.284.31.457.457 0 01-.274.35 3.14 3.14 0 01-.863.1c-2.6.01-5.2.017-7.8.02-.093 0-.185-.02-.278-.02a.4.4 0 01-.4-.45.378.378 0 01.424-.39c.991-.02 1.982-.05 2.972-.07h1.5v.07h.001zm40.772 0h3.779a1.8 1.8 0 01.619.07.552.552 0 01.326.34.521.521 0 01-.329.35 2.738 2.738 0 01-.76.08c-2.624.01-5.248.017-7.873.02a.877.877 0 01-.515-.14.49.49 0 01-.1-.45.517.517 0 01.375-.26c1.119-.04 2.238-.06 3.357-.08h1.12v.07h.001zM9.374 7.14c1.143.02 2.507.05 3.871.09.513.02.694.14.692.39s-.212.4-.7.4c-2.286.04-4.573.06-6.859.08-.559.01-1.118-.04-1.678-.06a.378.378 0 01-.409-.4.36.36 0 01.38-.42c.967-.03 1.935-.06 2.9-.08.521-.01 1.046 0 1.793 0h.01zm40.567-.01c1.364.03 2.728.07 4.092.1h.07c.27.03.585.03.6.37.022.37-.313.41-.589.42-1.375.04-2.752.08-4.128.08-1.457.01-2.915-.03-4.373-.04a.45.45 0 01-.543-.43c-.012-.28.147-.43.562-.44 1.037-.03 2.075-.03 3.113-.05h1.19s-.004 0-.004-.01h.01zm-.053 50.69c-1.341 0-2.683.01-4.024 0a2.914 2.914 0 01-.417-.04.412.412 0 01.015-.82c.267-.02.534-.06.8-.06l7.558.06c.209-.004.418.023.619.08a.426.426 0 01.256.3.546.546 0 01-.241.35.764.764 0 01-.405.07c-1.388.04-2.775.08-4.162.11-.008-.01-.009-.03-.009-.05h.01zm-40.77 0c-1.365 0-2.73.01-4.094 0-.545-.01-.746-.13-.727-.43s.027-.45.685-.46c1.516-.02 3.033-.04 4.549-.03 1.19 0 2.379.04 3.569.06a1.72 1.72 0 01.514.07.54.54 0 01.3.34.63.63 0 01-.294.34.627.627 0 01-.339.05c-1.387.04-2.774.07-4.162.11v-.05h-.001zm.013 3.06c-1.295 0-2.59 0-3.884-.01-.186 0-.372-.03-.558-.04a.415.415 0 010-.83c.652-.02 1.3-.06 1.956-.06 2.158.02 4.316.05 6.474.07.174-.003.347.021.513.07.136.06.239.177.28.32a.6.6 0 01-.284.35.885.885 0 01-.407.06c-1.364.04-2.729.07-4.093.1v-.03h.003zm40.758 0c-1.283 0-2.566 0-3.849-.01-.2 0-.394-.03-.592-.04a.38.38 0 01-.37-.44.35.35 0 01.383-.38c.652-.03 1.3-.07 1.957-.07 2.169.02 4.338.05 6.508.07.174-.005.348.022.512.08a.498.498 0 01.26.33.482.482 0 01-.24.32 1.07 1.07 0 01-.441.07c-1.376.04-2.752.07-4.127.1-.011-.01-.011-.021-.011-.031h.01zM8.136 16.26c1.224.04 2.448.08 3.671.13a.665.665 0 01.413.14.33.33 0 01-.175.57 2.57 2.57 0 01-.623.08l-5.881.06c-.267 0-.535-.04-.8-.05a.43.43 0 110-.86l2.134-.06c.42-.01.84 0 1.26 0l-.009-.01h.01zm42.691 0l3.358.12a.337.337 0 01.2.03.675.675 0 01.305.34.488.488 0 01-.315.35c-.449.067-.903.104-1.357.11-1.762 0-3.524 0-5.286-.02a.41.41 0 01-.507-.45.421.421 0 01.515-.41c1.027-.01 2.054-.01 3.081-.01a.175.175 0 01-.005-.06h.011zM7.327 4.11c.746 0 1.493-.01 2.239.01a.392.392 0 01.469.47.4.4 0 01-.493.46c-1.6-.01-3.194-.04-4.791-.06a.384.384 0 01-.456-.39.39.39 0 01.445-.43c.862-.04 1.724-.09 2.585-.13a.186.186 0 00-.007.07h.009zm40.746.94c-.711 0-1.423.01-2.134 0a1.367 1.367 0 01-.579-.1.559.559 0 01-.277-.39.322.322 0 01.338-.38c1.678-.02 3.356-.04 5.034-.05.307-.01.365.23.365.47a.381.381 0 01-.4.44h-2.345v.01h-.002zM7.126 48.77c-.781-.04-1.562-.07-2.342-.11a.443.443 0 01-.478-.31.413.413 0 01.469-.53c1.4-.03 2.8-.06 4.2-.08.21 0 .42.01.63.02a.414.414 0 01.435.49.388.388 0 01-.426.45H7.13c-.012.02-.013.04-.013.07h.009zm41.479-.01c-.549-.02-1.213-.05-1.876-.08a1.272 1.272 0 01-.274-.05.36.36 0 01-.315-.41.384.384 0 01.368-.4h.018c1.282-.02 2.564-.05 3.846-.06a.415.415 0 01.449.48.4.4 0 01-.456.45c-.557.01-1.105.05-1.765.07h.005z"/></svg>