<svg version="1.0" xmlns="http://www.w3.org/2000/svg" width="56" height="56"><circle opacity=".8" fill="#FFF" cx="28" cy="28" r="28"/><path fill-rule="evenodd" clip-rule="evenodd" fill="#2A2A2A" d="M28.29 23.72h-4.47v-4.4h-1.51v4.4h-4.46v1.41h4.46v4.37h1.51v-4.37h4.47v-1.41zm3.67 8.38c.53.53 1.06 1.04 1.59 1.57.29-.29.58-.59.88-.88a.613.613 0 011.02-.01l6.29 6.29a.613.613 0 01.01.99l-2.7 2.7a.61.61 0 01-.97 0l-6.33-6.33a.6.6 0 01.01-.97c.3-.3.61-.6.9-.88l-1.57-1.6c-4.712 4.282-12.003 3.933-16.284-.778-4.282-4.712-3.933-12.003.778-16.284A11.528 11.528 0 0131.96 32.1zm-8.53-17.91c-5.664.003-10.253 4.596-10.25 10.26.003 5.664 4.596 10.253 10.26 10.25 5.664-.003 10.253-4.596 10.25-10.26v-.02c-.008-5.658-4.602-10.238-10.26-10.23zm11.52 19.82l-1.93 1.93c1.84 1.85 3.7 3.71 5.52 5.53.64-.64 1.3-1.29 1.95-1.93-1.84-1.83-3.69-3.69-5.54-5.53z"/></svg>