<svg version="1.0" xmlns="http://www.w3.org/2000/svg" width="65" height="65"><path fill-rule="evenodd" clip-rule="evenodd" fill="#41BFD8" d="M53.37 45.6l1.879-1.88-1.482-1.48-1.879 1.88-1.978-1.98a19.771 19.771 0 002.5-9.64c0-.3-.032-.59-.045-.89a10.888 10.888 0 008.429-10.64h-2.1a8.814 8.814 0 01-6.537 8.54c-1.483-9.716-9.828-16.9-19.657-16.92-.3 0-.589.03-.885.04A10.907 10.907 0 0020.972 4.2v2.1a8.814 8.814 0 018.54 6.54c-9.719 1.48-16.906 9.829-16.924 19.66 0 .3.031.59.045.88a10.907 10.907 0 00-8.429 10.65h2.1a8.814 8.814 0 016.537-8.54c1.632 10.854 11.753 18.33 22.606 16.698a19.904 19.904 0 006.694-2.278l1.978 1.98-1.879 1.88 1.482 1.48 1.879-1.88L55.61 63.38a5.495 5.495 0 007.771-7.77L53.37 45.6zM32.5 14.68c8.824.02 16.307 6.491 17.6 15.22l-2.065.34A15.725 15.725 0 0032.5 16.78c-.053 0-.106.01-.159.01l-.346-2.08c.17-.01.334-.03.505-.03zm0 4.2c7.522.002 13.618 6.102 13.616 13.624-.002 7.522-6.102 13.618-13.624 13.616-7.521-.002-13.616-6.1-13.616-13.621.01-7.519 6.104-13.611 13.624-13.619zM14.684 32.5c.016-8.827 6.486-16.314 15.217-17.61l.344 2.07A15.733 15.733 0 0016.78 32.5c0 .05.007.1.008.16L14.71 33c-.005-.17-.026-.33-.026-.5zM32.5 50.32c-8.824-.02-16.307-6.491-17.6-15.22l2.065-.35c1.254 8.585 9.231 14.528 17.816 13.274A15.712 15.712 0 0048.22 32.5c0-.05-.007-.11-.008-.16l2.078-.35c0 .17.026.34.026.51-.012 9.835-7.981 17.806-17.816 17.82zm11.455-1.56a20.031 20.031 0 004.806-4.81l1.645 1.65-4.806 4.81-1.645-1.65zm15.539 14.13a3.383 3.383 0 01-2.4-.99L47.085 51.89l4.806-4.81L61.9 57.089a3.4 3.4 0 01-2.406 5.801zm-3.938-44.01a9.435 9.435 0 10-9.432-9.44 9.45 9.45 0 009.432 9.44zm3.144-2.82a7.224 7.224 0 01-6.288 0v-1.38a3.144 3.144 0 016.288 0v1.38zm-5.24-8.71a2.1 2.1 0 112.11 2.09h-.01a2.1 2.1 0 01-2.1-2.09zm2.1-5.24a7.328 7.328 0 015.229 12.47 5.233 5.233 0 00-2.3-4.24 4.192 4.192 0 10-5.928-.072l.072.072a5.233 5.233 0 00-2.3 4.24 7.329 7.329 0 015.223-12.47h.004zM9.448 18.88A9.435 9.435 0 10.016 9.44a9.45 9.45 0 009.428 9.44h.004zm3.144-2.82a7.224 7.224 0 01-6.288 0v-1.38a3.144 3.144 0 016.288 0v1.38zm-5.24-8.71a2.1 2.1 0 112.11 2.09h-.01a2.101 2.101 0 01-2.104-2.09h.004zm2.1-5.24a7.328 7.328 0 015.229 12.47 5.233 5.233 0 00-2.3-4.24 4.192 4.192 0 10-5.928-.072l.072.072a5.235 5.235 0 00-2.3 4.24A7.329 7.329 0 019.444 2.11h.008zm0 44.01a9.435 9.435 0 109.432 9.44c-.003-5.212-4.228-9.438-9.44-9.439l.008-.001zm3.144 16.049a7.224 7.224 0 01-6.288 0v-1.37a3.144 3.144 0 116.288-.008V62.169zm-5.24-8.71a2.1 2.1 0 112.1 2.1 2.1 2.1 0 01-2.108-2.092v-.008h.008zm7.325 7.23a5.233 5.233 0 00-2.3-4.24 4.192 4.192 0 10-5.928-.072l.072.072a5.253 5.253 0 00-2.3 4.24 7.337 7.337 0 01.073-10.376A7.338 7.338 0 0114.674 60.69l.007-.001zm6.3-30.29v7.34h23.056v-11.53H37.74v9.43h-2.1V22.02h-6.288v13.62h-2.1V30.4h-6.288.017zm18.864-2.089h2.1v7.33h-2.1v-7.33zm-8.384-4.19h2.1v11.52h-2.1V24.12zm-6.288 11.52h-2.1V32.5h2.1v3.14z"/></svg>