<svg version="1.0" xmlns="http://www.w3.org/2000/svg" width="47.219" height="68"><path fill-rule="evenodd" clip-rule="evenodd" fill="#41BFD8" d="M22.355 68a20.123 20.123 0 01-2.062-.43 10.881 10.881 0 01-7.6-9.64 10.524 10.524 0 013.013-8.34 10.27 10.27 0 015.979-3.25c5.89-.999 11.508 2.863 12.684 8.72a10.985 10.985 0 01-6.473 12.15 8.271 8.271 0 01-2.8.73 1.852 1.852 0 00-.233.06h-2.508zm10.076-10.82a7.246 7.246 0 00-.545-3.43 9.085 9.085 0 00-9.478-5.48 8.98 8.98 0 00-7.377 11.43c.817 2.96 4.054 6.08 7.564 6.24 1.281.123 2.574.008 3.813-.34a8.937 8.937 0 004.529-3.4 7.082 7.082 0 001.494-5.02zM23.05 0c1.249.43 1.517 1.57 1.892 2.69.389-.23.715-.45 1.066-.62.471-.241.959-.448 1.459-.62a1.746 1.746 0 011.687.4 5.002 5.002 0 011.6 2.43 1.861 1.861 0 01-.483 1.98c-.466.411-.957.792-1.471 1.14-.155.12-.325.22-.54.36.2.24.389.45.565.67.304.349.586.716.843 1.1a1.41 1.41 0 01-.3 1.91 2.482 2.482 0 01-1.654.69c-2.114.12-4.227.26-6.341.35-1.039.065-2.08.065-3.119 0a2.09 2.09 0 01-1.7-2.96c.752-1.58 1.562-3.14 2.371-4.69.623-1.2 1.3-2.38 1.924-3.57A2.433 2.433 0 0122.419 0h.631zm-.378 2.26c-.14.23-.236.37-.315.52-1.226 2.3-2.46 4.61-3.669 6.92-.368.7-.635.89.533.84 2.452-.1 4.9-.24 7.353-.37.306-.01.61-.05 1-.09-.87-.89-1.678-1.72-2.53-2.6a112.95 112.95 0 013.48-2.35.394.394 0 00.155-.59c-.168-.29-.345-.57-.522-.86a.315.315 0 00-.5-.11c-.4.23-.813.44-1.213.67-.7.41-1.389.83-2.095 1.23-.437.24-.468.22-.646-.23-.186-.48-.361-.95-.528-1.43s-.311-.96-.503-1.55zM6.794 15.1c-.188-.34-.354-.62-.51-.91a9.316 9.316 0 01-.63-1.23 2.014 2.014 0 01.609-2.36 9.451 9.451 0 011.765-1.15 2.015 2.015 0 012.4.4c.318.316.607.661.862 1.03.215.29.395.6.611.93.2-.18.38-.35.568-.5.357-.311.733-.598 1.127-.86a1.66 1.66 0 012.492 1.02c.138.68.235 1.368.289 2.06.035.27.061.55.075.83a.23.23 0 00.309.25 67.653 67.653 0 019.225-.29c1.352.01 2.7.15 4.054.23.125.01.25.01.462.02v-1.05c0-.62-.025-1.25-.014-1.87a2.231 2.231 0 013.358-2.12c2.736 1.41 5.427 2.89 8.136 4.35.415.214.748.558.948.98a1.276 1.276 0 01-.113 1.46c-.312.38-.686.71-1.068 1.09.128.09.284.19.442.3.925.61 1.869 1.19 2.768 1.84.398.315.76.674 1.078 1.07a4.65 4.65 0 01-.039 6.18 13.042 13.042 0 01-4.3 3.1c-.432.222-.878.416-1.336.58a7.214 7.214 0 00-2.416 1.44c-2.942 2.47-5.911 4.91-8.86 7.37a1.99 1.99 0 00-.515.7c-.47 1.05-.889 2.11-1.363 3.15a2.886 2.886 0 01-2.774 1.84c-.681.01-1.366.02-2.045-.03a2.52 2.52 0 01-2.1-1.35 12.418 12.418 0 01-1.031-2.15 6.71 6.71 0 00-2.4-3.27c-2.843-2.26-5.608-4.61-8.412-6.92a2.803 2.803 0 00-.8-.47 17.502 17.502 0 01-5.167-2.78 6.815 6.815 0 01-2.045-2.46 4.214 4.214 0 01.258-4.2 8.803 8.803 0 012.959-2.83.82.82 0 00.5-.94c-.093-.637.2-1.269.746-1.61a6.702 6.702 0 011.068-.56c.27-.119.547-.223.829-.31zm9.83 1.57c0 .49-.01.98 0 1.46.027 1.09.093 2.17.088 3.26a2.191 2.191 0 01-1.9 2.25 2.673 2.673 0 01-1.638-.35c-2-1.03-4-2.08-6-3.12a1.533 1.533 0 00-2.5.1 6.927 6.927 0 00-2.155 1.98 2.337 2.337 0 00.015 2.87 6.473 6.473 0 001.741 1.68 18.664 18.664 0 004.969 2.34 40.329 40.329 0 009.73 1.82c4.783.377 9.594.163 14.324-.64a28.574 28.574 0 007.66-2.37 10.786 10.786 0 003.38-2.33 2.613 2.613 0 00.072-3.77 9.733 9.733 0 00-2.762-2.13.49.49 0 00-.121 0c.031.15.05.28.087.41a1.97 1.97 0 01-.518 2.02 5.532 5.532 0 01-2.1 1.38 2.024 2.024 0 01-2.245-.48 8.29 8.29 0 01-.837-1.05c-.2-.28-.378-.57-.588-.9-.236.21-.429.39-.634.56-.31.277-.639.531-.986.76a1.647 1.647 0 01-2.586-1.09 14.01 14.01 0 01-.279-2.06c-.076-.86-.107-1.72-.158-2.6-4.672-.54-9.39-.54-14.062 0h.003zm17.585 15.69l-.028-.09a64.886 64.886 0 01-21.225.03c.062.089.134.17.217.24 2.2 1.82 4.409 3.63 6.6 5.47.231.201.416.45.541.73.511 1.15.99 2.31 1.479 3.47.163.423.549.721 1 .77.422.06.848.08 1.274.06a1.576 1.576 0 001.514-1.11c.363-.94.77-1.86 1.139-2.79.157-.411.416-.776.752-1.06 1.526-1.3 3.049-2.6 4.569-3.9.713-.611 1.441-1.21 2.165-1.821h.003zm-22.5-17.22c-.05-.03-.1-.07-.15-.1-.119-.18-.235-.37-.356-.55-.665-1-1.333-2-1.993-3a.317.317 0 00-.515-.11c-.3.19-.6.39-.9.58a.348.348 0 00-.117.57c.608.95 1.2 1.92 1.792 2.88.137.22.266.45.445.75-1.184.42-2.313.83-3.5 1.25.163.1.276.17.4.24 2.4 1.27 4.8 2.536 7.2 3.8.637.34.724.28.691-.45-.112-2.49-.229-4.983-.352-7.48-.016-.33-.05-.65-.075-.98-.039-.02-.078-.05-.116-.07l-2.454 2.67zm28.989.37c-.1-.07-.148-.13-.206-.16-2.483-1.33-4.966-2.67-7.453-4-.286-.15-.453-.03-.473.3-.008.14-.007.28 0 .42l.3 7.03c.019.42.077.83.125 1.33.92-.9 1.772-1.75 2.648-2.61.116.18.191.29.266.41.674 1.03 1.352 2.07 2.018 3.11a.418.418 0 00.638.16l.887-.54a.342.342 0 00.113-.55c-.494-.78-.974-1.57-1.456-2.36-.245-.4-.484-.81-.774-1.29 1.133-.42 2.222-.83 3.363-1.25h.004zM26.116 53.59c-.322-.18-.611-.34-.911-.49a2.959 2.959 0 00-2.223-.22 2.26 2.26 0 00-1.254.93 1.213 1.213 0 00.52 1.95c.595.216 1.205.387 1.826.51.616.15 1.248.25 1.853.43a3.227 3.227 0 011.606 5.11 4.307 4.307 0 01-2.206 1.54c-.242.07-.486.14-.754.22v1.34h-1.939c0-.32-.007-.61 0-.91a.584.584 0 00-.427-.62 7.006 7.006 0 01-2.926-1.92c.5-.44.986-.87 1.5-1.32.189.17.359.34.547.48a3.551 3.551 0 003.4.78 2.176 2.176 0 001.33-1.04 1.09 1.09 0 00-.595-1.66c-.654-.22-1.346-.32-2.016-.49a15.51 15.51 0 01-1.892-.55 3.323 3.323 0 01-.933-5.68 10.865 10.865 0 011.738-1.06.445.445 0 00.289-.47c-.021-.33 0-.67 0-1.02h1.936c0 .29.013.58 0 .86a.539.539 0 00.422.58c.681.281 1.347.598 1.994.95.456.25.447.4.094.77-.333.331-.658.661-.986 1.001h.007z"/></svg>