<svg xmlns="http://www.w3.org/2000/svg" width="18" height="18"><path d="M0 16.972l.051-.455c.155-1.286.649-2.432 1.441-3.452.82-1.056 1.852-1.851 3.038-2.454a10.41 10.41 0 011.71-.679C4.555 8.834 3.622 7.303 3.604 5.274c-.014-1.533.557-2.845 1.662-3.905 2.233-2.144 5.825-1.973 7.82.367 1.082 1.27 1.507 2.745 1.246 4.39-.261 1.649-1.151 2.897-2.565 3.795l.099.033c1.295.392 2.473 1.005 3.502 1.889 1.209 1.039 2.062 2.308 2.434 3.872.091.382.122.778.181 1.167l.016.089v.386c-.005.011-.013.021-.015.032-.106.487-.501.783-.987.739-.446-.041-.781-.424-.802-.903a6.044 6.044 0 00-.058-.658 5.172 5.172 0 00-1.407-2.849c-1.48-1.546-3.331-2.267-5.439-2.383a7.15 7.15 0 00-1.977.18c-1.413.318-2.676.931-3.734 1.93-1.101 1.039-1.74 2.3-1.782 3.836a.895.895 0 01-.77.844.9.9 0 01-.976-.594L0 17.358v-.386zM8.998 1.667a3.603 3.603 0 000 7.205 3.603 3.603 0 100-7.205z"/></svg>