<svg version="1.0" xmlns="http://www.w3.org/2000/svg" width="65.03" height="65.03"><path fill-rule="evenodd" clip-rule="evenodd" fill="#41BFD8" d="M54.94 48.85L48.79 55c.75.72 1.55 1.48 2.33 2.26a1.086 1.086 0 01-.45 1.88 1.176 1.176 0 01-1.15-.41l-5.54-5.54c-1.37-1.37-2.74-2.76-4.14-4.12a3.382 3.382 0 01-1.04-3.8.425.425 0 00-.09-.39c-1-1.02-2.03-2.03-3.04-3.05-.21-.22-.37-.1-.55.02a20.475 20.475 0 01-6.11 2.75c-1.47.37-2.98.56-4.47.79-.7.11-.71.06-.71.75v2.61h.59c2.61 0 5.22.003 7.83.01a1.134 1.134 0 011.33 1.31c.01.92.01 1.85 0 2.77a.556.556 0 00.36.61 3.219 3.219 0 011.63 3.97 3.262 3.262 0 01-3.65 2.14 3.225 3.225 0 01-2.67-3.42 3.07 3.07 0 011.78-2.67.589.589 0 00.38-.64c-.02-.61 0-1.22 0-1.9h-8.39a1.146 1.146 0 01-1.36-1.34c0-1.22-.01-2.44 0-3.66 0-.28-.02-.47-.37-.5-.94-.08-1.87-.18-2.87-.28v.45c0 4.19-.003 8.383-.01 12.58a.675.675 0 00.42.72 3.26 3.26 0 11-3.04.03.756.756 0 00.46-.8c-.01-4.35-.02-8.69 0-13.03a.665.665 0 00-.53-.72c-1.47-.62-2.92-1.3-4.37-1.95-.14-.07-.28-.15-.52-.29v.67c0 4.411-.003 8.82-.01 13.23a1.176 1.176 0 01-1.4 1.4c-.86 0-1.72.01-2.58-.01a.721.721 0 00-.76.44 3.185 3.185 0 01-3.45 1.67 3.252 3.252 0 01-.64-6.21 3.216 3.216 0 014.1 1.5.671.671 0 00.72.44c.59-.03 1.18-.01 1.84-.01v-.58c0-4.52-.01-9.05.01-13.57a1.024 1.024 0 00-.43-.87A21.645 21.645 0 01.47 27.31C-1.19 18.29 1.58 10.77 8.64 4.9A20.767 20.767 0 0118.09.47 22.511 22.511 0 0137 5.029a1.1 1.1 0 11-1.35 1.711 19.787 19.787 0 00-8.06-3.97 20.142 20.142 0 00-18.8 4.88 19.407 19.407 0 00-6.45 12.27C.784 31.158 8.592 41.544 19.82 43.17A20.463 20.463 0 0041 32.23c3.81-7.81 3.03-15.27-2.14-22.26a2.315 2.315 0 01-.4-.72 1.022 1.022 0 01.58-1.19 1.035 1.035 0 011.33.33 37.335 37.335 0 012.38 3.63 1.61 1.61 0 001.68 1.01c6.38-.05 12.75-.03 19.12-.03A1.19 1.19 0 0165 14.45v16.64a1.172 1.172 0 01-1.42 1.42H47.14a1.152 1.152 0 01-1.23-.72 1.09 1.09 0 01.98-1.45c.5-.02.99 0 1.49 0h14.4V15.22H44.23c.2.68.39 1.35.62 2.01.143.09.312.129.48.11h13.52c1.61 0 1.82.2 1.82 1.82v7.63a1.164 1.164 0 01-1.41 1.39c-4.64 0-9.277-.003-13.91-.01a.546.546 0 00-.66.471 21.18 21.18 0 01-2.81 6.4.518.518 0 00.07.79c.94.91 1.85 1.84 2.77 2.77a.574.574 0 00.68.18 3.29 3.29 0 013.56.98c1.58 1.59 3.17 3.18 4.75 4.76l10.16 10.16a3.268 3.268 0 01-.01 4.98l-4.2 4.2a3.277 3.277 0 01-5.02-.01c-.6-.59-1.2-1.19-1.79-1.78a1.093 1.093 0 01-.11-1.66 1.122 1.122 0 011.66.12c.6.59 1.19 1.2 1.79 1.79a1.144 1.144 0 001.91.02c1.44-1.43 2.873-2.867 4.3-4.31a1.078 1.078 0 000-1.73c-2.43-2.45-4.87-4.88-7.31-7.32a1.154 1.154 0 00-.15-.131zm-9.66-22.891h13.17v-6.4H45.29c.04.54.1 1.05.11 1.56a.5.5 0 00.63.57c1.57-.03 3.14-.04 4.7 0 .37.026.723.166 1.01.4a.884.884 0 01.16 1.1 1.078 1.078 0 01-1.07.66c-1.61 0-3.23.02-4.85-.01a.477.477 0 00-.59.56c-.01.511-.07 1.011-.11 1.56zm4.83 18.161c-.99-1.02-2-2.1-3.07-3.13a.978.978 0 00-1.42.15c-1.5 1.48-2.993 2.97-4.48 4.47a1.065 1.065 0 00.01 1.66c.49.5 1 1 1.49 1.51.48.49.94 1 1.37 1.45 2.1-2.11 4.12-4.12 6.1-6.11zM47.2 53.2c1.98-1.99 4-4 6.11-6.11-.38-.35-.81-.71-1.2-1.1a.366.366 0 00-.64 0c-1.4 1.42-2.81 2.83-4.23 4.23-.51.51-1.04 1-1.53 1.48.55.55 1.03 1.04 1.49 1.5zm-6.94-9.971c1-.98 2-1.97 2.95-2.91-.97-.99-1.96-2-2.81-2.87-1 .98-2 1.97-3.01 2.96.91.891 1.9 1.871 2.87 2.82zM18.4 61.75a1.075 1.075 0 10-2.15.02c.01.589.491 1.061 1.08 1.06a1.101 1.101 0 001.07-1.08zm14.12-6.48a1.079 1.079 0 00-1.1 1.04c-.004.59.46 1.077 1.05 1.1a1.07 1.07 0 10.05-2.14zm-29.3 2.14a1.07 1.07 0 10.04-2.14 1.07 1.07 0 00-.04 2.14zm37.99-34.64a18.438 18.438 0 01-14.17 17.88 18.026 18.026 0 01-15.33-3.15 1.302 1.302 0 01-.69-1.13 1.09 1.09 0 011.76-.8c.77.5 1.51 1.07 2.32 1.5 7.912 4.221 17.749 1.229 21.97-6.684 4.221-7.912 1.229-17.749-6.684-21.97S12.637 7.187 8.416 15.1a16.259 16.259 0 00-1.336 3.36 15.8 15.8 0 002.59 13.91c.1.15.22.29.31.44a1.07 1.07 0 01-.3 1.45 1.057 1.057 0 01-1.43-.18 19.017 19.017 0 01-1.38-1.99c-5.148-8.771-2.212-20.055 6.559-25.203s20.055-2.212 25.203 6.559A18.407 18.407 0 0141 20.3c.11.82.14 1.64.21 2.47zm-28.16-5.411c-.45 5.43 1.03 10.06 5.37 13.54 1.3 1.04 2.61 2.07 3.9 3.13a.543.543 0 00.84.02c1.43-1.19 2.93-2.31 4.34-3.52a13.74 13.74 0 004.89-9.46c.02-.2.04-.4.07-.59a1.07 1.07 0 011.171-.97 1.1 1.1 0 01.991 1.199l-.001.011a16.34 16.34 0 01-6.26 11.94c-1.58 1.26-3.14 2.52-4.72 3.78a1.16 1.16 0 01-1.8 0c-2.01-1.64-4.1-3.18-6-4.94a15.523 15.523 0 01-5.01-11.31c-.04-1.26-.02-2.51-.01-3.76a1.116 1.116 0 011.25-1.26 13.6 13.6 0 009.8-3.92 1.1 1.1 0 011.74 0 13.727 13.727 0 009.85 3.93 1.089 1.089 0 11.03 2.169 15.613 15.613 0 01-10.3-3.57.556.556 0 00-.87-.02 15.751 15.751 0 01-8.91 3.56c-.111.012-.231.032-.361.041zm9.65 9.82a4.272 4.272 0 01-.74-.43 180.53 180.53 0 01-3.19-3.18 1.05 1.05 0 01-.05-1.549 1.08 1.08 0 011.59.02c.71.69 1.42 1.39 2.1 2.11.26.27.41.25.67-.01 1.39-1.41 2.79-2.811 4.2-4.2a1.077 1.077 0 011.88.31c.163.397.059.854-.26 1.14-1.79 1.8-3.58 3.6-5.4 5.38a3.166 3.166 0 01-.8.409zm31.47-4.41a1.08 1.08 0 112.16-.03 1.087 1.087 0 01-1.05 1.1 1.063 1.063 0 01-1.109-1.013l-.001-.057z"/></svg>