<svg width="90" height="90" viewBox="0 0 90 90" fill="none" xmlns="http://www.w3.org/2000/svg">
<circle cx="45" cy="45" r="45" fill="white"/>
<path d="M32.3312 44.6575C32.3312 52.0077 38.3614 57.9876 45.7735 57.9876C53.1855 57.9876 59.2157 52.0077 59.2157 44.6575C59.2157 40.2157 57.0266 36.173 53.4548 33.7158V44.6575C53.4548 45.2942 53.1338 45.8888 52.5996 46.242L46.8386 50.0506C46.1935 50.4771 45.3533 50.4771 44.7082 50.0506L38.9473 46.242C38.413 45.8888 38.0921 45.2943 38.0921 44.6575V33.7158C34.5204 36.173 32.3312 40.2157 32.3312 44.6575Z" fill="#438D90"/>
<path d="M49.6141 77.1579V61.3694C48.3784 61.6486 47.0931 61.7966 45.7734 61.7966C44.4538 61.7966 43.1685 61.6486 41.9328 61.3694V77.1579H49.6141Z" fill="#438D90"/>
<path d="M77.0845 37.0954L71.0653 35.6302C70.7809 34.8569 70.4533 34.0828 70.0846 33.3139L73.2196 28.1324C73.6729 27.3831 73.5539 26.4239 72.9308 25.8061L64.7835 17.7268C64.1606 17.1089 63.1932 16.9908 62.4377 17.4404L57.2126 20.5493C56.4372 20.1837 55.6566 19.8587 54.8767 19.5767L53.3993 13.608C53.1886 12.7566 52.4187 12.1577 51.5345 12.1577H40.0125C39.1283 12.1577 38.3584 12.7566 38.1476 13.608L36.6703 19.5767C35.8904 19.8587 35.1098 20.1837 34.3344 20.5493L29.1093 17.4404C28.3539 16.9908 27.3865 17.1089 26.7635 17.7268L18.6162 25.8061C17.9931 26.4239 17.874 27.3831 18.3274 28.1324L21.4623 33.3139C21.0936 34.0828 20.766 34.8569 20.4817 35.6302L14.4625 37.0954C13.6039 37.3045 13 38.068 13 38.9448V50.3706C13 51.2475 13.6039 52.011 14.4625 52.2201L20.4817 53.6852C20.766 54.4585 21.0936 55.2327 21.4623 56.0015L18.3274 61.1831C17.874 61.9324 17.9931 62.8915 18.6162 63.5094L26.7635 71.5887C27.3865 72.2065 28.3537 72.3246 29.1093 71.8751L34.3344 68.7661C35.1098 69.1317 35.8904 69.4567 36.6703 69.7387L38.0922 75.4836V60.0075C32.4064 57.1981 28.4906 51.3733 28.4906 44.6577C28.4906 41.1833 29.5381 37.8347 31.5196 34.9744C33.4526 32.1842 36.1396 30.0388 39.2901 28.7704C39.8821 28.532 40.5551 28.6013 41.085 28.9553C41.6151 29.3091 41.9328 29.9013 41.9328 30.5349V43.6387L45.7735 46.1777L49.6141 43.6387V30.5348C49.6141 29.9012 49.9319 29.3091 50.462 28.9551C50.992 28.6013 51.6649 28.532 52.2569 28.7703C55.4074 30.0387 58.0945 32.1841 60.0274 34.9742C62.0089 37.8347 63.0564 41.1833 63.0564 44.6577C63.0564 51.3733 59.1406 57.1981 53.4548 60.0075V75.4836L54.8767 69.7386C55.6566 69.4566 56.4372 69.1316 57.2126 68.766L62.4377 71.8749C63.1931 72.3246 64.1604 72.2065 64.7835 71.5885L72.9308 63.5092C73.5539 62.8914 73.6729 61.9322 73.2196 61.1829L70.0846 56.0014C70.4533 55.2325 70.7809 54.4584 71.0653 53.6851L77.0845 52.2199C77.9431 52.011 78.547 51.2475 78.547 50.3706V38.9448C78.547 38.068 77.9431 37.3045 77.0845 37.0954Z" fill="#438D90"/>
</svg>
