<svg width="90" height="90" viewBox="0 0 90 90" fill="none" xmlns="http://www.w3.org/2000/svg">
<circle cx="45" cy="45" r="45" fill="white"/>
<g clip-path="url(#clip0)">
<path d="M44.7865 36.7537C44.5808 36.5271 44.3752 36.4138 44.1697 36.4138H42.1478V39.0638H44.2554C44.461 39.0638 44.6523 38.9478 44.8294 38.7151C45.0064 38.4828 45.095 38.1573 45.095 37.7388C45.0948 37.3088 44.9921 36.9803 44.7865 36.7537Z" fill="#F16B24"/>
<path d="M17.2835 22.4436V58.7654H72.5973V22.4436H17.2835ZM36.7934 44.2768C36.4219 44.6372 35.9993 44.9393 35.5254 45.1833C35.0512 45.4275 34.5428 45.6136 34.0004 45.7413C33.4577 45.869 32.9296 45.9331 32.4155 45.9331C31.513 45.9331 30.6876 45.75 29.9395 45.3839C29.1912 45.0178 28.5457 44.5327 28.0034 43.9281C27.4606 43.3238 27.0409 42.6379 26.744 41.8709C26.4469 41.1037 26.2986 40.3252 26.2986 39.5347C26.2986 38.7793 26.4383 38.0354 26.7184 37.3031C26.9981 36.5708 27.4065 35.9143 27.9435 35.3329C28.4802 34.7518 29.1313 34.2811 29.8967 33.9208C30.6619 33.5606 31.5357 33.3804 32.5183 33.3804C33.6946 33.3804 34.7141 33.6274 35.5768 34.1214C36.439 34.6155 37.0816 35.2694 37.5044 36.0828L34.9514 37.9309C34.8371 37.6289 34.6859 37.3789 34.4974 37.1812C34.309 36.9837 34.1004 36.8268 33.8721 36.7105C33.6434 36.5946 33.4066 36.5129 33.161 36.4663C32.9152 36.42 32.6783 36.3965 32.4498 36.3965C31.9701 36.3965 31.5559 36.4924 31.2077 36.6842C30.8591 36.8759 30.5737 37.1261 30.3509 37.4339C30.1282 37.7418 29.9624 38.0906 29.8541 38.4799C29.7454 38.8696 29.6912 39.2559 29.6912 39.6393C29.6912 40.0695 29.754 40.4821 29.8798 40.8771C30.0053 41.2723 30.1882 41.621 30.4281 41.9232C30.668 42.2254 30.962 42.4667 31.3106 42.6467C31.6588 42.8269 32.0501 42.9168 32.4841 42.9168C32.7126 42.9168 32.9468 42.8907 33.1867 42.8384C33.4266 42.7861 33.6578 42.699 33.8807 42.577C34.1035 42.4548 34.3031 42.2981 34.4804 42.1062C34.6573 41.9144 34.7975 41.679 34.9003 41.4001L37.6246 43.0565C37.4415 43.5097 37.1644 43.9167 36.7934 44.2768ZM45.5404 45.8286V45.8285L43.3985 42.0279H42.1476V45.8285H38.8065V33.4501H44.3923C44.9862 33.4501 45.5344 33.5751 46.0371 33.825C46.5398 34.0751 46.9711 34.4003 47.331 34.8012C47.6908 35.2023 47.9734 35.6615 48.179 36.1785C48.3846 36.6957 48.4874 37.2159 48.4874 37.7389C48.4874 38.4598 48.3332 39.131 48.0248 39.7526C47.7165 40.3745 47.288 40.8832 46.7397 41.2781L49.3099 45.8285H45.5404V45.8286ZM59.573 45.8285V39.3081L57.534 43.8932H55.7521L53.713 39.3079V45.8284H50.3719V33.4499H54.0215L56.643 39.273L59.2817 33.4499H62.914V45.8285H59.573Z" fill="#F16B24"/>
<path d="M76.8808 62.7449H13V68.5564H76.8808V62.7449Z" fill="#F16B24"/>
</g>
<defs>
<clipPath id="clip0">
<rect width="63.8808" height="65" fill="white" transform="translate(13 13)"/>
</clipPath>
</defs>
</svg>
