<svg width="90" height="90" viewBox="0 0 90 90" fill="none" xmlns="http://www.w3.org/2000/svg">
<circle cx="45" cy="45" r="45" fill="white"/>
<g clip-path="url(#clip0)">
<path d="M45.4079 10.105C41.2069 10.105 37.6638 13.6481 37.6638 17.8491C37.6638 22.0501 41.2069 25.5932 45.4079 25.5932C49.6089 25.5932 53.0251 22.0501 53.0251 17.8491C53.0251 13.6481 49.6089 10.105 45.4079 10.105Z" fill="#F16B24"/>
<path d="M53.862 25.5933C51.7692 27.9138 48.7717 29.4018 45.4079 29.4018C42.0442 29.4018 38.9198 27.9138 36.8269 25.5933C34.9998 27.6193 33.8552 30.2735 33.8552 33.2104V35.1147C33.8552 36.1673 34.707 37.019 35.7595 37.019H54.9294C55.982 37.019 56.8337 36.1673 56.8337 35.1147V33.2104C56.8337 30.2735 55.6891 27.6193 53.862 25.5933Z" fill="#F16B24"/>
<path d="M29.4015 68.5546L19.6971 49.0984C18.7601 47.2196 16.4795 46.4535 14.5984 47.3854L12.062 48.6419C11.1176 49.1102 10.7333 50.258 11.2047 51.2007L22.6305 74.0523C23.1003 74.9946 24.2433 75.3697 25.1801 74.9077L27.6838 73.6672C29.5723 72.7318 30.342 70.4405 29.4015 68.5546Z" fill="#F16B24"/>
<path d="M74.4422 41.5513C72.8805 40.4087 70.7096 40.6372 69.4148 42.0464L59.0047 54.8433C58.2811 55.605 56.91 56.062 56.1863 56.062H47.3122C46.2457 56.062 45.4079 55.2243 45.4079 54.1577C45.4079 53.0912 46.2457 52.2534 47.3122 52.2534C49.8627 52.2534 52.6864 52.2534 54.9294 52.2534C57.0241 52.2534 58.738 50.5396 58.738 48.4449C58.738 46.3501 57.0241 44.6363 54.9294 44.6363C45.9861 44.6363 54.5168 44.6363 44.9509 44.6363C44.0018 44.6363 43.5285 44.0344 42.78 43.3793C39.8335 40.7279 35.4232 39.4505 30.9583 40.4854C28.4791 41.06 26.8073 42.0615 25.1117 43.4044L25.0552 43.3586L22.3008 45.7826L33.1254 67.4878H36.3307H54.9294C58.5095 67.4878 61.9373 65.7739 64.0701 62.9175L75.2418 46.9214C76.4987 45.2455 76.1559 42.8083 74.4422 41.5513Z" fill="#F16B24"/>
</g>
<defs>
<clipPath id="clip0">
<rect width="65" height="65" fill="white" transform="translate(11 10.105)"/>
</clipPath>
</defs>
</svg>
