<svg width="90" height="90" viewBox="0 0 90 90" fill="none" xmlns="http://www.w3.org/2000/svg">
<circle cx="45" cy="45" r="45" fill="white"/>
<g clip-path="url(#clip0)">
<path d="M60.5 46.25C60.5 55.2246 53.2246 62.5 44.25 62.5C35.2754 62.5 28 55.2246 28 46.25C28 37.2754 35.2754 30 44.25 30C53.2246 30 60.5 37.2754 60.5 46.25Z" fill="#438D90"/>
<path d="M74.0455 36.6364H69.5766C69.2638 35.7526 68.9038 34.8847 68.4978 34.0372L71.6592 30.8758C72.813 29.7219 72.813 27.8513 71.6594 26.6975L63.3027 18.3406C62.7486 17.7866 61.997 17.4752 61.2135 17.4752C60.4299 17.4752 59.6785 17.7864 59.1244 18.3406L55.9628 21.502C55.1151 21.096 54.2476 20.7362 53.3636 20.4234V15.9545C53.3636 14.3228 52.0408 13 50.4091 13H38.5909C36.9592 13 35.6364 14.3228 35.6364 15.9545V20.4234C34.7524 20.7362 33.8847 21.0962 33.0373 21.502L29.8758 18.3406C28.7221 17.1868 26.8513 17.1868 25.6975 18.3406L17.3406 26.6975C16.1868 27.8513 16.1868 29.7219 17.3406 30.8758L20.502 34.0373C20.0962 34.8849 19.7364 35.7524 19.4236 36.6364H14.9545C13.3228 36.6364 12 37.9592 12 39.5909V51.4091C12 53.0408 13.3228 54.3636 14.9545 54.3636H19.4236C19.7364 55.2474 20.0964 56.1153 20.502 56.9627L17.3406 60.1242C16.7866 60.6783 16.4752 61.4297 16.4752 62.2133C16.4752 62.997 16.7864 63.7485 17.3406 64.3025L25.6977 72.6592C26.8515 73.8128 28.7221 73.8128 29.8758 72.6592L33.0375 69.498C33.8853 69.9038 34.7526 70.2638 35.6364 70.5766V75.0455C35.6364 76.6772 36.9592 78 38.5909 78H50.4091C52.0408 78 53.3636 76.6772 53.3636 75.0455V70.5764C54.2476 70.2636 55.1153 69.9038 55.9628 69.4978L59.1246 72.6592C60.2783 73.8128 62.1489 73.813 63.3027 72.659L71.6594 64.3023C72.8132 63.1485 72.8132 61.2779 71.6594 60.124L68.498 56.9627C68.904 56.1151 69.264 55.2474 69.5768 54.3634H74.0455C75.6772 54.3634 77 53.0406 77 51.4089V39.5907C77 37.9592 75.6772 36.6364 74.0455 36.6364ZM71.0909 48.4545H67.3916C66.0432 48.4545 64.8661 49.3673 64.5302 50.6732C64.0506 52.5383 63.3065 54.3315 62.3189 56.0028C61.633 57.1636 61.8199 58.6416 62.7735 59.595L65.392 62.2135L61.2137 66.3918L58.595 63.7735C57.6418 62.8203 56.164 62.6332 55.0034 63.3189C53.3321 64.3061 51.5385 65.0502 49.6728 65.5306C48.3671 65.8665 47.4545 67.0436 47.4545 68.3918V72.0909H41.5455V68.3918C41.5455 67.0438 40.6329 65.8667 39.3274 65.5306C37.4619 65.0504 35.6687 64.3063 33.997 63.3189C32.836 62.633 31.3586 62.8201 30.4054 63.7735L27.7867 66.3918L23.608 62.2133L26.2265 59.5948C27.1801 58.6414 27.367 57.1636 26.6811 56.0028C25.6939 54.3319 24.95 52.5385 24.4696 50.6726C24.1337 49.3671 22.9564 48.4545 21.6084 48.4545H17.9091V42.5455H21.6084C22.9564 42.5455 24.1335 41.6329 24.4696 40.3274C24.9498 38.4613 25.6939 36.6679 26.6811 34.997C27.367 33.8362 27.1801 32.3584 26.2265 31.405L23.6082 28.7865L27.7867 24.6082L30.4052 27.2265C31.3586 28.1799 32.8366 28.367 33.9972 27.6811C35.6683 26.6937 37.4619 25.9498 39.3276 25.4694C40.6329 25.1335 41.5455 23.9564 41.5455 22.6082V18.9091H47.4545V22.6082C47.4545 23.9562 48.3671 25.1333 49.6726 25.4694C51.5387 25.9498 53.3321 26.6937 55.0032 27.6811C56.1642 28.3668 57.6418 28.1799 58.5952 27.2265L61.2137 24.6082L65.392 28.7865L62.7735 31.405C61.8199 32.3584 61.633 33.8364 62.3189 34.9972C63.3065 36.6683 64.0504 38.4615 64.5302 40.3268C64.8661 41.6325 66.0434 42.5453 67.3916 42.5453H71.0909V48.4545Z" fill="#438D90"/>
<path d="M49.6686 39.8656L42.894 46.6399L41.0437 44.7898C39.8901 43.636 38.0192 43.636 36.8654 44.7898C35.7115 45.9437 35.7115 47.8143 36.8654 48.9681L40.8048 52.9075C41.3817 53.4844 42.1379 53.7728 42.894 53.7728C43.6502 53.7728 44.4064 53.4844 44.9831 52.9073L53.8467 44.0437C55.0006 42.8898 55.0006 41.0192 53.8467 39.8654C52.6931 38.7115 50.8223 38.7115 49.6686 39.8656Z" fill="white"/>
</g>
<defs>
<clipPath id="clip0">
<rect width="65" height="65" fill="white" transform="translate(12 13.105)"/>
</clipPath>
</defs>
</svg>
