<svg width="76" height="84" viewBox="0 0 76 84" fill="none" xmlns="http://www.w3.org/2000/svg">
<g clip-path="url(#clip0)">
<path d="M35.4531 17.7578V32.279C37.167 31.6697 38.7824 31.916 40.1379 32.8233L47.3271 38.2103C48.6386 39.0773 49.5156 40.7183 49.5156 42.4844C49.5156 44.2509 48.6386 45.892 47.1673 46.8721L40.2958 52.0324C38.6501 53.1421 37.0699 53.2638 35.4531 52.6893C35.4531 53.24 35.4531 64.0652 35.4531 63.6954C35.4531 64.6672 36.2391 65.4532 37.2109 65.4532H53.0313V28.3047C53.0313 26.5418 53.9308 24.877 55.3952 23.907L65.9375 16H37.2109C36.2391 16 35.4531 16.7864 35.4531 17.7578Z" fill="#606161"/>
<path d="M74.125 17.7578C74.125 17.1247 73.7849 16.541 73.2337 16.2284C72.6826 15.9162 72.0065 15.9244 71.4622 16.2508L57.3997 26.7977C56.871 27.1149 56.5469 27.6867 56.5469 28.3047V74.2422C56.5469 74.8758 56.8865 75.4594 57.4377 75.7716C57.9875 76.0833 58.664 76.076 59.2092 75.7496L73.2717 65.2027C73.8005 64.8851 74.125 64.3133 74.125 63.6953V17.7578ZM61.8235 51.2734C60.8526 51.2734 60.0657 50.4865 60.0657 49.5156C60.0657 48.5447 60.8526 47.7578 61.8235 47.7578C62.7944 47.7578 63.5813 48.5447 63.5813 49.5156C63.5813 50.4865 62.7944 51.2734 61.8235 51.2734Z" fill="#606161"/>
<path d="M19.6328 46.0003H35.4531V47.7581C35.4531 48.4072 35.8102 49.0028 36.3819 49.3086C36.9454 49.6107 37.6408 49.5841 38.186 49.2207L45.2172 43.9472C45.7066 43.6213 46 43.072 46 42.4851C46 41.8978 45.7066 41.3485 45.2172 41.0226L38.186 35.7478C37.6486 35.3893 36.9519 35.3564 36.3819 35.6603C35.8102 35.9661 35.4531 36.5617 35.4531 37.2108V38.9695H19.6328C18.661 38.9695 17.875 39.7555 17.875 40.7273V44.243C17.875 45.2143 18.661 46.0003 19.6328 46.0003Z" fill="#606161"/>
</g>
<path d="M42 82C19.9086 82 2 64.0914 2 42C2 19.9086 19.9086 2 42 2" stroke="#F16B24" stroke-width="4"/>
<defs>
<clipPath id="clip0">
<rect width="60" height="60" fill="white" transform="translate(16 16)"/>
</clipPath>
</defs>
</svg>
