<svg width="90" height="90" viewBox="0 0 90 90" fill="none" xmlns="http://www.w3.org/2000/svg">
<circle cx="45" cy="45" r="45" fill="white"/>
<path d="M76.0957 38.814H70.2559C69.2033 38.814 68.3516 39.6657 68.3516 40.7183C68.3516 41.7708 69.2033 42.6226 70.2559 42.6226H76.0957C77.1483 42.6226 78 41.7708 78 40.7183C78 39.6657 77.1483 38.814 76.0957 38.814Z" fill="#F16B24"/>
<path d="M73.5066 50.7976L69.698 46.989C68.9542 46.2452 67.749 46.2452 67.0052 46.989C66.2614 47.7328 66.2612 48.938 67.0052 49.6818L70.8138 53.4904C71.5576 54.2342 72.7628 54.2342 73.5066 53.4904C74.2504 52.7466 74.2504 51.5414 73.5066 50.7976Z" fill="#F16B24"/>
<path d="M73.5065 27.946C72.7627 27.2022 71.5575 27.2022 70.8137 27.946L67.0051 31.7546C66.2613 32.4985 66.2613 33.7036 67.0051 34.4474C67.7489 35.1913 68.9541 35.1914 69.6979 34.4474L73.5065 30.6389C74.2503 29.895 74.2503 28.6899 73.5065 27.946Z" fill="#F16B24"/>
<path d="M26.457 27.3882C23.9776 27.3882 21.8837 28.985 21.0949 31.1968H20.7441C16.5431 31.1968 13 34.613 13 38.814C13 43.015 16.5431 46.4312 20.7441 46.4312H21.0949C21.8837 48.6429 23.9776 50.2397 26.457 50.2397H35.9785V27.3882H26.457Z" fill="#F16B24"/>
<path d="M58.8301 15.9624C56.7266 15.9624 55.0215 17.6675 55.0215 19.771V57.8569C55.0215 59.9602 56.7266 61.6655 58.8301 61.6655C60.9336 61.6655 62.6387 59.9602 62.6387 57.8569V19.771C62.6387 17.6675 60.9336 15.9624 58.8301 15.9624Z" fill="#F16B24"/>
<path d="M26.457 54.0484C25.805 54.0484 25.1683 53.9813 24.5527 53.8557V63.5699C24.5527 66.7201 27.1154 69.2828 30.2656 69.2828C33.4158 69.2828 35.9785 66.7201 35.9785 63.5699V54.0484H26.457Z" fill="#F16B24"/>
<path d="M49.5391 22.5605C46.8833 25.2163 43.4638 26.7784 39.7871 27.2023V50.4257C43.4639 50.8494 46.8834 52.4116 49.5391 55.0675L51.2129 56.7411V20.8867L49.5391 22.5605Z" fill="#F16B24"/>
</svg>
