<svg width="90" height="90" viewBox="0 0 90 90" fill="none" xmlns="http://www.w3.org/2000/svg">
<circle cx="45" cy="45" r="45" fill="white"/>
<path d="M70.3706 47.2405H68.1681C67.5598 47.2405 67.0668 47.7464 67.0668 48.3705V55.1506C67.0668 55.7746 67.5598 56.2806 68.1681 56.2806H70.3706C70.9789 56.2806 71.4719 55.7746 71.4719 55.1506V48.3705C71.4719 47.7464 70.9789 47.2405 70.3706 47.2405Z" fill="#438D90"/>
<path d="M70.3706 24.6401H68.1681C67.5598 24.6401 67.0668 25.1461 67.0668 25.7701V32.5502C67.0668 33.1743 67.5598 33.6802 68.1681 33.6802H70.3706C70.9789 33.6802 71.4719 33.1743 71.4719 32.5502V25.7701C71.4719 25.1461 70.9789 24.6401 70.3706 24.6401Z" fill="#438D90"/>
<path d="M50.0311 44.6416C52.277 43.6851 53.3428 41.0423 52.4123 38.7371C51.4818 36.4319 48.9069 35.3364 46.6596 36.2896C44.4124 37.2427 43.3429 39.884 44.2702 42.1906C45.2022 44.4989 47.7806 45.5959 50.0311 44.6416Z" fill="white"/>
<path d="M25.4018 74.9502C25.4018 76.1984 26.388 77.2102 27.6044 77.2102H38.4334C39.6498 77.2102 40.6359 76.1984 40.6359 74.9502V72.6902H25.4018V74.9502Z" fill="#438D90"/>
<path d="M56.054 74.9502C56.054 76.1984 57.0401 77.2102 58.2566 77.2102H69.0855C70.302 77.2102 71.2881 76.1984 71.2881 74.9502V72.6902H56.054V74.9502Z" fill="#438D90"/>
<path d="M24.3039 12.3102H72.5733C74.3403 12.3102 75.7771 13.7808 75.7771 15.6002V65.3207C75.7771 67.1402 74.3403 68.6108 72.5733 68.6108H24.3039C22.5368 68.6108 21.1 67.1402 21.1 65.3207V15.6002C21.1 13.7808 22.5368 12.3102 24.3039 12.3102ZM70.4707 22.2818V21.2503C70.4707 19.3252 68.9492 17.7603 67.0668 17.7603H29.6231C27.7408 17.7603 26.2192 19.3252 26.2192 21.2503V43.8505C26.2192 44.5274 26.7546 45.0805 27.4205 45.0805C28.0864 45.0805 28.6218 44.5274 28.6218 43.8505V21.2503C28.6218 20.679 29.0725 20.2203 29.6231 20.2203H67.0668C67.6174 20.2203 68.0681 20.679 68.0681 21.2503V22.2818C66.2322 22.336 64.7643 23.8795 64.7643 25.7703V32.5504C64.7643 34.4412 66.2322 35.9847 68.0681 36.039V44.882C66.2322 44.9363 64.7643 46.4797 64.7643 48.3706V55.1506C64.7643 57.0415 66.2322 58.5849 68.0681 58.6392V59.6707C68.0681 60.242 67.6174 60.7007 67.0668 60.7007H29.6231C29.0725 60.7007 28.6218 60.242 28.6218 59.6707V49.5006C28.6218 48.8237 28.0864 48.2706 27.4205 48.2706C26.7546 48.2706 26.2192 48.8237 26.2192 49.5006V59.6707C26.2192 61.5957 27.7408 63.1607 29.6231 63.1607H67.0668C68.9492 63.1607 70.4707 61.5957 70.4707 59.6707V58.6392C72.3066 58.5849 73.7746 57.0415 73.7746 55.1506V48.3706C73.7746 46.4797 72.3066 44.9363 70.4707 44.882V36.039C72.3066 35.9847 73.7746 34.4412 73.7746 32.5504V25.7703C73.7746 23.8795 72.3066 22.336 70.4707 22.2818ZM59.4174 32.8727C55.8887 27.454 49.1192 25.346 43.2488 27.8411C39.9802 29.2192 37.3857 31.8818 36.0433 35.2342C33.6133 41.2535 35.665 48.197 40.9467 51.8182C46.2293 55.4401 53.2699 54.7283 57.7618 50.1192C62.2529 45.5111 62.9456 38.2906 59.4174 32.8727Z" fill="#438D90" stroke="white" stroke-width="0.2"/>
<path d="M38.7637 43.309C39.129 43.1441 39.5526 43.1948 39.8711 43.4416C40.1895 43.6885 40.3529 44.0927 40.2982 44.4983C40.2434 44.9039 39.9791 45.2474 39.6073 45.3962L38.6404 45.8075C39.659 47.7667 41.2222 49.3711 43.1314 50.4168L43.5323 49.4235C43.6772 49.042 44.012 48.7708 44.4073 48.7146C44.8026 48.6585 45.1966 48.8261 45.4371 49.1529C45.6776 49.4796 45.7271 49.9143 45.5663 50.2891L45.1666 51.2813C47.2371 51.9276 49.4482 51.9276 51.5188 51.2813L51.119 50.2891C50.9583 49.9143 51.0077 49.4796 51.2483 49.1529C51.4888 48.8261 51.8828 48.6585 52.2781 48.7146C52.6734 48.7708 53.0082 49.042 53.1531 49.4235L53.554 50.4157C55.4634 49.3704 57.027 47.7665 58.0461 45.8075L57.0781 45.3962C56.7063 45.2474 56.442 44.9039 56.3872 44.4983C56.3325 44.0927 56.4959 43.6885 56.8143 43.4416C57.1328 43.1948 57.5564 43.1441 57.9217 43.309L58.8886 43.7192C59.5185 41.5947 59.5185 39.3259 58.8886 37.2013L57.9217 37.6115C57.5564 37.7765 57.1328 37.7257 56.8143 37.4789C56.4959 37.2321 56.3325 36.8278 56.3872 36.4222C56.442 36.0166 56.7063 35.6731 57.0781 35.5244L58.045 35.1131C57.0264 33.1538 55.4632 31.5495 53.554 30.5037L53.1531 31.497C53.0082 31.8785 52.6734 32.1498 52.2781 32.2059C51.8828 32.2621 51.4888 32.0944 51.2483 31.7677C51.0077 31.4409 50.9583 31.0062 51.119 30.6314L51.5188 29.6393C49.4482 28.993 47.2371 28.993 45.1666 29.6393L45.5663 30.6314C45.7271 31.0062 45.6776 31.4409 45.4371 31.7677C45.1966 32.0944 44.8026 32.2621 44.4073 32.2059C44.012 32.1498 43.6772 31.8785 43.5323 31.497L43.1314 30.5049C41.222 31.5501 39.6584 33.1541 38.6393 35.1131L39.6073 35.5244C39.9791 35.6731 40.2434 36.0166 40.2982 36.4222C40.3529 36.8278 40.1895 37.2321 39.8711 37.4789C39.5526 37.7257 39.129 37.7765 38.7637 37.6115L37.7968 37.2013C37.1669 39.3259 37.1669 41.5947 37.7968 43.7192L38.7637 43.309ZM45.8119 34.1966C49.1826 32.7624 53.0482 34.4031 54.4465 37.8615C55.8447 41.3198 54.2462 45.2865 50.876 46.7217C47.5057 48.1569 43.6396 46.5173 42.2405 43.0593C40.844 39.6 42.4423 35.6338 45.8119 34.1966Z" fill="#438D90"/>
</svg>
